G04 EAGLE Gerber RS-274X export*
G75*
%MOMM*%
%FSLAX34Y34*%
%LPD*%
%INBottom Copper*%
%IPPOS*%
%AMOC8*
5,1,8,0,0,1.08239X$1,22.5*%
G01*
%ADD10C,1.879600*%
%ADD11C,2.184400*%
%ADD12R,2.032000X2.032000*%
%ADD13C,2.032000*%
%ADD14C,1.651000*%
%ADD15C,0.152400*%
%ADD16C,0.756400*%


D10*
X457200Y139700D03*
X457200Y165100D03*
X482600Y139700D03*
X482600Y165100D03*
X508000Y139700D03*
X508000Y165100D03*
D11*
X297400Y139700D03*
X262400Y139700D03*
X261400Y241300D03*
X296400Y241300D03*
D12*
X698500Y520700D03*
D13*
X733500Y520700D03*
D10*
X444500Y723900D03*
X469900Y723900D03*
X495300Y723900D03*
X520700Y723900D03*
D14*
X279400Y355600D03*
X279400Y406400D03*
X508000Y254000D03*
X457200Y254000D03*
D10*
X736600Y660400D03*
X736600Y685800D03*
X736600Y711200D03*
X736600Y406400D03*
X736600Y431800D03*
X736600Y457200D03*
D15*
X525463Y585788D02*
X525463Y723900D01*
X520700Y723900D01*
X525463Y585788D02*
X422275Y585788D01*
X385763Y585788D02*
X361950Y609600D01*
X385763Y585788D02*
X422275Y585788D01*
X441325Y358775D02*
X495300Y358775D01*
X574675Y358775D02*
X574675Y331788D01*
X574675Y290513D01*
X574675Y358775D02*
X495300Y358775D01*
X496888Y360363D01*
X450850Y406400D01*
X374650Y184150D02*
X393700Y165100D01*
X406400Y165100D02*
X457200Y165100D01*
X406400Y165100D02*
X393700Y165100D01*
X574675Y331788D02*
X608013Y331788D01*
X538163Y573088D02*
X525463Y585788D01*
X538163Y573088D02*
X590550Y573088D01*
D16*
X525463Y585788D03*
X422275Y585788D03*
X361950Y609600D03*
X496888Y360363D03*
X441325Y358775D03*
X574675Y290513D03*
X450850Y406400D03*
X374650Y184150D03*
X608013Y331788D03*
X590550Y573088D03*
X406400Y165100D03*
D15*
X495300Y152400D02*
X573088Y152400D01*
X495300Y152400D02*
X482600Y139700D01*
D16*
X630238Y252413D03*
X588963Y211138D03*
X584200Y165100D03*
D15*
X584200Y163513D01*
X573088Y152400D01*
X588963Y211138D02*
X630238Y252413D01*
X563563Y334963D02*
X512763Y284163D01*
X511175Y284163D01*
D16*
X563563Y334963D03*
X511175Y284163D03*
D15*
X554038Y401638D02*
X555625Y403225D01*
X584200Y403225D01*
D16*
X554038Y401638D03*
X584200Y403225D03*
D15*
X495300Y271463D02*
X420688Y346075D01*
X495300Y271463D02*
X603250Y271463D01*
D16*
X420688Y346075D03*
X603250Y271463D03*
D15*
X368300Y622300D02*
X444500Y698500D01*
X444500Y723900D01*
X615950Y527050D02*
X622300Y520700D01*
X631825Y520700D02*
X698500Y520700D01*
X631825Y520700D02*
X622300Y520700D01*
X571500Y527050D02*
X563563Y534988D01*
X571500Y527050D02*
X615950Y527050D01*
X577850Y139700D02*
X508000Y139700D01*
X577850Y139700D02*
X622300Y139700D01*
X487363Y522288D02*
X490538Y525463D01*
X554038Y525463D01*
X563563Y534988D01*
D16*
X368300Y622300D03*
X615950Y527050D03*
X631825Y520700D03*
X563563Y534988D03*
X577850Y139700D03*
X487363Y522288D03*
X723900Y635000D03*
D15*
X723900Y609600D01*
X723900Y596900D01*
X698500Y571500D01*
D16*
X698500Y571500D03*
X673100Y609600D03*
D15*
X723900Y609600D01*
D16*
X622300Y127000D03*
D15*
X622300Y139700D01*
X574675Y533400D02*
X549275Y558800D01*
X574675Y533400D02*
X720725Y533400D01*
X733425Y520700D01*
X733500Y520700D01*
X301625Y201613D02*
X261938Y241300D01*
X301625Y201613D02*
X301625Y139700D01*
X297400Y139700D01*
X261938Y241300D02*
X261400Y241300D01*
X519113Y528638D02*
X549275Y558800D01*
X519113Y528638D02*
X358775Y528638D01*
D16*
X549275Y558800D03*
X358775Y528638D03*
D15*
X488950Y409575D02*
X503238Y423863D01*
X584200Y423863D01*
D16*
X488950Y409575D03*
X584200Y423863D03*
X596900Y127706D03*
D15*
X596194Y127000D01*
X568607Y127000D01*
D16*
X568607Y127000D03*
D15*
X536575Y371475D02*
X498475Y409575D01*
X536575Y371475D02*
X576263Y371475D01*
D16*
X498475Y409575D03*
X576263Y371475D03*
X406400Y190500D03*
D15*
X622300Y190500D02*
X635000Y203200D01*
X622300Y190500D02*
X406400Y190500D01*
D16*
X635000Y203200D03*
D15*
X330200Y420688D02*
X315913Y406400D01*
X279400Y406400D01*
X423863Y420688D02*
X466725Y377825D01*
X423863Y420688D02*
X330200Y420688D01*
D16*
X330200Y420688D03*
X466725Y377825D03*
D15*
X465138Y352425D02*
X479425Y338138D01*
X465138Y352425D02*
X282575Y352425D01*
X279400Y355600D01*
D16*
X479425Y338138D03*
D15*
X393700Y539750D02*
X323850Y609600D01*
X393700Y539750D02*
X508000Y539750D01*
D16*
X323850Y609600D03*
X508000Y539750D03*
D15*
X622300Y269875D02*
X595313Y242888D01*
X468313Y242888D01*
X457200Y254000D01*
D16*
X622300Y269875D03*
D15*
X354013Y265113D02*
X265113Y354013D01*
X354013Y265113D02*
X496888Y265113D01*
X508000Y254000D01*
D16*
X265113Y354013D03*
X546100Y393700D03*
D15*
X546100Y417795D01*
D16*
X546100Y417795D03*
X546100Y508000D03*
D15*
X571500Y508000D01*
X571754Y508254D01*
X738655Y508254D01*
X748284Y517883D01*
D16*
X736600Y736600D03*
D15*
X736600Y702324D01*
X748284Y690640D01*
X748284Y517883D01*
D16*
X546100Y381000D03*
D15*
X660400Y381000D01*
X736600Y457200D01*
X484188Y268288D02*
X414338Y338138D01*
X484188Y268288D02*
X565150Y268288D01*
X581025Y252413D01*
D16*
X414338Y338138D03*
X581025Y252413D03*
D15*
X508000Y277813D02*
X447675Y338138D01*
X508000Y277813D02*
X639763Y277813D01*
X639763Y288925D01*
D16*
X447675Y338138D03*
X639763Y288925D03*
D15*
X639763Y277813D02*
X639763Y223838D01*
X660400Y203200D01*
X711200Y203200D01*
D16*
X711200Y203200D03*
D15*
X395288Y177800D02*
X381000Y192088D01*
X395288Y177800D02*
X566738Y177800D01*
D16*
X381000Y192088D03*
X566738Y177800D03*
D15*
X523875Y365125D02*
X366713Y522288D01*
X523875Y365125D02*
X622300Y365125D01*
X730250Y257175D01*
D16*
X366713Y522288D03*
X673100Y76200D03*
D15*
X685800Y63500D01*
X711200Y63500D01*
X730250Y82550D01*
X730250Y257175D01*
X504825Y361950D02*
X331788Y534988D01*
X504825Y361950D02*
X587375Y361950D01*
X673100Y276225D01*
D16*
X331788Y534988D03*
D15*
X673100Y276225D02*
X673100Y254000D01*
D16*
X673100Y254000D03*
M02*
