G04 EAGLE Gerber RS-274X export*
G75*
%MOMM*%
%FSLAX34Y34*%
%LPD*%
%INTop Silkscreen*%
%IPPOS*%
%AMOC8*
5,1,8,0,0,1.08239X$1,22.5*%
G01*
%ADD10C,0.152400*%
%ADD11C,0.127000*%
%ADD12C,0.254000*%
%ADD13C,0.203200*%
%ADD14C,0.304800*%


D10*
X399881Y762762D02*
X399999Y762764D01*
X400117Y762770D01*
X400235Y762779D01*
X400352Y762793D01*
X400469Y762810D01*
X400586Y762831D01*
X400701Y762856D01*
X400816Y762885D01*
X400930Y762918D01*
X401042Y762954D01*
X401153Y762994D01*
X401263Y763037D01*
X401372Y763084D01*
X401479Y763134D01*
X401584Y763189D01*
X401687Y763246D01*
X401788Y763307D01*
X401888Y763371D01*
X401985Y763438D01*
X402080Y763508D01*
X402172Y763582D01*
X402263Y763658D01*
X402350Y763738D01*
X402435Y763820D01*
X402517Y763905D01*
X402597Y763992D01*
X402673Y764083D01*
X402747Y764175D01*
X402817Y764270D01*
X402884Y764367D01*
X402948Y764467D01*
X403009Y764568D01*
X403066Y764671D01*
X403121Y764776D01*
X403171Y764883D01*
X403218Y764992D01*
X403261Y765102D01*
X403301Y765213D01*
X403337Y765325D01*
X403370Y765439D01*
X403399Y765554D01*
X403424Y765669D01*
X403445Y765786D01*
X403462Y765903D01*
X403476Y766020D01*
X403485Y766138D01*
X403491Y766256D01*
X403493Y766374D01*
X399881Y762762D02*
X399698Y762764D01*
X399516Y762771D01*
X399334Y762782D01*
X399152Y762797D01*
X398970Y762817D01*
X398789Y762840D01*
X398609Y762869D01*
X398429Y762901D01*
X398250Y762938D01*
X398073Y762979D01*
X397896Y763025D01*
X397720Y763074D01*
X397546Y763128D01*
X397372Y763186D01*
X397201Y763248D01*
X397031Y763314D01*
X396862Y763385D01*
X396695Y763459D01*
X396530Y763537D01*
X396367Y763619D01*
X396206Y763705D01*
X396047Y763795D01*
X395890Y763889D01*
X395736Y763986D01*
X395584Y764087D01*
X395434Y764192D01*
X395287Y764300D01*
X395143Y764411D01*
X395001Y764526D01*
X394862Y764645D01*
X394726Y764767D01*
X394593Y764892D01*
X394463Y765020D01*
X394914Y775406D02*
X394916Y775524D01*
X394922Y775642D01*
X394931Y775760D01*
X394945Y775877D01*
X394962Y775994D01*
X394983Y776111D01*
X395008Y776226D01*
X395037Y776341D01*
X395070Y776455D01*
X395106Y776567D01*
X395146Y776678D01*
X395189Y776788D01*
X395236Y776897D01*
X395286Y777004D01*
X395341Y777109D01*
X395398Y777212D01*
X395459Y777313D01*
X395523Y777413D01*
X395590Y777510D01*
X395660Y777605D01*
X395734Y777697D01*
X395810Y777788D01*
X395890Y777875D01*
X395972Y777960D01*
X396057Y778042D01*
X396144Y778122D01*
X396235Y778198D01*
X396327Y778272D01*
X396422Y778342D01*
X396519Y778409D01*
X396619Y778473D01*
X396720Y778534D01*
X396823Y778592D01*
X396928Y778646D01*
X397035Y778696D01*
X397144Y778743D01*
X397254Y778787D01*
X397365Y778826D01*
X397478Y778862D01*
X397591Y778895D01*
X397706Y778924D01*
X397821Y778949D01*
X397938Y778970D01*
X398055Y778987D01*
X398172Y779001D01*
X398290Y779010D01*
X398408Y779016D01*
X398526Y779018D01*
X398687Y779016D01*
X398849Y779010D01*
X399010Y779001D01*
X399171Y778987D01*
X399331Y778970D01*
X399491Y778949D01*
X399651Y778924D01*
X399810Y778895D01*
X399968Y778863D01*
X400125Y778827D01*
X400281Y778787D01*
X400437Y778743D01*
X400591Y778695D01*
X400744Y778644D01*
X400896Y778590D01*
X401047Y778531D01*
X401196Y778470D01*
X401343Y778404D01*
X401489Y778335D01*
X401634Y778263D01*
X401776Y778187D01*
X401917Y778108D01*
X402056Y778026D01*
X402192Y777940D01*
X402327Y777851D01*
X402460Y777759D01*
X402590Y777663D01*
X396719Y772245D02*
X396618Y772307D01*
X396518Y772372D01*
X396421Y772441D01*
X396326Y772513D01*
X396233Y772587D01*
X396143Y772665D01*
X396055Y772746D01*
X395970Y772829D01*
X395888Y772915D01*
X395809Y773004D01*
X395732Y773095D01*
X395659Y773189D01*
X395588Y773285D01*
X395521Y773383D01*
X395457Y773483D01*
X395396Y773586D01*
X395339Y773690D01*
X395285Y773796D01*
X395235Y773904D01*
X395188Y774013D01*
X395144Y774124D01*
X395104Y774236D01*
X395068Y774350D01*
X395036Y774464D01*
X395007Y774580D01*
X394982Y774696D01*
X394961Y774813D01*
X394944Y774931D01*
X394930Y775049D01*
X394921Y775168D01*
X394915Y775287D01*
X394913Y775406D01*
X401687Y769535D02*
X401788Y769473D01*
X401888Y769408D01*
X401985Y769339D01*
X402080Y769267D01*
X402173Y769193D01*
X402263Y769115D01*
X402351Y769034D01*
X402436Y768951D01*
X402518Y768865D01*
X402597Y768776D01*
X402674Y768685D01*
X402747Y768591D01*
X402818Y768495D01*
X402885Y768397D01*
X402949Y768297D01*
X403010Y768194D01*
X403067Y768090D01*
X403121Y767984D01*
X403171Y767876D01*
X403218Y767767D01*
X403262Y767656D01*
X403302Y767544D01*
X403338Y767430D01*
X403370Y767316D01*
X403399Y767200D01*
X403424Y767084D01*
X403445Y766967D01*
X403462Y766849D01*
X403476Y766731D01*
X403485Y766612D01*
X403491Y766493D01*
X403493Y766374D01*
X401687Y769535D02*
X396720Y772245D01*
X410028Y773599D02*
X410028Y757343D01*
X410028Y773599D02*
X414543Y773599D01*
X414647Y773597D01*
X414750Y773591D01*
X414854Y773581D01*
X414957Y773567D01*
X415059Y773549D01*
X415160Y773528D01*
X415261Y773502D01*
X415360Y773473D01*
X415459Y773440D01*
X415556Y773403D01*
X415651Y773362D01*
X415745Y773318D01*
X415837Y773270D01*
X415927Y773219D01*
X416016Y773164D01*
X416102Y773106D01*
X416185Y773044D01*
X416267Y772980D01*
X416345Y772912D01*
X416421Y772842D01*
X416495Y772769D01*
X416565Y772692D01*
X416633Y772614D01*
X416697Y772532D01*
X416759Y772449D01*
X416817Y772363D01*
X416872Y772274D01*
X416923Y772184D01*
X416971Y772092D01*
X417015Y771998D01*
X417056Y771903D01*
X417093Y771806D01*
X417126Y771707D01*
X417155Y771608D01*
X417181Y771507D01*
X417202Y771406D01*
X417220Y771304D01*
X417234Y771201D01*
X417244Y771097D01*
X417250Y770994D01*
X417252Y770890D01*
X417252Y765471D01*
X417250Y765370D01*
X417244Y765269D01*
X417235Y765168D01*
X417222Y765067D01*
X417205Y764967D01*
X417184Y764868D01*
X417160Y764770D01*
X417132Y764673D01*
X417100Y764576D01*
X417065Y764481D01*
X417026Y764388D01*
X416984Y764296D01*
X416938Y764205D01*
X416889Y764117D01*
X416837Y764030D01*
X416781Y763945D01*
X416723Y763862D01*
X416661Y763782D01*
X416596Y763704D01*
X416529Y763628D01*
X416459Y763555D01*
X416386Y763485D01*
X416310Y763418D01*
X416232Y763353D01*
X416152Y763291D01*
X416069Y763233D01*
X415984Y763177D01*
X415898Y763125D01*
X415809Y763076D01*
X415718Y763030D01*
X415626Y762988D01*
X415533Y762949D01*
X415438Y762914D01*
X415341Y762882D01*
X415244Y762854D01*
X415146Y762830D01*
X415047Y762809D01*
X414947Y762792D01*
X414846Y762779D01*
X414745Y762770D01*
X414644Y762764D01*
X414543Y762762D01*
X410028Y762762D01*
X426589Y769084D02*
X430653Y769084D01*
X426589Y769084D02*
X426477Y769082D01*
X426366Y769076D01*
X426255Y769066D01*
X426144Y769053D01*
X426034Y769035D01*
X425925Y769013D01*
X425816Y768988D01*
X425708Y768959D01*
X425602Y768926D01*
X425496Y768889D01*
X425392Y768849D01*
X425290Y768805D01*
X425189Y768757D01*
X425090Y768706D01*
X424992Y768651D01*
X424897Y768593D01*
X424804Y768532D01*
X424713Y768467D01*
X424624Y768399D01*
X424538Y768328D01*
X424455Y768255D01*
X424374Y768178D01*
X424295Y768098D01*
X424220Y768016D01*
X424148Y767931D01*
X424078Y767844D01*
X424012Y767754D01*
X423949Y767662D01*
X423889Y767567D01*
X423833Y767471D01*
X423780Y767373D01*
X423731Y767273D01*
X423685Y767171D01*
X423643Y767068D01*
X423604Y766963D01*
X423569Y766857D01*
X423538Y766750D01*
X423511Y766642D01*
X423487Y766533D01*
X423468Y766423D01*
X423452Y766313D01*
X423440Y766202D01*
X423432Y766090D01*
X423428Y765979D01*
X423428Y765867D01*
X423432Y765756D01*
X423440Y765644D01*
X423452Y765533D01*
X423468Y765423D01*
X423487Y765313D01*
X423511Y765204D01*
X423538Y765096D01*
X423569Y764989D01*
X423604Y764883D01*
X423643Y764778D01*
X423685Y764675D01*
X423731Y764573D01*
X423780Y764473D01*
X423833Y764375D01*
X423889Y764279D01*
X423949Y764184D01*
X424012Y764092D01*
X424078Y764002D01*
X424148Y763915D01*
X424220Y763830D01*
X424295Y763748D01*
X424374Y763668D01*
X424455Y763591D01*
X424538Y763518D01*
X424624Y763447D01*
X424713Y763379D01*
X424804Y763314D01*
X424897Y763253D01*
X424992Y763195D01*
X425090Y763140D01*
X425189Y763089D01*
X425290Y763041D01*
X425392Y762997D01*
X425496Y762957D01*
X425602Y762920D01*
X425708Y762887D01*
X425816Y762858D01*
X425925Y762833D01*
X426034Y762811D01*
X426144Y762793D01*
X426255Y762780D01*
X426366Y762770D01*
X426477Y762764D01*
X426589Y762762D01*
X430653Y762762D01*
X430653Y770890D01*
X430651Y770991D01*
X430645Y771092D01*
X430636Y771193D01*
X430623Y771294D01*
X430606Y771394D01*
X430585Y771493D01*
X430561Y771591D01*
X430533Y771688D01*
X430501Y771785D01*
X430466Y771880D01*
X430427Y771973D01*
X430385Y772065D01*
X430339Y772156D01*
X430290Y772245D01*
X430238Y772331D01*
X430182Y772416D01*
X430124Y772499D01*
X430062Y772579D01*
X429997Y772657D01*
X429930Y772733D01*
X429860Y772806D01*
X429787Y772876D01*
X429711Y772943D01*
X429633Y773008D01*
X429553Y773070D01*
X429470Y773128D01*
X429385Y773184D01*
X429299Y773236D01*
X429210Y773285D01*
X429119Y773331D01*
X429027Y773373D01*
X428934Y773412D01*
X428839Y773447D01*
X428742Y773479D01*
X428645Y773507D01*
X428547Y773531D01*
X428448Y773552D01*
X428348Y773569D01*
X428247Y773582D01*
X428146Y773591D01*
X428045Y773597D01*
X427944Y773599D01*
X424331Y773599D01*
X440296Y762762D02*
X443909Y762762D01*
X440296Y762762D02*
X440195Y762764D01*
X440094Y762770D01*
X439993Y762779D01*
X439892Y762792D01*
X439792Y762809D01*
X439693Y762830D01*
X439595Y762854D01*
X439498Y762882D01*
X439401Y762914D01*
X439306Y762949D01*
X439213Y762988D01*
X439121Y763030D01*
X439030Y763076D01*
X438942Y763125D01*
X438855Y763177D01*
X438770Y763233D01*
X438687Y763291D01*
X438607Y763353D01*
X438529Y763418D01*
X438453Y763485D01*
X438380Y763555D01*
X438310Y763628D01*
X438243Y763704D01*
X438178Y763782D01*
X438116Y763862D01*
X438058Y763945D01*
X438002Y764030D01*
X437950Y764117D01*
X437901Y764205D01*
X437855Y764296D01*
X437813Y764388D01*
X437774Y764481D01*
X437739Y764576D01*
X437707Y764673D01*
X437679Y764770D01*
X437655Y764868D01*
X437634Y764967D01*
X437617Y765067D01*
X437604Y765168D01*
X437595Y765269D01*
X437589Y765370D01*
X437587Y765471D01*
X437587Y770890D01*
X437589Y770991D01*
X437595Y771092D01*
X437604Y771193D01*
X437617Y771294D01*
X437634Y771394D01*
X437655Y771493D01*
X437679Y771591D01*
X437707Y771688D01*
X437739Y771785D01*
X437774Y771880D01*
X437813Y771973D01*
X437855Y772065D01*
X437901Y772156D01*
X437950Y772245D01*
X438002Y772331D01*
X438058Y772416D01*
X438116Y772499D01*
X438178Y772579D01*
X438243Y772657D01*
X438310Y772733D01*
X438380Y772806D01*
X438453Y772876D01*
X438529Y772943D01*
X438607Y773008D01*
X438687Y773070D01*
X438770Y773128D01*
X438855Y773184D01*
X438942Y773236D01*
X439030Y773285D01*
X439121Y773331D01*
X439213Y773373D01*
X439306Y773412D01*
X439401Y773447D01*
X439498Y773479D01*
X439595Y773507D01*
X439693Y773531D01*
X439792Y773552D01*
X439892Y773569D01*
X439993Y773582D01*
X440094Y773591D01*
X440195Y773597D01*
X440296Y773599D01*
X443909Y773599D01*
X452263Y762762D02*
X456778Y762762D01*
X452263Y762762D02*
X452162Y762764D01*
X452061Y762770D01*
X451960Y762779D01*
X451859Y762792D01*
X451759Y762809D01*
X451660Y762830D01*
X451562Y762854D01*
X451465Y762882D01*
X451368Y762914D01*
X451273Y762949D01*
X451180Y762988D01*
X451088Y763030D01*
X450997Y763076D01*
X450909Y763125D01*
X450822Y763177D01*
X450737Y763233D01*
X450654Y763291D01*
X450574Y763353D01*
X450496Y763418D01*
X450420Y763485D01*
X450347Y763555D01*
X450277Y763628D01*
X450210Y763704D01*
X450145Y763782D01*
X450083Y763862D01*
X450025Y763945D01*
X449969Y764030D01*
X449917Y764117D01*
X449868Y764205D01*
X449822Y764296D01*
X449780Y764388D01*
X449741Y764481D01*
X449706Y764576D01*
X449674Y764673D01*
X449646Y764770D01*
X449622Y764868D01*
X449601Y764967D01*
X449584Y765067D01*
X449571Y765168D01*
X449562Y765269D01*
X449556Y765370D01*
X449554Y765471D01*
X449553Y765471D02*
X449553Y769987D01*
X449554Y769987D02*
X449556Y770106D01*
X449562Y770226D01*
X449572Y770345D01*
X449586Y770463D01*
X449603Y770582D01*
X449625Y770699D01*
X449650Y770816D01*
X449680Y770931D01*
X449713Y771046D01*
X449750Y771160D01*
X449790Y771272D01*
X449835Y771383D01*
X449883Y771492D01*
X449934Y771600D01*
X449989Y771706D01*
X450048Y771810D01*
X450110Y771912D01*
X450175Y772012D01*
X450244Y772110D01*
X450316Y772206D01*
X450391Y772299D01*
X450468Y772389D01*
X450549Y772477D01*
X450633Y772562D01*
X450720Y772644D01*
X450809Y772724D01*
X450901Y772800D01*
X450995Y772874D01*
X451092Y772944D01*
X451190Y773011D01*
X451291Y773075D01*
X451395Y773135D01*
X451500Y773192D01*
X451607Y773245D01*
X451715Y773295D01*
X451825Y773341D01*
X451937Y773383D01*
X452050Y773422D01*
X452164Y773457D01*
X452279Y773488D01*
X452396Y773516D01*
X452513Y773539D01*
X452630Y773559D01*
X452749Y773575D01*
X452868Y773587D01*
X452987Y773595D01*
X453106Y773599D01*
X453226Y773599D01*
X453345Y773595D01*
X453464Y773587D01*
X453583Y773575D01*
X453702Y773559D01*
X453819Y773539D01*
X453936Y773516D01*
X454053Y773488D01*
X454168Y773457D01*
X454282Y773422D01*
X454395Y773383D01*
X454507Y773341D01*
X454617Y773295D01*
X454725Y773245D01*
X454832Y773192D01*
X454937Y773135D01*
X455041Y773075D01*
X455142Y773011D01*
X455240Y772944D01*
X455337Y772874D01*
X455431Y772800D01*
X455523Y772724D01*
X455612Y772644D01*
X455699Y772562D01*
X455783Y772477D01*
X455864Y772389D01*
X455941Y772299D01*
X456016Y772206D01*
X456088Y772110D01*
X456157Y772012D01*
X456222Y771912D01*
X456284Y771810D01*
X456343Y771706D01*
X456398Y771600D01*
X456449Y771492D01*
X456497Y771383D01*
X456542Y771272D01*
X456582Y771160D01*
X456619Y771046D01*
X456652Y770931D01*
X456682Y770816D01*
X456707Y770699D01*
X456729Y770582D01*
X456746Y770463D01*
X456760Y770345D01*
X456770Y770226D01*
X456776Y770106D01*
X456778Y769987D01*
X456778Y768181D01*
X449553Y768181D01*
X472308Y762762D02*
X472308Y779018D01*
X476824Y779018D01*
X476957Y779016D01*
X477089Y779010D01*
X477221Y779000D01*
X477353Y778987D01*
X477485Y778969D01*
X477615Y778948D01*
X477746Y778923D01*
X477875Y778894D01*
X478003Y778861D01*
X478131Y778825D01*
X478257Y778785D01*
X478382Y778741D01*
X478506Y778693D01*
X478628Y778642D01*
X478749Y778587D01*
X478868Y778529D01*
X478986Y778467D01*
X479101Y778402D01*
X479215Y778333D01*
X479326Y778262D01*
X479435Y778186D01*
X479542Y778108D01*
X479647Y778027D01*
X479749Y777942D01*
X479849Y777855D01*
X479946Y777765D01*
X480041Y777672D01*
X480132Y777576D01*
X480221Y777478D01*
X480307Y777377D01*
X480390Y777273D01*
X480470Y777167D01*
X480546Y777059D01*
X480620Y776949D01*
X480690Y776836D01*
X480757Y776722D01*
X480820Y776605D01*
X480880Y776487D01*
X480937Y776367D01*
X480990Y776245D01*
X481039Y776122D01*
X481085Y775998D01*
X481127Y775872D01*
X481165Y775745D01*
X481200Y775617D01*
X481231Y775488D01*
X481258Y775359D01*
X481281Y775228D01*
X481301Y775097D01*
X481316Y774965D01*
X481328Y774833D01*
X481336Y774701D01*
X481340Y774568D01*
X481340Y774436D01*
X481336Y774303D01*
X481328Y774171D01*
X481316Y774039D01*
X481301Y773907D01*
X481281Y773776D01*
X481258Y773645D01*
X481231Y773516D01*
X481200Y773387D01*
X481165Y773259D01*
X481127Y773132D01*
X481085Y773006D01*
X481039Y772882D01*
X480990Y772759D01*
X480937Y772637D01*
X480880Y772517D01*
X480820Y772399D01*
X480757Y772282D01*
X480690Y772168D01*
X480620Y772055D01*
X480546Y771945D01*
X480470Y771837D01*
X480390Y771731D01*
X480307Y771627D01*
X480221Y771526D01*
X480132Y771428D01*
X480041Y771332D01*
X479946Y771239D01*
X479849Y771149D01*
X479749Y771062D01*
X479647Y770977D01*
X479542Y770896D01*
X479435Y770818D01*
X479326Y770742D01*
X479215Y770671D01*
X479101Y770602D01*
X478986Y770537D01*
X478868Y770475D01*
X478749Y770417D01*
X478628Y770362D01*
X478506Y770311D01*
X478382Y770263D01*
X478257Y770219D01*
X478131Y770179D01*
X478003Y770143D01*
X477875Y770110D01*
X477746Y770081D01*
X477615Y770056D01*
X477485Y770035D01*
X477353Y770017D01*
X477221Y770004D01*
X477089Y769994D01*
X476957Y769988D01*
X476824Y769986D01*
X476824Y769987D02*
X472308Y769987D01*
X487033Y773599D02*
X487033Y762762D01*
X486582Y778115D02*
X486582Y779018D01*
X487485Y779018D01*
X487485Y778115D01*
X486582Y778115D01*
X493927Y773599D02*
X493927Y762762D01*
X493927Y773599D02*
X499345Y773599D01*
X499345Y771793D01*
X507350Y769084D02*
X511414Y769084D01*
X507350Y769084D02*
X507238Y769082D01*
X507127Y769076D01*
X507016Y769066D01*
X506905Y769053D01*
X506795Y769035D01*
X506686Y769013D01*
X506577Y768988D01*
X506469Y768959D01*
X506363Y768926D01*
X506257Y768889D01*
X506153Y768849D01*
X506051Y768805D01*
X505950Y768757D01*
X505851Y768706D01*
X505753Y768651D01*
X505658Y768593D01*
X505565Y768532D01*
X505474Y768467D01*
X505385Y768399D01*
X505299Y768328D01*
X505216Y768255D01*
X505135Y768178D01*
X505056Y768098D01*
X504981Y768016D01*
X504909Y767931D01*
X504839Y767844D01*
X504773Y767754D01*
X504710Y767662D01*
X504650Y767567D01*
X504594Y767471D01*
X504541Y767373D01*
X504492Y767273D01*
X504446Y767171D01*
X504404Y767068D01*
X504365Y766963D01*
X504330Y766857D01*
X504299Y766750D01*
X504272Y766642D01*
X504248Y766533D01*
X504229Y766423D01*
X504213Y766313D01*
X504201Y766202D01*
X504193Y766090D01*
X504189Y765979D01*
X504189Y765867D01*
X504193Y765756D01*
X504201Y765644D01*
X504213Y765533D01*
X504229Y765423D01*
X504248Y765313D01*
X504272Y765204D01*
X504299Y765096D01*
X504330Y764989D01*
X504365Y764883D01*
X504404Y764778D01*
X504446Y764675D01*
X504492Y764573D01*
X504541Y764473D01*
X504594Y764375D01*
X504650Y764279D01*
X504710Y764184D01*
X504773Y764092D01*
X504839Y764002D01*
X504909Y763915D01*
X504981Y763830D01*
X505056Y763748D01*
X505135Y763668D01*
X505216Y763591D01*
X505299Y763518D01*
X505385Y763447D01*
X505474Y763379D01*
X505565Y763314D01*
X505658Y763253D01*
X505753Y763195D01*
X505851Y763140D01*
X505950Y763089D01*
X506051Y763041D01*
X506153Y762997D01*
X506257Y762957D01*
X506363Y762920D01*
X506469Y762887D01*
X506577Y762858D01*
X506686Y762833D01*
X506795Y762811D01*
X506905Y762793D01*
X507016Y762780D01*
X507127Y762770D01*
X507238Y762764D01*
X507350Y762762D01*
X511414Y762762D01*
X511414Y770890D01*
X511412Y770991D01*
X511406Y771092D01*
X511397Y771193D01*
X511384Y771294D01*
X511367Y771394D01*
X511346Y771493D01*
X511322Y771591D01*
X511294Y771688D01*
X511262Y771785D01*
X511227Y771880D01*
X511188Y771973D01*
X511146Y772065D01*
X511100Y772156D01*
X511051Y772245D01*
X510999Y772331D01*
X510943Y772416D01*
X510885Y772499D01*
X510823Y772579D01*
X510758Y772657D01*
X510691Y772733D01*
X510621Y772806D01*
X510548Y772876D01*
X510472Y772943D01*
X510394Y773008D01*
X510314Y773070D01*
X510231Y773128D01*
X510146Y773184D01*
X510060Y773236D01*
X509971Y773285D01*
X509880Y773331D01*
X509788Y773373D01*
X509695Y773412D01*
X509600Y773447D01*
X509503Y773479D01*
X509406Y773507D01*
X509308Y773531D01*
X509209Y773552D01*
X509109Y773569D01*
X509008Y773582D01*
X508907Y773591D01*
X508806Y773597D01*
X508705Y773599D01*
X505092Y773599D01*
X517033Y773599D02*
X522452Y773599D01*
X518840Y779018D02*
X518840Y765471D01*
X518842Y765370D01*
X518848Y765269D01*
X518857Y765168D01*
X518870Y765067D01*
X518887Y764967D01*
X518908Y764868D01*
X518932Y764770D01*
X518960Y764673D01*
X518992Y764576D01*
X519027Y764481D01*
X519066Y764388D01*
X519108Y764296D01*
X519154Y764205D01*
X519203Y764117D01*
X519255Y764030D01*
X519311Y763945D01*
X519369Y763862D01*
X519431Y763782D01*
X519496Y763704D01*
X519563Y763628D01*
X519633Y763555D01*
X519706Y763485D01*
X519782Y763418D01*
X519860Y763353D01*
X519940Y763291D01*
X520023Y763233D01*
X520108Y763177D01*
X520195Y763125D01*
X520283Y763076D01*
X520374Y763030D01*
X520466Y762988D01*
X520559Y762949D01*
X520654Y762914D01*
X520751Y762882D01*
X520848Y762854D01*
X520946Y762830D01*
X521045Y762809D01*
X521145Y762792D01*
X521246Y762779D01*
X521347Y762770D01*
X521448Y762764D01*
X521549Y762762D01*
X522452Y762762D01*
X530940Y762762D02*
X535455Y762762D01*
X530940Y762762D02*
X530839Y762764D01*
X530738Y762770D01*
X530637Y762779D01*
X530536Y762792D01*
X530436Y762809D01*
X530337Y762830D01*
X530239Y762854D01*
X530142Y762882D01*
X530045Y762914D01*
X529950Y762949D01*
X529857Y762988D01*
X529765Y763030D01*
X529674Y763076D01*
X529586Y763125D01*
X529499Y763177D01*
X529414Y763233D01*
X529331Y763291D01*
X529251Y763353D01*
X529173Y763418D01*
X529097Y763485D01*
X529024Y763555D01*
X528954Y763628D01*
X528887Y763704D01*
X528822Y763782D01*
X528760Y763862D01*
X528702Y763945D01*
X528646Y764030D01*
X528594Y764117D01*
X528545Y764205D01*
X528499Y764296D01*
X528457Y764388D01*
X528418Y764481D01*
X528383Y764576D01*
X528351Y764673D01*
X528323Y764770D01*
X528299Y764868D01*
X528278Y764967D01*
X528261Y765067D01*
X528248Y765168D01*
X528239Y765269D01*
X528233Y765370D01*
X528231Y765471D01*
X528230Y765471D02*
X528230Y769987D01*
X528231Y769987D02*
X528233Y770106D01*
X528239Y770226D01*
X528249Y770345D01*
X528263Y770463D01*
X528280Y770582D01*
X528302Y770699D01*
X528327Y770816D01*
X528357Y770931D01*
X528390Y771046D01*
X528427Y771160D01*
X528467Y771272D01*
X528512Y771383D01*
X528560Y771492D01*
X528611Y771600D01*
X528666Y771706D01*
X528725Y771810D01*
X528787Y771912D01*
X528852Y772012D01*
X528921Y772110D01*
X528993Y772206D01*
X529068Y772299D01*
X529145Y772389D01*
X529226Y772477D01*
X529310Y772562D01*
X529397Y772644D01*
X529486Y772724D01*
X529578Y772800D01*
X529672Y772874D01*
X529769Y772944D01*
X529867Y773011D01*
X529968Y773075D01*
X530072Y773135D01*
X530177Y773192D01*
X530284Y773245D01*
X530392Y773295D01*
X530502Y773341D01*
X530614Y773383D01*
X530727Y773422D01*
X530841Y773457D01*
X530956Y773488D01*
X531073Y773516D01*
X531190Y773539D01*
X531307Y773559D01*
X531426Y773575D01*
X531545Y773587D01*
X531664Y773595D01*
X531783Y773599D01*
X531903Y773599D01*
X532022Y773595D01*
X532141Y773587D01*
X532260Y773575D01*
X532379Y773559D01*
X532496Y773539D01*
X532613Y773516D01*
X532730Y773488D01*
X532845Y773457D01*
X532959Y773422D01*
X533072Y773383D01*
X533184Y773341D01*
X533294Y773295D01*
X533402Y773245D01*
X533509Y773192D01*
X533614Y773135D01*
X533718Y773075D01*
X533819Y773011D01*
X533917Y772944D01*
X534014Y772874D01*
X534108Y772800D01*
X534200Y772724D01*
X534289Y772644D01*
X534376Y772562D01*
X534460Y772477D01*
X534541Y772389D01*
X534618Y772299D01*
X534693Y772206D01*
X534765Y772110D01*
X534834Y772012D01*
X534899Y771912D01*
X534961Y771810D01*
X535020Y771706D01*
X535075Y771600D01*
X535126Y771492D01*
X535174Y771383D01*
X535219Y771272D01*
X535259Y771160D01*
X535296Y771046D01*
X535329Y770931D01*
X535359Y770816D01*
X535384Y770699D01*
X535406Y770582D01*
X535423Y770463D01*
X535437Y770345D01*
X535447Y770226D01*
X535453Y770106D01*
X535455Y769987D01*
X535455Y768181D01*
X528230Y768181D01*
X549593Y773599D02*
X553206Y762762D01*
X556818Y773599D01*
X562758Y775406D02*
X567274Y779018D01*
X567274Y762762D01*
X571789Y762762D02*
X562758Y762762D01*
X577764Y762762D02*
X577764Y763665D01*
X578667Y763665D01*
X578667Y762762D01*
X577764Y762762D01*
X584642Y770890D02*
X584646Y771210D01*
X584657Y771529D01*
X584676Y771849D01*
X584703Y772167D01*
X584737Y772485D01*
X584779Y772802D01*
X584829Y773118D01*
X584886Y773433D01*
X584950Y773746D01*
X585022Y774058D01*
X585101Y774368D01*
X585188Y774675D01*
X585282Y774981D01*
X585383Y775284D01*
X585492Y775585D01*
X585607Y775883D01*
X585730Y776179D01*
X585860Y776471D01*
X585997Y776760D01*
X585996Y776761D02*
X586035Y776869D01*
X586078Y776976D01*
X586124Y777081D01*
X586175Y777185D01*
X586228Y777287D01*
X586285Y777387D01*
X586346Y777485D01*
X586410Y777580D01*
X586477Y777674D01*
X586548Y777765D01*
X586621Y777854D01*
X586698Y777940D01*
X586777Y778023D01*
X586859Y778104D01*
X586944Y778182D01*
X587032Y778256D01*
X587122Y778328D01*
X587214Y778396D01*
X587309Y778462D01*
X587406Y778524D01*
X587505Y778582D01*
X587607Y778638D01*
X587709Y778689D01*
X587814Y778737D01*
X587920Y778782D01*
X588028Y778823D01*
X588137Y778860D01*
X588247Y778893D01*
X588359Y778922D01*
X588471Y778948D01*
X588584Y778970D01*
X588698Y778987D01*
X588812Y779001D01*
X588927Y779011D01*
X589042Y779017D01*
X589157Y779019D01*
X589157Y779018D02*
X589272Y779016D01*
X589387Y779010D01*
X589502Y779000D01*
X589616Y778986D01*
X589730Y778969D01*
X589843Y778947D01*
X589955Y778921D01*
X590067Y778892D01*
X590177Y778859D01*
X590286Y778822D01*
X590394Y778781D01*
X590500Y778736D01*
X590605Y778688D01*
X590707Y778637D01*
X590808Y778581D01*
X590908Y778523D01*
X591005Y778461D01*
X591099Y778396D01*
X591192Y778327D01*
X591282Y778255D01*
X591370Y778181D01*
X591455Y778103D01*
X591537Y778022D01*
X591616Y777939D01*
X591693Y777853D01*
X591766Y777764D01*
X591837Y777673D01*
X591904Y777579D01*
X591968Y777484D01*
X592029Y777386D01*
X592086Y777286D01*
X592139Y777184D01*
X592190Y777080D01*
X592236Y776975D01*
X592279Y776868D01*
X592318Y776760D01*
X592455Y776471D01*
X592585Y776179D01*
X592708Y775883D01*
X592823Y775585D01*
X592932Y775284D01*
X593033Y774981D01*
X593127Y774675D01*
X593214Y774368D01*
X593293Y774058D01*
X593365Y773746D01*
X593429Y773433D01*
X593486Y773118D01*
X593536Y772802D01*
X593578Y772485D01*
X593612Y772167D01*
X593639Y771849D01*
X593658Y771529D01*
X593669Y771210D01*
X593673Y770890D01*
X584642Y770890D02*
X584646Y770570D01*
X584657Y770251D01*
X584676Y769931D01*
X584703Y769613D01*
X584737Y769295D01*
X584779Y768978D01*
X584829Y768662D01*
X584886Y768347D01*
X584950Y768034D01*
X585022Y767722D01*
X585101Y767412D01*
X585188Y767105D01*
X585282Y766799D01*
X585383Y766496D01*
X585492Y766195D01*
X585607Y765897D01*
X585730Y765601D01*
X585860Y765309D01*
X585997Y765020D01*
X585996Y765020D02*
X586035Y764912D01*
X586078Y764805D01*
X586124Y764700D01*
X586175Y764596D01*
X586228Y764494D01*
X586285Y764394D01*
X586346Y764296D01*
X586410Y764201D01*
X586477Y764107D01*
X586548Y764016D01*
X586621Y763927D01*
X586698Y763841D01*
X586777Y763758D01*
X586859Y763677D01*
X586944Y763599D01*
X587032Y763525D01*
X587122Y763453D01*
X587215Y763384D01*
X587309Y763319D01*
X587406Y763257D01*
X587506Y763199D01*
X587607Y763143D01*
X587709Y763092D01*
X587814Y763044D01*
X587920Y762999D01*
X588028Y762958D01*
X588137Y762921D01*
X588247Y762888D01*
X588359Y762859D01*
X588471Y762833D01*
X588584Y762811D01*
X588698Y762794D01*
X588812Y762780D01*
X588927Y762770D01*
X589042Y762764D01*
X589157Y762762D01*
X592317Y765020D02*
X592454Y765309D01*
X592584Y765601D01*
X592707Y765897D01*
X592822Y766195D01*
X592931Y766496D01*
X593032Y766799D01*
X593126Y767105D01*
X593213Y767412D01*
X593292Y767722D01*
X593364Y768034D01*
X593428Y768347D01*
X593485Y768662D01*
X593535Y768978D01*
X593577Y769295D01*
X593611Y769613D01*
X593638Y769931D01*
X593657Y770251D01*
X593668Y770570D01*
X593672Y770890D01*
X592318Y765020D02*
X592279Y764912D01*
X592236Y764805D01*
X592190Y764700D01*
X592139Y764596D01*
X592086Y764494D01*
X592029Y764394D01*
X591968Y764296D01*
X591904Y764201D01*
X591837Y764107D01*
X591766Y764016D01*
X591693Y763927D01*
X591616Y763841D01*
X591537Y763758D01*
X591455Y763677D01*
X591370Y763599D01*
X591282Y763525D01*
X591192Y763453D01*
X591099Y763384D01*
X591005Y763319D01*
X590908Y763257D01*
X590808Y763199D01*
X590707Y763143D01*
X590604Y763092D01*
X590500Y763044D01*
X590394Y762999D01*
X590286Y762958D01*
X590177Y762921D01*
X590067Y762888D01*
X589955Y762859D01*
X589843Y762833D01*
X589730Y762811D01*
X589616Y762794D01*
X589502Y762780D01*
X589387Y762770D01*
X589272Y762764D01*
X589157Y762762D01*
X585545Y766374D02*
X592770Y775406D01*
X599648Y763665D02*
X599648Y762762D01*
X599648Y763665D02*
X600551Y763665D01*
X600551Y762762D01*
X599648Y762762D01*
X606526Y770890D02*
X606530Y771210D01*
X606541Y771529D01*
X606560Y771849D01*
X606587Y772167D01*
X606621Y772485D01*
X606663Y772802D01*
X606713Y773118D01*
X606770Y773433D01*
X606834Y773746D01*
X606906Y774058D01*
X606985Y774368D01*
X607072Y774675D01*
X607166Y774981D01*
X607267Y775284D01*
X607376Y775585D01*
X607491Y775883D01*
X607614Y776179D01*
X607744Y776471D01*
X607881Y776760D01*
X607880Y776761D02*
X607919Y776869D01*
X607962Y776976D01*
X608008Y777081D01*
X608059Y777185D01*
X608112Y777287D01*
X608169Y777387D01*
X608230Y777485D01*
X608294Y777580D01*
X608361Y777674D01*
X608432Y777765D01*
X608505Y777854D01*
X608582Y777940D01*
X608661Y778023D01*
X608743Y778104D01*
X608828Y778182D01*
X608916Y778256D01*
X609006Y778328D01*
X609098Y778396D01*
X609193Y778462D01*
X609290Y778524D01*
X609389Y778582D01*
X609491Y778638D01*
X609593Y778689D01*
X609698Y778737D01*
X609804Y778782D01*
X609912Y778823D01*
X610021Y778860D01*
X610131Y778893D01*
X610243Y778922D01*
X610355Y778948D01*
X610468Y778970D01*
X610582Y778987D01*
X610696Y779001D01*
X610811Y779011D01*
X610926Y779017D01*
X611041Y779019D01*
X611041Y779018D02*
X611156Y779016D01*
X611271Y779010D01*
X611386Y779000D01*
X611500Y778986D01*
X611614Y778969D01*
X611727Y778947D01*
X611839Y778921D01*
X611951Y778892D01*
X612061Y778859D01*
X612170Y778822D01*
X612278Y778781D01*
X612384Y778736D01*
X612489Y778688D01*
X612591Y778637D01*
X612692Y778581D01*
X612792Y778523D01*
X612889Y778461D01*
X612983Y778396D01*
X613076Y778327D01*
X613166Y778255D01*
X613254Y778181D01*
X613339Y778103D01*
X613421Y778022D01*
X613500Y777939D01*
X613577Y777853D01*
X613650Y777764D01*
X613721Y777673D01*
X613788Y777579D01*
X613852Y777484D01*
X613913Y777386D01*
X613970Y777286D01*
X614023Y777184D01*
X614074Y777080D01*
X614120Y776975D01*
X614163Y776868D01*
X614202Y776760D01*
X614201Y776760D02*
X614338Y776471D01*
X614468Y776179D01*
X614591Y775883D01*
X614706Y775585D01*
X614815Y775284D01*
X614916Y774981D01*
X615010Y774675D01*
X615097Y774368D01*
X615176Y774058D01*
X615248Y773746D01*
X615312Y773433D01*
X615369Y773118D01*
X615419Y772802D01*
X615461Y772485D01*
X615495Y772167D01*
X615522Y771849D01*
X615541Y771529D01*
X615552Y771210D01*
X615556Y770890D01*
X606526Y770890D02*
X606530Y770570D01*
X606541Y770251D01*
X606560Y769931D01*
X606587Y769613D01*
X606621Y769295D01*
X606663Y768978D01*
X606713Y768662D01*
X606770Y768347D01*
X606834Y768034D01*
X606906Y767722D01*
X606985Y767412D01*
X607072Y767105D01*
X607166Y766799D01*
X607267Y766496D01*
X607376Y766195D01*
X607491Y765897D01*
X607614Y765601D01*
X607744Y765309D01*
X607881Y765020D01*
X607880Y765020D02*
X607919Y764912D01*
X607962Y764805D01*
X608008Y764700D01*
X608059Y764596D01*
X608112Y764494D01*
X608169Y764394D01*
X608230Y764296D01*
X608294Y764201D01*
X608361Y764107D01*
X608432Y764016D01*
X608505Y763927D01*
X608582Y763841D01*
X608661Y763758D01*
X608743Y763677D01*
X608828Y763599D01*
X608916Y763525D01*
X609006Y763453D01*
X609099Y763384D01*
X609193Y763319D01*
X609290Y763257D01*
X609390Y763199D01*
X609491Y763143D01*
X609593Y763092D01*
X609698Y763044D01*
X609804Y762999D01*
X609912Y762958D01*
X610021Y762921D01*
X610131Y762888D01*
X610243Y762859D01*
X610355Y762833D01*
X610468Y762811D01*
X610582Y762794D01*
X610696Y762780D01*
X610811Y762770D01*
X610926Y762764D01*
X611041Y762762D01*
X614201Y765020D02*
X614338Y765309D01*
X614468Y765601D01*
X614591Y765897D01*
X614706Y766195D01*
X614815Y766496D01*
X614916Y766799D01*
X615010Y767105D01*
X615097Y767412D01*
X615176Y767722D01*
X615248Y768034D01*
X615312Y768347D01*
X615369Y768662D01*
X615419Y768978D01*
X615461Y769295D01*
X615495Y769613D01*
X615522Y769931D01*
X615541Y770251D01*
X615552Y770570D01*
X615556Y770890D01*
X614202Y765020D02*
X614163Y764912D01*
X614120Y764805D01*
X614074Y764700D01*
X614023Y764596D01*
X613970Y764494D01*
X613913Y764394D01*
X613852Y764296D01*
X613788Y764201D01*
X613721Y764107D01*
X613650Y764016D01*
X613577Y763927D01*
X613500Y763841D01*
X613421Y763758D01*
X613339Y763677D01*
X613254Y763599D01*
X613166Y763525D01*
X613076Y763453D01*
X612983Y763384D01*
X612889Y763319D01*
X612792Y763257D01*
X612692Y763199D01*
X612591Y763143D01*
X612488Y763092D01*
X612384Y763044D01*
X612278Y762999D01*
X612170Y762958D01*
X612061Y762921D01*
X611951Y762888D01*
X611839Y762859D01*
X611727Y762833D01*
X611614Y762811D01*
X611500Y762794D01*
X611386Y762780D01*
X611271Y762770D01*
X611156Y762764D01*
X611041Y762762D01*
X607429Y766374D02*
X614653Y775406D01*
D11*
X638175Y436563D02*
X638175Y427038D01*
X600075Y427038D02*
X600075Y436563D01*
D12*
X451600Y427450D02*
X448850Y424700D01*
X451600Y427450D02*
X513600Y427450D01*
X516350Y424700D01*
X516350Y362700D01*
X513600Y359950D01*
X451600Y359950D01*
X448850Y362700D01*
X448850Y424700D01*
X456600Y373700D02*
X456602Y373854D01*
X456608Y374009D01*
X456618Y374163D01*
X456632Y374317D01*
X456650Y374470D01*
X456671Y374623D01*
X456697Y374776D01*
X456727Y374927D01*
X456760Y375078D01*
X456798Y375228D01*
X456839Y375377D01*
X456884Y375525D01*
X456933Y375671D01*
X456986Y375817D01*
X457042Y375960D01*
X457102Y376103D01*
X457166Y376243D01*
X457233Y376383D01*
X457304Y376520D01*
X457378Y376655D01*
X457456Y376789D01*
X457537Y376920D01*
X457622Y377049D01*
X457710Y377177D01*
X457801Y377301D01*
X457895Y377424D01*
X457993Y377544D01*
X458093Y377661D01*
X458197Y377776D01*
X458303Y377888D01*
X458412Y377997D01*
X458524Y378103D01*
X458639Y378207D01*
X458756Y378307D01*
X458876Y378405D01*
X458999Y378499D01*
X459123Y378590D01*
X459251Y378678D01*
X459380Y378763D01*
X459511Y378844D01*
X459645Y378922D01*
X459780Y378996D01*
X459917Y379067D01*
X460057Y379134D01*
X460197Y379198D01*
X460340Y379258D01*
X460483Y379314D01*
X460629Y379367D01*
X460775Y379416D01*
X460923Y379461D01*
X461072Y379502D01*
X461222Y379540D01*
X461373Y379573D01*
X461524Y379603D01*
X461677Y379629D01*
X461830Y379650D01*
X461983Y379668D01*
X462137Y379682D01*
X462291Y379692D01*
X462446Y379698D01*
X462600Y379700D01*
X462754Y379698D01*
X462909Y379692D01*
X463063Y379682D01*
X463217Y379668D01*
X463370Y379650D01*
X463523Y379629D01*
X463676Y379603D01*
X463827Y379573D01*
X463978Y379540D01*
X464128Y379502D01*
X464277Y379461D01*
X464425Y379416D01*
X464571Y379367D01*
X464717Y379314D01*
X464860Y379258D01*
X465003Y379198D01*
X465143Y379134D01*
X465283Y379067D01*
X465420Y378996D01*
X465555Y378922D01*
X465689Y378844D01*
X465820Y378763D01*
X465949Y378678D01*
X466077Y378590D01*
X466201Y378499D01*
X466324Y378405D01*
X466444Y378307D01*
X466561Y378207D01*
X466676Y378103D01*
X466788Y377997D01*
X466897Y377888D01*
X467003Y377776D01*
X467107Y377661D01*
X467207Y377544D01*
X467305Y377424D01*
X467399Y377301D01*
X467490Y377177D01*
X467578Y377049D01*
X467663Y376920D01*
X467744Y376789D01*
X467822Y376655D01*
X467896Y376520D01*
X467967Y376383D01*
X468034Y376243D01*
X468098Y376103D01*
X468158Y375960D01*
X468214Y375817D01*
X468267Y375671D01*
X468316Y375525D01*
X468361Y375377D01*
X468402Y375228D01*
X468440Y375078D01*
X468473Y374927D01*
X468503Y374776D01*
X468529Y374623D01*
X468550Y374470D01*
X468568Y374317D01*
X468582Y374163D01*
X468592Y374009D01*
X468598Y373854D01*
X468600Y373700D01*
X468598Y373546D01*
X468592Y373391D01*
X468582Y373237D01*
X468568Y373083D01*
X468550Y372930D01*
X468529Y372777D01*
X468503Y372624D01*
X468473Y372473D01*
X468440Y372322D01*
X468402Y372172D01*
X468361Y372023D01*
X468316Y371875D01*
X468267Y371729D01*
X468214Y371583D01*
X468158Y371440D01*
X468098Y371297D01*
X468034Y371157D01*
X467967Y371017D01*
X467896Y370880D01*
X467822Y370745D01*
X467744Y370611D01*
X467663Y370480D01*
X467578Y370351D01*
X467490Y370223D01*
X467399Y370099D01*
X467305Y369976D01*
X467207Y369856D01*
X467107Y369739D01*
X467003Y369624D01*
X466897Y369512D01*
X466788Y369403D01*
X466676Y369297D01*
X466561Y369193D01*
X466444Y369093D01*
X466324Y368995D01*
X466201Y368901D01*
X466077Y368810D01*
X465949Y368722D01*
X465820Y368637D01*
X465689Y368556D01*
X465555Y368478D01*
X465420Y368404D01*
X465283Y368333D01*
X465143Y368266D01*
X465003Y368202D01*
X464860Y368142D01*
X464717Y368086D01*
X464571Y368033D01*
X464425Y367984D01*
X464277Y367939D01*
X464128Y367898D01*
X463978Y367860D01*
X463827Y367827D01*
X463676Y367797D01*
X463523Y367771D01*
X463370Y367750D01*
X463217Y367732D01*
X463063Y367718D01*
X462909Y367708D01*
X462754Y367702D01*
X462600Y367700D01*
X462446Y367702D01*
X462291Y367708D01*
X462137Y367718D01*
X461983Y367732D01*
X461830Y367750D01*
X461677Y367771D01*
X461524Y367797D01*
X461373Y367827D01*
X461222Y367860D01*
X461072Y367898D01*
X460923Y367939D01*
X460775Y367984D01*
X460629Y368033D01*
X460483Y368086D01*
X460340Y368142D01*
X460197Y368202D01*
X460057Y368266D01*
X459917Y368333D01*
X459780Y368404D01*
X459645Y368478D01*
X459511Y368556D01*
X459380Y368637D01*
X459251Y368722D01*
X459123Y368810D01*
X458999Y368901D01*
X458876Y368995D01*
X458756Y369093D01*
X458639Y369193D01*
X458524Y369297D01*
X458412Y369403D01*
X458303Y369512D01*
X458197Y369624D01*
X458093Y369739D01*
X457993Y369856D01*
X457895Y369976D01*
X457801Y370099D01*
X457710Y370223D01*
X457622Y370351D01*
X457537Y370480D01*
X457456Y370611D01*
X457378Y370745D01*
X457304Y370880D01*
X457233Y371017D01*
X457166Y371157D01*
X457102Y371297D01*
X457042Y371440D01*
X456986Y371583D01*
X456933Y371729D01*
X456884Y371875D01*
X456839Y372023D01*
X456798Y372172D01*
X456760Y372322D01*
X456727Y372473D01*
X456697Y372624D01*
X456671Y372777D01*
X456650Y372930D01*
X456632Y373083D01*
X456618Y373237D01*
X456608Y373391D01*
X456602Y373546D01*
X456600Y373700D01*
D13*
X575600Y117400D02*
X575600Y101400D01*
X575600Y117400D02*
X587600Y117400D01*
X631600Y117400D02*
X643600Y117400D01*
X643600Y101400D01*
X643600Y74400D02*
X575600Y74400D01*
X587600Y103400D02*
X587600Y117400D01*
X587600Y103400D02*
X631600Y103400D01*
X631600Y117400D01*
D11*
X245400Y117700D02*
X245400Y173700D01*
X245400Y117700D02*
X245400Y103700D01*
X315400Y103700D01*
X315400Y117700D01*
X315400Y173700D01*
X245400Y173700D01*
X245400Y117700D02*
X315400Y117700D01*
D13*
X681000Y554700D02*
X751000Y554700D01*
X751000Y492700D01*
X751000Y484700D01*
X681000Y484700D01*
X681000Y492700D01*
X681000Y554700D01*
X681000Y492700D02*
X751000Y492700D01*
X527050Y736600D02*
X514350Y736600D01*
X527050Y736600D02*
X533400Y730250D01*
X533400Y717550D02*
X527050Y711200D01*
X488950Y736600D02*
X482600Y730250D01*
X488950Y736600D02*
X501650Y736600D01*
X508000Y730250D01*
X508000Y717550D02*
X501650Y711200D01*
X488950Y711200D01*
X482600Y717550D01*
X508000Y730250D02*
X514350Y736600D01*
X508000Y717550D02*
X514350Y711200D01*
X527050Y711200D01*
X450850Y736600D02*
X438150Y736600D01*
X450850Y736600D02*
X457200Y730250D01*
X457200Y717550D02*
X450850Y711200D01*
X457200Y730250D02*
X463550Y736600D01*
X476250Y736600D01*
X482600Y730250D01*
X482600Y717550D02*
X476250Y711200D01*
X463550Y711200D01*
X457200Y717550D01*
X431800Y717550D02*
X431800Y730250D01*
X438150Y736600D01*
X431800Y717550D02*
X438150Y711200D01*
X450850Y711200D01*
X533400Y717550D02*
X533400Y730250D01*
X368500Y199900D02*
X365000Y199900D01*
X365000Y203400D01*
X393500Y199900D02*
X397000Y199900D01*
X397000Y203400D01*
X397000Y231900D02*
X393500Y231900D01*
X397000Y231900D02*
X397000Y228400D01*
X368500Y231900D02*
X365000Y228400D01*
D14*
X364490Y232410D03*
D13*
X302260Y346710D02*
X302260Y415290D01*
X256540Y415290D02*
X256540Y346710D01*
X256540Y415290D02*
X256547Y415847D01*
X256567Y416403D01*
X256601Y416959D01*
X256648Y417513D01*
X256709Y418067D01*
X256784Y418618D01*
X256871Y419168D01*
X256972Y419716D01*
X257087Y420260D01*
X257215Y420802D01*
X257355Y421341D01*
X257509Y421876D01*
X257676Y422407D01*
X257856Y422934D01*
X258048Y423456D01*
X258254Y423974D01*
X258471Y424486D01*
X258701Y424993D01*
X258944Y425494D01*
X259198Y425989D01*
X259465Y426478D01*
X259743Y426960D01*
X260033Y427435D01*
X260335Y427903D01*
X260648Y428364D01*
X260972Y428817D01*
X261306Y429261D01*
X261652Y429698D01*
X262008Y430126D01*
X262375Y430545D01*
X262751Y430955D01*
X263137Y431356D01*
X263533Y431747D01*
X263939Y432128D01*
X264354Y432500D01*
X264777Y432861D01*
X265209Y433212D01*
X265650Y433552D01*
X266099Y433882D01*
X266555Y434200D01*
X267020Y434507D01*
X267491Y434803D01*
X267970Y435087D01*
X268455Y435360D01*
X268947Y435620D01*
X269446Y435869D01*
X269950Y436105D01*
X270459Y436329D01*
X270974Y436541D01*
X271494Y436739D01*
X272019Y436926D01*
X272548Y437099D01*
X273081Y437259D01*
X273618Y437407D01*
X274158Y437541D01*
X274702Y437662D01*
X275248Y437770D01*
X275796Y437864D01*
X276347Y437945D01*
X276900Y438013D01*
X277454Y438067D01*
X278009Y438108D01*
X278565Y438135D01*
X279122Y438148D01*
X279678Y438148D01*
X280235Y438135D01*
X280791Y438108D01*
X281346Y438067D01*
X281900Y438013D01*
X282453Y437945D01*
X283004Y437864D01*
X283552Y437770D01*
X284098Y437662D01*
X284642Y437541D01*
X285182Y437407D01*
X285719Y437259D01*
X286252Y437099D01*
X286781Y436926D01*
X287306Y436739D01*
X287826Y436541D01*
X288341Y436329D01*
X288850Y436105D01*
X289354Y435869D01*
X289853Y435620D01*
X290345Y435360D01*
X290830Y435087D01*
X291309Y434803D01*
X291780Y434507D01*
X292245Y434200D01*
X292701Y433882D01*
X293150Y433552D01*
X293591Y433212D01*
X294023Y432861D01*
X294446Y432500D01*
X294861Y432128D01*
X295267Y431747D01*
X295663Y431356D01*
X296049Y430955D01*
X296425Y430545D01*
X296792Y430126D01*
X297148Y429698D01*
X297494Y429261D01*
X297828Y428817D01*
X298152Y428364D01*
X298465Y427903D01*
X298767Y427435D01*
X299057Y426960D01*
X299335Y426478D01*
X299602Y425989D01*
X299856Y425494D01*
X300099Y424993D01*
X300329Y424486D01*
X300546Y423974D01*
X300752Y423456D01*
X300944Y422934D01*
X301124Y422407D01*
X301291Y421876D01*
X301445Y421341D01*
X301585Y420802D01*
X301713Y420260D01*
X301828Y419716D01*
X301929Y419168D01*
X302016Y418618D01*
X302091Y418067D01*
X302152Y417513D01*
X302199Y416959D01*
X302233Y416403D01*
X302253Y415847D01*
X302260Y415290D01*
X302260Y346710D02*
X302253Y346153D01*
X302233Y345597D01*
X302199Y345041D01*
X302152Y344487D01*
X302091Y343933D01*
X302016Y343382D01*
X301929Y342832D01*
X301828Y342284D01*
X301713Y341740D01*
X301585Y341198D01*
X301445Y340659D01*
X301291Y340124D01*
X301124Y339593D01*
X300944Y339066D01*
X300752Y338544D01*
X300546Y338026D01*
X300329Y337514D01*
X300099Y337007D01*
X299856Y336506D01*
X299602Y336011D01*
X299335Y335522D01*
X299057Y335040D01*
X298767Y334565D01*
X298465Y334097D01*
X298152Y333636D01*
X297828Y333183D01*
X297494Y332739D01*
X297148Y332302D01*
X296792Y331874D01*
X296425Y331455D01*
X296049Y331045D01*
X295663Y330644D01*
X295267Y330253D01*
X294861Y329872D01*
X294446Y329500D01*
X294023Y329139D01*
X293591Y328788D01*
X293150Y328448D01*
X292701Y328118D01*
X292245Y327800D01*
X291780Y327493D01*
X291309Y327197D01*
X290830Y326913D01*
X290345Y326640D01*
X289853Y326380D01*
X289354Y326131D01*
X288850Y325895D01*
X288341Y325671D01*
X287826Y325459D01*
X287306Y325261D01*
X286781Y325074D01*
X286252Y324901D01*
X285719Y324741D01*
X285182Y324593D01*
X284642Y324459D01*
X284098Y324338D01*
X283552Y324230D01*
X283004Y324136D01*
X282453Y324055D01*
X281900Y323987D01*
X281346Y323933D01*
X280791Y323892D01*
X280235Y323865D01*
X279678Y323852D01*
X279122Y323852D01*
X278565Y323865D01*
X278009Y323892D01*
X277454Y323933D01*
X276900Y323987D01*
X276347Y324055D01*
X275796Y324136D01*
X275248Y324230D01*
X274702Y324338D01*
X274158Y324459D01*
X273618Y324593D01*
X273081Y324741D01*
X272548Y324901D01*
X272019Y325074D01*
X271494Y325261D01*
X270974Y325459D01*
X270459Y325671D01*
X269950Y325895D01*
X269446Y326131D01*
X268947Y326380D01*
X268455Y326640D01*
X267970Y326913D01*
X267491Y327197D01*
X267020Y327493D01*
X266555Y327800D01*
X266099Y328118D01*
X265650Y328448D01*
X265209Y328788D01*
X264777Y329139D01*
X264354Y329500D01*
X263939Y329872D01*
X263533Y330253D01*
X263137Y330644D01*
X262751Y331045D01*
X262375Y331455D01*
X262008Y331874D01*
X261652Y332302D01*
X261306Y332739D01*
X260972Y333183D01*
X260648Y333636D01*
X260335Y334097D01*
X260033Y334565D01*
X259743Y335040D01*
X259465Y335522D01*
X259198Y336011D01*
X258944Y336506D01*
X258701Y337007D01*
X258471Y337514D01*
X258254Y338026D01*
X258048Y338544D01*
X257856Y339066D01*
X257676Y339593D01*
X257509Y340124D01*
X257355Y340659D01*
X257215Y341198D01*
X257087Y341740D01*
X256972Y342284D01*
X256871Y342832D01*
X256784Y343382D01*
X256709Y343933D01*
X256648Y344487D01*
X256601Y345041D01*
X256567Y345597D01*
X256547Y346153D01*
X256540Y346710D01*
X448310Y276860D02*
X516890Y276860D01*
X516890Y231140D02*
X448310Y231140D01*
X447753Y231147D01*
X447197Y231167D01*
X446641Y231201D01*
X446087Y231248D01*
X445533Y231309D01*
X444982Y231384D01*
X444432Y231471D01*
X443884Y231572D01*
X443340Y231687D01*
X442798Y231815D01*
X442259Y231955D01*
X441724Y232109D01*
X441193Y232276D01*
X440666Y232456D01*
X440144Y232648D01*
X439626Y232854D01*
X439114Y233071D01*
X438607Y233301D01*
X438106Y233544D01*
X437611Y233798D01*
X437122Y234065D01*
X436640Y234343D01*
X436165Y234633D01*
X435697Y234935D01*
X435236Y235248D01*
X434783Y235572D01*
X434339Y235906D01*
X433902Y236252D01*
X433474Y236608D01*
X433055Y236975D01*
X432645Y237351D01*
X432244Y237737D01*
X431853Y238133D01*
X431472Y238539D01*
X431100Y238954D01*
X430739Y239377D01*
X430388Y239809D01*
X430048Y240250D01*
X429718Y240699D01*
X429400Y241155D01*
X429093Y241620D01*
X428797Y242091D01*
X428513Y242570D01*
X428240Y243055D01*
X427980Y243547D01*
X427731Y244046D01*
X427495Y244550D01*
X427271Y245059D01*
X427059Y245574D01*
X426861Y246094D01*
X426674Y246619D01*
X426501Y247148D01*
X426341Y247681D01*
X426193Y248218D01*
X426059Y248758D01*
X425938Y249302D01*
X425830Y249848D01*
X425736Y250396D01*
X425655Y250947D01*
X425587Y251500D01*
X425533Y252054D01*
X425492Y252609D01*
X425465Y253165D01*
X425452Y253722D01*
X425452Y254278D01*
X425465Y254835D01*
X425492Y255391D01*
X425533Y255946D01*
X425587Y256500D01*
X425655Y257053D01*
X425736Y257604D01*
X425830Y258152D01*
X425938Y258698D01*
X426059Y259242D01*
X426193Y259782D01*
X426341Y260319D01*
X426501Y260852D01*
X426674Y261381D01*
X426861Y261906D01*
X427059Y262426D01*
X427271Y262941D01*
X427495Y263450D01*
X427731Y263954D01*
X427980Y264453D01*
X428240Y264945D01*
X428513Y265430D01*
X428797Y265909D01*
X429093Y266380D01*
X429400Y266845D01*
X429718Y267301D01*
X430048Y267750D01*
X430388Y268191D01*
X430739Y268623D01*
X431100Y269046D01*
X431472Y269461D01*
X431853Y269867D01*
X432244Y270263D01*
X432645Y270649D01*
X433055Y271025D01*
X433474Y271392D01*
X433902Y271748D01*
X434339Y272094D01*
X434783Y272428D01*
X435236Y272752D01*
X435697Y273065D01*
X436165Y273367D01*
X436640Y273657D01*
X437122Y273935D01*
X437611Y274202D01*
X438106Y274456D01*
X438607Y274699D01*
X439114Y274929D01*
X439626Y275146D01*
X440144Y275352D01*
X440666Y275544D01*
X441193Y275724D01*
X441724Y275891D01*
X442259Y276045D01*
X442798Y276185D01*
X443340Y276313D01*
X443884Y276428D01*
X444432Y276529D01*
X444982Y276616D01*
X445533Y276691D01*
X446087Y276752D01*
X446641Y276799D01*
X447197Y276833D01*
X447753Y276853D01*
X448310Y276860D01*
X516890Y276860D02*
X517447Y276853D01*
X518003Y276833D01*
X518559Y276799D01*
X519113Y276752D01*
X519667Y276691D01*
X520218Y276616D01*
X520768Y276529D01*
X521316Y276428D01*
X521860Y276313D01*
X522402Y276185D01*
X522941Y276045D01*
X523476Y275891D01*
X524007Y275724D01*
X524534Y275544D01*
X525056Y275352D01*
X525574Y275146D01*
X526086Y274929D01*
X526593Y274699D01*
X527094Y274456D01*
X527589Y274202D01*
X528078Y273935D01*
X528560Y273657D01*
X529035Y273367D01*
X529503Y273065D01*
X529964Y272752D01*
X530417Y272428D01*
X530861Y272094D01*
X531298Y271748D01*
X531726Y271392D01*
X532145Y271025D01*
X532555Y270649D01*
X532956Y270263D01*
X533347Y269867D01*
X533728Y269461D01*
X534100Y269046D01*
X534461Y268623D01*
X534812Y268191D01*
X535152Y267750D01*
X535482Y267301D01*
X535800Y266845D01*
X536107Y266380D01*
X536403Y265909D01*
X536687Y265430D01*
X536960Y264945D01*
X537220Y264453D01*
X537469Y263954D01*
X537705Y263450D01*
X537929Y262941D01*
X538141Y262426D01*
X538339Y261906D01*
X538526Y261381D01*
X538699Y260852D01*
X538859Y260319D01*
X539007Y259782D01*
X539141Y259242D01*
X539262Y258698D01*
X539370Y258152D01*
X539464Y257604D01*
X539545Y257053D01*
X539613Y256500D01*
X539667Y255946D01*
X539708Y255391D01*
X539735Y254835D01*
X539748Y254278D01*
X539748Y253722D01*
X539735Y253165D01*
X539708Y252609D01*
X539667Y252054D01*
X539613Y251500D01*
X539545Y250947D01*
X539464Y250396D01*
X539370Y249848D01*
X539262Y249302D01*
X539141Y248758D01*
X539007Y248218D01*
X538859Y247681D01*
X538699Y247148D01*
X538526Y246619D01*
X538339Y246094D01*
X538141Y245574D01*
X537929Y245059D01*
X537705Y244550D01*
X537469Y244046D01*
X537220Y243547D01*
X536960Y243055D01*
X536687Y242570D01*
X536403Y242091D01*
X536107Y241620D01*
X535800Y241155D01*
X535482Y240699D01*
X535152Y240250D01*
X534812Y239809D01*
X534461Y239377D01*
X534100Y238954D01*
X533728Y238539D01*
X533347Y238133D01*
X532956Y237737D01*
X532555Y237351D01*
X532145Y236975D01*
X531726Y236608D01*
X531298Y236252D01*
X530861Y235906D01*
X530417Y235572D01*
X529964Y235248D01*
X529503Y234935D01*
X529035Y234633D01*
X528560Y234343D01*
X528078Y234065D01*
X527589Y233798D01*
X527094Y233544D01*
X526593Y233301D01*
X526086Y233071D01*
X525574Y232854D01*
X525056Y232648D01*
X524534Y232456D01*
X524007Y232276D01*
X523476Y232109D01*
X522941Y231955D01*
X522402Y231815D01*
X521860Y231687D01*
X521316Y231572D01*
X520768Y231471D01*
X520218Y231384D01*
X519667Y231309D01*
X519113Y231248D01*
X518559Y231201D01*
X518003Y231167D01*
X517447Y231147D01*
X516890Y231140D01*
X515370Y617220D02*
X515370Y652780D01*
X515370Y617220D02*
X449830Y617220D01*
X449830Y652780D01*
X515370Y652780D01*
X457200Y101600D02*
X457200Y76500D01*
X467200Y114300D02*
X498000Y114300D01*
X508000Y101300D02*
X508000Y76500D01*
X498000Y63500D02*
X467200Y63500D01*
X469900Y88900D02*
X469904Y89212D01*
X469915Y89523D01*
X469934Y89834D01*
X469961Y90145D01*
X469996Y90455D01*
X470037Y90763D01*
X470087Y91071D01*
X470144Y91378D01*
X470209Y91683D01*
X470281Y91986D01*
X470360Y92287D01*
X470447Y92587D01*
X470541Y92884D01*
X470642Y93179D01*
X470751Y93471D01*
X470867Y93760D01*
X470990Y94047D01*
X471119Y94330D01*
X471256Y94610D01*
X471400Y94887D01*
X471550Y95160D01*
X471707Y95429D01*
X471870Y95694D01*
X472040Y95956D01*
X472217Y96213D01*
X472399Y96465D01*
X472588Y96713D01*
X472783Y96957D01*
X472983Y97195D01*
X473190Y97429D01*
X473402Y97657D01*
X473620Y97880D01*
X473843Y98098D01*
X474071Y98310D01*
X474305Y98517D01*
X474543Y98717D01*
X474787Y98912D01*
X475035Y99101D01*
X475287Y99283D01*
X475544Y99460D01*
X475806Y99630D01*
X476071Y99793D01*
X476340Y99950D01*
X476613Y100100D01*
X476890Y100244D01*
X477170Y100381D01*
X477453Y100510D01*
X477740Y100633D01*
X478029Y100749D01*
X478321Y100858D01*
X478616Y100959D01*
X478913Y101053D01*
X479213Y101140D01*
X479514Y101219D01*
X479817Y101291D01*
X480122Y101356D01*
X480429Y101413D01*
X480737Y101463D01*
X481045Y101504D01*
X481355Y101539D01*
X481666Y101566D01*
X481977Y101585D01*
X482288Y101596D01*
X482600Y101600D01*
X482912Y101596D01*
X483223Y101585D01*
X483534Y101566D01*
X483845Y101539D01*
X484155Y101504D01*
X484463Y101463D01*
X484771Y101413D01*
X485078Y101356D01*
X485383Y101291D01*
X485686Y101219D01*
X485987Y101140D01*
X486287Y101053D01*
X486584Y100959D01*
X486879Y100858D01*
X487171Y100749D01*
X487460Y100633D01*
X487747Y100510D01*
X488030Y100381D01*
X488310Y100244D01*
X488587Y100100D01*
X488860Y99950D01*
X489129Y99793D01*
X489394Y99630D01*
X489656Y99460D01*
X489913Y99283D01*
X490165Y99101D01*
X490413Y98912D01*
X490657Y98717D01*
X490895Y98517D01*
X491129Y98310D01*
X491357Y98098D01*
X491580Y97880D01*
X491798Y97657D01*
X492010Y97429D01*
X492217Y97195D01*
X492417Y96957D01*
X492612Y96713D01*
X492801Y96465D01*
X492983Y96213D01*
X493160Y95956D01*
X493330Y95694D01*
X493493Y95429D01*
X493650Y95160D01*
X493800Y94887D01*
X493944Y94610D01*
X494081Y94330D01*
X494210Y94047D01*
X494333Y93760D01*
X494449Y93471D01*
X494558Y93179D01*
X494659Y92884D01*
X494753Y92587D01*
X494840Y92287D01*
X494919Y91986D01*
X494991Y91683D01*
X495056Y91378D01*
X495113Y91071D01*
X495163Y90763D01*
X495204Y90455D01*
X495239Y90145D01*
X495266Y89834D01*
X495285Y89523D01*
X495296Y89212D01*
X495300Y88900D01*
X495296Y88588D01*
X495285Y88277D01*
X495266Y87966D01*
X495239Y87655D01*
X495204Y87345D01*
X495163Y87037D01*
X495113Y86729D01*
X495056Y86422D01*
X494991Y86117D01*
X494919Y85814D01*
X494840Y85513D01*
X494753Y85213D01*
X494659Y84916D01*
X494558Y84621D01*
X494449Y84329D01*
X494333Y84040D01*
X494210Y83753D01*
X494081Y83470D01*
X493944Y83190D01*
X493800Y82913D01*
X493650Y82640D01*
X493493Y82371D01*
X493330Y82106D01*
X493160Y81844D01*
X492983Y81587D01*
X492801Y81335D01*
X492612Y81087D01*
X492417Y80843D01*
X492217Y80605D01*
X492010Y80371D01*
X491798Y80143D01*
X491580Y79920D01*
X491357Y79702D01*
X491129Y79490D01*
X490895Y79283D01*
X490657Y79083D01*
X490413Y78888D01*
X490165Y78699D01*
X489913Y78517D01*
X489656Y78340D01*
X489394Y78170D01*
X489129Y78007D01*
X488860Y77850D01*
X488587Y77700D01*
X488310Y77556D01*
X488030Y77419D01*
X487747Y77290D01*
X487460Y77167D01*
X487171Y77051D01*
X486879Y76942D01*
X486584Y76841D01*
X486287Y76747D01*
X485987Y76660D01*
X485686Y76581D01*
X485383Y76509D01*
X485078Y76444D01*
X484771Y76387D01*
X484463Y76337D01*
X484155Y76296D01*
X483845Y76261D01*
X483534Y76234D01*
X483223Y76215D01*
X482912Y76204D01*
X482600Y76200D01*
X482288Y76204D01*
X481977Y76215D01*
X481666Y76234D01*
X481355Y76261D01*
X481045Y76296D01*
X480737Y76337D01*
X480429Y76387D01*
X480122Y76444D01*
X479817Y76509D01*
X479514Y76581D01*
X479213Y76660D01*
X478913Y76747D01*
X478616Y76841D01*
X478321Y76942D01*
X478029Y77051D01*
X477740Y77167D01*
X477453Y77290D01*
X477170Y77419D01*
X476890Y77556D01*
X476613Y77700D01*
X476340Y77850D01*
X476071Y78007D01*
X475806Y78170D01*
X475544Y78340D01*
X475287Y78517D01*
X475035Y78699D01*
X474787Y78888D01*
X474543Y79083D01*
X474305Y79283D01*
X474071Y79490D01*
X473843Y79702D01*
X473620Y79920D01*
X473402Y80143D01*
X473190Y80371D01*
X472983Y80605D01*
X472783Y80843D01*
X472588Y81087D01*
X472399Y81335D01*
X472217Y81587D01*
X472040Y81844D01*
X471870Y82106D01*
X471707Y82371D01*
X471550Y82640D01*
X471400Y82913D01*
X471256Y83190D01*
X471119Y83470D01*
X470990Y83753D01*
X470867Y84040D01*
X470751Y84329D01*
X470642Y84621D01*
X470541Y84916D01*
X470447Y85213D01*
X470360Y85513D01*
X470281Y85814D01*
X470209Y86117D01*
X470144Y86422D01*
X470087Y86729D01*
X470037Y87037D01*
X469996Y87345D01*
X469961Y87655D01*
X469934Y87966D01*
X469915Y88277D01*
X469904Y88588D01*
X469900Y88900D01*
X730250Y698500D02*
X723900Y704850D01*
X723900Y717550D01*
X730250Y723900D01*
X742950Y723900D02*
X749300Y717550D01*
X749300Y704850D01*
X742950Y698500D01*
X723900Y666750D02*
X723900Y654050D01*
X723900Y666750D02*
X730250Y673100D01*
X742950Y673100D02*
X749300Y666750D01*
X730250Y673100D02*
X723900Y679450D01*
X723900Y692150D01*
X730250Y698500D01*
X742950Y698500D02*
X749300Y692150D01*
X749300Y679450D01*
X742950Y673100D01*
X742950Y647700D02*
X730250Y647700D01*
X723900Y654050D01*
X742950Y647700D02*
X749300Y654050D01*
X749300Y666750D01*
X742950Y723900D02*
X730250Y723900D01*
X723900Y450850D02*
X730250Y444500D01*
X723900Y450850D02*
X723900Y463550D01*
X730250Y469900D01*
X742950Y469900D02*
X749300Y463550D01*
X749300Y450850D01*
X742950Y444500D01*
X723900Y412750D02*
X723900Y400050D01*
X723900Y412750D02*
X730250Y419100D01*
X742950Y419100D02*
X749300Y412750D01*
X730250Y419100D02*
X723900Y425450D01*
X723900Y438150D01*
X730250Y444500D01*
X742950Y444500D02*
X749300Y438150D01*
X749300Y425450D01*
X742950Y419100D01*
X742950Y393700D02*
X730250Y393700D01*
X723900Y400050D01*
X742950Y393700D02*
X749300Y400050D01*
X749300Y412750D01*
X742950Y469900D02*
X730250Y469900D01*
M02*
