G04 EAGLE Gerber RS-274X export*
G75*
%MOMM*%
%FSLAX34Y34*%
%LPD*%
%INTop Paste*%
%IPPOS*%
%AMOC8*
5,1,8,0,0,1.08239X$1,22.5*%
G01*
%ADD10R,1.100000X1.000000*%
%ADD11R,0.800000X1.200000*%
%ADD12C,0.300000*%
%ADD13R,0.200000X1.000000*%
%ADD14R,1.000000X0.200000*%
%ADD15R,0.350000X1.400000*%
%ADD16R,1.800000X1.900000*%
%ADD17R,1.900000X1.900000*%
%ADD18R,1.400000X1.000000*%
%ADD19R,0.450000X0.250000*%
%ADD20R,0.250000X0.450000*%
%ADD21R,1.500000X2.000000*%
%ADD22R,3.800000X2.000000*%
%ADD23R,1.524000X0.762000*%


D10*
X537600Y546100D03*
X554600Y546100D03*
D11*
X511700Y482600D03*
X529700Y482600D03*
X473600Y482600D03*
X491600Y482600D03*
D10*
X575700Y546100D03*
X592700Y546100D03*
D11*
X435500Y482600D03*
X453500Y482600D03*
X372000Y609600D03*
X390000Y609600D03*
X333900Y609600D03*
X351900Y609600D03*
X295800Y609600D03*
X313800Y609600D03*
X257700Y609600D03*
X275700Y609600D03*
X613300Y355600D03*
X631300Y355600D03*
D10*
X385200Y508000D03*
X402200Y508000D03*
X613800Y393700D03*
X630800Y393700D03*
X347100Y508000D03*
X364100Y508000D03*
D11*
X295800Y469900D03*
X313800Y469900D03*
X613300Y317500D03*
X631300Y317500D03*
X549800Y139700D03*
X567800Y139700D03*
X600600Y660400D03*
X618600Y660400D03*
D12*
X627570Y435300D02*
X627570Y428300D01*
X627570Y435300D02*
X634570Y435300D01*
X634570Y428300D01*
X627570Y428300D01*
X627570Y431150D02*
X634570Y431150D01*
X634570Y434000D02*
X627570Y434000D01*
X610030Y435300D02*
X610030Y428300D01*
X610030Y435300D02*
X617030Y435300D01*
X617030Y428300D01*
X610030Y428300D01*
X610030Y431150D02*
X617030Y431150D01*
X617030Y434000D02*
X610030Y434000D01*
X589470Y435300D02*
X589470Y428300D01*
X589470Y435300D02*
X596470Y435300D01*
X596470Y428300D01*
X589470Y428300D01*
X589470Y431150D02*
X596470Y431150D01*
X596470Y434000D02*
X589470Y434000D01*
X571930Y435300D02*
X571930Y428300D01*
X571930Y435300D02*
X578930Y435300D01*
X578930Y428300D01*
X571930Y428300D01*
X571930Y431150D02*
X578930Y431150D01*
X578930Y434000D02*
X571930Y434000D01*
D13*
X455100Y348700D03*
X460100Y348700D03*
X465100Y348700D03*
X470100Y348700D03*
X475100Y348700D03*
X480100Y348700D03*
X485100Y348700D03*
X490100Y348700D03*
X495100Y348700D03*
X500100Y348700D03*
X505100Y348700D03*
X510100Y348700D03*
D14*
X527600Y366200D03*
X527600Y371200D03*
X527600Y376200D03*
X527600Y381200D03*
X527600Y386200D03*
X527600Y391200D03*
X527600Y396200D03*
X527600Y401200D03*
X527600Y406200D03*
X527600Y411200D03*
X527600Y416200D03*
X527600Y421200D03*
D13*
X510100Y438700D03*
X505100Y438700D03*
X500100Y438700D03*
X495100Y438700D03*
X490100Y438700D03*
X485100Y438700D03*
X480100Y438700D03*
X475100Y438700D03*
X470100Y438700D03*
X465100Y438700D03*
X460100Y438700D03*
X455100Y438700D03*
D14*
X437600Y421200D03*
X437600Y416200D03*
X437600Y411200D03*
X437600Y406200D03*
X437600Y401200D03*
X437600Y396200D03*
X437600Y391200D03*
X437600Y386200D03*
X437600Y381200D03*
X437600Y376200D03*
X437600Y371200D03*
X437600Y366200D03*
D15*
X596600Y115400D03*
X622600Y115400D03*
X603100Y115400D03*
X609600Y115400D03*
X616100Y115400D03*
D16*
X569600Y88900D03*
X649600Y88900D03*
D17*
X596900Y88900D03*
X622300Y88900D03*
D18*
X674800Y88900D03*
X696800Y98400D03*
X696800Y79400D03*
X674800Y228600D03*
X696800Y238100D03*
X696800Y219100D03*
D10*
X575700Y393700D03*
X592700Y393700D03*
X347100Y546100D03*
X364100Y546100D03*
X575700Y241300D03*
X592700Y241300D03*
X309000Y546100D03*
X326000Y546100D03*
X613800Y546100D03*
X630800Y546100D03*
X613800Y279400D03*
X630800Y279400D03*
X575700Y279400D03*
X592700Y279400D03*
X613800Y584200D03*
X630800Y584200D03*
X575700Y584200D03*
X592700Y584200D03*
X575700Y355600D03*
X592700Y355600D03*
X613800Y241300D03*
X630800Y241300D03*
X537600Y584200D03*
X554600Y584200D03*
X385200Y546100D03*
X402200Y546100D03*
D19*
X366000Y221900D03*
X366000Y225900D03*
X366000Y217900D03*
X366000Y213900D03*
X366000Y209900D03*
X366000Y205900D03*
D20*
X371000Y200900D03*
X375000Y200900D03*
X379000Y200900D03*
X383000Y200900D03*
X387000Y200900D03*
X391000Y200900D03*
D19*
X396000Y205900D03*
X396000Y209900D03*
X396000Y217900D03*
X396000Y213900D03*
X396000Y221900D03*
X396000Y225900D03*
D20*
X391000Y230900D03*
X387000Y230900D03*
X383000Y230900D03*
X379000Y230900D03*
X375000Y230900D03*
X371000Y230900D03*
D21*
X459600Y603500D03*
X482600Y603500D03*
X505600Y603500D03*
D22*
X482600Y666500D03*
D23*
X454660Y107950D03*
X510540Y107950D03*
X454660Y69850D03*
X510540Y69850D03*
M02*
