G04 EAGLE Gerber RS-274X export*
G75*
%MOMM*%
%FSLAX34Y34*%
%LPD*%
%INTop Soldermask*%
%IPPOS*%
%AMOC8*
5,1,8,0,0,1.08239X$1,22.5*%
G01*
%ADD10C,3.153200*%
%ADD11R,1.303200X1.203200*%
%ADD12R,1.003200X1.403200*%
%ADD13C,0.505344*%
%ADD14C,2.082800*%
%ADD15R,0.403200X1.203200*%
%ADD16R,1.203200X0.403200*%
%ADD17R,0.553200X1.603200*%
%ADD18R,2.003200X2.103200*%
%ADD19R,2.103200X2.103200*%
%ADD20C,2.387600*%
%ADD21R,2.235200X2.235200*%
%ADD22C,2.235200*%
%ADD23R,1.603200X1.203200*%
%ADD24R,0.698200X0.453200*%
%ADD25R,0.803200X0.453200*%
%ADD26R,0.453200X0.698200*%
%ADD27R,0.453200X0.803200*%
%ADD28R,0.104000X0.453000*%
%ADD29R,0.453000X0.104000*%
%ADD30C,1.854200*%
%ADD31R,1.703200X2.203200*%
%ADD32R,4.003200X2.203200*%
%ADD33R,1.727200X0.965200*%
%ADD34C,0.959600*%


D10*
X254000Y76200D03*
X762000Y76200D03*
X762000Y774700D03*
X254000Y774700D03*
D11*
X537600Y546100D03*
X554600Y546100D03*
D12*
X511700Y482600D03*
X529700Y482600D03*
X473600Y482600D03*
X491600Y482600D03*
D11*
X575700Y546100D03*
X592700Y546100D03*
D12*
X435500Y482600D03*
X453500Y482600D03*
X372000Y609600D03*
X390000Y609600D03*
X333900Y609600D03*
X351900Y609600D03*
X295800Y609600D03*
X313800Y609600D03*
X257700Y609600D03*
X275700Y609600D03*
X613300Y355600D03*
X631300Y355600D03*
D11*
X385200Y508000D03*
X402200Y508000D03*
X613800Y393700D03*
X630800Y393700D03*
X347100Y508000D03*
X364100Y508000D03*
D12*
X295800Y469900D03*
X313800Y469900D03*
X613300Y317500D03*
X631300Y317500D03*
X549800Y139700D03*
X567800Y139700D03*
X600600Y660400D03*
X618600Y660400D03*
D13*
X627580Y435290D02*
X627580Y428310D01*
X627580Y435290D02*
X634560Y435290D01*
X634560Y428310D01*
X627580Y428310D01*
X627580Y433110D02*
X634560Y433110D01*
X610040Y435290D02*
X610040Y428310D01*
X610040Y435290D02*
X617020Y435290D01*
X617020Y428310D01*
X610040Y428310D01*
X610040Y433110D02*
X617020Y433110D01*
X589480Y435290D02*
X589480Y428310D01*
X589480Y435290D02*
X596460Y435290D01*
X596460Y428310D01*
X589480Y428310D01*
X589480Y433110D02*
X596460Y433110D01*
X571940Y435290D02*
X571940Y428310D01*
X571940Y435290D02*
X578920Y435290D01*
X578920Y428310D01*
X571940Y428310D01*
X571940Y433110D02*
X578920Y433110D01*
D14*
X457200Y139700D03*
X457200Y165100D03*
X482600Y139700D03*
X482600Y165100D03*
X508000Y139700D03*
X508000Y165100D03*
D15*
X455100Y348700D03*
X460100Y348700D03*
X465100Y348700D03*
X470100Y348700D03*
X475100Y348700D03*
X480100Y348700D03*
X485100Y348700D03*
X490100Y348700D03*
X495100Y348700D03*
X500100Y348700D03*
X505100Y348700D03*
X510100Y348700D03*
D16*
X527600Y366200D03*
X527600Y371200D03*
X527600Y376200D03*
X527600Y381200D03*
X527600Y386200D03*
X527600Y391200D03*
X527600Y396200D03*
X527600Y401200D03*
X527600Y406200D03*
X527600Y411200D03*
X527600Y416200D03*
X527600Y421200D03*
D15*
X510100Y438700D03*
X505100Y438700D03*
X500100Y438700D03*
X495100Y438700D03*
X490100Y438700D03*
X485100Y438700D03*
X480100Y438700D03*
X475100Y438700D03*
X470100Y438700D03*
X465100Y438700D03*
X460100Y438700D03*
X455100Y438700D03*
D16*
X437600Y421200D03*
X437600Y416200D03*
X437600Y411200D03*
X437600Y406200D03*
X437600Y401200D03*
X437600Y396200D03*
X437600Y391200D03*
X437600Y386200D03*
X437600Y381200D03*
X437600Y376200D03*
X437600Y371200D03*
X437600Y366200D03*
D17*
X596600Y115400D03*
X622600Y115400D03*
X603100Y115400D03*
X609600Y115400D03*
X616100Y115400D03*
D18*
X569600Y88900D03*
X649600Y88900D03*
D19*
X596900Y88900D03*
X622300Y88900D03*
D20*
X297400Y139700D03*
X262400Y139700D03*
X261400Y241300D03*
X296400Y241300D03*
D21*
X698500Y520700D03*
D22*
X733500Y520700D03*
D23*
X674800Y88900D03*
X696800Y98400D03*
X696800Y79400D03*
X674800Y228600D03*
X696800Y238100D03*
X696800Y219100D03*
D11*
X575700Y393700D03*
X592700Y393700D03*
X347100Y546100D03*
X364100Y546100D03*
X575700Y241300D03*
X592700Y241300D03*
X309000Y546100D03*
X326000Y546100D03*
X613800Y546100D03*
X630800Y546100D03*
X613800Y279400D03*
X630800Y279400D03*
X575700Y279400D03*
X592700Y279400D03*
X613800Y584200D03*
X630800Y584200D03*
X575700Y584200D03*
X592700Y584200D03*
X575700Y355600D03*
X592700Y355600D03*
X613800Y241300D03*
X630800Y241300D03*
X537600Y584200D03*
X554600Y584200D03*
X385200Y546100D03*
X402200Y546100D03*
D14*
X444500Y723900D03*
X469900Y723900D03*
X495300Y723900D03*
X520700Y723900D03*
D24*
X365475Y225900D03*
D25*
X366000Y221900D03*
X366000Y217900D03*
X366000Y213900D03*
X366000Y209900D03*
D24*
X365475Y205900D03*
D26*
X371000Y200375D03*
D27*
X375000Y200900D03*
X379000Y200900D03*
X383000Y200900D03*
X387000Y200900D03*
D26*
X391000Y200375D03*
D24*
X396525Y205900D03*
D25*
X396000Y209900D03*
X396000Y213900D03*
X396000Y217900D03*
X396000Y221900D03*
D24*
X396525Y225900D03*
D26*
X391000Y231425D03*
D27*
X387000Y230900D03*
X383000Y230900D03*
X379000Y230900D03*
X375000Y230900D03*
D26*
X371000Y231425D03*
D28*
X369490Y225895D03*
D29*
X371005Y204390D03*
D28*
X392510Y205905D03*
D29*
X390995Y227410D03*
X371005Y227410D03*
D28*
X369490Y205905D03*
D29*
X390995Y204390D03*
D28*
X392510Y225895D03*
D30*
X279400Y355600D03*
X279400Y406400D03*
X508000Y254000D03*
X457200Y254000D03*
D31*
X459600Y603500D03*
X482600Y603500D03*
X505600Y603500D03*
D32*
X482600Y666500D03*
D33*
X454660Y107950D03*
X510540Y107950D03*
X454660Y69850D03*
X510540Y69850D03*
D14*
X736600Y660400D03*
X736600Y685800D03*
X736600Y711200D03*
X736600Y406400D03*
X736600Y431800D03*
X736600Y457200D03*
D34*
X525463Y585788D03*
X422275Y585788D03*
X361950Y609600D03*
X496888Y360363D03*
X441325Y358775D03*
X574675Y290513D03*
X450850Y406400D03*
X374650Y184150D03*
X608013Y331788D03*
X590550Y573088D03*
X406400Y165100D03*
X630238Y252413D03*
X588963Y211138D03*
X584200Y165100D03*
X563563Y334963D03*
X511175Y284163D03*
X554038Y401638D03*
X584200Y403225D03*
X420688Y346075D03*
X603250Y271463D03*
X368300Y622300D03*
X615950Y527050D03*
X631825Y520700D03*
X563563Y534988D03*
X577850Y139700D03*
X487363Y522288D03*
X723900Y635000D03*
X698500Y571500D03*
X673100Y609600D03*
X622300Y127000D03*
X549275Y558800D03*
X358775Y528638D03*
X488950Y409575D03*
X584200Y423863D03*
X596900Y127706D03*
X568607Y127000D03*
X498475Y409575D03*
X576263Y371475D03*
X406400Y190500D03*
X635000Y203200D03*
X330200Y420688D03*
X466725Y377825D03*
X479425Y338138D03*
X323850Y609600D03*
X508000Y539750D03*
X622300Y269875D03*
X265113Y354013D03*
X546100Y393700D03*
X546100Y417795D03*
X546100Y508000D03*
X736600Y736600D03*
X546100Y381000D03*
X414338Y338138D03*
X581025Y252413D03*
X447675Y338138D03*
X639763Y288925D03*
X711200Y203200D03*
X381000Y192088D03*
X566738Y177800D03*
X366713Y522288D03*
X673100Y76200D03*
X331788Y534988D03*
X673100Y254000D03*
M02*
