%
M48
M72
T01C0.01378
T02C0.02756
T03C0.03937
T04C0.04000
T05C0.04724
T06C0.11614
%
T01
X88800Y103800
X91300Y106925
X101300Y106300
X101300Y96300
X142550Y143175
X130050Y164425
X136925Y173175
X125050Y180050
X115050Y172550
X117550Y164425
X106925Y167550
X104425Y164425
X118800Y191300
X133800Y192550
X137550Y192550
X156300Y195786
X159425Y189425
X156300Y186300
X156300Y181300
X168175Y177550
X171300Y190050
X171300Y198175
X163175Y163175
X167550Y145675
X178800Y138175
X186300Y137550
X189425Y130675
X193175Y145050
X206300Y131300
X191300Y111300
X173175Y114425
X164425Y101300
X171300Y96300
X168800Y86300
X165161Y81300
X176300Y81578
X186300Y81300
X206300Y61300
X221300Y111300
X180675Y161925
X170050Y130675
X156300Y231300
X163175Y241925
X157550Y251300
X148175Y261925
X141300Y243800
X133175Y236925
X107550Y261925
X86300Y276300
X83800Y271300
X68800Y271300
X71925Y241925
X82550Y239425
X85675Y236925
X71300Y196925
X45675Y170675
X173800Y256925
X183800Y238800
X190050Y236300
X206300Y271300
X216300Y256300
X226300Y281300
X231300Y321300
T02
X141300Y131300
X121300Y131300
X51300Y171300
X51300Y191300
T03
X57993Y126300
X44213Y126300
X44607Y86300
X58387Y86300
T04
X121300Y86300
X121300Y96300
X131300Y96300
X131300Y86300
X141300Y86300
X141300Y96300
X231300Y191300
X231300Y201300
X231300Y211300
X231300Y291300
X231300Y301300
X231300Y311300
X146300Y316300
X136300Y316300
X126300Y316300
X116300Y316300
T05
X216300Y236300
X230080Y236300
T06
X41300Y61300
X241300Y61300
X241300Y336300
X41300Y336300
M30
