G75*
%MOIN*%
%OFA0B0*%
%FSLAX25Y25*%
%IPPOS*%
%LPD*%
%AMOC8*
5,1,8,0,0,1.08239X$1,22.5*
%
%ADD10R,0.04331X0.03937*%
%ADD11R,0.03150X0.04724*%
%ADD12C,0.01181*%
%ADD13R,0.00787X0.03937*%
%ADD14R,0.03937X0.00787*%
%ADD15R,0.01378X0.05512*%
%ADD16R,0.07087X0.07480*%
%ADD17R,0.07480X0.07480*%
%ADD18R,0.05512X0.03937*%
%ADD19R,0.01772X0.00984*%
%ADD20R,0.00984X0.01772*%
%ADD21R,0.05906X0.07874*%
%ADD22R,0.14961X0.07874*%
%ADD23R,0.06000X0.03000*%
D10*
X0167954Y0126300D03*
X0174646Y0126300D03*
X0182954Y0126300D03*
X0189646Y0126300D03*
X0189646Y0141300D03*
X0182954Y0141300D03*
X0174646Y0141300D03*
X0167954Y0141300D03*
X0167954Y0171300D03*
X0174646Y0171300D03*
X0174646Y0186300D03*
X0167954Y0186300D03*
X0182954Y0186300D03*
X0189646Y0186300D03*
X0189646Y0246300D03*
X0182954Y0246300D03*
X0174646Y0246300D03*
X0167954Y0246300D03*
X0159646Y0246300D03*
X0152954Y0246300D03*
X0152954Y0261300D03*
X0159646Y0261300D03*
X0167954Y0261300D03*
X0174646Y0261300D03*
X0182954Y0261300D03*
X0189646Y0261300D03*
X0099646Y0246300D03*
X0092954Y0246300D03*
X0084646Y0246300D03*
X0077954Y0246300D03*
X0069646Y0246300D03*
X0062954Y0246300D03*
X0077954Y0231300D03*
X0084646Y0231300D03*
X0092954Y0231300D03*
X0099646Y0231300D03*
D11*
X0112757Y0221300D03*
X0119843Y0221300D03*
X0127757Y0221300D03*
X0134843Y0221300D03*
X0142757Y0221300D03*
X0149843Y0221300D03*
X0182757Y0171300D03*
X0189843Y0171300D03*
X0189843Y0156300D03*
X0182757Y0156300D03*
X0164843Y0086300D03*
X0157757Y0086300D03*
X0064843Y0216300D03*
X0057757Y0216300D03*
X0057757Y0271300D03*
X0064843Y0271300D03*
X0072757Y0271300D03*
X0079843Y0271300D03*
X0087757Y0271300D03*
X0094843Y0271300D03*
X0049843Y0271300D03*
X0042757Y0271300D03*
X0177757Y0291300D03*
X0184843Y0291300D03*
D12*
X0181469Y0202678D02*
X0181469Y0199922D01*
X0181469Y0202678D02*
X0184225Y0202678D01*
X0184225Y0199922D01*
X0181469Y0199922D01*
X0181469Y0201044D02*
X0184225Y0201044D01*
X0184225Y0202166D02*
X0181469Y0202166D01*
X0173375Y0202678D02*
X0173375Y0199922D01*
X0173375Y0202678D02*
X0176131Y0202678D01*
X0176131Y0199922D01*
X0173375Y0199922D01*
X0173375Y0201044D02*
X0176131Y0201044D01*
X0176131Y0202166D02*
X0173375Y0202166D01*
X0166469Y0202678D02*
X0166469Y0199922D01*
X0166469Y0202678D02*
X0169225Y0202678D01*
X0169225Y0199922D01*
X0166469Y0199922D01*
X0166469Y0201044D02*
X0169225Y0201044D01*
X0169225Y0202166D02*
X0166469Y0202166D01*
X0188375Y0202678D02*
X0188375Y0199922D01*
X0188375Y0202678D02*
X0191131Y0202678D01*
X0191131Y0199922D01*
X0188375Y0199922D01*
X0188375Y0201044D02*
X0191131Y0201044D01*
X0191131Y0202166D02*
X0188375Y0202166D01*
D13*
X0142127Y0204017D03*
X0140158Y0204017D03*
X0138190Y0204017D03*
X0136221Y0204017D03*
X0134253Y0204017D03*
X0132284Y0204017D03*
X0130316Y0204017D03*
X0128347Y0204017D03*
X0126379Y0204017D03*
X0124410Y0204017D03*
X0122442Y0204017D03*
X0120473Y0204017D03*
X0120473Y0168583D03*
X0122442Y0168583D03*
X0124410Y0168583D03*
X0126379Y0168583D03*
X0128347Y0168583D03*
X0130316Y0168583D03*
X0132284Y0168583D03*
X0134253Y0168583D03*
X0136221Y0168583D03*
X0138190Y0168583D03*
X0140158Y0168583D03*
X0142127Y0168583D03*
D14*
X0149017Y0175473D03*
X0149017Y0177442D03*
X0149017Y0179410D03*
X0149017Y0181379D03*
X0149017Y0183347D03*
X0149017Y0185316D03*
X0149017Y0187284D03*
X0149017Y0189253D03*
X0149017Y0191221D03*
X0149017Y0193190D03*
X0149017Y0195158D03*
X0149017Y0197127D03*
X0113583Y0197127D03*
X0113583Y0195158D03*
X0113583Y0193190D03*
X0113583Y0191221D03*
X0113583Y0189253D03*
X0113583Y0187284D03*
X0113583Y0185316D03*
X0113583Y0183347D03*
X0113583Y0181379D03*
X0113583Y0179410D03*
X0113583Y0177442D03*
X0113583Y0175473D03*
D15*
X0176182Y0076733D03*
X0178741Y0076733D03*
X0181300Y0076733D03*
X0183859Y0076733D03*
X0186418Y0076733D03*
D16*
X0197048Y0066300D03*
X0165552Y0066300D03*
D17*
X0176300Y0066300D03*
X0186300Y0066300D03*
D18*
X0206969Y0066300D03*
X0215631Y0062560D03*
X0215631Y0070040D03*
X0215631Y0117560D03*
X0215631Y0125040D03*
X0206969Y0121300D03*
D19*
X0085394Y0112363D03*
X0085394Y0113938D03*
X0085394Y0115513D03*
X0085394Y0117087D03*
X0085394Y0118662D03*
X0085394Y0120237D03*
X0097206Y0120237D03*
X0097206Y0118662D03*
X0097206Y0117087D03*
X0097206Y0115513D03*
X0097206Y0113938D03*
X0097206Y0112363D03*
D20*
X0095237Y0110394D03*
X0093662Y0110394D03*
X0092087Y0110394D03*
X0090513Y0110394D03*
X0088938Y0110394D03*
X0087363Y0110394D03*
X0087363Y0122206D03*
X0088938Y0122206D03*
X0090513Y0122206D03*
X0092087Y0122206D03*
X0093662Y0122206D03*
X0095237Y0122206D03*
D21*
X0122245Y0268898D03*
X0131300Y0268898D03*
X0140355Y0268898D03*
D22*
X0131300Y0293702D03*
D23*
X0120300Y0073800D03*
X0120300Y0058800D03*
X0142300Y0058800D03*
X0142300Y0073800D03*
M02*
