G75*
%MOIN*%
%OFA0B0*%
%FSLAX25Y25*%
%IPPOS*%
%LPD*%
%AMOC8*
5,1,8,0,0,1.08239X$1,22.5*
%
%ADD10C,0.07400*%
%ADD11C,0.08600*%
%ADD12R,0.08000X0.08000*%
%ADD13C,0.08000*%
%ADD14C,0.06500*%
%ADD15C,0.00600*%
%ADD16C,0.02978*%
D10*
X0121300Y0086300D03*
X0121300Y0096300D03*
X0131300Y0096300D03*
X0131300Y0086300D03*
X0141300Y0086300D03*
X0141300Y0096300D03*
X0231300Y0191300D03*
X0231300Y0201300D03*
X0231300Y0211300D03*
X0231300Y0291300D03*
X0231300Y0301300D03*
X0231300Y0311300D03*
X0146300Y0316300D03*
X0136300Y0316300D03*
X0126300Y0316300D03*
X0116300Y0316300D03*
D11*
X0044607Y0086300D03*
X0058387Y0086300D03*
X0057993Y0126300D03*
X0044213Y0126300D03*
D12*
X0216300Y0236300D03*
D13*
X0230080Y0236300D03*
D14*
X0141300Y0131300D03*
X0121300Y0131300D03*
X0051300Y0171300D03*
X0051300Y0191300D03*
D15*
X0065675Y0191300D01*
X0071300Y0196925D01*
X0108175Y0196925D01*
X0125050Y0180050D01*
X0124425Y0170050D02*
X0052550Y0170050D01*
X0051300Y0171300D01*
X0045675Y0170675D02*
X0080675Y0135675D01*
X0136925Y0135675D01*
X0141300Y0131300D01*
X0136300Y0138175D02*
X0178800Y0138175D01*
X0186300Y0137550D02*
X0175675Y0126925D01*
X0125675Y0126925D01*
X0121300Y0131300D01*
X0131925Y0136925D02*
X0163800Y0136925D01*
X0170050Y0130675D01*
X0167550Y0145675D02*
X0167550Y0161925D01*
X0180675Y0161925D01*
X0186300Y0175050D02*
X0228800Y0132550D01*
X0228800Y0063800D01*
X0221300Y0056300D01*
X0211300Y0056300D01*
X0206300Y0061300D01*
X0186300Y0081300D02*
X0186300Y0086300D01*
X0168800Y0086300D01*
X0141300Y0086300D01*
X0136300Y0091300D02*
X0131300Y0086300D01*
X0136300Y0091300D02*
X0166925Y0091300D01*
X0171300Y0095675D01*
X0171300Y0096300D01*
X0164425Y0101300D02*
X0096925Y0101300D01*
X0091300Y0106925D01*
X0088800Y0103800D02*
X0096300Y0096300D01*
X0101300Y0096300D01*
X0121300Y0096300D01*
X0101300Y0106300D02*
X0186300Y0106300D01*
X0191300Y0111300D01*
X0193175Y0119425D02*
X0201300Y0111300D01*
X0221300Y0111300D01*
X0206300Y0131300D02*
X0206300Y0140050D01*
X0172550Y0173800D01*
X0140050Y0173800D01*
X0071925Y0241925D01*
X0082550Y0239425D02*
X0145675Y0239425D01*
X0157550Y0251300D01*
X0167550Y0241300D01*
X0225050Y0241300D01*
X0230050Y0236300D01*
X0230080Y0236300D01*
X0232109Y0231400D02*
X0235900Y0235191D01*
X0235900Y0303205D01*
X0231300Y0307805D01*
X0231300Y0321300D01*
X0226300Y0281300D02*
X0226300Y0271300D01*
X0206300Y0271300D01*
X0216300Y0256300D02*
X0226300Y0266300D01*
X0226300Y0271300D01*
X0216300Y0236300D02*
X0190050Y0236300D01*
X0186300Y0236300D01*
X0183800Y0238800D01*
X0166300Y0238800D01*
X0163175Y0241925D01*
X0159425Y0238175D01*
X0134425Y0238175D01*
X0133175Y0236925D01*
X0141300Y0243800D02*
X0096300Y0243800D01*
X0068800Y0271300D01*
X0083800Y0271300D02*
X0093175Y0261925D01*
X0107550Y0261925D01*
X0148175Y0261925D01*
X0153175Y0256925D01*
X0173800Y0256925D01*
X0166400Y0231400D02*
X0232109Y0231400D01*
X0231300Y0211300D02*
X0201300Y0181300D01*
X0156300Y0181300D01*
X0156300Y0186300D02*
X0156300Y0195786D01*
X0160050Y0190050D02*
X0171300Y0190050D01*
X0171300Y0198175D02*
X0139425Y0198175D01*
X0133800Y0192550D01*
X0137550Y0192550D02*
X0152550Y0177550D01*
X0168175Y0177550D01*
X0167550Y0172550D02*
X0136300Y0172550D01*
X0136925Y0173175D01*
X0118800Y0191300D01*
X0115050Y0172550D02*
X0136300Y0172550D01*
X0130050Y0164425D02*
X0124425Y0170050D01*
X0117550Y0164425D02*
X0141300Y0140675D01*
X0193175Y0140675D01*
X0193175Y0119425D01*
X0189425Y0130675D02*
X0173175Y0114425D01*
X0193175Y0140675D02*
X0193175Y0145050D01*
X0186300Y0175050D02*
X0147550Y0175050D01*
X0085675Y0236925D01*
X0086300Y0276300D02*
X0116300Y0306300D01*
X0116300Y0316300D01*
X0146300Y0316300D02*
X0148175Y0316300D01*
X0148175Y0261925D01*
X0156300Y0231300D02*
X0166300Y0231300D01*
X0166400Y0231400D01*
X0160050Y0190050D02*
X0159425Y0189425D01*
X0167550Y0172550D02*
X0167550Y0161925D01*
X0163175Y0163175D02*
X0143175Y0143175D01*
X0142550Y0143175D01*
X0136300Y0138175D02*
X0106925Y0167550D01*
X0104425Y0164425D02*
X0131925Y0136925D01*
X0165161Y0081300D02*
X0176022Y0081300D01*
X0176300Y0081578D01*
X0060050Y0086300D02*
X0058387Y0086300D01*
X0060050Y0086300D02*
X0060050Y0110675D01*
X0044425Y0126300D01*
X0044213Y0126300D01*
D16*
X0045675Y0170675D03*
X0071300Y0196925D03*
X0085675Y0236925D03*
X0082550Y0239425D03*
X0071925Y0241925D03*
X0068800Y0271300D03*
X0083800Y0271300D03*
X0086300Y0276300D03*
X0107550Y0261925D03*
X0133175Y0236925D03*
X0141300Y0243800D03*
X0148175Y0261925D03*
X0157550Y0251300D03*
X0163175Y0241925D03*
X0156300Y0231300D03*
X0173800Y0256925D03*
X0183800Y0238800D03*
X0190050Y0236300D03*
X0206300Y0271300D03*
X0216300Y0256300D03*
X0226300Y0281300D03*
X0231300Y0321300D03*
X0171300Y0198175D03*
X0171300Y0190050D03*
X0168175Y0177550D03*
X0159425Y0189425D03*
X0156300Y0186300D03*
X0156300Y0181300D03*
X0156300Y0195786D03*
X0137550Y0192550D03*
X0133800Y0192550D03*
X0125050Y0180050D03*
X0115050Y0172550D03*
X0117550Y0164425D03*
X0106925Y0167550D03*
X0104425Y0164425D03*
X0118800Y0191300D03*
X0136925Y0173175D03*
X0130050Y0164425D03*
X0142550Y0143175D03*
X0163175Y0163175D03*
X0167550Y0145675D03*
X0178800Y0138175D03*
X0186300Y0137550D03*
X0189425Y0130675D03*
X0193175Y0145050D03*
X0206300Y0131300D03*
X0191300Y0111300D03*
X0173175Y0114425D03*
X0164425Y0101300D03*
X0171300Y0096300D03*
X0168800Y0086300D03*
X0165161Y0081300D03*
X0176300Y0081578D03*
X0186300Y0081300D03*
X0206300Y0061300D03*
X0221300Y0111300D03*
X0180675Y0161925D03*
X0170050Y0130675D03*
X0101300Y0106300D03*
X0101300Y0096300D03*
X0091300Y0106925D03*
X0088800Y0103800D03*
M02*
