G04 EAGLE Gerber RS-274X export*
G75*
%MOMM*%
%FSLAX34Y34*%
%LPD*%
%INEAGLE Copper Layer 2*%
%IPPOS*%
%AMOC8*
5,1,8,0,0,1.08239X$1,22.5*%
G01*
%ADD10C,0.152400*%
%ADD11C,1.524000*%
%ADD12C,1.800000*%
%ADD13C,1.508000*%
%ADD14C,1.208000*%
%ADD15C,1.408000*%
%ADD16C,0.858000*%
%ADD17C,0.203200*%

G36*
X633148Y117336D02*
X633148Y117336D01*
X633166Y117339D01*
X633184Y117337D01*
X633287Y117360D01*
X633390Y117377D01*
X633406Y117386D01*
X633425Y117390D01*
X633515Y117444D01*
X633607Y117493D01*
X633620Y117506D01*
X633636Y117516D01*
X633704Y117596D01*
X633776Y117672D01*
X633783Y117689D01*
X633795Y117703D01*
X633835Y117801D01*
X633878Y117896D01*
X633880Y117914D01*
X633887Y117931D01*
X633905Y118098D01*
X633214Y829925D01*
X633211Y829946D01*
X633213Y829967D01*
X633191Y830067D01*
X633174Y830168D01*
X633164Y830186D01*
X633160Y830207D01*
X633107Y830295D01*
X633059Y830385D01*
X633044Y830400D01*
X633033Y830418D01*
X632955Y830484D01*
X632881Y830554D01*
X632861Y830563D01*
X632845Y830577D01*
X632750Y830615D01*
X632657Y830658D01*
X632636Y830660D01*
X632616Y830668D01*
X632450Y830685D01*
X263031Y829022D01*
X263013Y829019D01*
X262995Y829021D01*
X262892Y828999D01*
X262789Y828981D01*
X262773Y828972D01*
X262754Y828968D01*
X262664Y828914D01*
X262572Y828865D01*
X262559Y828852D01*
X262543Y828842D01*
X262475Y828762D01*
X262403Y828686D01*
X262396Y828669D01*
X262384Y828655D01*
X262344Y828557D01*
X262301Y828462D01*
X262299Y828444D01*
X262292Y828427D01*
X262274Y828260D01*
X262965Y116433D01*
X262968Y116412D01*
X262966Y116391D01*
X262988Y116292D01*
X263005Y116191D01*
X263015Y116172D01*
X263019Y116151D01*
X263072Y116064D01*
X263120Y115973D01*
X263135Y115959D01*
X263146Y115940D01*
X263224Y115874D01*
X263299Y115804D01*
X263318Y115795D01*
X263334Y115781D01*
X263429Y115744D01*
X263522Y115701D01*
X263543Y115698D01*
X263563Y115690D01*
X263729Y115673D01*
X633148Y117336D01*
G37*
%LPC*%
G36*
X315734Y609373D02*
X315734Y609373D01*
X313410Y610336D01*
X311632Y612114D01*
X310669Y614438D01*
X310669Y616954D01*
X311632Y619278D01*
X313410Y621056D01*
X315734Y622019D01*
X318250Y622019D01*
X320574Y621056D01*
X322352Y619278D01*
X323184Y617269D01*
X323222Y617208D01*
X323251Y617143D01*
X323286Y617104D01*
X323314Y617060D01*
X323369Y617014D01*
X323417Y616962D01*
X323463Y616937D01*
X323503Y616903D01*
X323570Y616878D01*
X323633Y616843D01*
X323684Y616834D01*
X323733Y616815D01*
X323804Y616812D01*
X323875Y616799D01*
X323926Y616807D01*
X323978Y616805D01*
X324047Y616825D01*
X324118Y616835D01*
X324165Y616859D01*
X324215Y616873D01*
X324274Y616914D01*
X324338Y616947D01*
X324374Y616984D01*
X324417Y617013D01*
X324460Y617071D01*
X324510Y617122D01*
X324544Y617185D01*
X324564Y617211D01*
X324571Y617233D01*
X324591Y617269D01*
X325423Y619278D01*
X327201Y621056D01*
X329525Y622019D01*
X332040Y622019D01*
X332103Y621993D01*
X332217Y621966D01*
X332330Y621937D01*
X332337Y621938D01*
X332343Y621937D01*
X332459Y621947D01*
X332576Y621957D01*
X332581Y621959D01*
X332588Y621960D01*
X332695Y622007D01*
X332802Y622053D01*
X332808Y622058D01*
X332812Y622060D01*
X332826Y622072D01*
X332933Y622158D01*
X471604Y760829D01*
X471657Y760902D01*
X471716Y760972D01*
X471728Y761002D01*
X471747Y761028D01*
X471774Y761115D01*
X471808Y761200D01*
X471813Y761241D01*
X471820Y761263D01*
X471819Y761296D01*
X471827Y761367D01*
X471827Y762446D01*
X471808Y762561D01*
X471791Y762677D01*
X471788Y762683D01*
X471787Y762689D01*
X471733Y762791D01*
X471679Y762896D01*
X471675Y762901D01*
X471672Y762906D01*
X471588Y762986D01*
X471504Y763069D01*
X471497Y763072D01*
X471493Y763076D01*
X471477Y763083D01*
X471357Y763149D01*
X469407Y763957D01*
X466692Y766672D01*
X465223Y770220D01*
X465223Y774060D01*
X466692Y777608D01*
X469407Y780323D01*
X472955Y781793D01*
X476795Y781793D01*
X480343Y780323D01*
X483059Y777608D01*
X484528Y774060D01*
X484528Y770220D01*
X483059Y766672D01*
X480343Y763957D01*
X478394Y763149D01*
X478295Y763088D01*
X478194Y763028D01*
X478190Y763023D01*
X478185Y763020D01*
X478110Y762930D01*
X478034Y762841D01*
X478032Y762835D01*
X478028Y762830D01*
X477987Y762722D01*
X477943Y762613D01*
X477942Y762605D01*
X477940Y762601D01*
X477939Y762582D01*
X477924Y762446D01*
X477924Y758526D01*
X475915Y756517D01*
X337244Y617846D01*
X337198Y617782D01*
X337182Y617765D01*
X337175Y617749D01*
X337106Y617657D01*
X337104Y617651D01*
X337101Y617646D01*
X337067Y617535D01*
X337030Y617424D01*
X337030Y617417D01*
X337028Y617411D01*
X337032Y617295D01*
X337033Y617178D01*
X337035Y617170D01*
X337035Y617165D01*
X337041Y617148D01*
X337079Y617016D01*
X337105Y616954D01*
X337105Y614438D01*
X336143Y612114D01*
X334364Y610336D01*
X332040Y609373D01*
X329525Y609373D01*
X327201Y610336D01*
X325423Y612114D01*
X324591Y614123D01*
X324553Y614184D01*
X324524Y614249D01*
X324488Y614288D01*
X324461Y614332D01*
X324406Y614378D01*
X324357Y614430D01*
X324312Y614456D01*
X324272Y614489D01*
X324205Y614514D01*
X324142Y614549D01*
X324090Y614558D01*
X324042Y614577D01*
X323970Y614580D01*
X323900Y614593D01*
X323848Y614585D01*
X323796Y614587D01*
X323727Y614567D01*
X323656Y614557D01*
X323610Y614533D01*
X323560Y614519D01*
X323501Y614478D01*
X323437Y614445D01*
X323401Y614408D01*
X323358Y614379D01*
X323315Y614321D01*
X323265Y614270D01*
X323230Y614207D01*
X323211Y614181D01*
X323204Y614159D01*
X323184Y614123D01*
X322352Y612114D01*
X320574Y610336D01*
X318250Y609373D01*
X315734Y609373D01*
G37*
%LPD*%
%LPC*%
G36*
X618698Y762831D02*
X618698Y762831D01*
X618614Y762836D01*
X618531Y762850D01*
X618480Y762844D01*
X618452Y762846D01*
X618423Y762838D01*
X618364Y762831D01*
X618014Y762753D01*
X617557Y763042D01*
X617514Y763060D01*
X617475Y763087D01*
X617350Y763130D01*
X617331Y763138D01*
X617325Y763138D01*
X617317Y763141D01*
X616789Y763260D01*
X616597Y763563D01*
X616541Y763626D01*
X616492Y763694D01*
X616452Y763727D01*
X616434Y763747D01*
X616408Y763762D01*
X616361Y763799D01*
X616058Y763991D01*
X615939Y764519D01*
X615922Y764562D01*
X615913Y764608D01*
X615855Y764727D01*
X615847Y764747D01*
X615844Y764751D01*
X615840Y764759D01*
X608018Y777110D01*
X607962Y777173D01*
X607913Y777241D01*
X607873Y777273D01*
X607854Y777294D01*
X607828Y777309D01*
X607782Y777346D01*
X607478Y777538D01*
X607360Y778065D01*
X607342Y778109D01*
X607334Y778155D01*
X607276Y778274D01*
X607268Y778293D01*
X607264Y778298D01*
X607260Y778306D01*
X606971Y778762D01*
X607050Y779113D01*
X607055Y779197D01*
X607068Y779280D01*
X607063Y779331D01*
X607064Y779358D01*
X607056Y779387D01*
X607050Y779446D01*
X606971Y779797D01*
X607260Y780253D01*
X607279Y780297D01*
X607305Y780335D01*
X607348Y780460D01*
X607357Y780480D01*
X607357Y780486D01*
X607360Y780494D01*
X607478Y781021D01*
X607782Y781214D01*
X607844Y781269D01*
X607913Y781318D01*
X607945Y781359D01*
X607966Y781377D01*
X607980Y781403D01*
X608018Y781449D01*
X615311Y792965D01*
X615354Y793067D01*
X615401Y793167D01*
X615402Y793180D01*
X615407Y793191D01*
X615416Y793302D01*
X615428Y793412D01*
X615425Y793424D01*
X615426Y793437D01*
X615399Y793544D01*
X615376Y793652D01*
X615369Y793663D01*
X615366Y793675D01*
X615307Y793768D01*
X615250Y793863D01*
X615240Y793871D01*
X615233Y793882D01*
X615147Y793951D01*
X615063Y794023D01*
X615051Y794028D01*
X615041Y794036D01*
X614937Y794074D01*
X614834Y794115D01*
X614819Y794117D01*
X614810Y794120D01*
X614783Y794121D01*
X614668Y794134D01*
X609389Y794134D01*
X603221Y796689D01*
X598500Y801410D01*
X595945Y807578D01*
X595945Y814255D01*
X598500Y820423D01*
X603221Y825144D01*
X609389Y827699D01*
X616066Y827699D01*
X622234Y825144D01*
X626955Y820423D01*
X629510Y814255D01*
X629510Y807578D01*
X626955Y801410D01*
X622234Y796689D01*
X620822Y796104D01*
X620816Y796100D01*
X620810Y796099D01*
X620713Y796036D01*
X620613Y795974D01*
X620609Y795969D01*
X620603Y795966D01*
X620531Y795875D01*
X620456Y795784D01*
X620454Y795778D01*
X620450Y795774D01*
X620410Y795664D01*
X620368Y795555D01*
X620367Y795549D01*
X620365Y795543D01*
X620362Y795426D01*
X620357Y795309D01*
X620359Y795303D01*
X620359Y795297D01*
X620393Y795185D01*
X620426Y795073D01*
X620429Y795068D01*
X620431Y795062D01*
X620499Y794967D01*
X620566Y794871D01*
X620571Y794867D01*
X620575Y794862D01*
X620706Y794757D01*
X621004Y794568D01*
X621123Y794041D01*
X621140Y793997D01*
X621149Y793951D01*
X621207Y793832D01*
X621215Y793813D01*
X621218Y793808D01*
X621222Y793800D01*
X629045Y781449D01*
X629100Y781387D01*
X629149Y781318D01*
X629190Y781286D01*
X629208Y781266D01*
X629234Y781251D01*
X629280Y781214D01*
X629584Y781021D01*
X629702Y780494D01*
X629720Y780450D01*
X629728Y780404D01*
X629786Y780285D01*
X629794Y780266D01*
X629798Y780261D01*
X629802Y780253D01*
X630091Y779797D01*
X630012Y779446D01*
X630007Y779363D01*
X629994Y779280D01*
X630000Y779228D01*
X629998Y779201D01*
X630006Y779172D01*
X630012Y779113D01*
X630091Y778762D01*
X629802Y778306D01*
X629784Y778263D01*
X629757Y778224D01*
X629714Y778098D01*
X629706Y778079D01*
X629705Y778074D01*
X629702Y778065D01*
X629584Y777538D01*
X629280Y777346D01*
X629218Y777290D01*
X629149Y777241D01*
X629117Y777200D01*
X629097Y777182D01*
X629082Y777156D01*
X629045Y777110D01*
X621222Y764759D01*
X621204Y764716D01*
X621177Y764677D01*
X621134Y764552D01*
X621126Y764533D01*
X621126Y764527D01*
X621123Y764519D01*
X621004Y763991D01*
X620701Y763799D01*
X620638Y763743D01*
X620570Y763694D01*
X620538Y763654D01*
X620517Y763636D01*
X620502Y763610D01*
X620465Y763563D01*
X620273Y763260D01*
X619745Y763141D01*
X619702Y763124D01*
X619656Y763115D01*
X619537Y763057D01*
X619517Y763049D01*
X619513Y763045D01*
X619505Y763042D01*
X619048Y762753D01*
X618698Y762831D01*
G37*
%LPD*%
%LPC*%
G36*
X335715Y538592D02*
X335715Y538592D01*
X333392Y539555D01*
X331613Y541333D01*
X330650Y543657D01*
X330650Y546172D01*
X330676Y546235D01*
X330703Y546349D01*
X330732Y546462D01*
X330731Y546469D01*
X330733Y546475D01*
X330722Y546591D01*
X330713Y546708D01*
X330710Y546713D01*
X330710Y546720D01*
X330670Y546808D01*
X330668Y546820D01*
X330658Y546837D01*
X330616Y546934D01*
X330612Y546940D01*
X330610Y546944D01*
X330597Y546958D01*
X330550Y547017D01*
X330541Y547031D01*
X330532Y547039D01*
X330511Y547065D01*
X325663Y551914D01*
X325584Y551971D01*
X325508Y552033D01*
X325484Y552042D01*
X325463Y552057D01*
X325370Y552086D01*
X325279Y552121D01*
X325253Y552122D01*
X325228Y552130D01*
X325130Y552127D01*
X325033Y552131D01*
X325008Y552124D01*
X324982Y552123D01*
X324890Y552090D01*
X324797Y552063D01*
X324775Y552048D01*
X324751Y552039D01*
X324675Y551978D01*
X324595Y551923D01*
X324579Y551902D01*
X324559Y551885D01*
X324506Y551803D01*
X324448Y551725D01*
X324440Y551700D01*
X324426Y551678D01*
X324402Y551584D01*
X324372Y551491D01*
X324372Y551465D01*
X324366Y551440D01*
X324373Y551343D01*
X324374Y551245D01*
X324383Y551214D01*
X324385Y551195D01*
X324398Y551164D01*
X324421Y551084D01*
X324547Y550780D01*
X324547Y548265D01*
X323584Y545941D01*
X321806Y544162D01*
X319482Y543200D01*
X316967Y543200D01*
X314643Y544162D01*
X312864Y545941D01*
X311902Y548265D01*
X311902Y550780D01*
X312864Y553104D01*
X314643Y554882D01*
X316967Y555845D01*
X319482Y555845D01*
X319786Y555719D01*
X319852Y555703D01*
X319877Y555694D01*
X319899Y555691D01*
X319974Y555668D01*
X320000Y555669D01*
X320026Y555663D01*
X320123Y555672D01*
X320220Y555674D01*
X320245Y555683D01*
X320271Y555686D01*
X320359Y555725D01*
X320451Y555759D01*
X320472Y555775D01*
X320495Y555786D01*
X320567Y555852D01*
X320643Y555913D01*
X320657Y555935D01*
X320676Y555952D01*
X320723Y556037D01*
X320776Y556119D01*
X320783Y556145D01*
X320795Y556168D01*
X320812Y556264D01*
X320836Y556358D01*
X320834Y556384D01*
X320839Y556410D01*
X320825Y556506D01*
X320817Y556603D01*
X320807Y556627D01*
X320803Y556653D01*
X320772Y556715D01*
X320771Y556716D01*
X320768Y556721D01*
X320759Y556740D01*
X320721Y556830D01*
X320700Y556855D01*
X320692Y556872D01*
X320668Y556896D01*
X320653Y556914D01*
X320645Y556927D01*
X320636Y556935D01*
X320616Y556961D01*
X307034Y570542D01*
X306960Y570595D01*
X306891Y570655D01*
X306861Y570667D01*
X306834Y570686D01*
X306747Y570713D01*
X306663Y570747D01*
X306622Y570751D01*
X306599Y570758D01*
X306567Y570757D01*
X306496Y570765D01*
X305574Y570765D01*
X303250Y571728D01*
X301472Y573506D01*
X300509Y575830D01*
X300509Y578346D01*
X301472Y580670D01*
X303250Y582448D01*
X305574Y583411D01*
X308090Y583411D01*
X310414Y582448D01*
X312192Y580670D01*
X312225Y580591D01*
X312262Y580530D01*
X312292Y580464D01*
X312327Y580426D01*
X312354Y580382D01*
X312409Y580336D01*
X312458Y580283D01*
X312504Y580258D01*
X312544Y580225D01*
X312611Y580199D01*
X312674Y580165D01*
X312725Y580156D01*
X312773Y580137D01*
X312845Y580134D01*
X312916Y580121D01*
X312967Y580129D01*
X313019Y580126D01*
X313088Y580146D01*
X313159Y580157D01*
X313205Y580180D01*
X313255Y580195D01*
X313314Y580236D01*
X313378Y580268D01*
X313415Y580306D01*
X313457Y580335D01*
X313500Y580393D01*
X313550Y580444D01*
X313585Y580507D01*
X313604Y580533D01*
X313611Y580555D01*
X313631Y580591D01*
X313664Y580670D01*
X315442Y582448D01*
X315521Y582481D01*
X315582Y582519D01*
X315648Y582548D01*
X315686Y582583D01*
X315730Y582610D01*
X315776Y582666D01*
X315829Y582714D01*
X315854Y582760D01*
X315887Y582800D01*
X315913Y582867D01*
X315947Y582930D01*
X315956Y582981D01*
X315975Y583029D01*
X315978Y583101D01*
X315991Y583172D01*
X315983Y583223D01*
X315986Y583275D01*
X315966Y583344D01*
X315955Y583415D01*
X315931Y583462D01*
X315917Y583511D01*
X315876Y583570D01*
X315844Y583634D01*
X315806Y583671D01*
X315777Y583713D01*
X315719Y583756D01*
X315668Y583807D01*
X315605Y583841D01*
X315579Y583860D01*
X315557Y583867D01*
X315521Y583887D01*
X315442Y583920D01*
X313664Y585698D01*
X312701Y588022D01*
X312701Y590538D01*
X313664Y592862D01*
X315442Y594640D01*
X317766Y595603D01*
X320282Y595603D01*
X322606Y594640D01*
X324384Y592862D01*
X325347Y590538D01*
X325347Y588022D01*
X325321Y587960D01*
X325294Y587846D01*
X325265Y587732D01*
X325266Y587726D01*
X325265Y587720D01*
X325275Y587604D01*
X325285Y587487D01*
X325287Y587481D01*
X325288Y587475D01*
X325335Y587368D01*
X325381Y587261D01*
X325386Y587255D01*
X325388Y587250D01*
X325400Y587237D01*
X325458Y587164D01*
X325463Y587157D01*
X325467Y587153D01*
X325486Y587130D01*
X343290Y569326D01*
X343384Y569258D01*
X343479Y569188D01*
X343485Y569186D01*
X343490Y569182D01*
X343601Y569148D01*
X343712Y569112D01*
X343719Y569112D01*
X343725Y569110D01*
X343841Y569113D01*
X343958Y569114D01*
X343966Y569116D01*
X343971Y569116D01*
X343988Y569123D01*
X344120Y569161D01*
X344182Y569187D01*
X346698Y569187D01*
X349022Y568224D01*
X350800Y566446D01*
X351763Y564122D01*
X351763Y561606D01*
X351246Y560359D01*
X351224Y560264D01*
X351195Y560171D01*
X351196Y560145D01*
X351190Y560120D01*
X351199Y560023D01*
X351202Y559925D01*
X351211Y559901D01*
X351213Y559875D01*
X351253Y559786D01*
X351286Y559694D01*
X351302Y559674D01*
X351313Y559650D01*
X351379Y559578D01*
X351440Y559502D01*
X351462Y559488D01*
X351479Y559469D01*
X351565Y559422D01*
X351647Y559369D01*
X351672Y559363D01*
X351695Y559350D01*
X351791Y559333D01*
X351885Y559309D01*
X351911Y559311D01*
X351937Y559307D01*
X352034Y559321D01*
X352130Y559328D01*
X352154Y559339D01*
X352180Y559343D01*
X352267Y559387D01*
X352357Y559425D01*
X352382Y559445D01*
X352400Y559454D01*
X352423Y559478D01*
X352488Y559530D01*
X353676Y560718D01*
X356000Y561681D01*
X358515Y561681D01*
X360839Y560718D01*
X362618Y558939D01*
X363580Y556615D01*
X363580Y554100D01*
X362618Y551776D01*
X360839Y549998D01*
X358515Y549035D01*
X356000Y549035D01*
X353676Y549998D01*
X351897Y551776D01*
X350935Y554100D01*
X350935Y556615D01*
X351451Y557863D01*
X351474Y557957D01*
X351502Y558050D01*
X351502Y558077D01*
X351508Y558102D01*
X351498Y558199D01*
X351496Y558296D01*
X351487Y558321D01*
X351485Y558347D01*
X351445Y558436D01*
X351411Y558527D01*
X351395Y558548D01*
X351385Y558572D01*
X351319Y558643D01*
X351258Y558719D01*
X351236Y558733D01*
X351218Y558753D01*
X351133Y558800D01*
X351051Y558852D01*
X351026Y558859D01*
X351003Y558871D01*
X350907Y558889D01*
X350812Y558912D01*
X350786Y558910D01*
X350761Y558915D01*
X350664Y558901D01*
X350567Y558893D01*
X350543Y558883D01*
X350517Y558879D01*
X350430Y558835D01*
X350341Y558797D01*
X350315Y558777D01*
X350298Y558768D01*
X350275Y558744D01*
X350210Y558692D01*
X349022Y557504D01*
X346698Y556541D01*
X344182Y556541D01*
X341858Y557504D01*
X340080Y559282D01*
X339117Y561606D01*
X339117Y564122D01*
X339143Y564184D01*
X339170Y564298D01*
X339199Y564412D01*
X339198Y564418D01*
X339199Y564424D01*
X339189Y564540D01*
X339179Y564657D01*
X339177Y564663D01*
X339176Y564669D01*
X339129Y564776D01*
X339083Y564883D01*
X339078Y564889D01*
X339076Y564894D01*
X339064Y564907D01*
X338978Y565014D01*
X326646Y577346D01*
X326588Y577388D01*
X326536Y577437D01*
X326489Y577459D01*
X326447Y577490D01*
X326378Y577511D01*
X326313Y577541D01*
X326261Y577547D01*
X326211Y577562D01*
X326140Y577560D01*
X326069Y577568D01*
X326018Y577557D01*
X325966Y577556D01*
X325898Y577531D01*
X325828Y577516D01*
X325784Y577489D01*
X325735Y577471D01*
X325679Y577426D01*
X325617Y577390D01*
X325583Y577350D01*
X325543Y577318D01*
X325504Y577257D01*
X325457Y577203D01*
X325438Y577154D01*
X325410Y577111D01*
X325392Y577041D01*
X325365Y576975D01*
X325357Y576903D01*
X325349Y576872D01*
X325351Y576849D01*
X325347Y576808D01*
X325347Y575830D01*
X324384Y573506D01*
X322606Y571728D01*
X320282Y570765D01*
X317766Y570765D01*
X317321Y570950D01*
X317226Y570972D01*
X317133Y571001D01*
X317107Y571000D01*
X317082Y571006D01*
X316985Y570997D01*
X316887Y570994D01*
X316863Y570985D01*
X316837Y570983D01*
X316748Y570943D01*
X316656Y570910D01*
X316636Y570893D01*
X316612Y570883D01*
X316540Y570817D01*
X316464Y570756D01*
X316450Y570734D01*
X316431Y570716D01*
X316384Y570631D01*
X316331Y570549D01*
X316325Y570524D01*
X316312Y570501D01*
X316295Y570405D01*
X316271Y570311D01*
X316273Y570285D01*
X316269Y570259D01*
X316283Y570162D01*
X316290Y570065D01*
X316301Y570041D01*
X316304Y570015D01*
X316349Y569928D01*
X316387Y569839D01*
X316407Y569814D01*
X316416Y569796D01*
X316440Y569773D01*
X316491Y569708D01*
X334823Y551377D01*
X334918Y551309D01*
X335012Y551239D01*
X335018Y551237D01*
X335023Y551233D01*
X335134Y551199D01*
X335246Y551162D01*
X335252Y551162D01*
X335258Y551161D01*
X335375Y551164D01*
X335492Y551165D01*
X335499Y551167D01*
X335504Y551167D01*
X335521Y551173D01*
X335653Y551212D01*
X335716Y551238D01*
X338231Y551238D01*
X340555Y550275D01*
X342333Y548496D01*
X343296Y546173D01*
X343296Y543657D01*
X342333Y541333D01*
X340555Y539555D01*
X338231Y538592D01*
X335715Y538592D01*
G37*
%LPD*%
%LPC*%
G36*
X374662Y558573D02*
X374662Y558573D01*
X372338Y559536D01*
X370560Y561314D01*
X369597Y563638D01*
X369597Y566154D01*
X370560Y568478D01*
X372338Y570256D01*
X374662Y571219D01*
X377178Y571219D01*
X377240Y571193D01*
X377354Y571166D01*
X377468Y571137D01*
X377474Y571138D01*
X377480Y571137D01*
X377596Y571147D01*
X377713Y571157D01*
X377719Y571159D01*
X377725Y571160D01*
X377832Y571207D01*
X377939Y571253D01*
X377945Y571258D01*
X377950Y571260D01*
X377963Y571272D01*
X378070Y571358D01*
X423157Y616444D01*
X423213Y616523D01*
X423275Y616598D01*
X423285Y616623D01*
X423300Y616644D01*
X423329Y616737D01*
X423364Y616828D01*
X423365Y616854D01*
X423372Y616879D01*
X423370Y616976D01*
X423374Y617074D01*
X423367Y617099D01*
X423366Y617125D01*
X423333Y617216D01*
X423306Y617310D01*
X423291Y617331D01*
X423282Y617356D01*
X423221Y617432D01*
X423165Y617512D01*
X423144Y617527D01*
X423128Y617548D01*
X423046Y617601D01*
X422968Y617659D01*
X422943Y617667D01*
X422921Y617681D01*
X422827Y617705D01*
X422734Y617735D01*
X422708Y617735D01*
X422682Y617741D01*
X422586Y617733D01*
X422488Y617732D01*
X422457Y617723D01*
X422437Y617722D01*
X422407Y617709D01*
X422327Y617686D01*
X421882Y617501D01*
X419366Y617501D01*
X417042Y618464D01*
X415264Y620242D01*
X414301Y622566D01*
X414301Y625082D01*
X415264Y627406D01*
X417042Y629184D01*
X419366Y630147D01*
X421882Y630147D01*
X424206Y629184D01*
X424433Y628957D01*
X424449Y628945D01*
X424461Y628930D01*
X424536Y628882D01*
X424555Y628866D01*
X424566Y628861D01*
X424632Y628813D01*
X424651Y628808D01*
X424668Y628797D01*
X424769Y628771D01*
X424868Y628741D01*
X424888Y628742D01*
X424907Y628737D01*
X425010Y628745D01*
X425113Y628747D01*
X425132Y628754D01*
X425152Y628756D01*
X425247Y628796D01*
X425344Y628832D01*
X425360Y628844D01*
X425378Y628852D01*
X425447Y628907D01*
X425452Y628910D01*
X425458Y628916D01*
X425509Y628957D01*
X427712Y631160D01*
X442610Y646058D01*
X442678Y646152D01*
X442748Y646247D01*
X442750Y646253D01*
X442754Y646258D01*
X442788Y646369D01*
X442824Y646480D01*
X442824Y646487D01*
X442826Y646493D01*
X442823Y646609D01*
X442822Y646726D01*
X442820Y646734D01*
X442820Y646739D01*
X442814Y646756D01*
X442775Y646888D01*
X442749Y646950D01*
X442749Y649466D01*
X443712Y651790D01*
X445490Y653568D01*
X447814Y654531D01*
X450330Y654531D01*
X452654Y653568D01*
X454432Y651790D01*
X455395Y649466D01*
X455395Y646950D01*
X454432Y644626D01*
X452654Y642848D01*
X450330Y641885D01*
X447814Y641885D01*
X447752Y641911D01*
X447638Y641938D01*
X447524Y641967D01*
X447518Y641966D01*
X447512Y641967D01*
X447396Y641957D01*
X447279Y641947D01*
X447273Y641945D01*
X447267Y641944D01*
X447160Y641897D01*
X447053Y641851D01*
X447047Y641846D01*
X447042Y641844D01*
X447029Y641832D01*
X446922Y641746D01*
X432024Y626848D01*
X431971Y626774D01*
X431911Y626705D01*
X431899Y626675D01*
X431880Y626648D01*
X431853Y626561D01*
X431819Y626477D01*
X431815Y626436D01*
X431808Y626413D01*
X431809Y626381D01*
X431801Y626310D01*
X431801Y616465D01*
X416302Y600966D01*
X416260Y600908D01*
X416211Y600856D01*
X416189Y600809D01*
X416158Y600767D01*
X416137Y600698D01*
X416107Y600633D01*
X416101Y600581D01*
X416086Y600531D01*
X416088Y600460D01*
X416080Y600389D01*
X416091Y600338D01*
X416092Y600286D01*
X416117Y600218D01*
X416132Y600148D01*
X416159Y600103D01*
X416177Y600055D01*
X416222Y599999D01*
X416258Y599937D01*
X416298Y599903D01*
X416330Y599863D01*
X416391Y599824D01*
X416445Y599777D01*
X416494Y599758D01*
X416537Y599730D01*
X416607Y599712D01*
X416673Y599685D01*
X416745Y599677D01*
X416776Y599669D01*
X416799Y599671D01*
X416840Y599667D01*
X417818Y599667D01*
X420142Y598704D01*
X421920Y596926D01*
X422883Y594602D01*
X422883Y592086D01*
X421920Y589762D01*
X420142Y587984D01*
X417818Y587021D01*
X415302Y587021D01*
X412978Y587984D01*
X411200Y589762D01*
X410237Y592086D01*
X410237Y593064D01*
X410226Y593135D01*
X410224Y593206D01*
X410206Y593255D01*
X410198Y593307D01*
X410164Y593370D01*
X410139Y593437D01*
X410107Y593478D01*
X410082Y593524D01*
X410031Y593573D01*
X409986Y593629D01*
X409942Y593658D01*
X409904Y593693D01*
X409839Y593724D01*
X409779Y593762D01*
X409728Y593775D01*
X409681Y593797D01*
X409610Y593805D01*
X409540Y593822D01*
X409488Y593818D01*
X409437Y593824D01*
X409366Y593809D01*
X409295Y593803D01*
X409247Y593783D01*
X409196Y593772D01*
X409135Y593735D01*
X409069Y593707D01*
X409013Y593662D01*
X408985Y593646D01*
X408970Y593628D01*
X408938Y593602D01*
X382382Y567046D01*
X382314Y566952D01*
X382244Y566857D01*
X382242Y566851D01*
X382238Y566846D01*
X382204Y566735D01*
X382168Y566624D01*
X382168Y566617D01*
X382166Y566611D01*
X382169Y566495D01*
X382170Y566378D01*
X382172Y566370D01*
X382172Y566365D01*
X382179Y566348D01*
X382217Y566216D01*
X382243Y566154D01*
X382243Y563638D01*
X381280Y561314D01*
X379502Y559536D01*
X377178Y558573D01*
X374662Y558573D01*
G37*
%LPD*%
%LPC*%
G36*
X438118Y313685D02*
X438118Y313685D01*
X435794Y314648D01*
X434016Y316426D01*
X433053Y318750D01*
X433053Y321266D01*
X433079Y321328D01*
X433106Y321443D01*
X433135Y321556D01*
X433134Y321562D01*
X433136Y321568D01*
X433125Y321685D01*
X433115Y321801D01*
X433113Y321807D01*
X433112Y321813D01*
X433065Y321920D01*
X433041Y321975D01*
X433041Y325010D01*
X433034Y325055D01*
X433036Y325101D01*
X433014Y325176D01*
X433002Y325252D01*
X432980Y325293D01*
X432967Y325337D01*
X432923Y325401D01*
X432886Y325470D01*
X432853Y325501D01*
X432827Y325539D01*
X432764Y325586D01*
X432708Y325639D01*
X432666Y325659D01*
X432630Y325686D01*
X432556Y325710D01*
X432485Y325743D01*
X432439Y325748D01*
X432396Y325762D01*
X432318Y325761D01*
X432241Y325770D01*
X432196Y325760D01*
X432150Y325760D01*
X432018Y325722D01*
X432000Y325718D01*
X431996Y325715D01*
X431989Y325713D01*
X430010Y324893D01*
X427494Y324893D01*
X425170Y325856D01*
X423392Y327634D01*
X422429Y329958D01*
X422429Y332474D01*
X423392Y334798D01*
X425170Y336576D01*
X427494Y337539D01*
X430010Y337539D01*
X430195Y337462D01*
X430240Y337451D01*
X430282Y337432D01*
X430359Y337423D01*
X430435Y337406D01*
X430480Y337410D01*
X430526Y337405D01*
X430602Y337421D01*
X430680Y337429D01*
X430721Y337447D01*
X430766Y337457D01*
X430833Y337497D01*
X430904Y337529D01*
X430938Y337560D01*
X430978Y337583D01*
X431028Y337642D01*
X431085Y337695D01*
X431108Y337735D01*
X431137Y337770D01*
X431167Y337843D01*
X431204Y337911D01*
X431212Y337956D01*
X431229Y337998D01*
X431244Y338134D01*
X431248Y338153D01*
X431247Y338158D01*
X431248Y338165D01*
X431248Y419741D01*
X431229Y419856D01*
X431212Y419972D01*
X431209Y419978D01*
X431208Y419984D01*
X431154Y420087D01*
X431100Y420192D01*
X431096Y420196D01*
X431093Y420201D01*
X431008Y420282D01*
X430925Y420364D01*
X430918Y420367D01*
X430915Y420371D01*
X430898Y420379D01*
X430778Y420445D01*
X430715Y420471D01*
X428936Y422249D01*
X427974Y424573D01*
X427974Y427088D01*
X428936Y429412D01*
X430715Y431191D01*
X433039Y432153D01*
X435554Y432153D01*
X437878Y431191D01*
X439657Y429412D01*
X440619Y427088D01*
X440619Y424573D01*
X439657Y422249D01*
X437878Y420471D01*
X437815Y420445D01*
X437716Y420383D01*
X437616Y420323D01*
X437612Y420318D01*
X437606Y420315D01*
X437531Y420225D01*
X437456Y420136D01*
X437453Y420130D01*
X437449Y420126D01*
X437407Y420016D01*
X437364Y419908D01*
X437363Y419901D01*
X437361Y419896D01*
X437360Y419878D01*
X437345Y419741D01*
X437345Y337627D01*
X437360Y337537D01*
X437367Y337446D01*
X437380Y337416D01*
X437385Y337384D01*
X437428Y337304D01*
X437463Y337220D01*
X437489Y337188D01*
X437500Y337167D01*
X437523Y337145D01*
X437568Y337089D01*
X439139Y335518D01*
X439139Y327092D01*
X439142Y327072D01*
X439140Y327053D01*
X439162Y326951D01*
X439178Y326849D01*
X439188Y326832D01*
X439192Y326812D01*
X439245Y326723D01*
X439294Y326632D01*
X439308Y326618D01*
X439318Y326601D01*
X439397Y326534D01*
X439472Y326462D01*
X439490Y326454D01*
X439505Y326441D01*
X439601Y326402D01*
X439695Y326359D01*
X439715Y326357D01*
X439733Y326349D01*
X439900Y326331D01*
X440634Y326331D01*
X442958Y325368D01*
X444736Y323590D01*
X445699Y321266D01*
X445699Y318750D01*
X444736Y316426D01*
X442958Y314648D01*
X440634Y313685D01*
X438118Y313685D01*
G37*
%LPD*%
%LPC*%
G36*
X611082Y119531D02*
X611082Y119531D01*
X604914Y122086D01*
X600193Y126807D01*
X597638Y132975D01*
X597638Y139652D01*
X600193Y145820D01*
X604914Y150541D01*
X611082Y153096D01*
X617759Y153096D01*
X623927Y150541D01*
X628648Y145820D01*
X631204Y139652D01*
X631204Y132975D01*
X628648Y126807D01*
X623927Y122086D01*
X617759Y119531D01*
X611082Y119531D01*
G37*
%LPD*%
%LPC*%
G36*
X281034Y119531D02*
X281034Y119531D01*
X274865Y122086D01*
X270144Y126807D01*
X267589Y132975D01*
X267589Y139652D01*
X270144Y145820D01*
X274865Y150541D01*
X281034Y153096D01*
X287710Y153096D01*
X293879Y150541D01*
X298600Y145820D01*
X301155Y139652D01*
X301155Y132975D01*
X298600Y126807D01*
X293879Y122086D01*
X287710Y119531D01*
X281034Y119531D01*
G37*
%LPD*%
%LPC*%
G36*
X278494Y791594D02*
X278494Y791594D01*
X272325Y794149D01*
X267604Y798870D01*
X265049Y805038D01*
X265049Y811715D01*
X267604Y817883D01*
X272325Y822604D01*
X278494Y825159D01*
X285170Y825159D01*
X291339Y822604D01*
X296060Y817883D01*
X298615Y811715D01*
X298615Y805038D01*
X296060Y798870D01*
X291339Y794149D01*
X285170Y791594D01*
X278494Y791594D01*
G37*
%LPD*%
%LPC*%
G36*
X455594Y379699D02*
X455594Y379699D01*
X452627Y380928D01*
X450356Y383199D01*
X449127Y386166D01*
X449127Y389377D01*
X450356Y392344D01*
X452627Y394615D01*
X453681Y395052D01*
X453781Y395113D01*
X453881Y395173D01*
X453885Y395178D01*
X453890Y395181D01*
X453965Y395271D01*
X454041Y395360D01*
X454043Y395366D01*
X454047Y395371D01*
X454089Y395479D01*
X454133Y395588D01*
X454134Y395596D01*
X454135Y395600D01*
X454136Y395619D01*
X454151Y395755D01*
X454151Y419974D01*
X454137Y420064D01*
X454129Y420155D01*
X454117Y420185D01*
X454112Y420217D01*
X454069Y420297D01*
X454033Y420381D01*
X454007Y420413D01*
X453996Y420434D01*
X453973Y420456D01*
X453928Y420512D01*
X431367Y443073D01*
X431273Y443141D01*
X431178Y443211D01*
X431172Y443213D01*
X431167Y443217D01*
X431056Y443251D01*
X430945Y443287D01*
X430938Y443287D01*
X430932Y443289D01*
X430816Y443286D01*
X430699Y443285D01*
X430691Y443283D01*
X430687Y443283D01*
X430669Y443277D01*
X430538Y443238D01*
X430475Y443212D01*
X427959Y443212D01*
X425635Y444175D01*
X423857Y445953D01*
X422894Y448277D01*
X422894Y450793D01*
X423857Y453117D01*
X425635Y454895D01*
X427959Y455858D01*
X430475Y455858D01*
X432799Y454895D01*
X434577Y453117D01*
X435540Y450793D01*
X435540Y448277D01*
X435514Y448215D01*
X435487Y448101D01*
X435459Y447987D01*
X435459Y447981D01*
X435458Y447975D01*
X435469Y447859D01*
X435478Y447742D01*
X435480Y447736D01*
X435481Y447730D01*
X435528Y447623D01*
X435574Y447516D01*
X435579Y447510D01*
X435581Y447505D01*
X435593Y447492D01*
X435679Y447385D01*
X458240Y424824D01*
X460249Y422815D01*
X460249Y395755D01*
X460268Y395640D01*
X460285Y395524D01*
X460287Y395519D01*
X460288Y395512D01*
X460343Y395410D01*
X460396Y395305D01*
X460401Y395300D01*
X460404Y395295D01*
X460488Y395215D01*
X460572Y395133D01*
X460578Y395129D01*
X460582Y395126D01*
X460599Y395118D01*
X460719Y395052D01*
X461773Y394615D01*
X464044Y392344D01*
X465273Y389377D01*
X465273Y386166D01*
X464044Y383199D01*
X461773Y380928D01*
X458806Y379699D01*
X455594Y379699D01*
G37*
%LPD*%
%LPC*%
G36*
X417800Y431360D02*
X417800Y431360D01*
X415477Y432323D01*
X413698Y434101D01*
X412735Y436425D01*
X412735Y436864D01*
X412728Y436910D01*
X412730Y436956D01*
X412708Y437030D01*
X412696Y437107D01*
X412674Y437148D01*
X412661Y437192D01*
X412617Y437256D01*
X412581Y437324D01*
X412547Y437356D01*
X412521Y437394D01*
X412459Y437440D01*
X412402Y437494D01*
X412361Y437513D01*
X412324Y437541D01*
X412250Y437565D01*
X412179Y437597D01*
X412134Y437603D01*
X412090Y437617D01*
X412012Y437616D01*
X411935Y437625D01*
X411890Y437615D01*
X411844Y437614D01*
X411712Y437576D01*
X411694Y437572D01*
X411690Y437570D01*
X411683Y437568D01*
X411003Y437286D01*
X408488Y437286D01*
X406164Y438249D01*
X404386Y440027D01*
X403423Y442351D01*
X403423Y444867D01*
X403449Y444929D01*
X403476Y445043D01*
X403504Y445157D01*
X403504Y445163D01*
X403505Y445169D01*
X403494Y445285D01*
X403485Y445402D01*
X403483Y445408D01*
X403482Y445414D01*
X403434Y445521D01*
X403389Y445628D01*
X403384Y445634D01*
X403382Y445639D01*
X403369Y445652D01*
X403284Y445759D01*
X387541Y461502D01*
X387467Y461555D01*
X387398Y461614D01*
X387368Y461627D01*
X387341Y461645D01*
X387255Y461672D01*
X387170Y461706D01*
X387129Y461711D01*
X387106Y461718D01*
X387074Y461717D01*
X387003Y461725D01*
X386205Y461725D01*
X386090Y461706D01*
X385974Y461689D01*
X385968Y461686D01*
X385962Y461685D01*
X385859Y461631D01*
X385755Y461577D01*
X385750Y461573D01*
X385745Y461570D01*
X385664Y461485D01*
X385582Y461402D01*
X385579Y461395D01*
X385575Y461392D01*
X385567Y461374D01*
X385502Y461255D01*
X385475Y461192D01*
X383697Y459413D01*
X381373Y458451D01*
X378858Y458451D01*
X376534Y459413D01*
X374755Y461192D01*
X373793Y463516D01*
X373793Y466031D01*
X374755Y468355D01*
X376534Y470134D01*
X378858Y471096D01*
X381373Y471096D01*
X383697Y470134D01*
X385475Y468355D01*
X385502Y468292D01*
X385563Y468193D01*
X385623Y468093D01*
X385628Y468088D01*
X385631Y468083D01*
X385721Y468009D01*
X385810Y467933D01*
X385816Y467930D01*
X385821Y467926D01*
X385929Y467885D01*
X386038Y467841D01*
X386046Y467840D01*
X386050Y467838D01*
X386069Y467837D01*
X386205Y467822D01*
X389844Y467822D01*
X407596Y450071D01*
X407684Y450007D01*
X407725Y449972D01*
X407739Y449966D01*
X407784Y449933D01*
X407790Y449931D01*
X407795Y449927D01*
X407906Y449893D01*
X408018Y449857D01*
X408024Y449857D01*
X408030Y449855D01*
X408147Y449858D01*
X408264Y449859D01*
X408271Y449861D01*
X408276Y449861D01*
X408294Y449867D01*
X408425Y449906D01*
X408488Y449932D01*
X411003Y449932D01*
X413327Y448969D01*
X415106Y447191D01*
X416068Y444867D01*
X416068Y444428D01*
X416076Y444382D01*
X416074Y444336D01*
X416096Y444262D01*
X416108Y444185D01*
X416130Y444144D01*
X416142Y444100D01*
X416187Y444036D01*
X416223Y443967D01*
X416256Y443936D01*
X416283Y443898D01*
X416345Y443852D01*
X416402Y443798D01*
X416443Y443779D01*
X416480Y443751D01*
X416554Y443727D01*
X416625Y443694D01*
X416670Y443689D01*
X416714Y443675D01*
X416792Y443676D01*
X416869Y443667D01*
X416914Y443677D01*
X416960Y443677D01*
X417091Y443716D01*
X417109Y443720D01*
X417114Y443722D01*
X417121Y443724D01*
X417800Y444006D01*
X420316Y444006D01*
X422640Y443043D01*
X424418Y441264D01*
X425381Y438941D01*
X425381Y436425D01*
X424418Y434101D01*
X422640Y432323D01*
X420316Y431360D01*
X417800Y431360D01*
G37*
%LPD*%
%LPC*%
G36*
X569312Y637932D02*
X569312Y637932D01*
X565257Y639612D01*
X562153Y642715D01*
X560474Y646770D01*
X560474Y651159D01*
X562153Y655214D01*
X565257Y658318D01*
X569312Y659998D01*
X573701Y659998D01*
X577756Y658318D01*
X580859Y655214D01*
X582539Y651159D01*
X582539Y646770D01*
X580859Y642715D01*
X577756Y639612D01*
X573701Y637932D01*
X569312Y637932D01*
G37*
%LPD*%
%LPC*%
G36*
X569312Y672932D02*
X569312Y672932D01*
X565257Y674612D01*
X562153Y677715D01*
X560474Y681770D01*
X560474Y686159D01*
X562153Y690214D01*
X565257Y693318D01*
X569312Y694998D01*
X573701Y694998D01*
X577756Y693318D01*
X580859Y690214D01*
X582539Y686159D01*
X582539Y681770D01*
X580859Y677715D01*
X577756Y674612D01*
X573701Y672932D01*
X569312Y672932D01*
G37*
%LPD*%
%LPC*%
G36*
X447555Y762487D02*
X447555Y762487D01*
X444007Y763957D01*
X441292Y766672D01*
X439823Y770220D01*
X439823Y774060D01*
X441292Y777608D01*
X444007Y780323D01*
X447555Y781793D01*
X451395Y781793D01*
X454943Y780323D01*
X457659Y777608D01*
X459128Y774060D01*
X459128Y770220D01*
X457659Y766672D01*
X454943Y763957D01*
X451395Y762487D01*
X447555Y762487D01*
G37*
%LPD*%
%LPC*%
G36*
X544189Y457708D02*
X544189Y457708D01*
X540641Y459177D01*
X537926Y461892D01*
X536456Y465440D01*
X536456Y469280D01*
X537926Y472828D01*
X540641Y475543D01*
X544189Y477013D01*
X548029Y477013D01*
X551577Y475543D01*
X554292Y472828D01*
X555762Y469280D01*
X555762Y465440D01*
X554292Y461892D01*
X551577Y459177D01*
X548029Y457708D01*
X544189Y457708D01*
G37*
%LPD*%
%LPC*%
G36*
X422155Y762487D02*
X422155Y762487D01*
X418607Y763957D01*
X415892Y766672D01*
X414423Y770220D01*
X414423Y774060D01*
X415892Y777608D01*
X418607Y780323D01*
X422155Y781793D01*
X425995Y781793D01*
X429543Y780323D01*
X432259Y777608D01*
X433728Y774060D01*
X433728Y770220D01*
X432259Y766672D01*
X429543Y763957D01*
X425995Y762487D01*
X422155Y762487D01*
G37*
%LPD*%
%LPC*%
G36*
X544189Y483108D02*
X544189Y483108D01*
X540641Y484577D01*
X537926Y487292D01*
X536456Y490840D01*
X536456Y494680D01*
X537926Y498228D01*
X540641Y500943D01*
X544189Y502413D01*
X548029Y502413D01*
X551577Y500943D01*
X554292Y498228D01*
X555762Y494680D01*
X555762Y490840D01*
X554292Y487292D01*
X551577Y484577D01*
X548029Y483108D01*
X544189Y483108D01*
G37*
%LPD*%
%LPC*%
G36*
X592448Y483108D02*
X592448Y483108D01*
X588900Y484577D01*
X586185Y487292D01*
X584715Y490840D01*
X584715Y494680D01*
X586185Y498228D01*
X588900Y500943D01*
X592448Y502413D01*
X596288Y502413D01*
X599836Y500943D01*
X602551Y498228D01*
X604021Y494680D01*
X604021Y490840D01*
X602551Y487292D01*
X599836Y484577D01*
X596288Y483108D01*
X592448Y483108D01*
G37*
%LPD*%
%LPC*%
G36*
X426495Y195234D02*
X426495Y195234D01*
X422947Y196704D01*
X420232Y199419D01*
X418762Y202967D01*
X418762Y206807D01*
X420232Y210355D01*
X422947Y213070D01*
X426495Y214540D01*
X430335Y214540D01*
X433883Y213070D01*
X436598Y210355D01*
X438068Y206807D01*
X438068Y202967D01*
X436598Y199419D01*
X433883Y196704D01*
X430335Y195234D01*
X426495Y195234D01*
G37*
%LPD*%
%LPC*%
G36*
X451895Y195234D02*
X451895Y195234D01*
X448347Y196704D01*
X445632Y199419D01*
X444162Y202967D01*
X444162Y206807D01*
X445632Y210355D01*
X448347Y213070D01*
X451895Y214540D01*
X455735Y214540D01*
X459283Y213070D01*
X461998Y210355D01*
X463468Y206807D01*
X463468Y202967D01*
X461998Y199419D01*
X459283Y196704D01*
X455735Y195234D01*
X451895Y195234D01*
G37*
%LPD*%
%LPC*%
G36*
X592448Y457708D02*
X592448Y457708D01*
X588900Y459177D01*
X586185Y461892D01*
X584715Y465440D01*
X584715Y469280D01*
X586185Y472828D01*
X588900Y475543D01*
X592448Y477013D01*
X596288Y477013D01*
X599836Y475543D01*
X602551Y472828D01*
X604021Y469280D01*
X604021Y465440D01*
X602551Y461892D01*
X599836Y459177D01*
X596288Y457708D01*
X592448Y457708D01*
G37*
%LPD*%
%LPC*%
G36*
X426495Y220634D02*
X426495Y220634D01*
X422947Y222104D01*
X420232Y224819D01*
X418762Y228367D01*
X418762Y232207D01*
X420232Y235755D01*
X422947Y238470D01*
X426495Y239940D01*
X430335Y239940D01*
X433883Y238470D01*
X436598Y235755D01*
X438068Y232207D01*
X438068Y228367D01*
X436598Y224819D01*
X433883Y222104D01*
X430335Y220634D01*
X426495Y220634D01*
G37*
%LPD*%
%LPC*%
G36*
X451895Y220634D02*
X451895Y220634D01*
X448347Y222104D01*
X445632Y224819D01*
X444162Y228367D01*
X444162Y232207D01*
X445632Y235755D01*
X448347Y238470D01*
X451895Y239940D01*
X455735Y239940D01*
X459283Y238470D01*
X461998Y235755D01*
X463468Y232207D01*
X463468Y228367D01*
X461998Y224819D01*
X459283Y222104D01*
X455735Y220634D01*
X451895Y220634D01*
G37*
%LPD*%
%LPC*%
G36*
X544189Y508508D02*
X544189Y508508D01*
X540641Y509977D01*
X537926Y512692D01*
X536456Y516240D01*
X536456Y520080D01*
X537926Y523628D01*
X540641Y526343D01*
X544189Y527813D01*
X548029Y527813D01*
X551577Y526343D01*
X554292Y523628D01*
X555762Y520080D01*
X555762Y516240D01*
X554292Y512692D01*
X551577Y509977D01*
X548029Y508508D01*
X544189Y508508D01*
G37*
%LPD*%
%LPC*%
G36*
X592448Y508508D02*
X592448Y508508D01*
X588900Y509977D01*
X586185Y512692D01*
X584715Y516240D01*
X584715Y520080D01*
X586185Y523628D01*
X588900Y526343D01*
X592448Y527813D01*
X596288Y527813D01*
X599836Y526343D01*
X602551Y523628D01*
X604021Y520080D01*
X604021Y516240D01*
X602551Y512692D01*
X599836Y509977D01*
X596288Y508508D01*
X592448Y508508D01*
G37*
%LPD*%
%LPC*%
G36*
X578915Y340727D02*
X578915Y340727D01*
X575396Y342185D01*
X572703Y344877D01*
X571246Y348396D01*
X571246Y352204D01*
X572703Y355723D01*
X575396Y358415D01*
X578915Y359873D01*
X582723Y359873D01*
X586241Y358415D01*
X588934Y355723D01*
X590391Y352204D01*
X590391Y348396D01*
X588934Y344877D01*
X586241Y342185D01*
X582723Y340727D01*
X578915Y340727D01*
G37*
%LPD*%
%LPC*%
G36*
X579698Y296958D02*
X579698Y296958D01*
X576179Y298416D01*
X573486Y301108D01*
X572029Y304627D01*
X572029Y308435D01*
X573486Y311954D01*
X576179Y314646D01*
X579698Y316104D01*
X583506Y316104D01*
X587024Y314646D01*
X589717Y311954D01*
X591175Y308435D01*
X591175Y304627D01*
X589717Y301108D01*
X587024Y298416D01*
X583506Y296958D01*
X579698Y296958D01*
G37*
%LPD*%
%LPC*%
G36*
X579698Y261958D02*
X579698Y261958D01*
X576179Y263416D01*
X573486Y266108D01*
X572029Y269627D01*
X572029Y273435D01*
X573486Y276954D01*
X576179Y279646D01*
X579698Y281104D01*
X583506Y281104D01*
X587024Y279646D01*
X589717Y276954D01*
X591175Y273435D01*
X591175Y269627D01*
X589717Y266108D01*
X587024Y263416D01*
X583506Y261958D01*
X579698Y261958D01*
G37*
%LPD*%
%LPC*%
G36*
X578915Y375727D02*
X578915Y375727D01*
X575396Y377185D01*
X572703Y379877D01*
X571246Y383396D01*
X571246Y387204D01*
X572703Y390723D01*
X575396Y393415D01*
X578915Y394873D01*
X582723Y394873D01*
X586241Y393415D01*
X588934Y390723D01*
X590391Y387204D01*
X590391Y383396D01*
X588934Y379877D01*
X586241Y377185D01*
X582723Y375727D01*
X578915Y375727D01*
G37*
%LPD*%
%LPC*%
G36*
X538794Y203344D02*
X538794Y203344D01*
X535460Y204726D01*
X532907Y207278D01*
X531526Y210612D01*
X531526Y214222D01*
X532907Y217556D01*
X535460Y220109D01*
X538794Y221490D01*
X542404Y221490D01*
X545738Y220109D01*
X548290Y217556D01*
X549672Y214222D01*
X549672Y210612D01*
X548290Y207278D01*
X545738Y204726D01*
X542404Y203344D01*
X538794Y203344D01*
G37*
%LPD*%
%LPC*%
G36*
X538794Y138344D02*
X538794Y138344D01*
X535460Y139726D01*
X532907Y142278D01*
X531526Y145612D01*
X531526Y149222D01*
X532907Y152556D01*
X535460Y155109D01*
X538794Y156490D01*
X542404Y156490D01*
X545738Y155109D01*
X548290Y152556D01*
X549672Y149222D01*
X549672Y145612D01*
X548290Y142278D01*
X545738Y139726D01*
X542404Y138344D01*
X538794Y138344D01*
G37*
%LPD*%
%LPC*%
G36*
X476262Y463069D02*
X476262Y463069D01*
X473938Y464032D01*
X472160Y465810D01*
X471197Y468134D01*
X471197Y470650D01*
X472160Y472974D01*
X473938Y474752D01*
X476262Y475715D01*
X478778Y475715D01*
X480305Y475082D01*
X480349Y475072D01*
X480391Y475052D01*
X480468Y475044D01*
X480544Y475026D01*
X480590Y475030D01*
X480635Y475025D01*
X480712Y475042D01*
X480789Y475049D01*
X480831Y475068D01*
X480876Y475078D01*
X480943Y475118D01*
X481014Y475149D01*
X481048Y475180D01*
X481087Y475204D01*
X481138Y475263D01*
X481195Y475316D01*
X481217Y475356D01*
X481247Y475391D01*
X481276Y475463D01*
X481313Y475531D01*
X481322Y475576D01*
X481339Y475619D01*
X481354Y475755D01*
X481357Y475773D01*
X481356Y475778D01*
X481357Y475786D01*
X481357Y476746D01*
X482320Y479070D01*
X484098Y480848D01*
X486422Y481811D01*
X488938Y481811D01*
X491262Y480848D01*
X493040Y479070D01*
X494003Y476746D01*
X494003Y474230D01*
X493040Y471906D01*
X491262Y470128D01*
X488938Y469165D01*
X486422Y469165D01*
X484895Y469798D01*
X484851Y469808D01*
X484809Y469828D01*
X484732Y469836D01*
X484656Y469854D01*
X484610Y469850D01*
X484565Y469855D01*
X484488Y469838D01*
X484411Y469831D01*
X484369Y469812D01*
X484324Y469802D01*
X484257Y469762D01*
X484186Y469731D01*
X484152Y469700D01*
X484113Y469676D01*
X484062Y469617D01*
X484005Y469564D01*
X483983Y469524D01*
X483953Y469489D01*
X483924Y469417D01*
X483887Y469349D01*
X483878Y469304D01*
X483861Y469261D01*
X483846Y469125D01*
X483843Y469107D01*
X483844Y469102D01*
X483843Y469094D01*
X483843Y468134D01*
X482880Y465810D01*
X481102Y464032D01*
X478778Y463069D01*
X476262Y463069D01*
G37*
%LPD*%
%LPC*%
G36*
X399046Y493549D02*
X399046Y493549D01*
X396722Y494512D01*
X394944Y496290D01*
X393981Y498614D01*
X393981Y501130D01*
X394944Y503454D01*
X396722Y505232D01*
X399046Y506195D01*
X400006Y506195D01*
X400052Y506202D01*
X400098Y506200D01*
X400173Y506222D01*
X400249Y506234D01*
X400290Y506256D01*
X400334Y506269D01*
X400398Y506313D01*
X400467Y506350D01*
X400498Y506383D01*
X400536Y506409D01*
X400582Y506472D01*
X400636Y506528D01*
X400655Y506570D01*
X400683Y506606D01*
X400707Y506680D01*
X400740Y506751D01*
X400745Y506797D01*
X400759Y506840D01*
X400758Y506918D01*
X400767Y506995D01*
X400757Y507040D01*
X400757Y507086D01*
X400718Y507218D01*
X400714Y507236D01*
X400712Y507240D01*
X400710Y507247D01*
X400077Y508774D01*
X400077Y511290D01*
X401040Y513614D01*
X402818Y515392D01*
X405142Y516355D01*
X407658Y516355D01*
X409982Y515392D01*
X411760Y513614D01*
X412723Y511290D01*
X412723Y508774D01*
X411760Y506450D01*
X409982Y504672D01*
X407658Y503709D01*
X406698Y503709D01*
X406652Y503702D01*
X406606Y503704D01*
X406531Y503682D01*
X406455Y503670D01*
X406414Y503648D01*
X406370Y503635D01*
X406306Y503591D01*
X406237Y503554D01*
X406206Y503521D01*
X406168Y503495D01*
X406122Y503432D01*
X406068Y503376D01*
X406049Y503334D01*
X406021Y503298D01*
X405997Y503224D01*
X405964Y503153D01*
X405959Y503107D01*
X405945Y503064D01*
X405946Y502986D01*
X405937Y502909D01*
X405947Y502864D01*
X405947Y502818D01*
X405986Y502686D01*
X405990Y502668D01*
X405992Y502664D01*
X405994Y502657D01*
X406627Y501130D01*
X406627Y498614D01*
X405664Y496290D01*
X403886Y494512D01*
X401562Y493549D01*
X399046Y493549D01*
G37*
%LPD*%
%LPC*%
G36*
X593245Y768270D02*
X593245Y768270D01*
X593191Y768303D01*
X593132Y768316D01*
X593078Y768338D01*
X592342Y769074D01*
X592323Y769087D01*
X592296Y769115D01*
X591493Y769798D01*
X591492Y769800D01*
X591477Y769862D01*
X591444Y769913D01*
X591421Y769967D01*
X591421Y771008D01*
X591418Y771030D01*
X591419Y771069D01*
X591334Y772120D01*
X591334Y772122D01*
X591367Y772176D01*
X591380Y772236D01*
X591402Y772290D01*
X592138Y773026D01*
X592151Y773044D01*
X592180Y773071D01*
X598948Y781034D01*
X598975Y781078D01*
X599009Y781117D01*
X599038Y781183D01*
X599075Y781245D01*
X599086Y781295D01*
X599107Y781342D01*
X599114Y781396D01*
X599829Y782077D01*
X599846Y782099D01*
X599884Y782135D01*
X600154Y782452D01*
X600169Y782478D01*
X600191Y782500D01*
X600273Y782645D01*
X600374Y782881D01*
X600382Y782912D01*
X600397Y782940D01*
X600432Y783104D01*
X600448Y783267D01*
X600448Y783271D01*
X600449Y783275D01*
X600446Y783443D01*
X600428Y783574D01*
X600410Y783637D01*
X600400Y783702D01*
X600367Y783778D01*
X600357Y783810D01*
X600346Y783826D01*
X600333Y783856D01*
X600201Y784084D01*
X600129Y784173D01*
X600058Y784263D01*
X600050Y784269D01*
X600046Y784274D01*
X600026Y784286D01*
X599923Y784362D01*
X599695Y784494D01*
X599634Y784517D01*
X599577Y784549D01*
X599496Y784569D01*
X599465Y784581D01*
X599446Y784581D01*
X599414Y784589D01*
X599282Y784606D01*
X599277Y784606D01*
X599271Y784608D01*
X599103Y784609D01*
X598757Y784572D01*
X598722Y784563D01*
X598687Y784562D01*
X598527Y784511D01*
X597894Y784228D01*
X597831Y784187D01*
X597763Y784154D01*
X597714Y784110D01*
X597688Y784093D01*
X597672Y784073D01*
X597638Y784042D01*
X597174Y783527D01*
X597155Y783497D01*
X597129Y783472D01*
X597045Y783327D01*
X596903Y783009D01*
X596896Y782982D01*
X596875Y782934D01*
X596518Y781833D01*
X594456Y780780D01*
X592254Y781493D01*
X591201Y783555D01*
X591557Y784656D01*
X592083Y786279D01*
X594363Y788814D01*
X597478Y790202D01*
X601021Y790202D01*
X604204Y788365D01*
X606042Y785181D01*
X606042Y781874D01*
X604884Y779172D01*
X603956Y778288D01*
X603939Y778266D01*
X603901Y778230D01*
X601326Y775201D01*
X601304Y775165D01*
X601276Y775136D01*
X601241Y775061D01*
X601199Y774990D01*
X601190Y774950D01*
X601172Y774913D01*
X601163Y774831D01*
X601145Y774750D01*
X601150Y774709D01*
X601145Y774668D01*
X601163Y774587D01*
X601172Y774505D01*
X601189Y774468D01*
X601198Y774428D01*
X601240Y774357D01*
X601275Y774282D01*
X601303Y774252D01*
X601324Y774217D01*
X601387Y774163D01*
X601443Y774103D01*
X601479Y774083D01*
X601511Y774057D01*
X601587Y774026D01*
X601660Y773987D01*
X601701Y773980D01*
X601739Y773965D01*
X601898Y773947D01*
X601903Y773946D01*
X601904Y773947D01*
X601906Y773946D01*
X604405Y773946D01*
X606042Y772309D01*
X606042Y769994D01*
X604405Y768357D01*
X594360Y768357D01*
X594338Y768353D01*
X594298Y768354D01*
X593247Y768269D01*
X593245Y768270D01*
G37*
%LPD*%
%LPC*%
G36*
X337060Y410177D02*
X337060Y410177D01*
X334093Y411406D01*
X331822Y413677D01*
X330593Y416644D01*
X330593Y419855D01*
X331822Y422822D01*
X334093Y425093D01*
X337060Y426322D01*
X340272Y426322D01*
X343239Y425093D01*
X345510Y422822D01*
X346739Y419855D01*
X346739Y416644D01*
X345510Y413677D01*
X343239Y411406D01*
X340272Y410177D01*
X337060Y410177D01*
G37*
%LPD*%
%LPC*%
G36*
X337060Y359377D02*
X337060Y359377D01*
X334093Y360606D01*
X331822Y362877D01*
X330593Y365844D01*
X330593Y369055D01*
X331822Y372022D01*
X334093Y374293D01*
X337060Y375522D01*
X340272Y375522D01*
X343239Y374293D01*
X345510Y372022D01*
X346739Y369055D01*
X346739Y365844D01*
X345510Y362877D01*
X343239Y360606D01*
X340272Y359377D01*
X337060Y359377D01*
G37*
%LPD*%
%LPC*%
G36*
X404794Y379699D02*
X404794Y379699D01*
X401827Y380928D01*
X399556Y383199D01*
X398327Y386166D01*
X398327Y389377D01*
X399556Y392344D01*
X401827Y394615D01*
X404794Y395844D01*
X408006Y395844D01*
X410973Y394615D01*
X413244Y392344D01*
X414473Y389377D01*
X414473Y386166D01*
X413244Y383199D01*
X410973Y380928D01*
X408006Y379699D01*
X404794Y379699D01*
G37*
%LPD*%
%LPC*%
G36*
X531126Y538253D02*
X531126Y538253D01*
X528802Y539216D01*
X527024Y540994D01*
X526061Y543318D01*
X526061Y545834D01*
X527024Y548158D01*
X528802Y549936D01*
X531126Y550899D01*
X533642Y550899D01*
X535966Y549936D01*
X537744Y548158D01*
X538707Y545834D01*
X538707Y543318D01*
X537744Y540994D01*
X535966Y539216D01*
X533642Y538253D01*
X531126Y538253D01*
G37*
%LPD*%
%LPC*%
G36*
X466102Y538253D02*
X466102Y538253D01*
X463778Y539216D01*
X462000Y540994D01*
X461037Y543318D01*
X461037Y545834D01*
X462000Y548158D01*
X463778Y549936D01*
X466102Y550899D01*
X468618Y550899D01*
X470942Y549936D01*
X472720Y548158D01*
X473683Y545834D01*
X473683Y543318D01*
X472720Y540994D01*
X470942Y539216D01*
X468618Y538253D01*
X466102Y538253D01*
G37*
%LPD*%
%LPC*%
G36*
X289318Y452909D02*
X289318Y452909D01*
X286994Y453872D01*
X285216Y455650D01*
X284253Y457974D01*
X284253Y460490D01*
X285216Y462814D01*
X286994Y464592D01*
X289318Y465555D01*
X291834Y465555D01*
X294158Y464592D01*
X295936Y462814D01*
X296899Y460490D01*
X296899Y457974D01*
X295936Y455650D01*
X294158Y453872D01*
X291834Y452909D01*
X289318Y452909D01*
G37*
%LPD*%
%LPC*%
G36*
X336054Y672365D02*
X336054Y672365D01*
X333730Y673328D01*
X331952Y675106D01*
X330989Y677430D01*
X330989Y679946D01*
X331952Y682270D01*
X333730Y684048D01*
X336054Y685011D01*
X338570Y685011D01*
X340894Y684048D01*
X342672Y682270D01*
X343635Y679946D01*
X343635Y677430D01*
X342672Y675106D01*
X340894Y673328D01*
X338570Y672365D01*
X336054Y672365D01*
G37*
%LPD*%
%LPC*%
G36*
X378726Y440717D02*
X378726Y440717D01*
X376402Y441680D01*
X374624Y443458D01*
X373661Y445782D01*
X373661Y448298D01*
X374624Y450622D01*
X376402Y452400D01*
X378726Y453363D01*
X381242Y453363D01*
X383566Y452400D01*
X385344Y450622D01*
X386307Y448298D01*
X386307Y445782D01*
X385344Y443458D01*
X383566Y441680D01*
X381242Y440717D01*
X378726Y440717D01*
G37*
%LPD*%
%LPC*%
G36*
X531126Y637821D02*
X531126Y637821D01*
X528802Y638784D01*
X527024Y640562D01*
X526061Y642886D01*
X526061Y645402D01*
X527024Y647726D01*
X528802Y649504D01*
X531126Y650467D01*
X533642Y650467D01*
X535966Y649504D01*
X537744Y647726D01*
X538707Y645402D01*
X538707Y642886D01*
X537744Y640562D01*
X535966Y638784D01*
X533642Y637821D01*
X531126Y637821D01*
G37*
%LPD*%
%LPC*%
G36*
X375471Y415275D02*
X375471Y415275D01*
X373147Y416238D01*
X371369Y418016D01*
X370406Y420340D01*
X370406Y422856D01*
X371369Y425179D01*
X373147Y426958D01*
X375471Y427921D01*
X377987Y427921D01*
X380311Y426958D01*
X382089Y425179D01*
X383052Y422856D01*
X383052Y420340D01*
X382089Y418016D01*
X380311Y416238D01*
X377987Y415275D01*
X375471Y415275D01*
G37*
%LPD*%
%LPC*%
G36*
X423430Y469165D02*
X423430Y469165D01*
X421106Y470128D01*
X419328Y471906D01*
X418365Y474230D01*
X418365Y476746D01*
X419328Y479070D01*
X421106Y480848D01*
X423430Y481811D01*
X425946Y481811D01*
X428270Y480848D01*
X430048Y479070D01*
X431011Y476746D01*
X431011Y474230D01*
X430048Y471906D01*
X428270Y470128D01*
X425946Y469165D01*
X423430Y469165D01*
G37*
%LPD*%
%LPC*%
G36*
X453065Y507773D02*
X453065Y507773D01*
X450741Y508736D01*
X448962Y510514D01*
X448000Y512838D01*
X448000Y515354D01*
X448962Y517678D01*
X450741Y519456D01*
X453065Y520419D01*
X455580Y520419D01*
X457904Y519456D01*
X459683Y517678D01*
X460645Y515354D01*
X460645Y512838D01*
X459683Y510514D01*
X457904Y508736D01*
X455580Y507773D01*
X453065Y507773D01*
G37*
%LPD*%
%LPC*%
G36*
X514870Y513869D02*
X514870Y513869D01*
X512546Y514832D01*
X510768Y516610D01*
X509805Y518934D01*
X509805Y521450D01*
X510768Y523774D01*
X512546Y525552D01*
X514870Y526515D01*
X517386Y526515D01*
X519710Y525552D01*
X521488Y523774D01*
X522451Y521450D01*
X522451Y518934D01*
X521488Y516610D01*
X519710Y514832D01*
X517386Y513869D01*
X514870Y513869D01*
G37*
%LPD*%
%LPC*%
G36*
X407174Y469165D02*
X407174Y469165D01*
X404850Y470128D01*
X403072Y471906D01*
X402109Y474230D01*
X402109Y476746D01*
X403072Y479070D01*
X404850Y480848D01*
X407174Y481811D01*
X409690Y481811D01*
X412014Y480848D01*
X413792Y479070D01*
X414755Y476746D01*
X414755Y474230D01*
X413792Y471906D01*
X412014Y470128D01*
X409690Y469165D01*
X407174Y469165D01*
G37*
%LPD*%
%LPC*%
G36*
X422033Y520251D02*
X422033Y520251D01*
X419709Y521214D01*
X417931Y522992D01*
X416968Y525316D01*
X416968Y527832D01*
X417931Y530156D01*
X419709Y531934D01*
X422033Y532897D01*
X424549Y532897D01*
X426873Y531934D01*
X428651Y530156D01*
X429614Y527832D01*
X429614Y525316D01*
X428651Y522992D01*
X426873Y521214D01*
X424549Y520251D01*
X422033Y520251D01*
G37*
%LPD*%
%LPC*%
G36*
X455942Y312701D02*
X455942Y312701D01*
X453618Y313664D01*
X451840Y315442D01*
X450877Y317766D01*
X450877Y320282D01*
X451840Y322606D01*
X453618Y324384D01*
X455942Y325347D01*
X458458Y325347D01*
X460782Y324384D01*
X462560Y322606D01*
X463523Y320282D01*
X463523Y317766D01*
X462560Y315442D01*
X460782Y313664D01*
X458458Y312701D01*
X455942Y312701D01*
G37*
%LPD*%
%LPC*%
G36*
X460006Y562637D02*
X460006Y562637D01*
X457682Y563600D01*
X455904Y565378D01*
X454941Y567702D01*
X454941Y570218D01*
X455904Y572542D01*
X457682Y574320D01*
X460006Y575283D01*
X462522Y575283D01*
X464846Y574320D01*
X466624Y572542D01*
X467587Y570218D01*
X467587Y567702D01*
X466624Y565378D01*
X464846Y563600D01*
X462522Y562637D01*
X460006Y562637D01*
G37*
%LPD*%
%LPC*%
G36*
X397014Y286285D02*
X397014Y286285D01*
X394690Y287248D01*
X392912Y289026D01*
X391949Y291350D01*
X391949Y293866D01*
X392912Y296190D01*
X394690Y297968D01*
X397014Y298931D01*
X399530Y298931D01*
X401854Y297968D01*
X403632Y296190D01*
X404595Y293866D01*
X404595Y291350D01*
X403632Y289026D01*
X401854Y287248D01*
X399530Y286285D01*
X397014Y286285D01*
G37*
%LPD*%
%LPC*%
G36*
X360438Y282221D02*
X360438Y282221D01*
X358114Y283184D01*
X356336Y284962D01*
X355373Y287286D01*
X355373Y289802D01*
X356336Y292126D01*
X358114Y293904D01*
X360438Y294867D01*
X362954Y294867D01*
X365278Y293904D01*
X367056Y292126D01*
X368019Y289802D01*
X368019Y287286D01*
X367056Y284962D01*
X365278Y283184D01*
X362954Y282221D01*
X360438Y282221D01*
G37*
%LPD*%
%LPC*%
G36*
X317766Y274093D02*
X317766Y274093D01*
X315442Y275056D01*
X313664Y276834D01*
X312701Y279158D01*
X312701Y281674D01*
X313664Y283998D01*
X315442Y285776D01*
X317766Y286739D01*
X320282Y286739D01*
X322606Y285776D01*
X324384Y283998D01*
X325347Y281674D01*
X325347Y279158D01*
X324384Y276834D01*
X322606Y275056D01*
X320282Y274093D01*
X317766Y274093D01*
G37*
%LPD*%
%LPC*%
G36*
X386854Y538253D02*
X386854Y538253D01*
X384530Y539216D01*
X382752Y540994D01*
X381789Y543318D01*
X381789Y545834D01*
X382752Y548158D01*
X384530Y549936D01*
X386854Y550899D01*
X389370Y550899D01*
X391694Y549936D01*
X393472Y548158D01*
X394435Y545834D01*
X394435Y543318D01*
X393472Y540994D01*
X391694Y539216D01*
X389370Y538253D01*
X386854Y538253D01*
G37*
%LPD*%
%LPC*%
G36*
X327926Y233453D02*
X327926Y233453D01*
X325602Y234416D01*
X323824Y236194D01*
X322861Y238518D01*
X322861Y241034D01*
X323824Y243358D01*
X325602Y245136D01*
X327926Y246099D01*
X330442Y246099D01*
X332766Y245136D01*
X334544Y243358D01*
X335507Y241034D01*
X335507Y238518D01*
X334544Y236194D01*
X332766Y234416D01*
X330442Y233453D01*
X327926Y233453D01*
G37*
%LPD*%
%LPC*%
G36*
X356000Y572739D02*
X356000Y572739D01*
X353676Y573702D01*
X351897Y575481D01*
X350935Y577804D01*
X350935Y580320D01*
X351897Y582644D01*
X353676Y584422D01*
X356000Y585385D01*
X358515Y585385D01*
X360839Y584422D01*
X362618Y582644D01*
X363580Y580320D01*
X363580Y577804D01*
X362618Y575481D01*
X360839Y573702D01*
X358515Y572739D01*
X356000Y572739D01*
G37*
%LPD*%
%LPC*%
G36*
X418042Y569111D02*
X418042Y569111D01*
X415718Y570074D01*
X413940Y571852D01*
X412977Y574176D01*
X412977Y576692D01*
X413940Y579015D01*
X415718Y580794D01*
X418042Y581757D01*
X420558Y581757D01*
X422882Y580794D01*
X424660Y579015D01*
X425623Y576692D01*
X425623Y574176D01*
X424660Y571852D01*
X422882Y570074D01*
X420558Y569111D01*
X418042Y569111D01*
G37*
%LPD*%
%LPC*%
G36*
X285254Y538253D02*
X285254Y538253D01*
X282930Y539216D01*
X281152Y540994D01*
X280189Y543318D01*
X280189Y545834D01*
X281152Y548158D01*
X282930Y549936D01*
X285254Y550899D01*
X287770Y550899D01*
X290094Y549936D01*
X291872Y548158D01*
X292835Y545834D01*
X292835Y543318D01*
X291872Y540994D01*
X290094Y539216D01*
X287770Y538253D01*
X285254Y538253D01*
G37*
%LPD*%
%LPC*%
G36*
X400199Y773663D02*
X400199Y773663D01*
X400199Y782186D01*
X401055Y782050D01*
X402576Y781556D01*
X404001Y780830D01*
X405295Y779890D01*
X406425Y778759D01*
X407366Y777465D01*
X408092Y776040D01*
X408586Y774519D01*
X408721Y773663D01*
X400199Y773663D01*
G37*
%LPD*%
%LPC*%
G36*
X404538Y206410D02*
X404538Y206410D01*
X404538Y214933D01*
X405394Y214797D01*
X406915Y214303D01*
X408340Y213577D01*
X409634Y212637D01*
X410765Y211506D01*
X411705Y210212D01*
X412431Y208787D01*
X412925Y207266D01*
X413061Y206410D01*
X404538Y206410D01*
G37*
%LPD*%
%LPC*%
G36*
X404538Y231810D02*
X404538Y231810D01*
X404538Y240333D01*
X405394Y240197D01*
X406915Y239703D01*
X408340Y238977D01*
X409634Y238037D01*
X410765Y236906D01*
X411705Y235612D01*
X412431Y234187D01*
X412925Y232666D01*
X413061Y231810D01*
X404538Y231810D01*
G37*
%LPD*%
%LPC*%
G36*
X400199Y770617D02*
X400199Y770617D01*
X408721Y770617D01*
X408586Y769761D01*
X408092Y768239D01*
X407366Y766815D01*
X406425Y765521D01*
X405295Y764390D01*
X404001Y763450D01*
X402576Y762724D01*
X401055Y762229D01*
X400199Y762094D01*
X400199Y770617D01*
G37*
%LPD*%
%LPC*%
G36*
X404538Y228764D02*
X404538Y228764D01*
X413061Y228764D01*
X412925Y227908D01*
X412431Y226386D01*
X411705Y224961D01*
X410765Y223667D01*
X409634Y222537D01*
X408340Y221597D01*
X406915Y220871D01*
X405394Y220376D01*
X404538Y220241D01*
X404538Y228764D01*
G37*
%LPD*%
%LPC*%
G36*
X392969Y206410D02*
X392969Y206410D01*
X393104Y207266D01*
X393599Y208787D01*
X394325Y210212D01*
X395265Y211506D01*
X396396Y212637D01*
X397690Y213577D01*
X399114Y214303D01*
X400636Y214797D01*
X401492Y214933D01*
X401492Y206410D01*
X392969Y206410D01*
G37*
%LPD*%
%LPC*%
G36*
X388629Y773663D02*
X388629Y773663D01*
X388765Y774519D01*
X389259Y776040D01*
X389985Y777465D01*
X390925Y778759D01*
X392056Y779890D01*
X393350Y780830D01*
X394775Y781556D01*
X396296Y782050D01*
X397152Y782186D01*
X397152Y773663D01*
X388629Y773663D01*
G37*
%LPD*%
%LPC*%
G36*
X392969Y231810D02*
X392969Y231810D01*
X393104Y232666D01*
X393599Y234187D01*
X394325Y235612D01*
X395265Y236906D01*
X396396Y238037D01*
X397690Y238977D01*
X399114Y239703D01*
X400636Y240197D01*
X401492Y240333D01*
X401492Y231810D01*
X392969Y231810D01*
G37*
%LPD*%
%LPC*%
G36*
X404538Y203364D02*
X404538Y203364D01*
X413061Y203364D01*
X412925Y202508D01*
X412431Y200986D01*
X411705Y199561D01*
X410765Y198267D01*
X409634Y197137D01*
X408340Y196197D01*
X406915Y195471D01*
X405394Y194976D01*
X404538Y194841D01*
X404538Y203364D01*
G37*
%LPD*%
%LPC*%
G36*
X396296Y762229D02*
X396296Y762229D01*
X394775Y762724D01*
X393350Y763450D01*
X392056Y764390D01*
X390925Y765521D01*
X389985Y766815D01*
X389259Y768239D01*
X388765Y769761D01*
X388629Y770617D01*
X397152Y770617D01*
X397152Y762094D01*
X396296Y762229D01*
G37*
%LPD*%
%LPC*%
G36*
X400636Y220376D02*
X400636Y220376D01*
X399114Y220871D01*
X397690Y221597D01*
X396396Y222537D01*
X395265Y223667D01*
X394325Y224961D01*
X393599Y226386D01*
X393104Y227908D01*
X392969Y228764D01*
X401492Y228764D01*
X401492Y220241D01*
X400636Y220376D01*
G37*
%LPD*%
%LPC*%
G36*
X400636Y194976D02*
X400636Y194976D01*
X399114Y195471D01*
X397690Y196197D01*
X396396Y197137D01*
X395265Y198267D01*
X394325Y199561D01*
X393599Y200986D01*
X393104Y202508D01*
X392969Y203364D01*
X401492Y203364D01*
X401492Y194841D01*
X400636Y194976D01*
G37*
%LPD*%
%LPC*%
G36*
X398674Y772139D02*
X398674Y772139D01*
X398674Y772141D01*
X398676Y772141D01*
X398676Y772139D01*
X398674Y772139D01*
G37*
%LPD*%
%LPC*%
G36*
X403014Y230286D02*
X403014Y230286D01*
X403014Y230288D01*
X403016Y230288D01*
X403016Y230286D01*
X403014Y230286D01*
G37*
%LPD*%
%LPC*%
G36*
X403014Y204886D02*
X403014Y204886D01*
X403014Y204888D01*
X403016Y204888D01*
X403016Y204886D01*
X403014Y204886D01*
G37*
%LPD*%
D10*
X603247Y783344D02*
X603245Y783469D01*
X603239Y783594D01*
X603230Y783719D01*
X603216Y783843D01*
X603199Y783967D01*
X603178Y784091D01*
X603153Y784213D01*
X603124Y784335D01*
X603092Y784456D01*
X603056Y784576D01*
X603016Y784695D01*
X602973Y784812D01*
X602926Y784928D01*
X602875Y785043D01*
X602821Y785155D01*
X602763Y785267D01*
X602703Y785376D01*
X602638Y785483D01*
X602571Y785589D01*
X602500Y785692D01*
X602426Y785793D01*
X602349Y785892D01*
X602269Y785988D01*
X602186Y786082D01*
X602101Y786173D01*
X602012Y786262D01*
X601921Y786347D01*
X601827Y786430D01*
X601731Y786510D01*
X601632Y786587D01*
X601531Y786661D01*
X601428Y786732D01*
X601322Y786799D01*
X601215Y786864D01*
X601106Y786924D01*
X600994Y786982D01*
X600882Y787036D01*
X600767Y787087D01*
X600651Y787134D01*
X600534Y787177D01*
X600415Y787217D01*
X600295Y787253D01*
X600174Y787285D01*
X600052Y787314D01*
X599930Y787339D01*
X599806Y787360D01*
X599682Y787377D01*
X599558Y787391D01*
X599433Y787400D01*
X599308Y787406D01*
X599183Y787408D01*
X599040Y787406D01*
X598898Y787400D01*
X598755Y787390D01*
X598613Y787377D01*
X598472Y787359D01*
X598330Y787338D01*
X598190Y787313D01*
X598050Y787284D01*
X597911Y787251D01*
X597773Y787214D01*
X597636Y787174D01*
X597501Y787130D01*
X597366Y787082D01*
X597233Y787030D01*
X597101Y786975D01*
X596971Y786916D01*
X596843Y786854D01*
X596716Y786788D01*
X596591Y786719D01*
X596468Y786647D01*
X596348Y786571D01*
X596229Y786492D01*
X596112Y786409D01*
X595998Y786324D01*
X595886Y786235D01*
X595777Y786144D01*
X595670Y786049D01*
X595565Y785952D01*
X595464Y785851D01*
X595365Y785748D01*
X595269Y785643D01*
X595176Y785534D01*
X595086Y785423D01*
X594999Y785310D01*
X594915Y785195D01*
X594835Y785077D01*
X594757Y784957D01*
X594683Y784835D01*
X594613Y784711D01*
X594545Y784585D01*
X594482Y784457D01*
X594421Y784328D01*
X594364Y784197D01*
X594311Y784065D01*
X594262Y783931D01*
X594216Y783796D01*
X601892Y780183D02*
X601986Y780275D01*
X602076Y780369D01*
X602164Y780466D01*
X602249Y780566D01*
X602331Y780668D01*
X602410Y780773D01*
X602485Y780880D01*
X602557Y780989D01*
X602626Y781100D01*
X602692Y781214D01*
X602754Y781329D01*
X602813Y781446D01*
X602868Y781565D01*
X602919Y781685D01*
X602967Y781807D01*
X603012Y781930D01*
X603052Y782054D01*
X603089Y782180D01*
X603122Y782307D01*
X603151Y782434D01*
X603177Y782563D01*
X603198Y782692D01*
X603216Y782822D01*
X603229Y782952D01*
X603239Y783082D01*
X603245Y783213D01*
X603247Y783344D01*
X601892Y780183D02*
X594216Y771152D01*
X603247Y771152D01*
X618531Y773861D02*
X618531Y774313D01*
X620789Y781989D02*
X620787Y782072D01*
X620781Y782156D01*
X620772Y782239D01*
X620758Y782321D01*
X620741Y782402D01*
X620720Y782483D01*
X620695Y782563D01*
X620667Y782641D01*
X620635Y782718D01*
X620600Y782794D01*
X620561Y782868D01*
X620518Y782940D01*
X620473Y783010D01*
X620424Y783077D01*
X620372Y783143D01*
X620318Y783206D01*
X620260Y783266D01*
X620200Y783324D01*
X620137Y783378D01*
X620071Y783430D01*
X620004Y783479D01*
X619934Y783524D01*
X619862Y783567D01*
X619788Y783606D01*
X619712Y783641D01*
X619635Y783673D01*
X619557Y783701D01*
X619477Y783726D01*
X619396Y783747D01*
X619315Y783764D01*
X619233Y783778D01*
X619150Y783787D01*
X619066Y783793D01*
X618983Y783795D01*
X618983Y783796D02*
X618838Y783794D01*
X618693Y783789D01*
X618549Y783780D01*
X618405Y783767D01*
X618261Y783751D01*
X618117Y783732D01*
X617974Y783709D01*
X617832Y783682D01*
X617690Y783652D01*
X617549Y783618D01*
X617409Y783581D01*
X617270Y783541D01*
X617132Y783497D01*
X616995Y783449D01*
X616859Y783399D01*
X616725Y783344D01*
X620789Y781989D02*
X620787Y781898D01*
X620782Y781808D01*
X620773Y781717D01*
X620760Y781627D01*
X620743Y781538D01*
X620724Y781449D01*
X620700Y781362D01*
X620673Y781275D01*
X620643Y781189D01*
X620609Y781105D01*
X620572Y781022D01*
X620531Y780941D01*
X620487Y780861D01*
X620440Y780784D01*
X620390Y780708D01*
X620337Y780634D01*
X620258Y780533D01*
X620177Y780434D01*
X620093Y780337D01*
X620007Y780243D01*
X619917Y780151D01*
X619825Y780061D01*
X619731Y779975D01*
X619634Y779891D01*
X619535Y779810D01*
X619434Y779731D01*
X619357Y779671D01*
X619283Y779607D01*
X619211Y779541D01*
X619142Y779473D01*
X619076Y779401D01*
X619012Y779327D01*
X618952Y779250D01*
X618894Y779171D01*
X618840Y779090D01*
X618789Y779007D01*
X618742Y778921D01*
X618698Y778834D01*
X618657Y778745D01*
X618620Y778655D01*
X618587Y778563D01*
X618557Y778470D01*
X618531Y778376D01*
X618531Y778377D02*
X618531Y777473D01*
X627111Y779280D02*
X618531Y765733D01*
X627111Y779280D02*
X618531Y792826D01*
X609952Y779280D01*
X618531Y765733D01*
D11*
X403015Y204887D03*
X403015Y230287D03*
X428415Y204887D03*
X428415Y230287D03*
X453815Y204887D03*
X453815Y230287D03*
D12*
X571506Y648965D03*
X571506Y683965D03*
D13*
X580819Y350300D03*
X580819Y385300D03*
D11*
X594368Y467360D03*
X594368Y492760D03*
X594368Y518160D03*
X546109Y467360D03*
X546109Y492760D03*
X546109Y518160D03*
X474875Y772140D03*
X449475Y772140D03*
X424075Y772140D03*
X398675Y772140D03*
D14*
X457200Y387771D03*
X406400Y387771D03*
X338666Y367450D03*
X338666Y418250D03*
D15*
X540599Y147417D03*
X540599Y212417D03*
D13*
X581602Y271531D03*
X581602Y306531D03*
D16*
X454322Y514096D03*
X400304Y499872D03*
X318224Y549522D03*
X330783Y615696D03*
D17*
X474875Y759789D01*
X474875Y772140D01*
D16*
X337312Y678688D03*
X290576Y459232D03*
X380115Y464774D03*
D17*
X388581Y464774D01*
X409746Y443609D01*
D16*
X409746Y443609D03*
X361696Y288544D03*
X398272Y292608D03*
X434297Y425831D03*
X439376Y320008D03*
D17*
X434297Y336049D02*
X434297Y425831D01*
X434297Y336049D02*
X436090Y334256D01*
X436090Y323294D02*
X439376Y320008D01*
X436090Y323294D02*
X436090Y334256D01*
D16*
X487680Y475488D03*
X461264Y568960D03*
X319024Y280416D03*
X376729Y421598D03*
X423291Y526574D03*
X419300Y575434D03*
X428752Y331216D03*
X424688Y475488D03*
X457200Y319024D03*
X429217Y449535D03*
D17*
X457200Y421552D01*
X457200Y387771D01*
D16*
X408432Y475488D03*
X379984Y447040D03*
X419058Y437683D03*
X467360Y544576D03*
X416560Y593344D03*
X388112Y544576D03*
X420624Y623824D03*
X477520Y469392D03*
X516128Y520192D03*
X319024Y577088D03*
X286512Y544576D03*
D17*
X428752Y627888D02*
X449072Y648208D01*
X428752Y627888D02*
X428752Y617728D01*
X375920Y564896D01*
D16*
X449072Y648208D03*
X375920Y564896D03*
X532384Y644144D03*
X532384Y544576D03*
X406400Y510032D03*
X357258Y555358D03*
X357258Y579062D03*
D17*
X345440Y562864D02*
X319024Y589280D01*
D16*
X319024Y589280D03*
X345440Y562864D03*
X316992Y615696D03*
D17*
X306832Y575056D02*
X336973Y544915D01*
X306832Y575056D02*
X306832Y577088D01*
D16*
X336973Y544915D03*
X306832Y577088D03*
X329184Y239776D03*
M02*
