G04 EAGLE Gerber RS-274X export*
G75*
%MOMM*%
%FSLAX34Y34*%
%LPD*%
%IN*%
%IPPOS*%
%AMOC8*
5,1,8,0,0,1.08239X$1,22.5*%
G01*
%ADD10C,0.254000*%


D10*
X259222Y831038D02*
X259920Y112607D01*
X635942Y114300D01*
X635244Y832731D01*
X259222Y831038D01*
X296582Y807850D02*
X296507Y806799D01*
X296357Y805756D01*
X296133Y804727D01*
X295836Y803716D01*
X295468Y802728D01*
X295030Y801770D01*
X294525Y800845D01*
X293956Y799959D01*
X293324Y799116D01*
X292634Y798319D01*
X291889Y797574D01*
X291093Y796884D01*
X290250Y796253D01*
X289363Y795683D01*
X288439Y795178D01*
X287480Y794741D01*
X286493Y794373D01*
X285482Y794076D01*
X284453Y793852D01*
X283410Y793702D01*
X282359Y793627D01*
X281305Y793627D01*
X280254Y793702D01*
X279212Y793852D01*
X278182Y794076D01*
X277171Y794373D01*
X276184Y794741D01*
X275226Y795178D01*
X274301Y795683D01*
X273414Y796253D01*
X272571Y796884D01*
X271775Y797574D01*
X271030Y798319D01*
X270340Y799116D01*
X269708Y799959D01*
X269139Y800845D01*
X268634Y801770D01*
X268196Y802728D01*
X267828Y803716D01*
X267531Y804727D01*
X267307Y805756D01*
X267157Y806799D01*
X267082Y807850D01*
X267082Y808903D01*
X267157Y809954D01*
X267307Y810997D01*
X267531Y812027D01*
X267828Y813038D01*
X268196Y814025D01*
X268634Y814983D01*
X269139Y815908D01*
X269708Y816794D01*
X270340Y817638D01*
X271030Y818434D01*
X271775Y819179D01*
X272571Y819869D01*
X273414Y820500D01*
X274301Y821070D01*
X275226Y821575D01*
X276184Y822013D01*
X277171Y822381D01*
X278182Y822678D01*
X279212Y822902D01*
X280254Y823051D01*
X281305Y823127D01*
X282359Y823127D01*
X283410Y823051D01*
X284453Y822902D01*
X285482Y822678D01*
X286493Y822381D01*
X287480Y822013D01*
X288439Y821575D01*
X289363Y821070D01*
X290250Y820500D01*
X291093Y819869D01*
X291889Y819179D01*
X292634Y818434D01*
X293324Y817638D01*
X293956Y816794D01*
X294525Y815908D01*
X295030Y814983D01*
X295468Y814025D01*
X295836Y813038D01*
X296133Y812027D01*
X296357Y810997D01*
X296507Y809954D01*
X296582Y808903D01*
X296582Y807850D01*
X627478Y810390D02*
X627402Y809339D01*
X627253Y808296D01*
X627029Y807266D01*
X626732Y806255D01*
X626364Y805268D01*
X625926Y804310D01*
X625421Y803385D01*
X624851Y802499D01*
X624220Y801655D01*
X623530Y800859D01*
X622785Y800114D01*
X621989Y799424D01*
X621145Y798793D01*
X620259Y798223D01*
X619334Y797718D01*
X618376Y797280D01*
X617389Y796912D01*
X616378Y796615D01*
X615348Y796391D01*
X614305Y796241D01*
X613254Y796166D01*
X612201Y796166D01*
X611150Y796241D01*
X610107Y796391D01*
X609078Y796615D01*
X608067Y796912D01*
X607079Y797280D01*
X606121Y797718D01*
X605196Y798223D01*
X604310Y798793D01*
X603467Y799424D01*
X602670Y800114D01*
X601925Y800859D01*
X601235Y801655D01*
X600604Y802499D01*
X600034Y803385D01*
X599529Y804310D01*
X599092Y805268D01*
X598724Y806255D01*
X598427Y807266D01*
X598203Y808296D01*
X598053Y809339D01*
X597978Y810390D01*
X597978Y811443D01*
X598053Y812494D01*
X598203Y813537D01*
X598427Y814566D01*
X598724Y815577D01*
X599092Y816565D01*
X599529Y817523D01*
X600034Y818448D01*
X600604Y819334D01*
X601235Y820177D01*
X601925Y820974D01*
X602670Y821719D01*
X603467Y822409D01*
X604310Y823040D01*
X605196Y823610D01*
X606121Y824115D01*
X607079Y824552D01*
X608067Y824920D01*
X609078Y825217D01*
X610107Y825441D01*
X611150Y825591D01*
X612201Y825666D01*
X613254Y825666D01*
X614305Y825591D01*
X615348Y825441D01*
X616378Y825217D01*
X617389Y824920D01*
X618376Y824552D01*
X619334Y824115D01*
X620259Y823610D01*
X621145Y823040D01*
X621989Y822409D01*
X622785Y821719D01*
X623530Y820974D01*
X624220Y820177D01*
X624851Y819334D01*
X625421Y818448D01*
X625926Y817523D01*
X626364Y816565D01*
X626732Y815577D01*
X627029Y814566D01*
X627253Y813537D01*
X627402Y812494D01*
X627478Y811443D01*
X627478Y810390D01*
X299122Y135787D02*
X299047Y134736D01*
X298897Y133693D01*
X298673Y132664D01*
X298376Y131653D01*
X298008Y130666D01*
X297570Y129707D01*
X297065Y128782D01*
X296496Y127896D01*
X295864Y127053D01*
X295174Y126256D01*
X294429Y125511D01*
X293633Y124821D01*
X292789Y124190D01*
X291903Y123620D01*
X290978Y123115D01*
X290020Y122678D01*
X289033Y122310D01*
X288022Y122013D01*
X286992Y121789D01*
X285950Y121639D01*
X284899Y121564D01*
X283845Y121564D01*
X282794Y121639D01*
X281751Y121789D01*
X280722Y122013D01*
X279711Y122310D01*
X278724Y122678D01*
X277765Y123115D01*
X276841Y123620D01*
X275954Y124190D01*
X275111Y124821D01*
X274315Y125511D01*
X273570Y126256D01*
X272880Y127053D01*
X272248Y127896D01*
X271679Y128782D01*
X271174Y129707D01*
X270736Y130666D01*
X270368Y131653D01*
X270071Y132664D01*
X269847Y133693D01*
X269697Y134736D01*
X269622Y135787D01*
X269622Y136841D01*
X269697Y137891D01*
X269847Y138934D01*
X270071Y139964D01*
X270368Y140975D01*
X270736Y141962D01*
X271174Y142920D01*
X271679Y143845D01*
X272248Y144731D01*
X272880Y145575D01*
X273570Y146371D01*
X274315Y147116D01*
X275111Y147806D01*
X275954Y148437D01*
X276841Y149007D01*
X277765Y149512D01*
X278724Y149950D01*
X279711Y150318D01*
X280722Y150615D01*
X281751Y150839D01*
X282794Y150989D01*
X283845Y151064D01*
X284899Y151064D01*
X285950Y150989D01*
X286992Y150839D01*
X288022Y150615D01*
X289033Y150318D01*
X290020Y149950D01*
X290978Y149512D01*
X291903Y149007D01*
X292789Y148437D01*
X293633Y147806D01*
X294429Y147116D01*
X295174Y146371D01*
X295864Y145575D01*
X296496Y144731D01*
X297065Y143845D01*
X297570Y142920D01*
X298008Y141962D01*
X298376Y140975D01*
X298673Y139964D01*
X298897Y138934D01*
X299047Y137891D01*
X299122Y136841D01*
X299122Y135787D01*
X629171Y135787D02*
X629096Y134736D01*
X628946Y133693D01*
X628722Y132664D01*
X628425Y131653D01*
X628057Y130665D01*
X627619Y129707D01*
X627114Y128782D01*
X626544Y127896D01*
X625913Y127053D01*
X625223Y126256D01*
X624478Y125511D01*
X623682Y124821D01*
X622838Y124190D01*
X621952Y123620D01*
X621027Y123115D01*
X620069Y122678D01*
X619082Y122310D01*
X618071Y122013D01*
X617041Y121789D01*
X615999Y121639D01*
X614948Y121564D01*
X613894Y121564D01*
X612843Y121639D01*
X611800Y121789D01*
X610771Y122013D01*
X609760Y122310D01*
X608773Y122678D01*
X607814Y123115D01*
X606890Y123620D01*
X606003Y124190D01*
X605160Y124821D01*
X604363Y125511D01*
X603618Y126256D01*
X602929Y127053D01*
X602297Y127896D01*
X601727Y128782D01*
X601223Y129707D01*
X600785Y130665D01*
X600417Y131653D01*
X600120Y132664D01*
X599896Y133693D01*
X599746Y134736D01*
X599671Y135787D01*
X599671Y136840D01*
X599746Y137891D01*
X599896Y138934D01*
X600120Y139964D01*
X600417Y140975D01*
X600785Y141962D01*
X601223Y142920D01*
X601727Y143845D01*
X602297Y144731D01*
X602929Y145575D01*
X603618Y146371D01*
X604363Y147116D01*
X605160Y147806D01*
X606003Y148437D01*
X606890Y149007D01*
X607814Y149512D01*
X608773Y149950D01*
X609760Y150318D01*
X610771Y150615D01*
X611800Y150839D01*
X612843Y150989D01*
X613894Y151064D01*
X614948Y151064D01*
X615999Y150989D01*
X617041Y150839D01*
X618071Y150615D01*
X619082Y150318D01*
X620069Y149950D01*
X621027Y149512D01*
X621952Y149007D01*
X622838Y148437D01*
X623682Y147806D01*
X624478Y147116D01*
X625223Y146371D01*
X625913Y145575D01*
X626544Y144731D01*
X627114Y143845D01*
X627619Y142920D01*
X628057Y141962D01*
X628425Y140975D01*
X628722Y139964D01*
X628946Y138934D01*
X629096Y137891D01*
X629171Y136840D01*
X629171Y135787D01*
M02*
