G04 EAGLE Gerber RS-274X export*
G75*
%MOMM*%
%FSLAX34Y34*%
%LPD*%
%INSilkscreen Top*%
%IPPOS*%
%AMOC8*
5,1,8,0,0,1.08239X$1,22.5*%
G01*
%ADD10C,0.152400*%
%ADD11R,0.086363X0.084838*%
%ADD12R,0.421637X0.084581*%
%ADD13R,0.167637X0.084581*%
%ADD14R,0.762000X0.084581*%
%ADD15R,0.254000X0.084581*%
%ADD16R,1.099819X0.084838*%
%ADD17R,0.424181X0.084838*%
%ADD18R,1.102363X0.084838*%
%ADD19R,1.524000X0.084581*%
%ADD20R,0.508000X0.084581*%
%ADD21R,1.861819X0.084581*%
%ADD22R,0.675638X0.084581*%
%ADD23R,1.778000X0.084838*%
%ADD24R,0.848363X0.084838*%
%ADD25R,1.861819X0.084838*%
%ADD26R,1.694181X0.084581*%
%ADD27R,0.932181X0.084581*%
%ADD28R,1.778000X0.084581*%
%ADD29R,1.099819X0.084581*%
%ADD30R,1.691638X0.084581*%
%ADD31R,1.691638X0.084838*%
%ADD32R,1.183638X0.084838*%
%ADD33R,1.607819X0.084581*%
%ADD34R,1.356363X0.084581*%
%ADD35R,1.437638X0.084838*%
%ADD36R,1.607819X0.084838*%
%ADD37R,1.524000X0.084838*%
%ADD38R,1.437638X0.084581*%
%ADD39R,1.440181X0.084581*%
%ADD40R,1.864363X0.084581*%
%ADD41R,1.356363X0.084838*%
%ADD42R,2.032000X0.084838*%
%ADD43R,1.270000X0.084581*%
%ADD44R,2.199638X0.084581*%
%ADD45R,1.186181X0.084581*%
%ADD46R,2.286000X0.084581*%
%ADD47R,1.186181X0.084838*%
%ADD48R,2.456181X0.084838*%
%ADD49R,2.540000X0.084581*%
%ADD50R,2.707638X0.084581*%
%ADD51R,1.016000X0.084838*%
%ADD52R,0.675638X0.084838*%
%ADD53R,0.762000X0.084838*%
%ADD54R,0.678181X0.084581*%
%ADD55R,0.929638X0.084581*%
%ADD56R,0.845819X0.084838*%
%ADD57R,0.929638X0.084838*%
%ADD58R,0.845819X0.084581*%
%ADD59R,1.016000X0.084581*%
%ADD60R,0.678181X0.084838*%
%ADD61R,0.848363X0.084581*%
%ADD62R,0.591819X0.084581*%
%ADD63R,0.594363X0.084838*%
%ADD64R,0.424181X0.084581*%
%ADD65R,0.340363X0.084838*%
%ADD66R,0.340363X0.084581*%
%ADD67R,1.102363X0.084581*%
%ADD68R,0.337819X0.084581*%
%ADD69R,0.254000X0.084838*%
%ADD70R,1.270000X0.084838*%
%ADD71R,0.170181X0.084581*%
%ADD72R,2.032000X0.084581*%
%ADD73R,0.083819X0.084581*%
%ADD74R,0.083819X0.084838*%
%ADD75R,2.115819X0.084838*%
%ADD76R,2.118362X0.084581*%
%ADD77R,2.115819X0.084581*%
%ADD78R,0.591819X0.084838*%
%ADD79R,1.945638X0.084581*%
%ADD80R,1.183638X0.084581*%
%ADD81R,1.948181X0.084838*%
%ADD82R,1.864363X0.084838*%
%ADD83R,1.948181X0.084581*%
%ADD84R,1.694181X0.084838*%
%ADD85R,2.199638X0.084838*%
%ADD86R,2.286000X0.084838*%
%ADD87R,2.372362X0.084581*%
%ADD88R,2.372362X0.084838*%
%ADD89R,2.456181X0.084581*%
%ADD90R,0.337819X0.084838*%
%ADD91R,0.421637X0.084838*%
%ADD92R,0.594363X0.084581*%
%ADD93R,0.167637X0.084838*%
%ADD94R,0.086363X0.084581*%
%ADD95R,0.170181X0.084838*%
%ADD96R,2.626362X0.084838*%
%ADD97C,0.127000*%
%ADD98C,0.254000*%
%ADD99C,0.101600*%
%ADD100C,0.203200*%
%ADD101C,0.200000*%


D10*
X-349603Y807089D02*
X-349601Y806971D01*
X-349595Y806853D01*
X-349586Y806735D01*
X-349572Y806618D01*
X-349555Y806501D01*
X-349534Y806384D01*
X-349509Y806269D01*
X-349480Y806154D01*
X-349447Y806040D01*
X-349411Y805928D01*
X-349371Y805817D01*
X-349328Y805707D01*
X-349281Y805598D01*
X-349231Y805491D01*
X-349176Y805386D01*
X-349119Y805283D01*
X-349058Y805182D01*
X-348994Y805082D01*
X-348927Y804985D01*
X-348857Y804890D01*
X-348783Y804798D01*
X-348707Y804707D01*
X-348627Y804620D01*
X-348545Y804535D01*
X-348460Y804453D01*
X-348373Y804373D01*
X-348282Y804297D01*
X-348190Y804223D01*
X-348095Y804153D01*
X-347998Y804086D01*
X-347898Y804022D01*
X-347797Y803961D01*
X-347694Y803904D01*
X-347589Y803849D01*
X-347482Y803799D01*
X-347373Y803752D01*
X-347263Y803709D01*
X-347152Y803669D01*
X-347040Y803633D01*
X-346926Y803600D01*
X-346811Y803571D01*
X-346696Y803546D01*
X-346579Y803525D01*
X-346462Y803508D01*
X-346345Y803494D01*
X-346227Y803485D01*
X-346109Y803479D01*
X-345991Y803477D01*
X-345808Y803479D01*
X-345626Y803486D01*
X-345444Y803497D01*
X-345262Y803512D01*
X-345080Y803532D01*
X-344899Y803555D01*
X-344719Y803584D01*
X-344539Y803616D01*
X-344360Y803653D01*
X-344183Y803694D01*
X-344006Y803740D01*
X-343830Y803789D01*
X-343656Y803843D01*
X-343482Y803901D01*
X-343311Y803963D01*
X-343141Y804029D01*
X-342972Y804100D01*
X-342805Y804174D01*
X-342640Y804252D01*
X-342477Y804334D01*
X-342316Y804420D01*
X-342157Y804510D01*
X-342000Y804604D01*
X-341846Y804701D01*
X-341694Y804802D01*
X-341544Y804907D01*
X-341397Y805015D01*
X-341253Y805126D01*
X-341111Y805241D01*
X-340972Y805360D01*
X-340836Y805482D01*
X-340703Y805607D01*
X-340573Y805735D01*
X-341024Y816120D02*
X-341026Y816238D01*
X-341032Y816356D01*
X-341041Y816474D01*
X-341055Y816591D01*
X-341072Y816708D01*
X-341093Y816825D01*
X-341118Y816940D01*
X-341147Y817055D01*
X-341180Y817169D01*
X-341216Y817281D01*
X-341256Y817392D01*
X-341299Y817502D01*
X-341346Y817611D01*
X-341396Y817718D01*
X-341451Y817823D01*
X-341508Y817926D01*
X-341569Y818027D01*
X-341633Y818127D01*
X-341700Y818224D01*
X-341770Y818319D01*
X-341844Y818411D01*
X-341920Y818502D01*
X-342000Y818589D01*
X-342082Y818674D01*
X-342167Y818756D01*
X-342254Y818836D01*
X-342345Y818912D01*
X-342437Y818986D01*
X-342532Y819056D01*
X-342629Y819123D01*
X-342729Y819187D01*
X-342830Y819248D01*
X-342933Y819306D01*
X-343038Y819360D01*
X-343145Y819410D01*
X-343254Y819457D01*
X-343364Y819501D01*
X-343475Y819540D01*
X-343588Y819576D01*
X-343701Y819609D01*
X-343816Y819638D01*
X-343931Y819663D01*
X-344048Y819684D01*
X-344165Y819701D01*
X-344282Y819715D01*
X-344400Y819724D01*
X-344518Y819730D01*
X-344636Y819732D01*
X-344797Y819730D01*
X-344959Y819724D01*
X-345120Y819715D01*
X-345281Y819701D01*
X-345441Y819684D01*
X-345601Y819663D01*
X-345761Y819638D01*
X-345920Y819609D01*
X-346078Y819577D01*
X-346235Y819541D01*
X-346391Y819501D01*
X-346547Y819457D01*
X-346701Y819409D01*
X-346854Y819358D01*
X-347006Y819304D01*
X-347157Y819245D01*
X-347306Y819184D01*
X-347453Y819118D01*
X-347599Y819049D01*
X-347744Y818977D01*
X-347886Y818901D01*
X-348027Y818822D01*
X-348166Y818740D01*
X-348302Y818654D01*
X-348437Y818565D01*
X-348570Y818473D01*
X-348700Y818377D01*
X-342830Y812959D02*
X-342729Y813021D01*
X-342629Y813086D01*
X-342532Y813155D01*
X-342437Y813227D01*
X-342344Y813301D01*
X-342254Y813379D01*
X-342166Y813460D01*
X-342081Y813543D01*
X-341999Y813629D01*
X-341920Y813718D01*
X-341843Y813809D01*
X-341770Y813903D01*
X-341699Y813999D01*
X-341632Y814097D01*
X-341568Y814197D01*
X-341507Y814300D01*
X-341450Y814404D01*
X-341396Y814510D01*
X-341346Y814618D01*
X-341299Y814727D01*
X-341255Y814838D01*
X-341215Y814950D01*
X-341179Y815064D01*
X-341147Y815178D01*
X-341118Y815294D01*
X-341093Y815410D01*
X-341072Y815527D01*
X-341055Y815645D01*
X-341041Y815763D01*
X-341032Y815882D01*
X-341026Y816001D01*
X-341024Y816120D01*
X-347798Y810250D02*
X-347899Y810188D01*
X-347999Y810123D01*
X-348096Y810054D01*
X-348191Y809982D01*
X-348284Y809908D01*
X-348374Y809830D01*
X-348462Y809749D01*
X-348547Y809666D01*
X-348629Y809580D01*
X-348708Y809491D01*
X-348785Y809400D01*
X-348858Y809306D01*
X-348929Y809210D01*
X-348996Y809112D01*
X-349060Y809012D01*
X-349121Y808909D01*
X-349178Y808805D01*
X-349232Y808699D01*
X-349282Y808591D01*
X-349329Y808482D01*
X-349373Y808371D01*
X-349413Y808259D01*
X-349449Y808145D01*
X-349481Y808031D01*
X-349510Y807915D01*
X-349535Y807799D01*
X-349556Y807682D01*
X-349573Y807564D01*
X-349587Y807446D01*
X-349596Y807327D01*
X-349602Y807208D01*
X-349604Y807089D01*
X-347797Y810250D02*
X-342830Y812960D01*
X-356415Y819733D02*
X-356415Y803477D01*
X-356415Y819733D02*
X-360930Y819733D01*
X-361063Y819731D01*
X-361195Y819725D01*
X-361327Y819715D01*
X-361459Y819702D01*
X-361591Y819684D01*
X-361721Y819663D01*
X-361852Y819638D01*
X-361981Y819609D01*
X-362109Y819576D01*
X-362237Y819540D01*
X-362363Y819500D01*
X-362488Y819456D01*
X-362612Y819408D01*
X-362734Y819357D01*
X-362855Y819302D01*
X-362974Y819244D01*
X-363092Y819182D01*
X-363207Y819117D01*
X-363321Y819048D01*
X-363432Y818977D01*
X-363541Y818901D01*
X-363648Y818823D01*
X-363753Y818742D01*
X-363855Y818657D01*
X-363955Y818570D01*
X-364052Y818480D01*
X-364147Y818387D01*
X-364238Y818291D01*
X-364327Y818193D01*
X-364413Y818092D01*
X-364496Y817988D01*
X-364576Y817882D01*
X-364652Y817774D01*
X-364726Y817664D01*
X-364796Y817551D01*
X-364863Y817437D01*
X-364926Y817320D01*
X-364986Y817202D01*
X-365043Y817082D01*
X-365096Y816960D01*
X-365145Y816837D01*
X-365191Y816713D01*
X-365233Y816587D01*
X-365271Y816460D01*
X-365306Y816332D01*
X-365337Y816203D01*
X-365364Y816074D01*
X-365387Y815943D01*
X-365407Y815812D01*
X-365422Y815680D01*
X-365434Y815548D01*
X-365442Y815416D01*
X-365446Y815283D01*
X-365446Y815151D01*
X-365442Y815018D01*
X-365434Y814886D01*
X-365422Y814754D01*
X-365407Y814622D01*
X-365387Y814491D01*
X-365364Y814360D01*
X-365337Y814231D01*
X-365306Y814102D01*
X-365271Y813974D01*
X-365233Y813847D01*
X-365191Y813721D01*
X-365145Y813597D01*
X-365096Y813474D01*
X-365043Y813352D01*
X-364986Y813232D01*
X-364926Y813114D01*
X-364863Y812997D01*
X-364796Y812883D01*
X-364726Y812770D01*
X-364652Y812660D01*
X-364576Y812552D01*
X-364496Y812446D01*
X-364413Y812342D01*
X-364327Y812241D01*
X-364238Y812143D01*
X-364147Y812047D01*
X-364052Y811954D01*
X-363955Y811864D01*
X-363855Y811777D01*
X-363753Y811692D01*
X-363648Y811611D01*
X-363541Y811533D01*
X-363432Y811457D01*
X-363321Y811386D01*
X-363207Y811317D01*
X-363092Y811252D01*
X-362974Y811190D01*
X-362855Y811132D01*
X-362734Y811077D01*
X-362612Y811026D01*
X-362488Y810978D01*
X-362363Y810934D01*
X-362237Y810894D01*
X-362109Y810858D01*
X-361981Y810825D01*
X-361852Y810796D01*
X-361721Y810771D01*
X-361591Y810750D01*
X-361459Y810732D01*
X-361327Y810719D01*
X-361195Y810709D01*
X-361063Y810703D01*
X-360930Y810701D01*
X-360930Y810702D02*
X-356415Y810702D01*
X-370411Y803477D02*
X-375830Y819733D01*
X-381248Y803477D01*
X-379894Y807541D02*
X-371766Y807541D01*
X-390518Y803477D02*
X-394131Y803477D01*
X-390518Y803477D02*
X-390400Y803479D01*
X-390282Y803485D01*
X-390164Y803494D01*
X-390047Y803508D01*
X-389930Y803525D01*
X-389813Y803546D01*
X-389698Y803571D01*
X-389583Y803600D01*
X-389469Y803633D01*
X-389357Y803669D01*
X-389246Y803709D01*
X-389136Y803752D01*
X-389027Y803799D01*
X-388920Y803849D01*
X-388815Y803904D01*
X-388712Y803961D01*
X-388611Y804022D01*
X-388511Y804086D01*
X-388414Y804153D01*
X-388319Y804223D01*
X-388227Y804297D01*
X-388136Y804373D01*
X-388049Y804453D01*
X-387964Y804535D01*
X-387882Y804620D01*
X-387802Y804707D01*
X-387726Y804798D01*
X-387652Y804890D01*
X-387582Y804985D01*
X-387515Y805082D01*
X-387451Y805182D01*
X-387390Y805283D01*
X-387333Y805386D01*
X-387278Y805491D01*
X-387228Y805598D01*
X-387181Y805707D01*
X-387138Y805817D01*
X-387098Y805928D01*
X-387062Y806040D01*
X-387029Y806154D01*
X-387000Y806269D01*
X-386975Y806384D01*
X-386954Y806501D01*
X-386937Y806618D01*
X-386923Y806735D01*
X-386914Y806853D01*
X-386908Y806971D01*
X-386906Y807089D01*
X-386906Y816120D01*
X-386908Y816238D01*
X-386914Y816356D01*
X-386923Y816474D01*
X-386937Y816591D01*
X-386954Y816708D01*
X-386975Y816825D01*
X-387000Y816940D01*
X-387029Y817055D01*
X-387062Y817169D01*
X-387098Y817281D01*
X-387138Y817392D01*
X-387181Y817502D01*
X-387228Y817611D01*
X-387278Y817718D01*
X-387332Y817823D01*
X-387390Y817926D01*
X-387451Y818027D01*
X-387515Y818127D01*
X-387582Y818224D01*
X-387652Y818319D01*
X-387726Y818411D01*
X-387802Y818502D01*
X-387882Y818589D01*
X-387964Y818674D01*
X-388049Y818756D01*
X-388136Y818836D01*
X-388227Y818912D01*
X-388319Y818986D01*
X-388414Y819056D01*
X-388511Y819123D01*
X-388611Y819187D01*
X-388712Y819248D01*
X-388815Y819305D01*
X-388920Y819359D01*
X-389027Y819410D01*
X-389136Y819457D01*
X-389246Y819500D01*
X-389357Y819540D01*
X-389469Y819576D01*
X-389583Y819609D01*
X-389698Y819638D01*
X-389813Y819663D01*
X-389930Y819684D01*
X-390047Y819701D01*
X-390164Y819715D01*
X-390282Y819724D01*
X-390400Y819730D01*
X-390518Y819732D01*
X-390518Y819733D02*
X-394131Y819733D01*
X-400522Y803477D02*
X-407747Y803477D01*
X-400522Y803477D02*
X-400522Y819733D01*
X-407747Y819733D01*
X-405941Y812508D02*
X-400522Y812508D01*
X-422587Y819733D02*
X-422587Y803477D01*
X-422587Y819733D02*
X-427102Y819733D01*
X-427235Y819731D01*
X-427367Y819725D01*
X-427499Y819715D01*
X-427631Y819702D01*
X-427763Y819684D01*
X-427893Y819663D01*
X-428024Y819638D01*
X-428153Y819609D01*
X-428281Y819576D01*
X-428409Y819540D01*
X-428535Y819500D01*
X-428660Y819456D01*
X-428784Y819408D01*
X-428906Y819357D01*
X-429027Y819302D01*
X-429146Y819244D01*
X-429264Y819182D01*
X-429379Y819117D01*
X-429493Y819048D01*
X-429604Y818977D01*
X-429713Y818901D01*
X-429820Y818823D01*
X-429925Y818742D01*
X-430027Y818657D01*
X-430127Y818570D01*
X-430224Y818480D01*
X-430319Y818387D01*
X-430410Y818291D01*
X-430499Y818193D01*
X-430585Y818092D01*
X-430668Y817988D01*
X-430748Y817882D01*
X-430824Y817774D01*
X-430898Y817664D01*
X-430968Y817551D01*
X-431035Y817437D01*
X-431098Y817320D01*
X-431158Y817202D01*
X-431215Y817082D01*
X-431268Y816960D01*
X-431317Y816837D01*
X-431363Y816713D01*
X-431405Y816587D01*
X-431443Y816460D01*
X-431478Y816332D01*
X-431509Y816203D01*
X-431536Y816074D01*
X-431559Y815943D01*
X-431579Y815812D01*
X-431594Y815680D01*
X-431606Y815548D01*
X-431614Y815416D01*
X-431618Y815283D01*
X-431618Y815151D01*
X-431614Y815018D01*
X-431606Y814886D01*
X-431594Y814754D01*
X-431579Y814622D01*
X-431559Y814491D01*
X-431536Y814360D01*
X-431509Y814231D01*
X-431478Y814102D01*
X-431443Y813974D01*
X-431405Y813847D01*
X-431363Y813721D01*
X-431317Y813597D01*
X-431268Y813474D01*
X-431215Y813352D01*
X-431158Y813232D01*
X-431098Y813114D01*
X-431035Y812997D01*
X-430968Y812883D01*
X-430898Y812770D01*
X-430824Y812660D01*
X-430748Y812552D01*
X-430668Y812446D01*
X-430585Y812342D01*
X-430499Y812241D01*
X-430410Y812143D01*
X-430319Y812047D01*
X-430224Y811954D01*
X-430127Y811864D01*
X-430027Y811777D01*
X-429925Y811692D01*
X-429820Y811611D01*
X-429713Y811533D01*
X-429604Y811457D01*
X-429493Y811386D01*
X-429379Y811317D01*
X-429264Y811252D01*
X-429146Y811190D01*
X-429027Y811132D01*
X-428906Y811077D01*
X-428784Y811026D01*
X-428660Y810978D01*
X-428535Y810934D01*
X-428409Y810894D01*
X-428281Y810858D01*
X-428153Y810825D01*
X-428024Y810796D01*
X-427893Y810771D01*
X-427763Y810750D01*
X-427631Y810732D01*
X-427499Y810719D01*
X-427367Y810709D01*
X-427235Y810703D01*
X-427102Y810701D01*
X-427102Y810702D02*
X-422587Y810702D01*
X-438875Y803477D02*
X-438875Y819733D01*
X-437069Y803477D02*
X-440682Y803477D01*
X-440682Y819733D02*
X-437069Y819733D01*
X-447477Y819733D02*
X-447477Y803477D01*
X-447477Y819733D02*
X-451993Y819733D01*
X-452126Y819731D01*
X-452258Y819725D01*
X-452390Y819715D01*
X-452522Y819702D01*
X-452654Y819684D01*
X-452784Y819663D01*
X-452915Y819638D01*
X-453044Y819609D01*
X-453172Y819576D01*
X-453300Y819540D01*
X-453426Y819500D01*
X-453551Y819456D01*
X-453675Y819408D01*
X-453797Y819357D01*
X-453918Y819302D01*
X-454037Y819244D01*
X-454155Y819182D01*
X-454270Y819117D01*
X-454384Y819048D01*
X-454495Y818977D01*
X-454604Y818901D01*
X-454711Y818823D01*
X-454816Y818742D01*
X-454918Y818657D01*
X-455018Y818570D01*
X-455115Y818480D01*
X-455210Y818387D01*
X-455301Y818291D01*
X-455390Y818193D01*
X-455476Y818092D01*
X-455559Y817988D01*
X-455639Y817882D01*
X-455715Y817774D01*
X-455789Y817664D01*
X-455859Y817551D01*
X-455926Y817437D01*
X-455989Y817320D01*
X-456049Y817202D01*
X-456106Y817082D01*
X-456159Y816960D01*
X-456208Y816837D01*
X-456254Y816713D01*
X-456296Y816587D01*
X-456334Y816460D01*
X-456369Y816332D01*
X-456400Y816203D01*
X-456427Y816074D01*
X-456450Y815943D01*
X-456470Y815812D01*
X-456485Y815680D01*
X-456497Y815548D01*
X-456505Y815416D01*
X-456509Y815283D01*
X-456509Y815151D01*
X-456505Y815018D01*
X-456497Y814886D01*
X-456485Y814754D01*
X-456470Y814622D01*
X-456450Y814491D01*
X-456427Y814360D01*
X-456400Y814231D01*
X-456369Y814102D01*
X-456334Y813974D01*
X-456296Y813847D01*
X-456254Y813721D01*
X-456208Y813597D01*
X-456159Y813474D01*
X-456106Y813352D01*
X-456049Y813232D01*
X-455989Y813114D01*
X-455926Y812997D01*
X-455859Y812883D01*
X-455789Y812770D01*
X-455715Y812660D01*
X-455639Y812552D01*
X-455559Y812446D01*
X-455476Y812342D01*
X-455390Y812241D01*
X-455301Y812143D01*
X-455210Y812047D01*
X-455115Y811954D01*
X-455018Y811864D01*
X-454918Y811777D01*
X-454816Y811692D01*
X-454711Y811611D01*
X-454604Y811533D01*
X-454495Y811457D01*
X-454384Y811386D01*
X-454270Y811317D01*
X-454155Y811252D01*
X-454037Y811190D01*
X-453918Y811132D01*
X-453797Y811077D01*
X-453675Y811026D01*
X-453551Y810978D01*
X-453426Y810934D01*
X-453300Y810894D01*
X-453172Y810858D01*
X-453044Y810825D01*
X-452915Y810796D01*
X-452784Y810771D01*
X-452654Y810750D01*
X-452522Y810732D01*
X-452390Y810719D01*
X-452258Y810709D01*
X-452126Y810703D01*
X-451993Y810701D01*
X-451993Y810702D02*
X-447477Y810702D01*
X-452896Y810702D02*
X-456509Y803477D01*
X-462114Y803477D02*
X-467533Y819733D01*
X-472951Y803477D01*
X-471597Y807541D02*
X-463469Y807541D01*
X-482122Y803477D02*
X-482122Y819733D01*
X-486637Y819733D02*
X-477606Y819733D01*
X-492746Y803477D02*
X-499971Y803477D01*
X-492746Y803477D02*
X-492746Y819733D01*
X-499971Y819733D01*
X-498165Y812508D02*
X-492746Y812508D01*
X-513176Y819733D02*
X-518595Y803477D01*
X-524013Y819733D01*
X-529710Y816120D02*
X-534226Y819733D01*
X-534226Y803477D01*
X-538741Y803477D02*
X-529710Y803477D01*
X-544716Y803477D02*
X-544716Y804380D01*
X-545619Y804380D01*
X-545619Y803477D01*
X-544716Y803477D01*
X-551594Y811605D02*
X-551598Y811925D01*
X-551609Y812244D01*
X-551628Y812564D01*
X-551655Y812882D01*
X-551689Y813200D01*
X-551731Y813517D01*
X-551781Y813833D01*
X-551838Y814148D01*
X-551902Y814461D01*
X-551974Y814773D01*
X-552053Y815083D01*
X-552140Y815390D01*
X-552234Y815696D01*
X-552335Y815999D01*
X-552444Y816300D01*
X-552559Y816598D01*
X-552682Y816894D01*
X-552812Y817186D01*
X-552949Y817475D01*
X-552988Y817583D01*
X-553031Y817690D01*
X-553077Y817795D01*
X-553128Y817899D01*
X-553181Y818001D01*
X-553238Y818101D01*
X-553299Y818199D01*
X-553363Y818294D01*
X-553430Y818388D01*
X-553501Y818479D01*
X-553574Y818568D01*
X-553651Y818654D01*
X-553730Y818737D01*
X-553812Y818818D01*
X-553897Y818896D01*
X-553985Y818970D01*
X-554075Y819042D01*
X-554167Y819110D01*
X-554262Y819176D01*
X-554359Y819238D01*
X-554458Y819296D01*
X-554560Y819352D01*
X-554662Y819403D01*
X-554767Y819451D01*
X-554873Y819496D01*
X-554981Y819537D01*
X-555090Y819574D01*
X-555200Y819607D01*
X-555312Y819636D01*
X-555424Y819662D01*
X-555537Y819684D01*
X-555651Y819701D01*
X-555765Y819715D01*
X-555880Y819725D01*
X-555995Y819731D01*
X-556110Y819733D01*
X-556225Y819731D01*
X-556340Y819725D01*
X-556455Y819715D01*
X-556569Y819701D01*
X-556683Y819684D01*
X-556796Y819662D01*
X-556908Y819636D01*
X-557020Y819607D01*
X-557130Y819574D01*
X-557239Y819537D01*
X-557347Y819496D01*
X-557453Y819451D01*
X-557558Y819403D01*
X-557660Y819352D01*
X-557761Y819296D01*
X-557861Y819238D01*
X-557958Y819176D01*
X-558052Y819111D01*
X-558145Y819042D01*
X-558235Y818970D01*
X-558323Y818896D01*
X-558408Y818818D01*
X-558490Y818737D01*
X-558569Y818654D01*
X-558646Y818568D01*
X-558719Y818479D01*
X-558790Y818388D01*
X-558857Y818294D01*
X-558921Y818199D01*
X-558982Y818101D01*
X-559039Y818001D01*
X-559092Y817899D01*
X-559143Y817795D01*
X-559189Y817690D01*
X-559232Y817583D01*
X-559271Y817475D01*
X-559270Y817475D02*
X-559407Y817186D01*
X-559537Y816894D01*
X-559660Y816598D01*
X-559775Y816300D01*
X-559884Y815999D01*
X-559985Y815696D01*
X-560079Y815390D01*
X-560166Y815083D01*
X-560245Y814773D01*
X-560317Y814461D01*
X-560381Y814148D01*
X-560438Y813833D01*
X-560488Y813517D01*
X-560530Y813200D01*
X-560564Y812882D01*
X-560591Y812564D01*
X-560610Y812244D01*
X-560621Y811925D01*
X-560625Y811605D01*
X-551594Y811605D02*
X-551598Y811285D01*
X-551609Y810966D01*
X-551628Y810646D01*
X-551655Y810328D01*
X-551689Y810010D01*
X-551731Y809693D01*
X-551781Y809377D01*
X-551838Y809062D01*
X-551902Y808749D01*
X-551974Y808437D01*
X-552053Y808127D01*
X-552140Y807820D01*
X-552234Y807514D01*
X-552335Y807211D01*
X-552444Y806910D01*
X-552559Y806612D01*
X-552682Y806316D01*
X-552812Y806024D01*
X-552949Y805735D01*
X-552949Y805734D02*
X-552988Y805626D01*
X-553031Y805519D01*
X-553077Y805414D01*
X-553128Y805310D01*
X-553181Y805208D01*
X-553238Y805108D01*
X-553299Y805010D01*
X-553363Y804915D01*
X-553430Y804821D01*
X-553501Y804730D01*
X-553574Y804641D01*
X-553651Y804555D01*
X-553730Y804472D01*
X-553812Y804391D01*
X-553897Y804313D01*
X-553985Y804239D01*
X-554075Y804167D01*
X-554168Y804098D01*
X-554262Y804033D01*
X-554359Y803971D01*
X-554459Y803913D01*
X-554560Y803857D01*
X-554662Y803806D01*
X-554767Y803758D01*
X-554873Y803713D01*
X-554981Y803672D01*
X-555090Y803635D01*
X-555200Y803602D01*
X-555312Y803573D01*
X-555424Y803547D01*
X-555537Y803525D01*
X-555651Y803508D01*
X-555765Y803494D01*
X-555880Y803484D01*
X-555995Y803478D01*
X-556110Y803476D01*
X-559270Y805735D02*
X-559407Y806024D01*
X-559537Y806316D01*
X-559660Y806612D01*
X-559775Y806910D01*
X-559884Y807211D01*
X-559985Y807514D01*
X-560079Y807820D01*
X-560166Y808127D01*
X-560245Y808437D01*
X-560317Y808749D01*
X-560381Y809062D01*
X-560438Y809377D01*
X-560488Y809693D01*
X-560530Y810010D01*
X-560564Y810328D01*
X-560591Y810646D01*
X-560610Y810966D01*
X-560621Y811285D01*
X-560625Y811605D01*
X-559271Y805734D02*
X-559232Y805626D01*
X-559189Y805519D01*
X-559143Y805414D01*
X-559092Y805310D01*
X-559039Y805208D01*
X-558982Y805108D01*
X-558921Y805010D01*
X-558857Y804915D01*
X-558790Y804821D01*
X-558719Y804730D01*
X-558646Y804641D01*
X-558569Y804555D01*
X-558490Y804472D01*
X-558408Y804391D01*
X-558323Y804313D01*
X-558235Y804239D01*
X-558145Y804167D01*
X-558052Y804098D01*
X-557958Y804033D01*
X-557861Y803971D01*
X-557761Y803913D01*
X-557660Y803857D01*
X-557557Y803806D01*
X-557453Y803758D01*
X-557347Y803713D01*
X-557239Y803672D01*
X-557130Y803635D01*
X-557020Y803602D01*
X-556908Y803573D01*
X-556796Y803547D01*
X-556683Y803525D01*
X-556569Y803508D01*
X-556455Y803494D01*
X-556340Y803484D01*
X-556225Y803478D01*
X-556110Y803476D01*
X-552497Y807089D02*
X-559722Y816120D01*
X-566600Y804380D02*
X-566600Y803477D01*
X-566600Y804380D02*
X-567503Y804380D01*
X-567503Y803477D01*
X-566600Y803477D01*
X-573478Y816120D02*
X-577993Y819733D01*
X-577993Y803477D01*
X-573478Y803477D02*
X-582509Y803477D01*
D11*
X-339483Y723828D03*
D12*
X-336943Y724675D03*
D13*
X-343293Y724675D03*
D12*
X-349643Y724675D03*
D14*
X-334403Y725521D03*
D15*
X-343725Y725521D03*
D14*
X-352183Y725521D03*
D16*
X-332714Y726368D03*
D17*
X-343712Y726368D03*
D18*
X-354723Y726368D03*
D19*
X-329755Y727215D03*
D20*
X-343293Y727215D03*
D19*
X-356831Y727215D03*
D21*
X-327202Y728061D03*
D22*
X-343293Y728061D03*
D21*
X-359384Y728061D03*
D23*
X-326783Y728908D03*
D24*
X-343293Y728908D03*
D25*
X-360222Y728908D03*
D26*
X-326364Y729755D03*
D27*
X-343712Y729755D03*
D28*
X-360641Y729755D03*
X-325945Y730601D03*
D29*
X-343712Y730601D03*
D30*
X-361073Y730601D03*
D31*
X-325513Y731448D03*
D32*
X-343293Y731448D03*
D31*
X-361073Y731448D03*
D33*
X-325094Y732295D03*
D34*
X-343293Y732295D03*
D33*
X-361492Y732295D03*
D19*
X-324675Y733141D03*
X-343293Y733141D03*
X-361911Y733141D03*
D35*
X-324243Y733988D03*
D36*
X-343712Y733988D03*
D37*
X-362775Y733988D03*
D38*
X-324243Y734835D03*
D28*
X-343725Y734835D03*
D39*
X-363194Y734835D03*
X-323392Y735681D03*
D40*
X-343293Y735681D03*
D39*
X-363194Y735681D03*
D41*
X-322973Y736528D03*
D42*
X-343293Y736528D03*
D41*
X-363613Y736528D03*
D43*
X-322541Y737375D03*
D44*
X-343293Y737375D03*
D43*
X-364045Y737375D03*
D45*
X-322122Y738221D03*
D46*
X-343725Y738221D03*
D43*
X-364883Y738221D03*
D47*
X-322122Y739068D03*
D48*
X-343712Y739068D03*
D47*
X-365302Y739068D03*
D45*
X-321284Y739915D03*
D49*
X-343293Y739915D03*
D45*
X-365302Y739915D03*
D29*
X-320852Y740761D03*
D50*
X-343293Y740761D03*
D29*
X-365734Y740761D03*
D51*
X-320433Y741608D03*
D52*
X-333133Y741608D03*
D32*
X-343293Y741608D03*
D53*
X-353885Y741608D03*
D51*
X-366153Y741608D03*
D27*
X-320014Y742455D03*
D54*
X-332282Y742455D03*
D29*
X-343712Y742455D03*
D14*
X-354723Y742455D03*
D27*
X-366572Y742455D03*
X-320014Y743301D03*
D54*
X-331444Y743301D03*
D29*
X-343712Y743301D03*
D54*
X-355142Y743301D03*
D55*
X-367423Y743301D03*
D56*
X-319582Y744148D03*
D53*
X-331025Y744148D03*
D51*
X-343293Y744148D03*
D52*
X-355993Y744148D03*
D57*
X-367423Y744148D03*
D58*
X-318744Y744995D03*
D14*
X-330161Y744995D03*
D59*
X-343293Y744995D03*
D54*
X-356844Y744995D03*
D58*
X-367842Y744995D03*
D14*
X-318325Y745841D03*
D54*
X-329742Y745841D03*
D27*
X-343712Y745841D03*
D14*
X-357263Y745841D03*
X-368261Y745841D03*
D52*
X-317893Y746688D03*
D60*
X-328904Y746688D03*
D24*
X-343293Y746688D03*
D53*
X-358101Y746688D03*
D52*
X-368693Y746688D03*
D22*
X-317893Y747535D03*
X-328053Y747535D03*
D61*
X-343293Y747535D03*
D22*
X-358533Y747535D03*
D62*
X-369112Y747535D03*
X-317474Y748381D03*
D14*
X-327621Y748381D03*
D61*
X-343293Y748381D03*
D54*
X-359384Y748381D03*
X-369544Y748381D03*
D63*
X-316623Y749228D03*
D53*
X-326783Y749228D03*
D16*
X-343712Y749228D03*
D53*
X-359803Y749228D03*
D63*
X-369963Y749228D03*
D20*
X-316191Y750075D03*
D54*
X-326364Y750075D03*
D19*
X-343293Y750075D03*
D14*
X-360641Y750075D03*
D20*
X-370395Y750075D03*
D64*
X-315772Y750921D03*
D22*
X-325513Y750921D03*
D61*
X-338213Y750921D03*
X-348373Y750921D03*
D14*
X-361505Y750921D03*
D64*
X-370814Y750921D03*
D17*
X-315772Y751768D03*
D53*
X-325081Y751768D03*
D57*
X-336943Y751768D03*
X-349643Y751768D03*
D60*
X-361924Y751768D03*
D65*
X-371233Y751768D03*
D66*
X-315353Y752615D03*
D14*
X-324243Y752615D03*
D29*
X-336092Y752615D03*
D59*
X-350913Y752615D03*
D54*
X-362762Y752615D03*
D64*
X-371652Y752615D03*
D15*
X-314921Y753461D03*
D14*
X-323405Y753461D03*
D45*
X-334822Y753461D03*
D67*
X-352183Y753461D03*
D14*
X-363181Y753461D03*
D68*
X-372084Y753461D03*
D69*
X-314083Y754308D03*
D52*
X-322973Y754308D03*
D70*
X-333565Y754308D03*
X-353021Y754308D03*
D53*
X-364045Y754308D03*
D69*
X-372503Y754308D03*
D71*
X-313664Y755155D03*
D72*
X-328891Y755155D03*
X-357695Y755155D03*
D71*
X-372922Y755155D03*
X-313664Y756001D03*
D72*
X-328053Y756001D03*
X-358533Y756001D03*
D73*
X-373354Y756001D03*
D74*
X-313232Y756848D03*
D75*
X-327634Y756848D03*
D42*
X-359371Y756848D03*
D74*
X-373354Y756848D03*
D76*
X-326783Y757695D03*
D72*
X-360235Y757695D03*
X-326351Y758541D03*
D77*
X-360654Y758541D03*
D42*
X-325513Y759388D03*
D78*
X-343712Y759388D03*
D42*
X-361073Y759388D03*
D79*
X-324243Y760235D03*
D14*
X-343725Y760235D03*
D21*
X-362762Y760235D03*
D19*
X-321271Y761081D03*
D61*
X-343293Y761081D03*
D19*
X-365315Y761081D03*
D18*
X-319163Y761928D03*
D51*
X-343293Y761928D03*
D47*
X-367842Y761928D03*
D54*
X-316204Y762775D03*
D80*
X-343293Y762775D03*
D14*
X-370801Y762775D03*
X-315785Y763621D03*
D34*
X-343293Y763621D03*
D14*
X-370801Y763621D03*
D24*
X-315353Y764468D03*
D36*
X-343712Y764468D03*
D53*
X-371665Y764468D03*
D61*
X-315353Y765315D03*
D15*
X-329323Y765315D03*
D28*
X-343725Y765315D03*
D15*
X-357263Y765315D03*
D14*
X-371665Y765315D03*
X-314921Y766161D03*
X-326783Y766161D03*
D28*
X-343725Y766161D03*
D14*
X-359803Y766161D03*
X-371665Y766161D03*
D81*
X-320852Y767008D03*
D82*
X-343293Y767008D03*
D42*
X-366153Y767008D03*
D83*
X-320852Y767855D03*
D40*
X-343293Y767855D03*
D83*
X-366572Y767855D03*
D72*
X-320433Y768701D03*
D27*
X-338632Y768701D03*
D61*
X-348373Y768701D03*
D83*
X-366572Y768701D03*
D84*
X-318744Y769548D03*
D24*
X-338213Y769548D03*
X-348373Y769548D03*
D36*
X-368274Y769548D03*
D45*
X-316204Y770395D03*
D61*
X-338213Y770395D03*
D58*
X-349224Y770395D03*
D29*
X-370814Y770395D03*
D14*
X-314083Y771241D03*
X-337781Y771241D03*
D58*
X-349224Y771241D03*
D14*
X-372503Y771241D03*
D53*
X-314083Y772088D03*
D56*
X-337362Y772088D03*
D53*
X-349643Y772088D03*
D56*
X-372922Y772088D03*
D58*
X-313664Y772935D03*
D14*
X-336943Y772935D03*
X-349643Y772935D03*
D58*
X-372922Y772935D03*
X-313664Y773781D03*
D12*
X-326783Y773781D03*
D14*
X-336943Y773781D03*
X-349643Y773781D03*
D20*
X-360235Y773781D03*
D14*
X-373341Y773781D03*
D56*
X-313664Y774628D03*
D57*
X-324243Y774628D03*
D60*
X-336524Y774628D03*
D53*
X-350481Y774628D03*
D51*
X-362775Y774628D03*
D53*
X-373341Y774628D03*
D79*
X-319163Y775475D03*
D77*
X-343712Y775475D03*
D79*
X-367423Y775475D03*
X-319163Y776321D03*
D44*
X-343293Y776321D03*
D83*
X-368274Y776321D03*
D42*
X-318731Y777168D03*
D85*
X-343293Y777168D03*
D81*
X-368274Y777168D03*
D83*
X-318312Y778015D03*
D44*
X-343293Y778015D03*
D83*
X-368274Y778015D03*
X-318312Y778861D03*
D44*
X-343293Y778861D03*
D83*
X-368274Y778861D03*
D81*
X-318312Y779708D03*
D86*
X-343725Y779708D03*
D81*
X-368274Y779708D03*
D83*
X-318312Y780555D03*
D46*
X-343725Y780555D03*
D83*
X-369112Y780555D03*
X-318312Y781401D03*
D87*
X-343293Y781401D03*
D83*
X-369112Y781401D03*
D81*
X-317474Y782248D03*
D88*
X-343293Y782248D03*
D81*
X-369112Y782248D03*
D33*
X-315772Y783095D03*
D87*
X-343293Y783095D03*
D33*
X-370814Y783095D03*
D43*
X-314083Y783941D03*
D89*
X-343712Y783941D03*
D45*
X-372922Y783941D03*
D51*
X-312813Y784788D03*
D48*
X-343712Y784788D03*
D51*
X-374611Y784788D03*
D27*
X-312394Y785635D03*
D14*
X-335241Y785635D03*
X-352183Y785635D03*
D55*
X-375043Y785635D03*
X-311543Y786481D03*
D14*
X-334403Y786481D03*
D54*
X-352602Y786481D03*
D58*
X-375462Y786481D03*
D56*
X-311124Y787328D03*
D60*
X-333984Y787328D03*
D78*
X-353034Y787328D03*
D53*
X-375881Y787328D03*
D14*
X-310705Y788175D03*
D20*
X-333133Y788175D03*
X-353453Y788175D03*
D22*
X-376313Y788175D03*
X-310273Y789021D03*
D64*
X-332714Y789021D03*
D20*
X-354291Y789021D03*
D62*
X-376732Y789021D03*
D78*
X-309854Y789868D03*
D90*
X-332282Y789868D03*
D91*
X-354723Y789868D03*
D63*
X-377583Y789868D03*
D92*
X-309003Y790715D03*
D68*
X-331444Y790715D03*
X-355142Y790715D03*
D20*
X-378015Y790715D03*
X-308571Y791561D03*
D15*
X-331025Y791561D03*
X-355561Y791561D03*
D64*
X-378434Y791561D03*
D17*
X-308152Y792408D03*
D93*
X-330593Y792408D03*
D74*
X-356412Y792408D03*
D65*
X-378853Y792408D03*
D15*
X-307301Y793255D03*
D73*
X-330174Y793255D03*
D94*
X-357263Y793255D03*
D15*
X-379285Y793255D03*
D71*
X-306882Y794101D03*
D15*
X-380123Y794101D03*
D11*
X-306463Y794948D03*
D95*
X-380542Y794948D03*
D73*
X-305612Y795795D03*
X-380974Y795795D03*
D96*
X-350492Y463939D03*
D97*
X-317178Y636062D02*
X-307653Y636062D01*
X-319400Y643016D02*
X-324226Y643016D01*
X-324226Y645161D01*
X-324226Y647771D02*
X-324226Y649916D01*
X-324226Y647771D02*
X-319400Y647771D01*
X-319400Y649916D01*
X-321545Y649380D02*
X-321545Y647771D01*
X-319400Y652507D02*
X-324226Y652507D01*
X-319400Y652507D02*
X-319400Y653847D01*
X-319402Y653917D01*
X-319407Y653987D01*
X-319417Y654057D01*
X-319429Y654126D01*
X-319446Y654194D01*
X-319466Y654261D01*
X-319489Y654328D01*
X-319516Y654392D01*
X-319546Y654456D01*
X-319580Y654518D01*
X-319616Y654577D01*
X-319656Y654635D01*
X-319699Y654691D01*
X-319744Y654744D01*
X-319793Y654795D01*
X-319844Y654844D01*
X-319897Y654889D01*
X-319953Y654932D01*
X-320011Y654972D01*
X-320071Y655008D01*
X-320132Y655042D01*
X-320196Y655072D01*
X-320260Y655099D01*
X-320327Y655122D01*
X-320394Y655142D01*
X-320462Y655159D01*
X-320531Y655171D01*
X-320601Y655181D01*
X-320671Y655186D01*
X-320741Y655188D01*
X-322886Y655188D01*
X-322956Y655186D01*
X-323026Y655181D01*
X-323096Y655171D01*
X-323165Y655159D01*
X-323233Y655142D01*
X-323300Y655122D01*
X-323367Y655099D01*
X-323431Y655072D01*
X-323495Y655042D01*
X-323557Y655008D01*
X-323616Y654972D01*
X-323674Y654932D01*
X-323730Y654889D01*
X-323783Y654844D01*
X-323834Y654795D01*
X-323883Y654744D01*
X-323928Y654691D01*
X-323971Y654635D01*
X-324011Y654577D01*
X-324047Y654517D01*
X-324081Y654456D01*
X-324111Y654392D01*
X-324138Y654328D01*
X-324161Y654261D01*
X-324181Y654194D01*
X-324198Y654126D01*
X-324210Y654057D01*
X-324220Y653987D01*
X-324225Y653917D01*
X-324227Y653847D01*
X-324226Y653847D02*
X-324226Y652507D01*
X-320473Y658176D02*
X-319400Y659516D01*
X-324226Y659516D01*
X-324226Y658176D02*
X-324226Y660857D01*
X-329143Y478045D02*
X-329143Y468520D01*
X-304348Y480268D02*
X-304348Y485094D01*
X-304348Y480268D02*
X-306493Y480268D01*
X-309103Y480268D02*
X-311248Y480268D01*
X-309103Y480268D02*
X-309103Y485094D01*
X-311248Y485094D01*
X-310712Y482949D02*
X-309103Y482949D01*
X-313838Y485094D02*
X-313838Y480268D01*
X-313838Y485094D02*
X-315179Y485094D01*
X-315249Y485092D01*
X-315319Y485087D01*
X-315389Y485077D01*
X-315458Y485065D01*
X-315526Y485048D01*
X-315593Y485028D01*
X-315660Y485005D01*
X-315724Y484978D01*
X-315788Y484948D01*
X-315850Y484914D01*
X-315909Y484878D01*
X-315967Y484838D01*
X-316023Y484795D01*
X-316076Y484750D01*
X-316127Y484701D01*
X-316176Y484650D01*
X-316221Y484597D01*
X-316264Y484541D01*
X-316304Y484483D01*
X-316340Y484424D01*
X-316374Y484362D01*
X-316404Y484298D01*
X-316431Y484234D01*
X-316454Y484167D01*
X-316474Y484100D01*
X-316491Y484032D01*
X-316503Y483963D01*
X-316513Y483893D01*
X-316518Y483823D01*
X-316520Y483753D01*
X-316519Y483753D02*
X-316519Y481608D01*
X-316520Y481608D02*
X-316518Y481538D01*
X-316513Y481468D01*
X-316503Y481398D01*
X-316491Y481329D01*
X-316474Y481261D01*
X-316454Y481194D01*
X-316431Y481127D01*
X-316404Y481063D01*
X-316374Y480999D01*
X-316340Y480937D01*
X-316304Y480878D01*
X-316264Y480820D01*
X-316221Y480764D01*
X-316176Y480711D01*
X-316127Y480660D01*
X-316076Y480611D01*
X-316023Y480566D01*
X-315967Y480523D01*
X-315909Y480483D01*
X-315849Y480447D01*
X-315788Y480413D01*
X-315724Y480383D01*
X-315660Y480356D01*
X-315593Y480333D01*
X-315526Y480313D01*
X-315458Y480296D01*
X-315389Y480284D01*
X-315319Y480274D01*
X-315249Y480269D01*
X-315179Y480267D01*
X-315179Y480268D02*
X-313838Y480268D01*
X-320982Y485094D02*
X-321050Y485092D01*
X-321117Y485086D01*
X-321184Y485077D01*
X-321251Y485064D01*
X-321316Y485047D01*
X-321381Y485026D01*
X-321444Y485002D01*
X-321506Y484974D01*
X-321566Y484943D01*
X-321624Y484909D01*
X-321680Y484871D01*
X-321735Y484831D01*
X-321786Y484787D01*
X-321835Y484740D01*
X-321882Y484691D01*
X-321926Y484640D01*
X-321966Y484585D01*
X-322004Y484529D01*
X-322038Y484471D01*
X-322069Y484411D01*
X-322097Y484349D01*
X-322121Y484286D01*
X-322142Y484221D01*
X-322159Y484156D01*
X-322172Y484089D01*
X-322181Y484022D01*
X-322187Y483955D01*
X-322189Y483887D01*
X-320982Y485093D02*
X-320904Y485091D01*
X-320826Y485085D01*
X-320749Y485075D01*
X-320672Y485062D01*
X-320596Y485044D01*
X-320521Y485023D01*
X-320447Y484998D01*
X-320375Y484969D01*
X-320304Y484937D01*
X-320235Y484901D01*
X-320167Y484862D01*
X-320102Y484819D01*
X-320039Y484773D01*
X-319978Y484724D01*
X-319920Y484672D01*
X-319865Y484617D01*
X-319812Y484560D01*
X-319763Y484500D01*
X-319716Y484437D01*
X-319673Y484373D01*
X-319633Y484306D01*
X-319596Y484237D01*
X-319563Y484166D01*
X-319533Y484094D01*
X-319507Y484021D01*
X-321787Y482949D02*
X-321836Y482998D01*
X-321883Y483050D01*
X-321926Y483105D01*
X-321967Y483162D01*
X-322005Y483221D01*
X-322039Y483282D01*
X-322070Y483345D01*
X-322098Y483409D01*
X-322122Y483475D01*
X-322142Y483541D01*
X-322159Y483609D01*
X-322172Y483678D01*
X-322181Y483747D01*
X-322187Y483817D01*
X-322189Y483887D01*
X-321786Y482949D02*
X-319508Y480268D01*
X-322189Y480268D01*
X-390950Y249718D02*
X-390950Y244892D01*
X-390950Y247573D02*
X-393631Y247573D01*
X-393631Y249718D02*
X-393631Y244892D01*
X-396822Y244892D02*
X-398966Y244892D01*
X-396822Y244892D02*
X-396822Y249718D01*
X-398966Y249718D01*
X-398430Y247573D02*
X-396822Y247573D01*
X-401106Y244892D02*
X-402715Y249718D01*
X-404323Y244892D01*
X-403921Y246098D02*
X-401508Y246098D01*
X-407043Y244892D02*
X-407043Y249718D01*
X-408384Y249718D01*
X-408454Y249716D01*
X-408524Y249711D01*
X-408594Y249701D01*
X-408663Y249689D01*
X-408731Y249672D01*
X-408798Y249652D01*
X-408865Y249629D01*
X-408929Y249602D01*
X-408993Y249572D01*
X-409055Y249538D01*
X-409114Y249502D01*
X-409172Y249462D01*
X-409228Y249419D01*
X-409281Y249374D01*
X-409332Y249325D01*
X-409381Y249274D01*
X-409426Y249221D01*
X-409469Y249165D01*
X-409509Y249107D01*
X-409545Y249048D01*
X-409579Y248986D01*
X-409609Y248922D01*
X-409636Y248858D01*
X-409659Y248791D01*
X-409679Y248724D01*
X-409696Y248656D01*
X-409708Y248587D01*
X-409718Y248517D01*
X-409723Y248447D01*
X-409725Y248377D01*
X-409724Y248377D02*
X-409724Y246232D01*
X-409725Y246232D02*
X-409723Y246162D01*
X-409718Y246092D01*
X-409708Y246022D01*
X-409696Y245953D01*
X-409679Y245885D01*
X-409659Y245818D01*
X-409636Y245751D01*
X-409609Y245687D01*
X-409579Y245623D01*
X-409545Y245561D01*
X-409509Y245502D01*
X-409469Y245444D01*
X-409426Y245388D01*
X-409381Y245335D01*
X-409332Y245284D01*
X-409281Y245235D01*
X-409228Y245190D01*
X-409172Y245147D01*
X-409114Y245107D01*
X-409054Y245071D01*
X-408993Y245037D01*
X-408929Y245007D01*
X-408865Y244980D01*
X-408798Y244957D01*
X-408731Y244937D01*
X-408663Y244920D01*
X-408594Y244908D01*
X-408524Y244898D01*
X-408454Y244893D01*
X-408384Y244891D01*
X-408384Y244892D02*
X-407043Y244892D01*
X-412915Y244892D02*
X-415060Y244892D01*
X-412915Y244892D02*
X-412915Y249718D01*
X-415060Y249718D01*
X-414524Y247573D02*
X-412915Y247573D01*
X-417714Y249718D02*
X-417714Y244892D01*
X-417714Y249718D02*
X-419054Y249718D01*
X-419125Y249716D01*
X-419197Y249710D01*
X-419267Y249701D01*
X-419337Y249688D01*
X-419407Y249671D01*
X-419475Y249650D01*
X-419542Y249626D01*
X-419608Y249598D01*
X-419672Y249567D01*
X-419735Y249532D01*
X-419795Y249494D01*
X-419854Y249453D01*
X-419910Y249409D01*
X-419964Y249362D01*
X-420015Y249313D01*
X-420063Y249260D01*
X-420109Y249205D01*
X-420151Y249148D01*
X-420191Y249088D01*
X-420227Y249027D01*
X-420260Y248963D01*
X-420289Y248898D01*
X-420315Y248832D01*
X-420338Y248764D01*
X-420357Y248695D01*
X-420372Y248625D01*
X-420383Y248555D01*
X-420391Y248484D01*
X-420395Y248413D01*
X-420395Y248341D01*
X-420391Y248270D01*
X-420383Y248199D01*
X-420372Y248129D01*
X-420357Y248059D01*
X-420338Y247990D01*
X-420315Y247922D01*
X-420289Y247856D01*
X-420260Y247791D01*
X-420227Y247727D01*
X-420191Y247666D01*
X-420151Y247606D01*
X-420109Y247549D01*
X-420063Y247494D01*
X-420015Y247441D01*
X-419964Y247392D01*
X-419910Y247345D01*
X-419854Y247301D01*
X-419795Y247260D01*
X-419735Y247222D01*
X-419672Y247187D01*
X-419608Y247156D01*
X-419542Y247128D01*
X-419475Y247104D01*
X-419407Y247083D01*
X-419337Y247066D01*
X-419267Y247053D01*
X-419197Y247044D01*
X-419125Y247038D01*
X-419054Y247036D01*
X-419054Y247037D02*
X-417714Y247037D01*
X-419323Y247037D02*
X-420395Y244892D01*
D98*
X-398050Y539000D02*
X-400800Y541750D01*
X-462800Y541750D01*
X-465550Y539000D01*
X-465550Y477000D01*
X-462800Y474250D01*
X-400800Y474250D01*
X-398050Y477000D01*
X-398050Y539000D01*
X-417800Y488000D02*
X-417798Y488154D01*
X-417792Y488309D01*
X-417782Y488463D01*
X-417768Y488617D01*
X-417750Y488770D01*
X-417729Y488923D01*
X-417703Y489076D01*
X-417673Y489227D01*
X-417640Y489378D01*
X-417602Y489528D01*
X-417561Y489677D01*
X-417516Y489825D01*
X-417467Y489971D01*
X-417414Y490117D01*
X-417358Y490260D01*
X-417298Y490403D01*
X-417234Y490543D01*
X-417167Y490683D01*
X-417096Y490820D01*
X-417022Y490955D01*
X-416944Y491089D01*
X-416863Y491220D01*
X-416778Y491349D01*
X-416690Y491477D01*
X-416599Y491601D01*
X-416505Y491724D01*
X-416407Y491844D01*
X-416307Y491961D01*
X-416203Y492076D01*
X-416097Y492188D01*
X-415988Y492297D01*
X-415876Y492403D01*
X-415761Y492507D01*
X-415644Y492607D01*
X-415524Y492705D01*
X-415401Y492799D01*
X-415277Y492890D01*
X-415149Y492978D01*
X-415020Y493063D01*
X-414889Y493144D01*
X-414755Y493222D01*
X-414620Y493296D01*
X-414483Y493367D01*
X-414343Y493434D01*
X-414203Y493498D01*
X-414060Y493558D01*
X-413917Y493614D01*
X-413771Y493667D01*
X-413625Y493716D01*
X-413477Y493761D01*
X-413328Y493802D01*
X-413178Y493840D01*
X-413027Y493873D01*
X-412876Y493903D01*
X-412723Y493929D01*
X-412570Y493950D01*
X-412417Y493968D01*
X-412263Y493982D01*
X-412109Y493992D01*
X-411954Y493998D01*
X-411800Y494000D01*
X-411646Y493998D01*
X-411491Y493992D01*
X-411337Y493982D01*
X-411183Y493968D01*
X-411030Y493950D01*
X-410877Y493929D01*
X-410724Y493903D01*
X-410573Y493873D01*
X-410422Y493840D01*
X-410272Y493802D01*
X-410123Y493761D01*
X-409975Y493716D01*
X-409829Y493667D01*
X-409683Y493614D01*
X-409540Y493558D01*
X-409397Y493498D01*
X-409257Y493434D01*
X-409117Y493367D01*
X-408980Y493296D01*
X-408845Y493222D01*
X-408711Y493144D01*
X-408580Y493063D01*
X-408451Y492978D01*
X-408323Y492890D01*
X-408199Y492799D01*
X-408076Y492705D01*
X-407956Y492607D01*
X-407839Y492507D01*
X-407724Y492403D01*
X-407612Y492297D01*
X-407503Y492188D01*
X-407397Y492076D01*
X-407293Y491961D01*
X-407193Y491844D01*
X-407095Y491724D01*
X-407001Y491601D01*
X-406910Y491477D01*
X-406822Y491349D01*
X-406737Y491220D01*
X-406656Y491089D01*
X-406578Y490955D01*
X-406504Y490820D01*
X-406433Y490683D01*
X-406366Y490543D01*
X-406302Y490403D01*
X-406242Y490260D01*
X-406186Y490117D01*
X-406133Y489971D01*
X-406084Y489825D01*
X-406039Y489677D01*
X-405998Y489528D01*
X-405960Y489378D01*
X-405927Y489227D01*
X-405897Y489076D01*
X-405871Y488923D01*
X-405850Y488770D01*
X-405832Y488617D01*
X-405818Y488463D01*
X-405808Y488309D01*
X-405802Y488154D01*
X-405800Y488000D01*
X-405802Y487846D01*
X-405808Y487691D01*
X-405818Y487537D01*
X-405832Y487383D01*
X-405850Y487230D01*
X-405871Y487077D01*
X-405897Y486924D01*
X-405927Y486773D01*
X-405960Y486622D01*
X-405998Y486472D01*
X-406039Y486323D01*
X-406084Y486175D01*
X-406133Y486029D01*
X-406186Y485883D01*
X-406242Y485740D01*
X-406302Y485597D01*
X-406366Y485457D01*
X-406433Y485317D01*
X-406504Y485180D01*
X-406578Y485045D01*
X-406656Y484911D01*
X-406737Y484780D01*
X-406822Y484651D01*
X-406910Y484523D01*
X-407001Y484399D01*
X-407095Y484276D01*
X-407193Y484156D01*
X-407293Y484039D01*
X-407397Y483924D01*
X-407503Y483812D01*
X-407612Y483703D01*
X-407724Y483597D01*
X-407839Y483493D01*
X-407956Y483393D01*
X-408076Y483295D01*
X-408199Y483201D01*
X-408323Y483110D01*
X-408451Y483022D01*
X-408580Y482937D01*
X-408711Y482856D01*
X-408845Y482778D01*
X-408980Y482704D01*
X-409117Y482633D01*
X-409257Y482566D01*
X-409397Y482502D01*
X-409540Y482442D01*
X-409683Y482386D01*
X-409829Y482333D01*
X-409975Y482284D01*
X-410123Y482239D01*
X-410272Y482198D01*
X-410422Y482160D01*
X-410573Y482127D01*
X-410724Y482097D01*
X-410877Y482071D01*
X-411030Y482050D01*
X-411183Y482032D01*
X-411337Y482018D01*
X-411491Y482008D01*
X-411646Y482002D01*
X-411800Y482000D01*
X-411954Y482002D01*
X-412109Y482008D01*
X-412263Y482018D01*
X-412417Y482032D01*
X-412570Y482050D01*
X-412723Y482071D01*
X-412876Y482097D01*
X-413027Y482127D01*
X-413178Y482160D01*
X-413328Y482198D01*
X-413477Y482239D01*
X-413625Y482284D01*
X-413771Y482333D01*
X-413917Y482386D01*
X-414060Y482442D01*
X-414203Y482502D01*
X-414343Y482566D01*
X-414483Y482633D01*
X-414620Y482704D01*
X-414755Y482778D01*
X-414889Y482856D01*
X-415020Y482937D01*
X-415149Y483022D01*
X-415277Y483110D01*
X-415401Y483201D01*
X-415524Y483295D01*
X-415644Y483393D01*
X-415761Y483493D01*
X-415876Y483597D01*
X-415988Y483703D01*
X-416097Y483812D01*
X-416203Y483924D01*
X-416307Y484039D01*
X-416407Y484156D01*
X-416505Y484276D01*
X-416599Y484399D01*
X-416690Y484523D01*
X-416778Y484651D01*
X-416863Y484780D01*
X-416944Y484911D01*
X-417022Y485045D01*
X-417096Y485180D01*
X-417167Y485317D01*
X-417234Y485457D01*
X-417298Y485597D01*
X-417358Y485740D01*
X-417414Y485883D01*
X-417467Y486029D01*
X-417516Y486175D01*
X-417561Y486323D01*
X-417602Y486472D01*
X-417640Y486622D01*
X-417673Y486773D01*
X-417703Y486924D01*
X-417729Y487077D01*
X-417750Y487230D01*
X-417768Y487383D01*
X-417782Y487537D01*
X-417792Y487691D01*
X-417798Y487846D01*
X-417800Y488000D01*
D99*
X-408206Y521208D02*
X-408206Y532892D01*
X-406908Y521208D02*
X-409504Y521208D01*
X-409504Y532892D02*
X-406908Y532892D01*
X-416668Y521208D02*
X-419264Y521208D01*
X-416668Y521208D02*
X-416569Y521210D01*
X-416469Y521216D01*
X-416370Y521225D01*
X-416272Y521238D01*
X-416174Y521255D01*
X-416076Y521276D01*
X-415980Y521301D01*
X-415885Y521329D01*
X-415791Y521361D01*
X-415698Y521396D01*
X-415606Y521435D01*
X-415516Y521478D01*
X-415428Y521523D01*
X-415341Y521573D01*
X-415257Y521625D01*
X-415174Y521681D01*
X-415094Y521739D01*
X-415016Y521801D01*
X-414941Y521866D01*
X-414868Y521934D01*
X-414798Y522004D01*
X-414730Y522077D01*
X-414665Y522152D01*
X-414603Y522230D01*
X-414545Y522310D01*
X-414489Y522393D01*
X-414437Y522477D01*
X-414387Y522564D01*
X-414342Y522652D01*
X-414299Y522742D01*
X-414260Y522834D01*
X-414225Y522927D01*
X-414193Y523021D01*
X-414165Y523116D01*
X-414140Y523212D01*
X-414119Y523310D01*
X-414102Y523408D01*
X-414089Y523506D01*
X-414080Y523605D01*
X-414074Y523705D01*
X-414072Y523804D01*
X-414071Y523804D02*
X-414071Y530296D01*
X-414072Y530296D02*
X-414074Y530395D01*
X-414080Y530495D01*
X-414089Y530594D01*
X-414102Y530692D01*
X-414119Y530790D01*
X-414140Y530888D01*
X-414165Y530984D01*
X-414193Y531079D01*
X-414225Y531173D01*
X-414260Y531266D01*
X-414299Y531358D01*
X-414342Y531448D01*
X-414387Y531536D01*
X-414437Y531623D01*
X-414489Y531707D01*
X-414545Y531790D01*
X-414603Y531870D01*
X-414665Y531948D01*
X-414730Y532023D01*
X-414798Y532096D01*
X-414868Y532166D01*
X-414941Y532234D01*
X-415016Y532299D01*
X-415094Y532361D01*
X-415174Y532419D01*
X-415257Y532475D01*
X-415341Y532527D01*
X-415428Y532577D01*
X-415516Y532622D01*
X-415606Y532665D01*
X-415698Y532704D01*
X-415790Y532739D01*
X-415885Y532771D01*
X-415980Y532799D01*
X-416076Y532824D01*
X-416174Y532845D01*
X-416272Y532862D01*
X-416370Y532875D01*
X-416469Y532884D01*
X-416569Y532890D01*
X-416668Y532892D01*
X-419264Y532892D01*
X-423630Y530296D02*
X-426875Y532892D01*
X-426875Y521208D01*
X-423630Y521208D02*
X-430121Y521208D01*
D100*
X-325830Y174974D02*
X-325830Y158974D01*
X-325830Y174974D02*
X-337830Y174974D01*
X-381830Y174974D02*
X-393830Y174974D01*
X-393830Y158974D01*
X-393830Y131974D02*
X-325830Y131974D01*
X-337830Y160974D02*
X-337830Y174974D01*
X-337830Y160974D02*
X-381830Y160974D01*
X-381830Y174974D01*
D97*
X-411265Y125715D02*
X-416091Y125715D01*
X-413947Y127324D02*
X-411265Y125715D01*
X-413947Y127324D02*
X-411265Y128933D01*
X-416091Y128933D01*
X-416091Y132262D02*
X-411265Y132262D01*
X-416091Y131726D02*
X-416091Y132798D01*
X-411265Y132798D02*
X-411265Y131726D01*
X-416091Y136354D02*
X-416091Y137426D01*
X-416091Y136354D02*
X-416089Y136289D01*
X-416083Y136225D01*
X-416073Y136161D01*
X-416060Y136097D01*
X-416042Y136035D01*
X-416021Y135974D01*
X-415997Y135914D01*
X-415968Y135856D01*
X-415936Y135799D01*
X-415901Y135745D01*
X-415863Y135693D01*
X-415821Y135643D01*
X-415777Y135596D01*
X-415730Y135552D01*
X-415680Y135510D01*
X-415628Y135472D01*
X-415574Y135437D01*
X-415517Y135405D01*
X-415459Y135376D01*
X-415399Y135352D01*
X-415338Y135331D01*
X-415276Y135313D01*
X-415212Y135300D01*
X-415148Y135290D01*
X-415084Y135284D01*
X-415019Y135282D01*
X-412338Y135282D01*
X-412338Y135281D02*
X-412273Y135283D01*
X-412209Y135289D01*
X-412145Y135299D01*
X-412081Y135312D01*
X-412019Y135330D01*
X-411958Y135351D01*
X-411898Y135376D01*
X-411839Y135404D01*
X-411783Y135436D01*
X-411728Y135471D01*
X-411676Y135509D01*
X-411626Y135551D01*
X-411579Y135595D01*
X-411535Y135642D01*
X-411493Y135692D01*
X-411455Y135744D01*
X-411420Y135799D01*
X-411388Y135855D01*
X-411360Y135914D01*
X-411335Y135973D01*
X-411314Y136035D01*
X-411296Y136097D01*
X-411283Y136161D01*
X-411273Y136225D01*
X-411267Y136289D01*
X-411265Y136354D01*
X-411265Y137426D01*
X-411265Y140129D02*
X-416091Y140129D01*
X-411265Y140129D02*
X-411265Y141469D01*
X-411267Y141540D01*
X-411273Y141612D01*
X-411282Y141682D01*
X-411295Y141752D01*
X-411312Y141822D01*
X-411333Y141890D01*
X-411357Y141957D01*
X-411385Y142023D01*
X-411416Y142087D01*
X-411451Y142150D01*
X-411489Y142210D01*
X-411530Y142269D01*
X-411574Y142325D01*
X-411621Y142379D01*
X-411670Y142430D01*
X-411723Y142478D01*
X-411778Y142524D01*
X-411835Y142566D01*
X-411895Y142606D01*
X-411956Y142642D01*
X-412020Y142675D01*
X-412085Y142704D01*
X-412151Y142730D01*
X-412219Y142753D01*
X-412288Y142772D01*
X-412358Y142787D01*
X-412428Y142798D01*
X-412499Y142806D01*
X-412570Y142810D01*
X-412642Y142810D01*
X-412713Y142806D01*
X-412784Y142798D01*
X-412854Y142787D01*
X-412924Y142772D01*
X-412993Y142753D01*
X-413061Y142730D01*
X-413127Y142704D01*
X-413192Y142675D01*
X-413256Y142642D01*
X-413317Y142606D01*
X-413377Y142566D01*
X-413434Y142524D01*
X-413489Y142478D01*
X-413542Y142430D01*
X-413591Y142379D01*
X-413638Y142325D01*
X-413682Y142269D01*
X-413723Y142210D01*
X-413761Y142150D01*
X-413796Y142087D01*
X-413827Y142023D01*
X-413855Y141957D01*
X-413879Y141890D01*
X-413900Y141822D01*
X-413917Y141752D01*
X-413930Y141682D01*
X-413939Y141612D01*
X-413945Y141540D01*
X-413947Y141469D01*
X-413947Y140129D01*
X-413947Y141737D02*
X-416091Y142810D01*
X-414751Y145551D02*
X-412606Y145551D01*
X-412535Y145553D01*
X-412463Y145559D01*
X-412393Y145568D01*
X-412323Y145581D01*
X-412253Y145598D01*
X-412185Y145619D01*
X-412118Y145643D01*
X-412052Y145671D01*
X-411988Y145702D01*
X-411925Y145737D01*
X-411865Y145775D01*
X-411806Y145816D01*
X-411750Y145860D01*
X-411696Y145907D01*
X-411645Y145956D01*
X-411597Y146009D01*
X-411551Y146064D01*
X-411509Y146121D01*
X-411469Y146181D01*
X-411433Y146242D01*
X-411400Y146306D01*
X-411371Y146371D01*
X-411345Y146437D01*
X-411322Y146505D01*
X-411303Y146574D01*
X-411288Y146644D01*
X-411277Y146714D01*
X-411269Y146785D01*
X-411265Y146856D01*
X-411265Y146928D01*
X-411269Y146999D01*
X-411277Y147070D01*
X-411288Y147140D01*
X-411303Y147210D01*
X-411322Y147279D01*
X-411345Y147347D01*
X-411371Y147413D01*
X-411400Y147478D01*
X-411433Y147542D01*
X-411469Y147603D01*
X-411509Y147663D01*
X-411551Y147720D01*
X-411597Y147775D01*
X-411645Y147828D01*
X-411696Y147877D01*
X-411750Y147924D01*
X-411806Y147968D01*
X-411865Y148009D01*
X-411925Y148047D01*
X-411988Y148082D01*
X-412052Y148113D01*
X-412118Y148141D01*
X-412185Y148165D01*
X-412253Y148186D01*
X-412323Y148203D01*
X-412393Y148216D01*
X-412463Y148225D01*
X-412535Y148231D01*
X-412606Y148233D01*
X-414751Y148233D01*
X-414822Y148231D01*
X-414894Y148225D01*
X-414964Y148216D01*
X-415034Y148203D01*
X-415104Y148186D01*
X-415172Y148165D01*
X-415239Y148141D01*
X-415305Y148113D01*
X-415369Y148082D01*
X-415432Y148047D01*
X-415492Y148009D01*
X-415551Y147968D01*
X-415607Y147924D01*
X-415661Y147877D01*
X-415712Y147828D01*
X-415760Y147775D01*
X-415806Y147720D01*
X-415848Y147663D01*
X-415888Y147603D01*
X-415924Y147542D01*
X-415957Y147478D01*
X-415986Y147413D01*
X-416012Y147347D01*
X-416035Y147279D01*
X-416054Y147210D01*
X-416069Y147140D01*
X-416080Y147070D01*
X-416088Y146999D01*
X-416092Y146928D01*
X-416092Y146856D01*
X-416088Y146785D01*
X-416080Y146714D01*
X-416069Y146644D01*
X-416054Y146574D01*
X-416035Y146505D01*
X-416012Y146437D01*
X-415986Y146371D01*
X-415957Y146306D01*
X-415924Y146242D01*
X-415888Y146181D01*
X-415848Y146121D01*
X-415806Y146064D01*
X-415760Y146009D01*
X-415712Y145956D01*
X-415661Y145907D01*
X-415607Y145860D01*
X-415551Y145816D01*
X-415492Y145775D01*
X-415432Y145737D01*
X-415369Y145702D01*
X-415305Y145671D01*
X-415239Y145643D01*
X-415172Y145619D01*
X-415104Y145598D01*
X-415034Y145581D01*
X-414964Y145568D01*
X-414894Y145559D01*
X-414822Y145553D01*
X-414751Y145551D01*
X-414215Y151135D02*
X-414215Y154353D01*
X-414751Y157439D02*
X-411265Y157439D01*
X-414751Y157438D02*
X-414822Y157440D01*
X-414894Y157446D01*
X-414964Y157455D01*
X-415034Y157468D01*
X-415104Y157485D01*
X-415172Y157506D01*
X-415239Y157530D01*
X-415305Y157558D01*
X-415369Y157589D01*
X-415432Y157624D01*
X-415492Y157662D01*
X-415551Y157703D01*
X-415607Y157747D01*
X-415661Y157794D01*
X-415712Y157843D01*
X-415760Y157896D01*
X-415806Y157951D01*
X-415848Y158008D01*
X-415888Y158068D01*
X-415924Y158129D01*
X-415957Y158193D01*
X-415986Y158258D01*
X-416012Y158324D01*
X-416035Y158392D01*
X-416054Y158461D01*
X-416069Y158531D01*
X-416080Y158601D01*
X-416088Y158672D01*
X-416092Y158743D01*
X-416092Y158815D01*
X-416088Y158886D01*
X-416080Y158957D01*
X-416069Y159027D01*
X-416054Y159097D01*
X-416035Y159166D01*
X-416012Y159234D01*
X-415986Y159300D01*
X-415957Y159365D01*
X-415924Y159429D01*
X-415888Y159490D01*
X-415848Y159550D01*
X-415806Y159607D01*
X-415760Y159662D01*
X-415712Y159715D01*
X-415661Y159764D01*
X-415607Y159811D01*
X-415551Y159855D01*
X-415492Y159896D01*
X-415432Y159934D01*
X-415369Y159969D01*
X-415305Y160000D01*
X-415239Y160028D01*
X-415172Y160052D01*
X-415104Y160073D01*
X-415034Y160090D01*
X-414964Y160103D01*
X-414894Y160112D01*
X-414822Y160118D01*
X-414751Y160120D01*
X-411265Y160120D01*
X-416091Y164534D02*
X-416089Y164599D01*
X-416083Y164663D01*
X-416073Y164727D01*
X-416060Y164791D01*
X-416042Y164853D01*
X-416021Y164914D01*
X-415997Y164974D01*
X-415968Y165032D01*
X-415936Y165089D01*
X-415901Y165143D01*
X-415863Y165195D01*
X-415821Y165245D01*
X-415777Y165292D01*
X-415730Y165336D01*
X-415680Y165378D01*
X-415628Y165416D01*
X-415574Y165451D01*
X-415517Y165483D01*
X-415459Y165512D01*
X-415399Y165536D01*
X-415338Y165557D01*
X-415276Y165575D01*
X-415212Y165588D01*
X-415148Y165598D01*
X-415084Y165604D01*
X-415019Y165606D01*
X-416092Y164534D02*
X-416090Y164440D01*
X-416084Y164346D01*
X-416074Y164252D01*
X-416061Y164159D01*
X-416043Y164067D01*
X-416022Y163975D01*
X-415997Y163884D01*
X-415968Y163794D01*
X-415935Y163706D01*
X-415899Y163619D01*
X-415859Y163534D01*
X-415816Y163450D01*
X-415769Y163369D01*
X-415719Y163289D01*
X-415666Y163211D01*
X-415609Y163136D01*
X-415550Y163063D01*
X-415487Y162993D01*
X-415422Y162925D01*
X-412338Y163059D02*
X-412273Y163061D01*
X-412209Y163067D01*
X-412145Y163077D01*
X-412081Y163090D01*
X-412019Y163108D01*
X-411958Y163129D01*
X-411898Y163153D01*
X-411840Y163182D01*
X-411783Y163214D01*
X-411729Y163249D01*
X-411677Y163287D01*
X-411627Y163329D01*
X-411580Y163373D01*
X-411536Y163420D01*
X-411494Y163470D01*
X-411456Y163522D01*
X-411421Y163576D01*
X-411389Y163633D01*
X-411360Y163691D01*
X-411336Y163751D01*
X-411315Y163812D01*
X-411297Y163874D01*
X-411284Y163938D01*
X-411274Y164002D01*
X-411268Y164066D01*
X-411266Y164131D01*
X-411265Y164131D02*
X-411267Y164217D01*
X-411272Y164303D01*
X-411282Y164389D01*
X-411295Y164474D01*
X-411311Y164559D01*
X-411331Y164643D01*
X-411355Y164726D01*
X-411382Y164808D01*
X-411413Y164888D01*
X-411447Y164968D01*
X-411485Y165045D01*
X-411526Y165121D01*
X-411570Y165195D01*
X-411617Y165268D01*
X-411667Y165338D01*
X-413276Y163595D02*
X-413243Y163542D01*
X-413206Y163491D01*
X-413167Y163442D01*
X-413125Y163395D01*
X-413080Y163351D01*
X-413033Y163310D01*
X-412984Y163271D01*
X-412932Y163235D01*
X-412878Y163202D01*
X-412823Y163173D01*
X-412766Y163147D01*
X-412707Y163124D01*
X-412648Y163104D01*
X-412587Y163088D01*
X-412526Y163075D01*
X-412463Y163066D01*
X-412401Y163061D01*
X-412338Y163059D01*
X-414081Y165070D02*
X-414114Y165123D01*
X-414151Y165174D01*
X-414190Y165223D01*
X-414232Y165270D01*
X-414277Y165314D01*
X-414324Y165355D01*
X-414373Y165394D01*
X-414425Y165430D01*
X-414479Y165463D01*
X-414534Y165492D01*
X-414591Y165518D01*
X-414650Y165541D01*
X-414709Y165561D01*
X-414770Y165577D01*
X-414831Y165590D01*
X-414894Y165599D01*
X-414956Y165604D01*
X-415019Y165606D01*
X-414081Y165070D02*
X-413276Y163595D01*
X-413410Y168558D02*
X-413410Y169898D01*
X-413412Y169969D01*
X-413418Y170041D01*
X-413427Y170111D01*
X-413440Y170181D01*
X-413457Y170251D01*
X-413478Y170319D01*
X-413502Y170386D01*
X-413530Y170452D01*
X-413561Y170516D01*
X-413596Y170579D01*
X-413634Y170639D01*
X-413675Y170698D01*
X-413719Y170754D01*
X-413766Y170808D01*
X-413815Y170859D01*
X-413868Y170907D01*
X-413923Y170953D01*
X-413980Y170995D01*
X-414040Y171035D01*
X-414101Y171071D01*
X-414165Y171104D01*
X-414230Y171133D01*
X-414296Y171159D01*
X-414364Y171182D01*
X-414433Y171201D01*
X-414503Y171216D01*
X-414573Y171227D01*
X-414644Y171235D01*
X-414715Y171239D01*
X-414787Y171239D01*
X-414858Y171235D01*
X-414929Y171227D01*
X-414999Y171216D01*
X-415069Y171201D01*
X-415138Y171182D01*
X-415206Y171159D01*
X-415272Y171133D01*
X-415337Y171104D01*
X-415401Y171071D01*
X-415462Y171035D01*
X-415522Y170995D01*
X-415579Y170953D01*
X-415634Y170907D01*
X-415687Y170859D01*
X-415736Y170808D01*
X-415783Y170754D01*
X-415827Y170698D01*
X-415868Y170639D01*
X-415906Y170579D01*
X-415941Y170516D01*
X-415972Y170452D01*
X-416000Y170386D01*
X-416024Y170319D01*
X-416045Y170251D01*
X-416062Y170181D01*
X-416075Y170111D01*
X-416084Y170041D01*
X-416090Y169969D01*
X-416092Y169898D01*
X-416091Y169898D02*
X-416091Y168558D01*
X-411265Y168558D01*
X-411265Y169898D01*
X-411266Y169898D02*
X-411268Y169963D01*
X-411274Y170027D01*
X-411284Y170091D01*
X-411297Y170155D01*
X-411315Y170217D01*
X-411336Y170278D01*
X-411360Y170338D01*
X-411389Y170396D01*
X-411421Y170453D01*
X-411456Y170507D01*
X-411494Y170559D01*
X-411536Y170609D01*
X-411580Y170656D01*
X-411627Y170700D01*
X-411677Y170742D01*
X-411729Y170780D01*
X-411783Y170815D01*
X-411840Y170847D01*
X-411898Y170876D01*
X-411958Y170900D01*
X-412019Y170921D01*
X-412081Y170939D01*
X-412145Y170952D01*
X-412209Y170962D01*
X-412273Y170968D01*
X-412338Y170970D01*
X-412403Y170968D01*
X-412467Y170962D01*
X-412531Y170952D01*
X-412595Y170939D01*
X-412657Y170921D01*
X-412718Y170900D01*
X-412778Y170876D01*
X-412836Y170847D01*
X-412893Y170815D01*
X-412947Y170780D01*
X-412999Y170742D01*
X-413049Y170700D01*
X-413096Y170656D01*
X-413140Y170609D01*
X-413182Y170559D01*
X-413220Y170507D01*
X-413255Y170453D01*
X-413287Y170396D01*
X-413316Y170338D01*
X-413340Y170278D01*
X-413361Y170217D01*
X-413379Y170155D01*
X-413392Y170091D01*
X-413402Y170027D01*
X-413408Y169963D01*
X-413410Y169898D01*
D100*
X-537506Y631465D02*
X-537506Y701465D01*
X-599506Y701465D01*
X-607506Y701465D01*
X-607506Y631465D01*
X-599506Y631465D01*
X-537506Y631465D01*
X-599506Y631465D02*
X-599506Y701465D01*
D97*
X-594573Y637746D02*
X-589747Y637746D01*
X-589747Y639087D01*
X-589749Y639158D01*
X-589755Y639230D01*
X-589764Y639300D01*
X-589777Y639370D01*
X-589794Y639440D01*
X-589815Y639508D01*
X-589839Y639575D01*
X-589867Y639641D01*
X-589898Y639705D01*
X-589933Y639768D01*
X-589971Y639828D01*
X-590012Y639887D01*
X-590056Y639943D01*
X-590103Y639997D01*
X-590152Y640048D01*
X-590205Y640096D01*
X-590260Y640142D01*
X-590317Y640184D01*
X-590377Y640224D01*
X-590438Y640260D01*
X-590502Y640293D01*
X-590567Y640322D01*
X-590633Y640348D01*
X-590701Y640371D01*
X-590770Y640390D01*
X-590840Y640405D01*
X-590910Y640416D01*
X-590981Y640424D01*
X-591052Y640428D01*
X-591124Y640428D01*
X-591195Y640424D01*
X-591266Y640416D01*
X-591336Y640405D01*
X-591406Y640390D01*
X-591475Y640371D01*
X-591543Y640348D01*
X-591609Y640322D01*
X-591674Y640293D01*
X-591738Y640260D01*
X-591799Y640224D01*
X-591859Y640184D01*
X-591916Y640142D01*
X-591971Y640096D01*
X-592024Y640048D01*
X-592073Y639997D01*
X-592120Y639943D01*
X-592164Y639887D01*
X-592205Y639828D01*
X-592243Y639768D01*
X-592278Y639705D01*
X-592309Y639641D01*
X-592337Y639575D01*
X-592361Y639508D01*
X-592382Y639440D01*
X-592399Y639370D01*
X-592412Y639300D01*
X-592421Y639230D01*
X-592427Y639158D01*
X-592429Y639087D01*
X-592428Y639087D02*
X-592428Y637746D01*
X-593233Y642903D02*
X-591088Y642903D01*
X-591017Y642905D01*
X-590945Y642911D01*
X-590875Y642920D01*
X-590805Y642933D01*
X-590735Y642950D01*
X-590667Y642971D01*
X-590600Y642995D01*
X-590534Y643023D01*
X-590470Y643054D01*
X-590407Y643089D01*
X-590347Y643127D01*
X-590288Y643168D01*
X-590232Y643212D01*
X-590178Y643259D01*
X-590127Y643308D01*
X-590079Y643361D01*
X-590033Y643416D01*
X-589991Y643473D01*
X-589951Y643533D01*
X-589915Y643594D01*
X-589882Y643658D01*
X-589853Y643723D01*
X-589827Y643789D01*
X-589804Y643857D01*
X-589785Y643926D01*
X-589770Y643996D01*
X-589759Y644066D01*
X-589751Y644137D01*
X-589747Y644208D01*
X-589747Y644280D01*
X-589751Y644351D01*
X-589759Y644422D01*
X-589770Y644492D01*
X-589785Y644562D01*
X-589804Y644631D01*
X-589827Y644699D01*
X-589853Y644765D01*
X-589882Y644830D01*
X-589915Y644894D01*
X-589951Y644955D01*
X-589991Y645015D01*
X-590033Y645072D01*
X-590079Y645127D01*
X-590127Y645180D01*
X-590178Y645229D01*
X-590232Y645276D01*
X-590288Y645320D01*
X-590347Y645361D01*
X-590407Y645399D01*
X-590470Y645434D01*
X-590534Y645465D01*
X-590600Y645493D01*
X-590667Y645517D01*
X-590735Y645538D01*
X-590805Y645555D01*
X-590875Y645568D01*
X-590945Y645577D01*
X-591017Y645583D01*
X-591088Y645585D01*
X-591088Y645584D02*
X-593233Y645584D01*
X-593233Y645585D02*
X-593304Y645583D01*
X-593376Y645577D01*
X-593446Y645568D01*
X-593516Y645555D01*
X-593586Y645538D01*
X-593654Y645517D01*
X-593721Y645493D01*
X-593787Y645465D01*
X-593851Y645434D01*
X-593914Y645399D01*
X-593974Y645361D01*
X-594033Y645320D01*
X-594089Y645276D01*
X-594143Y645229D01*
X-594194Y645180D01*
X-594242Y645127D01*
X-594288Y645072D01*
X-594330Y645015D01*
X-594370Y644955D01*
X-594406Y644894D01*
X-594439Y644830D01*
X-594468Y644765D01*
X-594494Y644699D01*
X-594517Y644631D01*
X-594536Y644562D01*
X-594551Y644492D01*
X-594562Y644422D01*
X-594570Y644351D01*
X-594574Y644280D01*
X-594574Y644208D01*
X-594570Y644137D01*
X-594562Y644066D01*
X-594551Y643996D01*
X-594536Y643926D01*
X-594517Y643857D01*
X-594494Y643789D01*
X-594468Y643723D01*
X-594439Y643658D01*
X-594406Y643594D01*
X-594370Y643533D01*
X-594330Y643473D01*
X-594288Y643416D01*
X-594242Y643361D01*
X-594194Y643308D01*
X-594143Y643259D01*
X-594089Y643212D01*
X-594033Y643168D01*
X-593974Y643127D01*
X-593914Y643089D01*
X-593851Y643054D01*
X-593787Y643023D01*
X-593721Y642995D01*
X-593654Y642971D01*
X-593586Y642950D01*
X-593516Y642933D01*
X-593446Y642920D01*
X-593376Y642911D01*
X-593304Y642905D01*
X-593233Y642903D01*
X-589747Y648317D02*
X-594573Y649389D01*
X-591356Y650462D01*
X-594573Y651534D01*
X-589747Y652607D01*
X-594573Y655542D02*
X-594573Y657686D01*
X-594573Y655542D02*
X-589747Y655542D01*
X-589747Y657686D01*
X-591892Y657150D02*
X-591892Y655542D01*
X-589747Y660341D02*
X-594573Y660341D01*
X-589747Y660341D02*
X-589747Y661681D01*
X-589749Y661752D01*
X-589755Y661824D01*
X-589764Y661894D01*
X-589777Y661964D01*
X-589794Y662034D01*
X-589815Y662102D01*
X-589839Y662169D01*
X-589867Y662235D01*
X-589898Y662299D01*
X-589933Y662362D01*
X-589971Y662422D01*
X-590012Y662481D01*
X-590056Y662537D01*
X-590103Y662591D01*
X-590152Y662642D01*
X-590205Y662690D01*
X-590260Y662736D01*
X-590317Y662778D01*
X-590377Y662818D01*
X-590438Y662854D01*
X-590502Y662887D01*
X-590567Y662916D01*
X-590633Y662942D01*
X-590701Y662965D01*
X-590770Y662984D01*
X-590840Y662999D01*
X-590910Y663010D01*
X-590981Y663018D01*
X-591052Y663022D01*
X-591124Y663022D01*
X-591195Y663018D01*
X-591266Y663010D01*
X-591336Y662999D01*
X-591406Y662984D01*
X-591475Y662965D01*
X-591543Y662942D01*
X-591609Y662916D01*
X-591674Y662887D01*
X-591738Y662854D01*
X-591799Y662818D01*
X-591859Y662778D01*
X-591916Y662736D01*
X-591971Y662690D01*
X-592024Y662642D01*
X-592073Y662591D01*
X-592120Y662537D01*
X-592164Y662481D01*
X-592205Y662422D01*
X-592243Y662362D01*
X-592278Y662299D01*
X-592309Y662235D01*
X-592337Y662169D01*
X-592361Y662102D01*
X-592382Y662034D01*
X-592399Y661964D01*
X-592412Y661894D01*
X-592421Y661824D01*
X-592427Y661752D01*
X-592429Y661681D01*
X-592428Y661681D02*
X-592428Y660341D01*
X-592428Y661949D02*
X-594573Y663022D01*
X-595109Y665483D02*
X-595109Y667628D01*
X-594573Y670396D02*
X-589747Y670396D01*
X-594573Y669859D02*
X-594573Y670932D01*
X-589747Y670932D02*
X-589747Y669859D01*
X-589747Y673627D02*
X-594573Y673627D01*
X-594573Y676308D02*
X-589747Y673627D01*
X-589747Y676308D02*
X-594573Y676308D01*
X-594573Y679626D02*
X-589747Y679626D01*
X-589747Y680966D01*
X-589749Y681037D01*
X-589755Y681109D01*
X-589764Y681179D01*
X-589777Y681249D01*
X-589794Y681319D01*
X-589815Y681387D01*
X-589839Y681454D01*
X-589867Y681520D01*
X-589898Y681584D01*
X-589933Y681647D01*
X-589971Y681707D01*
X-590012Y681766D01*
X-590056Y681822D01*
X-590103Y681876D01*
X-590152Y681927D01*
X-590205Y681975D01*
X-590260Y682021D01*
X-590317Y682063D01*
X-590377Y682103D01*
X-590438Y682139D01*
X-590502Y682172D01*
X-590567Y682201D01*
X-590633Y682227D01*
X-590701Y682250D01*
X-590770Y682269D01*
X-590840Y682284D01*
X-590910Y682295D01*
X-590981Y682303D01*
X-591052Y682307D01*
X-591124Y682307D01*
X-591195Y682303D01*
X-591266Y682295D01*
X-591336Y682284D01*
X-591406Y682269D01*
X-591475Y682250D01*
X-591543Y682227D01*
X-591609Y682201D01*
X-591674Y682172D01*
X-591738Y682139D01*
X-591799Y682103D01*
X-591859Y682063D01*
X-591916Y682021D01*
X-591971Y681975D01*
X-592024Y681927D01*
X-592073Y681876D01*
X-592120Y681822D01*
X-592164Y681766D01*
X-592205Y681707D01*
X-592243Y681647D01*
X-592278Y681584D01*
X-592309Y681520D01*
X-592337Y681454D01*
X-592361Y681387D01*
X-592382Y681319D01*
X-592399Y681249D01*
X-592412Y681179D01*
X-592421Y681109D01*
X-592427Y681037D01*
X-592429Y680966D01*
X-592428Y680966D02*
X-592428Y679626D01*
X-593233Y684966D02*
X-589747Y684966D01*
X-593233Y684965D02*
X-593304Y684967D01*
X-593376Y684973D01*
X-593446Y684982D01*
X-593516Y684995D01*
X-593586Y685012D01*
X-593654Y685033D01*
X-593721Y685057D01*
X-593787Y685085D01*
X-593851Y685116D01*
X-593914Y685151D01*
X-593974Y685189D01*
X-594033Y685230D01*
X-594089Y685274D01*
X-594143Y685321D01*
X-594194Y685370D01*
X-594242Y685423D01*
X-594288Y685478D01*
X-594330Y685535D01*
X-594370Y685595D01*
X-594406Y685656D01*
X-594439Y685720D01*
X-594468Y685785D01*
X-594494Y685851D01*
X-594517Y685919D01*
X-594536Y685988D01*
X-594551Y686058D01*
X-594562Y686128D01*
X-594570Y686199D01*
X-594574Y686270D01*
X-594574Y686342D01*
X-594570Y686413D01*
X-594562Y686484D01*
X-594551Y686554D01*
X-594536Y686624D01*
X-594517Y686693D01*
X-594494Y686761D01*
X-594468Y686827D01*
X-594439Y686892D01*
X-594406Y686956D01*
X-594370Y687017D01*
X-594330Y687077D01*
X-594288Y687134D01*
X-594242Y687189D01*
X-594194Y687242D01*
X-594143Y687291D01*
X-594089Y687338D01*
X-594033Y687382D01*
X-593974Y687423D01*
X-593914Y687461D01*
X-593851Y687496D01*
X-593787Y687527D01*
X-593721Y687555D01*
X-593654Y687579D01*
X-593586Y687600D01*
X-593516Y687617D01*
X-593446Y687630D01*
X-593376Y687639D01*
X-593304Y687645D01*
X-593233Y687647D01*
X-589747Y687647D01*
X-589747Y691610D02*
X-594573Y691610D01*
X-589747Y690269D02*
X-589747Y692950D01*
X-614819Y402300D02*
X-558819Y402300D01*
X-544819Y402300D01*
X-544819Y332300D01*
X-558819Y332300D01*
X-614819Y332300D01*
X-614819Y402300D01*
X-558819Y402300D02*
X-558819Y332300D01*
D99*
X-618627Y338808D02*
X-630311Y338808D01*
X-618627Y338808D02*
X-618627Y342054D01*
X-618626Y342054D02*
X-618628Y342167D01*
X-618634Y342280D01*
X-618644Y342393D01*
X-618658Y342506D01*
X-618675Y342618D01*
X-618697Y342729D01*
X-618722Y342839D01*
X-618752Y342949D01*
X-618785Y343057D01*
X-618822Y343164D01*
X-618862Y343270D01*
X-618907Y343374D01*
X-618955Y343477D01*
X-619006Y343578D01*
X-619061Y343677D01*
X-619119Y343774D01*
X-619181Y343869D01*
X-619246Y343962D01*
X-619314Y344052D01*
X-619385Y344140D01*
X-619460Y344226D01*
X-619537Y344309D01*
X-619617Y344389D01*
X-619700Y344466D01*
X-619786Y344541D01*
X-619874Y344612D01*
X-619964Y344680D01*
X-620057Y344745D01*
X-620152Y344807D01*
X-620249Y344865D01*
X-620348Y344920D01*
X-620449Y344971D01*
X-620552Y345019D01*
X-620656Y345064D01*
X-620762Y345104D01*
X-620869Y345141D01*
X-620977Y345174D01*
X-621087Y345204D01*
X-621197Y345229D01*
X-621308Y345251D01*
X-621420Y345268D01*
X-621533Y345282D01*
X-621646Y345292D01*
X-621759Y345298D01*
X-621872Y345300D01*
X-621985Y345298D01*
X-622098Y345292D01*
X-622211Y345282D01*
X-622324Y345268D01*
X-622436Y345251D01*
X-622547Y345229D01*
X-622657Y345204D01*
X-622767Y345174D01*
X-622875Y345141D01*
X-622982Y345104D01*
X-623088Y345064D01*
X-623192Y345019D01*
X-623295Y344971D01*
X-623396Y344920D01*
X-623495Y344865D01*
X-623592Y344807D01*
X-623687Y344745D01*
X-623780Y344680D01*
X-623870Y344612D01*
X-623958Y344541D01*
X-624044Y344466D01*
X-624127Y344389D01*
X-624207Y344309D01*
X-624284Y344226D01*
X-624359Y344140D01*
X-624430Y344052D01*
X-624498Y343962D01*
X-624563Y343869D01*
X-624625Y343774D01*
X-624683Y343677D01*
X-624738Y343578D01*
X-624789Y343477D01*
X-624837Y343374D01*
X-624882Y343270D01*
X-624922Y343164D01*
X-624959Y343057D01*
X-624992Y342949D01*
X-625022Y342839D01*
X-625047Y342729D01*
X-625069Y342618D01*
X-625086Y342506D01*
X-625100Y342393D01*
X-625110Y342280D01*
X-625116Y342167D01*
X-625118Y342054D01*
X-625118Y338808D01*
X-618627Y349039D02*
X-624144Y352933D01*
X-618627Y356828D01*
X-624144Y352933D02*
X-630311Y352933D01*
X-618627Y364688D02*
X-618629Y364795D01*
X-618635Y364901D01*
X-618645Y365007D01*
X-618658Y365113D01*
X-618676Y365219D01*
X-618697Y365323D01*
X-618722Y365427D01*
X-618751Y365530D01*
X-618783Y365631D01*
X-618820Y365731D01*
X-618860Y365830D01*
X-618903Y365928D01*
X-618950Y366024D01*
X-619001Y366118D01*
X-619055Y366210D01*
X-619112Y366300D01*
X-619172Y366388D01*
X-619236Y366473D01*
X-619303Y366556D01*
X-619373Y366637D01*
X-619445Y366715D01*
X-619521Y366791D01*
X-619599Y366863D01*
X-619680Y366933D01*
X-619763Y367000D01*
X-619848Y367064D01*
X-619936Y367124D01*
X-620026Y367181D01*
X-620118Y367235D01*
X-620212Y367286D01*
X-620308Y367333D01*
X-620406Y367376D01*
X-620505Y367416D01*
X-620605Y367453D01*
X-620706Y367485D01*
X-620809Y367514D01*
X-620913Y367539D01*
X-621017Y367560D01*
X-621123Y367578D01*
X-621229Y367591D01*
X-621335Y367601D01*
X-621441Y367607D01*
X-621548Y367609D01*
X-618626Y364688D02*
X-618628Y364567D01*
X-618634Y364446D01*
X-618644Y364326D01*
X-618657Y364205D01*
X-618675Y364086D01*
X-618696Y363966D01*
X-618721Y363848D01*
X-618750Y363731D01*
X-618783Y363614D01*
X-618819Y363499D01*
X-618860Y363385D01*
X-618903Y363272D01*
X-618951Y363160D01*
X-619002Y363051D01*
X-619057Y362943D01*
X-619115Y362836D01*
X-619176Y362732D01*
X-619241Y362630D01*
X-619309Y362530D01*
X-619380Y362432D01*
X-619454Y362336D01*
X-619531Y362243D01*
X-619612Y362153D01*
X-619695Y362065D01*
X-619781Y361980D01*
X-619870Y361897D01*
X-619961Y361818D01*
X-620055Y361741D01*
X-620151Y361668D01*
X-620249Y361598D01*
X-620350Y361531D01*
X-620453Y361467D01*
X-620558Y361407D01*
X-620665Y361349D01*
X-620773Y361296D01*
X-620883Y361246D01*
X-620995Y361200D01*
X-621108Y361157D01*
X-621223Y361118D01*
X-623820Y366634D02*
X-623742Y366713D01*
X-623662Y366789D01*
X-623579Y366862D01*
X-623493Y366932D01*
X-623406Y366999D01*
X-623315Y367063D01*
X-623223Y367123D01*
X-623129Y367181D01*
X-623032Y367235D01*
X-622934Y367285D01*
X-622834Y367332D01*
X-622733Y367376D01*
X-622630Y367416D01*
X-622525Y367452D01*
X-622420Y367484D01*
X-622313Y367513D01*
X-622206Y367538D01*
X-622097Y367560D01*
X-621988Y367577D01*
X-621879Y367591D01*
X-621769Y367600D01*
X-621658Y367606D01*
X-621548Y367608D01*
X-623820Y366635D02*
X-630311Y361118D01*
X-630311Y367609D01*
D100*
X-588018Y505460D02*
X-581668Y511810D01*
X-581668Y524510D01*
X-588018Y530860D01*
X-600718Y530860D02*
X-607068Y524510D01*
X-607068Y511810D01*
X-600718Y505460D01*
X-581668Y473710D02*
X-581668Y461010D01*
X-581668Y473710D02*
X-588018Y480060D01*
X-600718Y480060D02*
X-607068Y473710D01*
X-588018Y480060D02*
X-581668Y486410D01*
X-581668Y499110D01*
X-588018Y505460D01*
X-600718Y505460D02*
X-607068Y499110D01*
X-607068Y486410D01*
X-600718Y480060D01*
X-600718Y454660D02*
X-588018Y454660D01*
X-581668Y461010D01*
X-600718Y454660D02*
X-607068Y461010D01*
X-607068Y473710D01*
X-600718Y530860D02*
X-588018Y530860D01*
D97*
X-578690Y457976D02*
X-578755Y457974D01*
X-578819Y457968D01*
X-578883Y457958D01*
X-578947Y457945D01*
X-579009Y457927D01*
X-579070Y457906D01*
X-579130Y457882D01*
X-579188Y457853D01*
X-579245Y457821D01*
X-579299Y457786D01*
X-579351Y457748D01*
X-579401Y457706D01*
X-579448Y457662D01*
X-579492Y457615D01*
X-579534Y457565D01*
X-579572Y457513D01*
X-579607Y457459D01*
X-579639Y457402D01*
X-579668Y457344D01*
X-579692Y457284D01*
X-579713Y457223D01*
X-579731Y457161D01*
X-579744Y457097D01*
X-579754Y457033D01*
X-579760Y456969D01*
X-579762Y456904D01*
X-579763Y456904D02*
X-579761Y456810D01*
X-579755Y456716D01*
X-579745Y456622D01*
X-579732Y456529D01*
X-579714Y456437D01*
X-579693Y456345D01*
X-579668Y456254D01*
X-579639Y456164D01*
X-579606Y456076D01*
X-579570Y455989D01*
X-579530Y455904D01*
X-579487Y455820D01*
X-579440Y455739D01*
X-579390Y455659D01*
X-579337Y455581D01*
X-579280Y455506D01*
X-579221Y455433D01*
X-579158Y455363D01*
X-579093Y455295D01*
X-576009Y455430D02*
X-575944Y455432D01*
X-575880Y455438D01*
X-575816Y455448D01*
X-575752Y455461D01*
X-575690Y455479D01*
X-575629Y455500D01*
X-575569Y455524D01*
X-575511Y455553D01*
X-575454Y455585D01*
X-575400Y455620D01*
X-575348Y455658D01*
X-575298Y455700D01*
X-575251Y455744D01*
X-575207Y455791D01*
X-575165Y455841D01*
X-575127Y455893D01*
X-575092Y455947D01*
X-575060Y456004D01*
X-575031Y456062D01*
X-575007Y456122D01*
X-574986Y456183D01*
X-574968Y456245D01*
X-574955Y456309D01*
X-574945Y456373D01*
X-574939Y456437D01*
X-574937Y456502D01*
X-574939Y456588D01*
X-574944Y456674D01*
X-574954Y456760D01*
X-574967Y456845D01*
X-574983Y456930D01*
X-575003Y457014D01*
X-575027Y457097D01*
X-575054Y457179D01*
X-575085Y457259D01*
X-575119Y457339D01*
X-575157Y457416D01*
X-575198Y457492D01*
X-575242Y457566D01*
X-575289Y457639D01*
X-575339Y457709D01*
X-576947Y455965D02*
X-576914Y455912D01*
X-576877Y455861D01*
X-576838Y455812D01*
X-576796Y455765D01*
X-576751Y455721D01*
X-576704Y455680D01*
X-576655Y455641D01*
X-576603Y455605D01*
X-576549Y455572D01*
X-576494Y455543D01*
X-576437Y455517D01*
X-576378Y455494D01*
X-576319Y455474D01*
X-576258Y455458D01*
X-576197Y455445D01*
X-576134Y455436D01*
X-576072Y455431D01*
X-576009Y455429D01*
X-577752Y457440D02*
X-577785Y457493D01*
X-577822Y457544D01*
X-577861Y457593D01*
X-577903Y457640D01*
X-577948Y457684D01*
X-577995Y457725D01*
X-578044Y457764D01*
X-578096Y457800D01*
X-578150Y457833D01*
X-578205Y457862D01*
X-578262Y457888D01*
X-578321Y457911D01*
X-578380Y457931D01*
X-578441Y457947D01*
X-578502Y457960D01*
X-578565Y457969D01*
X-578627Y457974D01*
X-578690Y457976D01*
X-577752Y457440D02*
X-576948Y455966D01*
X-579763Y460801D02*
X-579763Y462946D01*
X-579763Y460801D02*
X-574937Y460801D01*
X-574937Y462946D01*
X-577082Y462410D02*
X-577082Y460801D01*
X-574937Y465600D02*
X-579763Y465600D01*
X-574937Y465600D02*
X-574937Y466941D01*
X-574936Y466941D02*
X-574938Y467012D01*
X-574944Y467084D01*
X-574953Y467154D01*
X-574966Y467224D01*
X-574983Y467294D01*
X-575004Y467362D01*
X-575028Y467429D01*
X-575056Y467495D01*
X-575087Y467559D01*
X-575122Y467622D01*
X-575160Y467682D01*
X-575201Y467741D01*
X-575245Y467797D01*
X-575292Y467851D01*
X-575341Y467902D01*
X-575394Y467950D01*
X-575449Y467996D01*
X-575506Y468038D01*
X-575566Y468078D01*
X-575627Y468114D01*
X-575691Y468147D01*
X-575756Y468176D01*
X-575822Y468202D01*
X-575890Y468225D01*
X-575959Y468244D01*
X-576029Y468259D01*
X-576099Y468270D01*
X-576170Y468278D01*
X-576241Y468282D01*
X-576313Y468282D01*
X-576384Y468278D01*
X-576455Y468270D01*
X-576525Y468259D01*
X-576595Y468244D01*
X-576664Y468225D01*
X-576732Y468202D01*
X-576798Y468176D01*
X-576863Y468147D01*
X-576927Y468114D01*
X-576988Y468078D01*
X-577048Y468038D01*
X-577105Y467996D01*
X-577160Y467950D01*
X-577213Y467902D01*
X-577262Y467851D01*
X-577309Y467797D01*
X-577353Y467741D01*
X-577394Y467682D01*
X-577432Y467622D01*
X-577467Y467559D01*
X-577498Y467495D01*
X-577526Y467429D01*
X-577550Y467362D01*
X-577571Y467294D01*
X-577588Y467224D01*
X-577601Y467154D01*
X-577610Y467084D01*
X-577616Y467012D01*
X-577618Y466941D01*
X-577618Y465600D01*
X-577618Y467209D02*
X-579763Y468281D01*
X-579763Y472363D02*
X-574937Y470755D01*
X-574937Y473972D02*
X-579763Y472363D01*
X-578422Y476509D02*
X-576277Y476509D01*
X-576206Y476511D01*
X-576134Y476517D01*
X-576064Y476526D01*
X-575994Y476539D01*
X-575924Y476556D01*
X-575856Y476577D01*
X-575789Y476601D01*
X-575723Y476629D01*
X-575659Y476660D01*
X-575596Y476695D01*
X-575536Y476733D01*
X-575477Y476774D01*
X-575421Y476818D01*
X-575367Y476865D01*
X-575316Y476914D01*
X-575268Y476967D01*
X-575222Y477022D01*
X-575180Y477079D01*
X-575140Y477139D01*
X-575104Y477200D01*
X-575071Y477264D01*
X-575042Y477329D01*
X-575016Y477395D01*
X-574993Y477463D01*
X-574974Y477532D01*
X-574959Y477602D01*
X-574948Y477672D01*
X-574940Y477743D01*
X-574936Y477814D01*
X-574936Y477886D01*
X-574940Y477957D01*
X-574948Y478028D01*
X-574959Y478098D01*
X-574974Y478168D01*
X-574993Y478237D01*
X-575016Y478305D01*
X-575042Y478371D01*
X-575071Y478436D01*
X-575104Y478500D01*
X-575140Y478561D01*
X-575180Y478621D01*
X-575222Y478678D01*
X-575268Y478733D01*
X-575316Y478786D01*
X-575367Y478835D01*
X-575421Y478882D01*
X-575477Y478926D01*
X-575536Y478967D01*
X-575596Y479005D01*
X-575659Y479040D01*
X-575723Y479071D01*
X-575789Y479099D01*
X-575856Y479123D01*
X-575924Y479144D01*
X-575994Y479161D01*
X-576064Y479174D01*
X-576134Y479183D01*
X-576206Y479189D01*
X-576277Y479191D01*
X-576277Y479190D02*
X-578422Y479190D01*
X-578422Y479191D02*
X-578493Y479189D01*
X-578565Y479183D01*
X-578635Y479174D01*
X-578705Y479161D01*
X-578775Y479144D01*
X-578843Y479123D01*
X-578910Y479099D01*
X-578976Y479071D01*
X-579040Y479040D01*
X-579103Y479005D01*
X-579163Y478967D01*
X-579222Y478926D01*
X-579278Y478882D01*
X-579332Y478835D01*
X-579383Y478786D01*
X-579431Y478733D01*
X-579477Y478678D01*
X-579519Y478621D01*
X-579559Y478561D01*
X-579595Y478500D01*
X-579628Y478436D01*
X-579657Y478371D01*
X-579683Y478305D01*
X-579706Y478237D01*
X-579725Y478168D01*
X-579740Y478098D01*
X-579751Y478028D01*
X-579759Y477957D01*
X-579763Y477886D01*
X-579763Y477814D01*
X-579759Y477743D01*
X-579751Y477672D01*
X-579740Y477602D01*
X-579725Y477532D01*
X-579706Y477463D01*
X-579683Y477395D01*
X-579657Y477329D01*
X-579628Y477264D01*
X-579595Y477200D01*
X-579559Y477139D01*
X-579519Y477079D01*
X-579477Y477022D01*
X-579431Y476967D01*
X-579383Y476914D01*
X-579332Y476865D01*
X-579278Y476818D01*
X-579222Y476774D01*
X-579163Y476733D01*
X-579103Y476695D01*
X-579040Y476660D01*
X-578976Y476629D01*
X-578910Y476601D01*
X-578843Y476577D01*
X-578775Y476556D01*
X-578705Y476539D01*
X-578635Y476526D01*
X-578565Y476517D01*
X-578493Y476511D01*
X-578422Y476509D01*
X-580299Y481715D02*
X-580299Y483860D01*
X-579763Y486116D02*
X-574937Y489334D01*
X-574937Y486116D02*
X-579763Y489334D01*
D100*
X-539759Y505460D02*
X-533409Y511810D01*
X-533409Y524510D01*
X-539759Y530860D01*
X-552459Y530860D02*
X-558809Y524510D01*
X-558809Y511810D01*
X-552459Y505460D01*
X-533409Y473710D02*
X-533409Y461010D01*
X-533409Y473710D02*
X-539759Y480060D01*
X-552459Y480060D02*
X-558809Y473710D01*
X-539759Y480060D02*
X-533409Y486410D01*
X-533409Y499110D01*
X-539759Y505460D01*
X-552459Y505460D02*
X-558809Y499110D01*
X-558809Y486410D01*
X-552459Y480060D01*
X-552459Y454660D02*
X-539759Y454660D01*
X-533409Y461010D01*
X-552459Y454660D02*
X-558809Y461010D01*
X-558809Y473710D01*
X-552459Y530860D02*
X-539759Y530860D01*
D97*
X-530431Y457976D02*
X-530496Y457974D01*
X-530560Y457968D01*
X-530624Y457958D01*
X-530688Y457945D01*
X-530750Y457927D01*
X-530811Y457906D01*
X-530871Y457882D01*
X-530929Y457853D01*
X-530986Y457821D01*
X-531040Y457786D01*
X-531092Y457748D01*
X-531142Y457706D01*
X-531189Y457662D01*
X-531233Y457615D01*
X-531275Y457565D01*
X-531313Y457513D01*
X-531348Y457459D01*
X-531380Y457402D01*
X-531409Y457344D01*
X-531433Y457284D01*
X-531454Y457223D01*
X-531472Y457161D01*
X-531485Y457097D01*
X-531495Y457033D01*
X-531501Y456969D01*
X-531503Y456904D01*
X-531504Y456904D02*
X-531502Y456810D01*
X-531496Y456716D01*
X-531486Y456622D01*
X-531473Y456529D01*
X-531455Y456437D01*
X-531434Y456345D01*
X-531409Y456254D01*
X-531380Y456164D01*
X-531347Y456076D01*
X-531311Y455989D01*
X-531271Y455904D01*
X-531228Y455820D01*
X-531181Y455739D01*
X-531131Y455659D01*
X-531078Y455581D01*
X-531021Y455506D01*
X-530962Y455433D01*
X-530899Y455363D01*
X-530834Y455295D01*
X-527750Y455430D02*
X-527685Y455432D01*
X-527621Y455438D01*
X-527557Y455448D01*
X-527493Y455461D01*
X-527431Y455479D01*
X-527370Y455500D01*
X-527310Y455524D01*
X-527252Y455553D01*
X-527195Y455585D01*
X-527141Y455620D01*
X-527089Y455658D01*
X-527039Y455700D01*
X-526992Y455744D01*
X-526948Y455791D01*
X-526906Y455841D01*
X-526868Y455893D01*
X-526833Y455947D01*
X-526801Y456004D01*
X-526772Y456062D01*
X-526748Y456122D01*
X-526727Y456183D01*
X-526709Y456245D01*
X-526696Y456309D01*
X-526686Y456373D01*
X-526680Y456437D01*
X-526678Y456502D01*
X-526680Y456588D01*
X-526685Y456674D01*
X-526695Y456760D01*
X-526708Y456845D01*
X-526724Y456930D01*
X-526744Y457014D01*
X-526768Y457097D01*
X-526795Y457179D01*
X-526826Y457259D01*
X-526860Y457339D01*
X-526898Y457416D01*
X-526939Y457492D01*
X-526983Y457566D01*
X-527030Y457639D01*
X-527080Y457709D01*
X-528688Y455965D02*
X-528655Y455912D01*
X-528618Y455861D01*
X-528579Y455812D01*
X-528537Y455765D01*
X-528492Y455721D01*
X-528445Y455680D01*
X-528396Y455641D01*
X-528344Y455605D01*
X-528290Y455572D01*
X-528235Y455543D01*
X-528178Y455517D01*
X-528119Y455494D01*
X-528060Y455474D01*
X-527999Y455458D01*
X-527938Y455445D01*
X-527875Y455436D01*
X-527813Y455431D01*
X-527750Y455429D01*
X-529493Y457440D02*
X-529526Y457493D01*
X-529563Y457544D01*
X-529602Y457593D01*
X-529644Y457640D01*
X-529689Y457684D01*
X-529736Y457725D01*
X-529785Y457764D01*
X-529837Y457800D01*
X-529891Y457833D01*
X-529946Y457862D01*
X-530003Y457888D01*
X-530062Y457911D01*
X-530121Y457931D01*
X-530182Y457947D01*
X-530243Y457960D01*
X-530306Y457969D01*
X-530368Y457974D01*
X-530431Y457976D01*
X-529493Y457440D02*
X-528689Y455966D01*
X-531504Y460801D02*
X-531504Y462946D01*
X-531504Y460801D02*
X-526678Y460801D01*
X-526678Y462946D01*
X-528823Y462410D02*
X-528823Y460801D01*
X-526678Y465600D02*
X-531504Y465600D01*
X-526678Y465600D02*
X-526678Y466941D01*
X-526677Y466941D02*
X-526679Y467012D01*
X-526685Y467084D01*
X-526694Y467154D01*
X-526707Y467224D01*
X-526724Y467294D01*
X-526745Y467362D01*
X-526769Y467429D01*
X-526797Y467495D01*
X-526828Y467559D01*
X-526863Y467622D01*
X-526901Y467682D01*
X-526942Y467741D01*
X-526986Y467797D01*
X-527033Y467851D01*
X-527082Y467902D01*
X-527135Y467950D01*
X-527190Y467996D01*
X-527247Y468038D01*
X-527307Y468078D01*
X-527368Y468114D01*
X-527432Y468147D01*
X-527497Y468176D01*
X-527563Y468202D01*
X-527631Y468225D01*
X-527700Y468244D01*
X-527770Y468259D01*
X-527840Y468270D01*
X-527911Y468278D01*
X-527982Y468282D01*
X-528054Y468282D01*
X-528125Y468278D01*
X-528196Y468270D01*
X-528266Y468259D01*
X-528336Y468244D01*
X-528405Y468225D01*
X-528473Y468202D01*
X-528539Y468176D01*
X-528604Y468147D01*
X-528668Y468114D01*
X-528729Y468078D01*
X-528789Y468038D01*
X-528846Y467996D01*
X-528901Y467950D01*
X-528954Y467902D01*
X-529003Y467851D01*
X-529050Y467797D01*
X-529094Y467741D01*
X-529135Y467682D01*
X-529173Y467622D01*
X-529208Y467559D01*
X-529239Y467495D01*
X-529267Y467429D01*
X-529291Y467362D01*
X-529312Y467294D01*
X-529329Y467224D01*
X-529342Y467154D01*
X-529351Y467084D01*
X-529357Y467012D01*
X-529359Y466941D01*
X-529359Y465600D01*
X-529359Y467209D02*
X-531504Y468281D01*
X-531504Y472363D02*
X-526678Y470755D01*
X-526678Y473972D02*
X-531504Y472363D01*
X-530163Y476509D02*
X-528018Y476509D01*
X-527947Y476511D01*
X-527875Y476517D01*
X-527805Y476526D01*
X-527735Y476539D01*
X-527665Y476556D01*
X-527597Y476577D01*
X-527530Y476601D01*
X-527464Y476629D01*
X-527400Y476660D01*
X-527337Y476695D01*
X-527277Y476733D01*
X-527218Y476774D01*
X-527162Y476818D01*
X-527108Y476865D01*
X-527057Y476914D01*
X-527009Y476967D01*
X-526963Y477022D01*
X-526921Y477079D01*
X-526881Y477139D01*
X-526845Y477200D01*
X-526812Y477264D01*
X-526783Y477329D01*
X-526757Y477395D01*
X-526734Y477463D01*
X-526715Y477532D01*
X-526700Y477602D01*
X-526689Y477672D01*
X-526681Y477743D01*
X-526677Y477814D01*
X-526677Y477886D01*
X-526681Y477957D01*
X-526689Y478028D01*
X-526700Y478098D01*
X-526715Y478168D01*
X-526734Y478237D01*
X-526757Y478305D01*
X-526783Y478371D01*
X-526812Y478436D01*
X-526845Y478500D01*
X-526881Y478561D01*
X-526921Y478621D01*
X-526963Y478678D01*
X-527009Y478733D01*
X-527057Y478786D01*
X-527108Y478835D01*
X-527162Y478882D01*
X-527218Y478926D01*
X-527277Y478967D01*
X-527337Y479005D01*
X-527400Y479040D01*
X-527464Y479071D01*
X-527530Y479099D01*
X-527597Y479123D01*
X-527665Y479144D01*
X-527735Y479161D01*
X-527805Y479174D01*
X-527875Y479183D01*
X-527947Y479189D01*
X-528018Y479191D01*
X-528018Y479190D02*
X-530163Y479190D01*
X-530163Y479191D02*
X-530234Y479189D01*
X-530306Y479183D01*
X-530376Y479174D01*
X-530446Y479161D01*
X-530516Y479144D01*
X-530584Y479123D01*
X-530651Y479099D01*
X-530717Y479071D01*
X-530781Y479040D01*
X-530844Y479005D01*
X-530904Y478967D01*
X-530963Y478926D01*
X-531019Y478882D01*
X-531073Y478835D01*
X-531124Y478786D01*
X-531172Y478733D01*
X-531218Y478678D01*
X-531260Y478621D01*
X-531300Y478561D01*
X-531336Y478500D01*
X-531369Y478436D01*
X-531398Y478371D01*
X-531424Y478305D01*
X-531447Y478237D01*
X-531466Y478168D01*
X-531481Y478098D01*
X-531492Y478028D01*
X-531500Y477957D01*
X-531504Y477886D01*
X-531504Y477814D01*
X-531500Y477743D01*
X-531492Y477672D01*
X-531481Y477602D01*
X-531466Y477532D01*
X-531447Y477463D01*
X-531424Y477395D01*
X-531398Y477329D01*
X-531369Y477264D01*
X-531336Y477200D01*
X-531300Y477139D01*
X-531260Y477079D01*
X-531218Y477022D01*
X-531172Y476967D01*
X-531124Y476914D01*
X-531073Y476865D01*
X-531019Y476818D01*
X-530963Y476774D01*
X-530904Y476733D01*
X-530844Y476695D01*
X-530781Y476660D01*
X-530717Y476629D01*
X-530651Y476601D01*
X-530584Y476577D01*
X-530516Y476556D01*
X-530446Y476539D01*
X-530376Y476526D01*
X-530306Y476517D01*
X-530234Y476511D01*
X-530163Y476509D01*
X-532040Y481715D02*
X-532040Y483860D01*
X-528957Y487725D02*
X-526678Y486116D01*
X-528957Y487725D02*
X-526678Y489334D01*
X-528957Y487725D02*
X-531504Y487725D01*
D100*
X-405025Y759440D02*
X-392325Y759440D01*
X-385975Y765790D01*
X-385975Y778490D02*
X-392325Y784840D01*
X-430425Y759440D02*
X-436775Y765790D01*
X-430425Y759440D02*
X-417725Y759440D01*
X-411375Y765790D01*
X-411375Y778490D02*
X-417725Y784840D01*
X-430425Y784840D01*
X-436775Y778490D01*
X-411375Y765790D02*
X-405025Y759440D01*
X-411375Y778490D02*
X-405025Y784840D01*
X-392325Y784840D01*
X-468525Y759440D02*
X-481225Y759440D01*
X-468525Y759440D02*
X-462175Y765790D01*
X-462175Y778490D02*
X-468525Y784840D01*
X-462175Y765790D02*
X-455825Y759440D01*
X-443125Y759440D01*
X-436775Y765790D01*
X-436775Y778490D02*
X-443125Y784840D01*
X-455825Y784840D01*
X-462175Y778490D01*
X-487575Y778490D02*
X-487575Y765790D01*
X-481225Y759440D01*
X-487575Y778490D02*
X-481225Y784840D01*
X-468525Y784840D01*
X-385975Y778490D02*
X-385975Y765790D01*
D97*
X-473432Y752709D02*
X-473497Y752711D01*
X-473561Y752717D01*
X-473625Y752727D01*
X-473689Y752740D01*
X-473751Y752758D01*
X-473812Y752779D01*
X-473872Y752803D01*
X-473930Y752832D01*
X-473987Y752864D01*
X-474041Y752899D01*
X-474093Y752937D01*
X-474143Y752979D01*
X-474190Y753023D01*
X-474234Y753070D01*
X-474276Y753120D01*
X-474314Y753172D01*
X-474349Y753226D01*
X-474381Y753283D01*
X-474410Y753341D01*
X-474434Y753401D01*
X-474455Y753462D01*
X-474473Y753524D01*
X-474486Y753588D01*
X-474496Y753652D01*
X-474502Y753716D01*
X-474504Y753781D01*
X-473432Y752709D02*
X-473338Y752711D01*
X-473244Y752717D01*
X-473150Y752727D01*
X-473057Y752740D01*
X-472965Y752758D01*
X-472873Y752779D01*
X-472782Y752804D01*
X-472692Y752833D01*
X-472604Y752866D01*
X-472517Y752902D01*
X-472432Y752942D01*
X-472348Y752985D01*
X-472267Y753032D01*
X-472187Y753082D01*
X-472109Y753135D01*
X-472034Y753192D01*
X-471961Y753251D01*
X-471891Y753314D01*
X-471823Y753379D01*
X-471958Y756462D02*
X-471960Y756527D01*
X-471966Y756591D01*
X-471976Y756655D01*
X-471989Y756719D01*
X-472007Y756781D01*
X-472028Y756842D01*
X-472052Y756902D01*
X-472081Y756960D01*
X-472113Y757017D01*
X-472148Y757071D01*
X-472186Y757123D01*
X-472228Y757173D01*
X-472272Y757220D01*
X-472319Y757264D01*
X-472369Y757306D01*
X-472421Y757344D01*
X-472475Y757379D01*
X-472532Y757411D01*
X-472590Y757440D01*
X-472650Y757464D01*
X-472711Y757485D01*
X-472773Y757503D01*
X-472837Y757516D01*
X-472901Y757526D01*
X-472965Y757532D01*
X-473030Y757534D01*
X-473030Y757535D02*
X-473116Y757533D01*
X-473202Y757528D01*
X-473288Y757518D01*
X-473373Y757505D01*
X-473458Y757489D01*
X-473542Y757469D01*
X-473625Y757445D01*
X-473707Y757418D01*
X-473787Y757387D01*
X-473867Y757353D01*
X-473944Y757315D01*
X-474020Y757274D01*
X-474094Y757230D01*
X-474166Y757183D01*
X-474237Y757133D01*
X-472494Y755524D02*
X-472441Y755557D01*
X-472390Y755594D01*
X-472341Y755633D01*
X-472294Y755675D01*
X-472250Y755720D01*
X-472209Y755767D01*
X-472170Y755816D01*
X-472134Y755868D01*
X-472101Y755922D01*
X-472072Y755977D01*
X-472046Y756034D01*
X-472023Y756093D01*
X-472003Y756152D01*
X-471987Y756213D01*
X-471974Y756274D01*
X-471965Y756337D01*
X-471960Y756399D01*
X-471958Y756462D01*
X-473968Y754719D02*
X-474021Y754686D01*
X-474072Y754649D01*
X-474121Y754610D01*
X-474168Y754568D01*
X-474212Y754523D01*
X-474253Y754476D01*
X-474292Y754427D01*
X-474328Y754375D01*
X-474361Y754321D01*
X-474390Y754266D01*
X-474416Y754209D01*
X-474439Y754150D01*
X-474459Y754091D01*
X-474475Y754030D01*
X-474488Y753969D01*
X-474497Y753906D01*
X-474502Y753844D01*
X-474504Y753781D01*
X-473968Y754720D02*
X-472494Y755524D01*
X-477054Y757535D02*
X-478127Y752709D01*
X-479199Y755926D01*
X-480271Y752709D01*
X-481344Y757535D01*
X-484259Y757535D02*
X-484259Y752709D01*
X-484259Y757535D02*
X-485600Y757535D01*
X-485670Y757533D01*
X-485740Y757528D01*
X-485810Y757518D01*
X-485879Y757506D01*
X-485947Y757489D01*
X-486014Y757469D01*
X-486081Y757446D01*
X-486145Y757419D01*
X-486209Y757389D01*
X-486271Y757355D01*
X-486330Y757319D01*
X-486388Y757279D01*
X-486444Y757236D01*
X-486497Y757191D01*
X-486548Y757142D01*
X-486597Y757091D01*
X-486642Y757038D01*
X-486685Y756982D01*
X-486725Y756924D01*
X-486761Y756865D01*
X-486795Y756803D01*
X-486825Y756739D01*
X-486852Y756675D01*
X-486875Y756608D01*
X-486895Y756541D01*
X-486912Y756473D01*
X-486924Y756404D01*
X-486934Y756334D01*
X-486939Y756264D01*
X-486941Y756194D01*
X-486940Y756194D02*
X-486940Y754049D01*
X-486941Y754049D02*
X-486939Y753979D01*
X-486934Y753909D01*
X-486924Y753839D01*
X-486912Y753770D01*
X-486895Y753702D01*
X-486875Y753635D01*
X-486852Y753568D01*
X-486825Y753504D01*
X-486795Y753440D01*
X-486761Y753378D01*
X-486725Y753319D01*
X-486685Y753261D01*
X-486642Y753205D01*
X-486597Y753152D01*
X-486548Y753101D01*
X-486497Y753052D01*
X-486444Y753007D01*
X-486388Y752964D01*
X-486330Y752924D01*
X-486270Y752888D01*
X-486209Y752854D01*
X-486145Y752824D01*
X-486081Y752797D01*
X-486014Y752774D01*
X-485947Y752754D01*
X-485879Y752737D01*
X-485810Y752725D01*
X-485740Y752715D01*
X-485670Y752710D01*
X-485600Y752708D01*
X-485600Y752709D02*
X-484259Y752709D01*
D100*
X-466090Y410631D02*
X-397510Y410631D01*
X-397510Y364911D02*
X-466090Y364911D01*
X-397510Y364911D02*
X-396953Y364918D01*
X-396397Y364938D01*
X-395841Y364972D01*
X-395287Y365019D01*
X-394733Y365080D01*
X-394182Y365155D01*
X-393632Y365242D01*
X-393084Y365343D01*
X-392540Y365458D01*
X-391998Y365586D01*
X-391459Y365726D01*
X-390924Y365880D01*
X-390393Y366047D01*
X-389866Y366227D01*
X-389344Y366419D01*
X-388826Y366625D01*
X-388314Y366842D01*
X-387807Y367072D01*
X-387306Y367315D01*
X-386811Y367569D01*
X-386322Y367836D01*
X-385840Y368114D01*
X-385365Y368404D01*
X-384897Y368706D01*
X-384436Y369019D01*
X-383983Y369343D01*
X-383539Y369677D01*
X-383102Y370023D01*
X-382674Y370379D01*
X-382255Y370746D01*
X-381845Y371122D01*
X-381444Y371508D01*
X-381053Y371904D01*
X-380672Y372310D01*
X-380300Y372725D01*
X-379939Y373148D01*
X-379588Y373580D01*
X-379248Y374021D01*
X-378918Y374470D01*
X-378600Y374926D01*
X-378293Y375391D01*
X-377997Y375862D01*
X-377713Y376341D01*
X-377440Y376826D01*
X-377180Y377318D01*
X-376931Y377817D01*
X-376695Y378321D01*
X-376471Y378830D01*
X-376259Y379345D01*
X-376061Y379865D01*
X-375874Y380390D01*
X-375701Y380919D01*
X-375541Y381452D01*
X-375393Y381989D01*
X-375259Y382529D01*
X-375138Y383073D01*
X-375030Y383619D01*
X-374936Y384167D01*
X-374855Y384718D01*
X-374787Y385271D01*
X-374733Y385825D01*
X-374692Y386380D01*
X-374665Y386936D01*
X-374652Y387493D01*
X-374652Y388049D01*
X-374665Y388606D01*
X-374692Y389162D01*
X-374733Y389717D01*
X-374787Y390271D01*
X-374855Y390824D01*
X-374936Y391375D01*
X-375030Y391923D01*
X-375138Y392469D01*
X-375259Y393013D01*
X-375393Y393553D01*
X-375541Y394090D01*
X-375701Y394623D01*
X-375874Y395152D01*
X-376061Y395677D01*
X-376259Y396197D01*
X-376471Y396712D01*
X-376695Y397221D01*
X-376931Y397725D01*
X-377180Y398224D01*
X-377440Y398716D01*
X-377713Y399201D01*
X-377997Y399680D01*
X-378293Y400151D01*
X-378600Y400616D01*
X-378918Y401072D01*
X-379248Y401521D01*
X-379588Y401962D01*
X-379939Y402394D01*
X-380300Y402817D01*
X-380672Y403232D01*
X-381053Y403638D01*
X-381444Y404034D01*
X-381845Y404420D01*
X-382255Y404796D01*
X-382674Y405163D01*
X-383102Y405519D01*
X-383539Y405865D01*
X-383983Y406199D01*
X-384436Y406523D01*
X-384897Y406836D01*
X-385365Y407138D01*
X-385840Y407428D01*
X-386322Y407706D01*
X-386811Y407973D01*
X-387306Y408227D01*
X-387807Y408470D01*
X-388314Y408700D01*
X-388826Y408917D01*
X-389344Y409123D01*
X-389866Y409315D01*
X-390393Y409495D01*
X-390924Y409662D01*
X-391459Y409816D01*
X-391998Y409956D01*
X-392540Y410084D01*
X-393084Y410199D01*
X-393632Y410300D01*
X-394182Y410387D01*
X-394733Y410462D01*
X-395287Y410523D01*
X-395841Y410570D01*
X-396397Y410604D01*
X-396953Y410624D01*
X-397510Y410631D01*
X-466090Y410631D02*
X-466647Y410624D01*
X-467203Y410604D01*
X-467759Y410570D01*
X-468313Y410523D01*
X-468867Y410462D01*
X-469418Y410387D01*
X-469968Y410300D01*
X-470516Y410199D01*
X-471060Y410084D01*
X-471602Y409956D01*
X-472141Y409816D01*
X-472676Y409662D01*
X-473207Y409495D01*
X-473734Y409315D01*
X-474256Y409123D01*
X-474774Y408917D01*
X-475286Y408700D01*
X-475793Y408470D01*
X-476294Y408227D01*
X-476789Y407973D01*
X-477278Y407706D01*
X-477760Y407428D01*
X-478235Y407138D01*
X-478703Y406836D01*
X-479164Y406523D01*
X-479617Y406199D01*
X-480061Y405865D01*
X-480498Y405519D01*
X-480926Y405163D01*
X-481345Y404796D01*
X-481755Y404420D01*
X-482156Y404034D01*
X-482547Y403638D01*
X-482928Y403232D01*
X-483300Y402817D01*
X-483661Y402394D01*
X-484012Y401962D01*
X-484352Y401521D01*
X-484682Y401072D01*
X-485000Y400616D01*
X-485307Y400151D01*
X-485603Y399680D01*
X-485887Y399201D01*
X-486160Y398716D01*
X-486420Y398224D01*
X-486669Y397725D01*
X-486905Y397221D01*
X-487129Y396712D01*
X-487341Y396197D01*
X-487539Y395677D01*
X-487726Y395152D01*
X-487899Y394623D01*
X-488059Y394090D01*
X-488207Y393553D01*
X-488341Y393013D01*
X-488462Y392469D01*
X-488570Y391923D01*
X-488664Y391375D01*
X-488745Y390824D01*
X-488813Y390271D01*
X-488867Y389717D01*
X-488908Y389162D01*
X-488935Y388606D01*
X-488948Y388049D01*
X-488948Y387493D01*
X-488935Y386936D01*
X-488908Y386380D01*
X-488867Y385825D01*
X-488813Y385271D01*
X-488745Y384718D01*
X-488664Y384167D01*
X-488570Y383619D01*
X-488462Y383073D01*
X-488341Y382529D01*
X-488207Y381989D01*
X-488059Y381452D01*
X-487899Y380919D01*
X-487726Y380390D01*
X-487539Y379865D01*
X-487341Y379345D01*
X-487129Y378830D01*
X-486905Y378321D01*
X-486669Y377817D01*
X-486420Y377318D01*
X-486160Y376826D01*
X-485887Y376341D01*
X-485603Y375862D01*
X-485307Y375391D01*
X-485000Y374926D01*
X-484682Y374470D01*
X-484352Y374021D01*
X-484012Y373580D01*
X-483661Y373148D01*
X-483300Y372725D01*
X-482928Y372310D01*
X-482547Y371904D01*
X-482156Y371508D01*
X-481755Y371122D01*
X-481345Y370746D01*
X-480926Y370379D01*
X-480498Y370023D01*
X-480061Y369677D01*
X-479617Y369343D01*
X-479164Y369019D01*
X-478703Y368706D01*
X-478235Y368404D01*
X-477760Y368114D01*
X-477278Y367836D01*
X-476789Y367569D01*
X-476294Y367315D01*
X-475793Y367072D01*
X-475286Y366842D01*
X-474774Y366625D01*
X-474256Y366419D01*
X-473734Y366227D01*
X-473207Y366047D01*
X-472676Y365880D01*
X-472141Y365726D01*
X-471602Y365586D01*
X-471060Y365458D01*
X-470516Y365343D01*
X-469968Y365242D01*
X-469418Y365155D01*
X-468867Y365080D01*
X-468313Y365019D01*
X-467759Y364972D01*
X-467203Y364938D01*
X-466647Y364918D01*
X-466090Y364911D01*
D97*
X-429191Y359457D02*
X-427582Y361736D01*
X-429191Y359457D02*
X-430800Y361736D01*
X-429191Y359457D02*
X-429191Y356910D01*
X-433337Y360664D02*
X-434677Y361736D01*
X-434677Y356910D01*
X-433337Y356910D02*
X-436018Y356910D01*
D100*
X-361526Y358560D02*
X-361526Y427140D01*
X-315806Y427140D02*
X-315806Y358560D01*
X-315806Y427140D02*
X-315813Y427697D01*
X-315833Y428253D01*
X-315867Y428809D01*
X-315914Y429363D01*
X-315975Y429917D01*
X-316050Y430468D01*
X-316137Y431018D01*
X-316238Y431566D01*
X-316353Y432110D01*
X-316481Y432652D01*
X-316621Y433191D01*
X-316775Y433726D01*
X-316942Y434257D01*
X-317122Y434784D01*
X-317314Y435306D01*
X-317520Y435824D01*
X-317737Y436336D01*
X-317967Y436843D01*
X-318210Y437344D01*
X-318464Y437839D01*
X-318731Y438328D01*
X-319009Y438810D01*
X-319299Y439285D01*
X-319601Y439753D01*
X-319914Y440214D01*
X-320238Y440667D01*
X-320572Y441111D01*
X-320918Y441548D01*
X-321274Y441976D01*
X-321641Y442395D01*
X-322017Y442805D01*
X-322403Y443206D01*
X-322799Y443597D01*
X-323205Y443978D01*
X-323620Y444350D01*
X-324043Y444711D01*
X-324475Y445062D01*
X-324916Y445402D01*
X-325365Y445732D01*
X-325821Y446050D01*
X-326286Y446357D01*
X-326757Y446653D01*
X-327236Y446937D01*
X-327721Y447210D01*
X-328213Y447470D01*
X-328712Y447719D01*
X-329216Y447955D01*
X-329725Y448179D01*
X-330240Y448391D01*
X-330760Y448589D01*
X-331285Y448776D01*
X-331814Y448949D01*
X-332347Y449109D01*
X-332884Y449257D01*
X-333424Y449391D01*
X-333968Y449512D01*
X-334514Y449620D01*
X-335062Y449714D01*
X-335613Y449795D01*
X-336166Y449863D01*
X-336720Y449917D01*
X-337275Y449958D01*
X-337831Y449985D01*
X-338388Y449998D01*
X-338944Y449998D01*
X-339501Y449985D01*
X-340057Y449958D01*
X-340612Y449917D01*
X-341166Y449863D01*
X-341719Y449795D01*
X-342270Y449714D01*
X-342818Y449620D01*
X-343364Y449512D01*
X-343908Y449391D01*
X-344448Y449257D01*
X-344985Y449109D01*
X-345518Y448949D01*
X-346047Y448776D01*
X-346572Y448589D01*
X-347092Y448391D01*
X-347607Y448179D01*
X-348116Y447955D01*
X-348620Y447719D01*
X-349119Y447470D01*
X-349611Y447210D01*
X-350096Y446937D01*
X-350575Y446653D01*
X-351046Y446357D01*
X-351511Y446050D01*
X-351967Y445732D01*
X-352416Y445402D01*
X-352857Y445062D01*
X-353289Y444711D01*
X-353712Y444350D01*
X-354127Y443978D01*
X-354533Y443597D01*
X-354929Y443206D01*
X-355315Y442805D01*
X-355691Y442395D01*
X-356058Y441976D01*
X-356414Y441548D01*
X-356760Y441111D01*
X-357094Y440667D01*
X-357418Y440214D01*
X-357731Y439753D01*
X-358033Y439285D01*
X-358323Y438810D01*
X-358601Y438328D01*
X-358868Y437839D01*
X-359122Y437344D01*
X-359365Y436843D01*
X-359595Y436336D01*
X-359812Y435824D01*
X-360018Y435306D01*
X-360210Y434784D01*
X-360390Y434257D01*
X-360557Y433726D01*
X-360711Y433191D01*
X-360851Y432652D01*
X-360979Y432110D01*
X-361094Y431566D01*
X-361195Y431018D01*
X-361282Y430468D01*
X-361357Y429917D01*
X-361418Y429363D01*
X-361465Y428809D01*
X-361499Y428253D01*
X-361519Y427697D01*
X-361526Y427140D01*
X-361526Y358560D02*
X-361519Y358003D01*
X-361499Y357447D01*
X-361465Y356891D01*
X-361418Y356337D01*
X-361357Y355783D01*
X-361282Y355232D01*
X-361195Y354682D01*
X-361094Y354134D01*
X-360979Y353590D01*
X-360851Y353048D01*
X-360711Y352509D01*
X-360557Y351974D01*
X-360390Y351443D01*
X-360210Y350916D01*
X-360018Y350394D01*
X-359812Y349876D01*
X-359595Y349364D01*
X-359365Y348857D01*
X-359122Y348356D01*
X-358868Y347861D01*
X-358601Y347372D01*
X-358323Y346890D01*
X-358033Y346415D01*
X-357731Y345947D01*
X-357418Y345486D01*
X-357094Y345033D01*
X-356760Y344589D01*
X-356414Y344152D01*
X-356058Y343724D01*
X-355691Y343305D01*
X-355315Y342895D01*
X-354929Y342494D01*
X-354533Y342103D01*
X-354127Y341722D01*
X-353712Y341350D01*
X-353289Y340989D01*
X-352857Y340638D01*
X-352416Y340298D01*
X-351967Y339968D01*
X-351511Y339650D01*
X-351046Y339343D01*
X-350575Y339047D01*
X-350096Y338763D01*
X-349611Y338490D01*
X-349119Y338230D01*
X-348620Y337981D01*
X-348116Y337745D01*
X-347607Y337521D01*
X-347092Y337309D01*
X-346572Y337111D01*
X-346047Y336924D01*
X-345518Y336751D01*
X-344985Y336591D01*
X-344448Y336443D01*
X-343908Y336309D01*
X-343364Y336188D01*
X-342818Y336080D01*
X-342270Y335986D01*
X-341719Y335905D01*
X-341166Y335837D01*
X-340612Y335783D01*
X-340057Y335742D01*
X-339501Y335715D01*
X-338944Y335702D01*
X-338388Y335702D01*
X-337831Y335715D01*
X-337275Y335742D01*
X-336720Y335783D01*
X-336166Y335837D01*
X-335613Y335905D01*
X-335062Y335986D01*
X-334514Y336080D01*
X-333968Y336188D01*
X-333424Y336309D01*
X-332884Y336443D01*
X-332347Y336591D01*
X-331814Y336751D01*
X-331285Y336924D01*
X-330760Y337111D01*
X-330240Y337309D01*
X-329725Y337521D01*
X-329216Y337745D01*
X-328712Y337981D01*
X-328213Y338230D01*
X-327721Y338490D01*
X-327236Y338763D01*
X-326757Y339047D01*
X-326286Y339343D01*
X-325821Y339650D01*
X-325365Y339968D01*
X-324916Y340298D01*
X-324475Y340638D01*
X-324043Y340989D01*
X-323620Y341350D01*
X-323205Y341722D01*
X-322799Y342103D01*
X-322403Y342494D01*
X-322017Y342895D01*
X-321641Y343305D01*
X-321274Y343724D01*
X-320918Y344152D01*
X-320572Y344589D01*
X-320238Y345033D01*
X-319914Y345486D01*
X-319601Y345947D01*
X-319299Y346415D01*
X-319009Y346890D01*
X-318731Y347372D01*
X-318464Y347861D01*
X-318210Y348356D01*
X-317967Y348857D01*
X-317737Y349364D01*
X-317520Y349876D01*
X-317314Y350394D01*
X-317122Y350916D01*
X-316942Y351443D01*
X-316775Y351974D01*
X-316621Y352509D01*
X-316481Y353048D01*
X-316353Y353590D01*
X-316238Y354134D01*
X-316137Y354682D01*
X-316050Y355232D01*
X-315975Y355783D01*
X-315914Y356337D01*
X-315867Y356891D01*
X-315833Y357447D01*
X-315813Y358003D01*
X-315806Y358560D01*
D97*
X-307805Y388632D02*
X-310084Y390241D01*
X-307805Y391849D01*
X-310084Y390241D02*
X-312631Y390241D01*
X-307804Y395861D02*
X-307806Y395929D01*
X-307812Y395996D01*
X-307821Y396063D01*
X-307834Y396130D01*
X-307851Y396195D01*
X-307872Y396260D01*
X-307896Y396323D01*
X-307924Y396385D01*
X-307955Y396445D01*
X-307989Y396503D01*
X-308027Y396559D01*
X-308067Y396614D01*
X-308111Y396665D01*
X-308158Y396714D01*
X-308207Y396761D01*
X-308258Y396805D01*
X-308313Y396845D01*
X-308369Y396883D01*
X-308427Y396917D01*
X-308487Y396948D01*
X-308549Y396976D01*
X-308612Y397000D01*
X-308677Y397021D01*
X-308742Y397038D01*
X-308809Y397051D01*
X-308876Y397060D01*
X-308943Y397066D01*
X-309011Y397068D01*
X-307805Y395861D02*
X-307807Y395783D01*
X-307813Y395705D01*
X-307823Y395628D01*
X-307836Y395551D01*
X-307854Y395475D01*
X-307875Y395400D01*
X-307900Y395326D01*
X-307929Y395254D01*
X-307961Y395183D01*
X-307997Y395114D01*
X-308036Y395046D01*
X-308079Y394981D01*
X-308125Y394918D01*
X-308174Y394857D01*
X-308226Y394799D01*
X-308281Y394744D01*
X-308338Y394691D01*
X-308398Y394642D01*
X-308461Y394595D01*
X-308526Y394552D01*
X-308592Y394512D01*
X-308661Y394475D01*
X-308732Y394442D01*
X-308804Y394412D01*
X-308878Y394386D01*
X-309949Y396666D02*
X-309900Y396715D01*
X-309848Y396762D01*
X-309793Y396805D01*
X-309736Y396846D01*
X-309677Y396884D01*
X-309616Y396918D01*
X-309553Y396949D01*
X-309489Y396977D01*
X-309423Y397001D01*
X-309357Y397021D01*
X-309289Y397038D01*
X-309220Y397051D01*
X-309151Y397060D01*
X-309081Y397066D01*
X-309011Y397068D01*
X-309950Y396665D02*
X-312631Y394386D01*
X-312631Y397067D01*
X-326324Y605123D02*
X-331224Y605123D01*
X-331224Y600223D01*
X-295124Y564123D02*
X-290224Y564123D01*
X-290224Y569023D01*
X-331224Y569023D02*
X-331224Y564123D01*
X-326324Y564123D01*
D101*
X-281724Y597623D02*
X-281722Y597686D01*
X-281716Y597748D01*
X-281706Y597810D01*
X-281693Y597872D01*
X-281675Y597932D01*
X-281654Y597991D01*
X-281629Y598049D01*
X-281600Y598105D01*
X-281568Y598159D01*
X-281533Y598211D01*
X-281495Y598260D01*
X-281453Y598308D01*
X-281409Y598352D01*
X-281361Y598394D01*
X-281312Y598432D01*
X-281260Y598467D01*
X-281206Y598499D01*
X-281150Y598528D01*
X-281092Y598553D01*
X-281033Y598574D01*
X-280973Y598592D01*
X-280911Y598605D01*
X-280849Y598615D01*
X-280787Y598621D01*
X-280724Y598623D01*
X-280661Y598621D01*
X-280599Y598615D01*
X-280537Y598605D01*
X-280475Y598592D01*
X-280415Y598574D01*
X-280356Y598553D01*
X-280298Y598528D01*
X-280242Y598499D01*
X-280188Y598467D01*
X-280136Y598432D01*
X-280087Y598394D01*
X-280039Y598352D01*
X-279995Y598308D01*
X-279953Y598260D01*
X-279915Y598211D01*
X-279880Y598159D01*
X-279848Y598105D01*
X-279819Y598049D01*
X-279794Y597991D01*
X-279773Y597932D01*
X-279755Y597872D01*
X-279742Y597810D01*
X-279732Y597748D01*
X-279726Y597686D01*
X-279724Y597623D01*
X-279726Y597560D01*
X-279732Y597498D01*
X-279742Y597436D01*
X-279755Y597374D01*
X-279773Y597314D01*
X-279794Y597255D01*
X-279819Y597197D01*
X-279848Y597141D01*
X-279880Y597087D01*
X-279915Y597035D01*
X-279953Y596986D01*
X-279995Y596938D01*
X-280039Y596894D01*
X-280087Y596852D01*
X-280136Y596814D01*
X-280188Y596779D01*
X-280242Y596747D01*
X-280298Y596718D01*
X-280356Y596693D01*
X-280415Y596672D01*
X-280475Y596654D01*
X-280537Y596641D01*
X-280599Y596631D01*
X-280661Y596625D01*
X-280724Y596623D01*
X-280787Y596625D01*
X-280849Y596631D01*
X-280911Y596641D01*
X-280973Y596654D01*
X-281033Y596672D01*
X-281092Y596693D01*
X-281150Y596718D01*
X-281206Y596747D01*
X-281260Y596779D01*
X-281312Y596814D01*
X-281361Y596852D01*
X-281409Y596894D01*
X-281453Y596938D01*
X-281495Y596986D01*
X-281533Y597035D01*
X-281568Y597087D01*
X-281600Y597141D01*
X-281629Y597197D01*
X-281654Y597255D01*
X-281675Y597314D01*
X-281693Y597374D01*
X-281706Y597436D01*
X-281716Y597498D01*
X-281722Y597560D01*
X-281724Y597623D01*
D97*
X-290224Y600223D02*
X-290224Y605123D01*
X-295124Y605123D01*
D99*
X-292490Y615197D02*
X-292490Y626909D01*
X-291188Y615197D02*
X-293791Y615197D01*
X-293791Y626909D02*
X-291188Y626909D01*
X-298895Y626909D02*
X-298895Y615197D01*
X-302799Y620402D02*
X-298895Y626909D01*
X-302799Y620402D02*
X-306703Y626909D01*
X-306703Y615197D01*
X-312528Y618450D02*
X-312528Y626909D01*
X-312529Y618450D02*
X-312531Y618338D01*
X-312537Y618226D01*
X-312546Y618114D01*
X-312560Y618002D01*
X-312577Y617891D01*
X-312599Y617781D01*
X-312624Y617672D01*
X-312652Y617563D01*
X-312685Y617455D01*
X-312721Y617349D01*
X-312761Y617244D01*
X-312804Y617141D01*
X-312851Y617039D01*
X-312902Y616938D01*
X-312956Y616840D01*
X-313013Y616743D01*
X-313073Y616649D01*
X-313137Y616556D01*
X-313204Y616466D01*
X-313274Y616378D01*
X-313347Y616293D01*
X-313423Y616210D01*
X-313502Y616130D01*
X-313583Y616053D01*
X-313667Y615978D01*
X-313754Y615907D01*
X-313843Y615838D01*
X-313934Y615773D01*
X-314028Y615711D01*
X-314123Y615652D01*
X-314221Y615596D01*
X-314320Y615544D01*
X-314421Y615495D01*
X-314524Y615450D01*
X-314628Y615408D01*
X-314734Y615370D01*
X-314841Y615336D01*
X-314949Y615305D01*
X-315058Y615279D01*
X-315168Y615255D01*
X-315279Y615236D01*
X-315390Y615221D01*
X-315502Y615209D01*
X-315614Y615201D01*
X-315726Y615197D01*
X-315838Y615197D01*
X-315950Y615201D01*
X-316062Y615209D01*
X-316174Y615221D01*
X-316285Y615236D01*
X-316396Y615255D01*
X-316506Y615279D01*
X-316615Y615305D01*
X-316723Y615336D01*
X-316830Y615370D01*
X-316936Y615408D01*
X-317040Y615450D01*
X-317143Y615495D01*
X-317244Y615544D01*
X-317343Y615596D01*
X-317441Y615652D01*
X-317536Y615711D01*
X-317630Y615773D01*
X-317721Y615838D01*
X-317810Y615907D01*
X-317897Y615978D01*
X-317981Y616053D01*
X-318062Y616130D01*
X-318141Y616210D01*
X-318217Y616293D01*
X-318290Y616378D01*
X-318360Y616466D01*
X-318427Y616556D01*
X-318491Y616649D01*
X-318551Y616743D01*
X-318608Y616840D01*
X-318662Y616938D01*
X-318713Y617039D01*
X-318760Y617141D01*
X-318803Y617244D01*
X-318843Y617349D01*
X-318879Y617455D01*
X-318912Y617563D01*
X-318940Y617672D01*
X-318965Y617781D01*
X-318987Y617891D01*
X-319004Y618002D01*
X-319018Y618114D01*
X-319027Y618226D01*
X-319033Y618338D01*
X-319035Y618450D01*
X-319035Y626909D01*
D100*
X-599599Y179917D02*
X-599581Y181365D01*
X-599528Y182812D01*
X-599439Y184257D01*
X-599315Y185700D01*
X-599155Y187139D01*
X-598960Y188574D01*
X-598730Y190004D01*
X-598465Y191427D01*
X-598165Y192844D01*
X-597831Y194253D01*
X-597462Y195653D01*
X-597058Y197044D01*
X-596621Y198424D01*
X-596150Y199794D01*
X-595646Y201151D01*
X-595108Y202495D01*
X-594537Y203826D01*
X-593934Y205143D01*
X-593299Y206444D01*
X-592632Y207729D01*
X-591934Y208998D01*
X-591205Y210249D01*
X-590445Y211482D01*
X-589656Y212696D01*
X-588837Y213890D01*
X-587988Y215063D01*
X-587111Y216216D01*
X-586207Y217346D01*
X-585274Y218454D01*
X-584315Y219539D01*
X-583330Y220600D01*
X-582318Y221636D01*
X-581282Y222648D01*
X-580221Y223633D01*
X-579136Y224592D01*
X-578028Y225525D01*
X-576898Y226429D01*
X-575745Y227306D01*
X-574572Y228155D01*
X-573378Y228974D01*
X-572164Y229763D01*
X-570931Y230523D01*
X-569680Y231252D01*
X-568411Y231950D01*
X-567126Y232617D01*
X-565825Y233252D01*
X-564508Y233855D01*
X-563177Y234426D01*
X-561833Y234964D01*
X-560476Y235468D01*
X-559106Y235939D01*
X-557726Y236376D01*
X-556335Y236780D01*
X-554935Y237149D01*
X-553526Y237483D01*
X-552109Y237783D01*
X-550686Y238048D01*
X-549256Y238278D01*
X-547821Y238473D01*
X-546382Y238633D01*
X-544939Y238757D01*
X-543494Y238846D01*
X-542047Y238899D01*
X-540599Y238917D01*
X-539151Y238899D01*
X-537704Y238846D01*
X-536259Y238757D01*
X-534816Y238633D01*
X-533377Y238473D01*
X-531942Y238278D01*
X-530512Y238048D01*
X-529089Y237783D01*
X-527672Y237483D01*
X-526263Y237149D01*
X-524863Y236780D01*
X-523472Y236376D01*
X-522092Y235939D01*
X-520722Y235468D01*
X-519365Y234964D01*
X-518021Y234426D01*
X-516690Y233855D01*
X-515373Y233252D01*
X-514072Y232617D01*
X-512787Y231950D01*
X-511518Y231252D01*
X-510267Y230523D01*
X-509034Y229763D01*
X-507820Y228974D01*
X-506626Y228155D01*
X-505453Y227306D01*
X-504300Y226429D01*
X-503170Y225525D01*
X-502062Y224592D01*
X-500977Y223633D01*
X-499916Y222648D01*
X-498880Y221636D01*
X-497868Y220600D01*
X-496883Y219539D01*
X-495924Y218454D01*
X-494991Y217346D01*
X-494087Y216216D01*
X-493210Y215063D01*
X-492361Y213890D01*
X-491542Y212696D01*
X-490753Y211482D01*
X-489993Y210249D01*
X-489264Y208998D01*
X-488566Y207729D01*
X-487899Y206444D01*
X-487264Y205143D01*
X-486661Y203826D01*
X-486090Y202495D01*
X-485552Y201151D01*
X-485048Y199794D01*
X-484577Y198424D01*
X-484140Y197044D01*
X-483736Y195653D01*
X-483367Y194253D01*
X-483033Y192844D01*
X-482733Y191427D01*
X-482468Y190004D01*
X-482238Y188574D01*
X-482043Y187139D01*
X-481883Y185700D01*
X-481759Y184257D01*
X-481670Y182812D01*
X-481617Y181365D01*
X-481599Y179917D01*
X-481617Y178469D01*
X-481670Y177022D01*
X-481759Y175577D01*
X-481883Y174134D01*
X-482043Y172695D01*
X-482238Y171260D01*
X-482468Y169830D01*
X-482733Y168407D01*
X-483033Y166990D01*
X-483367Y165581D01*
X-483736Y164181D01*
X-484140Y162790D01*
X-484577Y161410D01*
X-485048Y160040D01*
X-485552Y158683D01*
X-486090Y157339D01*
X-486661Y156008D01*
X-487264Y154691D01*
X-487899Y153390D01*
X-488566Y152105D01*
X-489264Y150836D01*
X-489993Y149585D01*
X-490753Y148352D01*
X-491542Y147138D01*
X-492361Y145944D01*
X-493210Y144771D01*
X-494087Y143618D01*
X-494991Y142488D01*
X-495924Y141380D01*
X-496883Y140295D01*
X-497868Y139234D01*
X-498880Y138198D01*
X-499916Y137186D01*
X-500977Y136201D01*
X-502062Y135242D01*
X-503170Y134309D01*
X-504300Y133405D01*
X-505453Y132528D01*
X-506626Y131679D01*
X-507820Y130860D01*
X-509034Y130071D01*
X-510267Y129311D01*
X-511518Y128582D01*
X-512787Y127884D01*
X-514072Y127217D01*
X-515373Y126582D01*
X-516690Y125979D01*
X-518021Y125408D01*
X-519365Y124870D01*
X-520722Y124366D01*
X-522092Y123895D01*
X-523472Y123458D01*
X-524863Y123054D01*
X-526263Y122685D01*
X-527672Y122351D01*
X-529089Y122051D01*
X-530512Y121786D01*
X-531942Y121556D01*
X-533377Y121361D01*
X-534816Y121201D01*
X-536259Y121077D01*
X-537704Y120988D01*
X-539151Y120935D01*
X-540599Y120917D01*
X-542047Y120935D01*
X-543494Y120988D01*
X-544939Y121077D01*
X-546382Y121201D01*
X-547821Y121361D01*
X-549256Y121556D01*
X-550686Y121786D01*
X-552109Y122051D01*
X-553526Y122351D01*
X-554935Y122685D01*
X-556335Y123054D01*
X-557726Y123458D01*
X-559106Y123895D01*
X-560476Y124366D01*
X-561833Y124870D01*
X-563177Y125408D01*
X-564508Y125979D01*
X-565825Y126582D01*
X-567126Y127217D01*
X-568411Y127884D01*
X-569680Y128582D01*
X-570931Y129311D01*
X-572164Y130071D01*
X-573378Y130860D01*
X-574572Y131679D01*
X-575745Y132528D01*
X-576898Y133405D01*
X-578028Y134309D01*
X-579136Y135242D01*
X-580221Y136201D01*
X-581282Y137186D01*
X-582318Y138198D01*
X-583330Y139234D01*
X-584315Y140295D01*
X-585274Y141380D01*
X-586207Y142488D01*
X-587111Y143618D01*
X-587988Y144771D01*
X-588837Y145944D01*
X-589656Y147138D01*
X-590445Y148352D01*
X-591205Y149585D01*
X-591934Y150836D01*
X-592632Y152105D01*
X-593299Y153390D01*
X-593934Y154691D01*
X-594537Y156008D01*
X-595108Y157339D01*
X-595646Y158683D01*
X-596150Y160040D01*
X-596621Y161410D01*
X-597058Y162790D01*
X-597462Y164181D01*
X-597831Y165581D01*
X-598165Y166990D01*
X-598465Y168407D01*
X-598730Y169830D01*
X-598960Y171260D01*
X-599155Y172695D01*
X-599315Y174134D01*
X-599439Y175577D01*
X-599528Y177022D01*
X-599581Y178469D01*
X-599599Y179917D01*
D97*
X-476323Y166791D02*
X-476323Y165451D01*
X-476322Y166791D02*
X-476324Y166862D01*
X-476330Y166934D01*
X-476339Y167004D01*
X-476352Y167074D01*
X-476369Y167144D01*
X-476390Y167212D01*
X-476414Y167279D01*
X-476442Y167345D01*
X-476473Y167409D01*
X-476508Y167472D01*
X-476546Y167532D01*
X-476587Y167591D01*
X-476631Y167647D01*
X-476678Y167701D01*
X-476727Y167752D01*
X-476780Y167800D01*
X-476835Y167846D01*
X-476892Y167888D01*
X-476952Y167928D01*
X-477013Y167964D01*
X-477077Y167997D01*
X-477142Y168026D01*
X-477208Y168052D01*
X-477276Y168075D01*
X-477345Y168094D01*
X-477415Y168109D01*
X-477485Y168120D01*
X-477556Y168128D01*
X-477627Y168132D01*
X-477699Y168132D01*
X-477770Y168128D01*
X-477841Y168120D01*
X-477911Y168109D01*
X-477981Y168094D01*
X-478050Y168075D01*
X-478118Y168052D01*
X-478184Y168026D01*
X-478249Y167997D01*
X-478313Y167964D01*
X-478374Y167928D01*
X-478434Y167888D01*
X-478491Y167846D01*
X-478546Y167800D01*
X-478599Y167752D01*
X-478648Y167701D01*
X-478695Y167647D01*
X-478739Y167591D01*
X-478780Y167532D01*
X-478818Y167472D01*
X-478853Y167409D01*
X-478884Y167345D01*
X-478912Y167279D01*
X-478936Y167212D01*
X-478957Y167144D01*
X-478974Y167074D01*
X-478987Y167004D01*
X-478996Y166934D01*
X-479002Y166862D01*
X-479004Y166791D01*
X-479004Y165451D01*
X-474178Y165451D01*
X-474178Y166791D01*
X-474180Y166856D01*
X-474186Y166920D01*
X-474196Y166984D01*
X-474209Y167048D01*
X-474227Y167110D01*
X-474248Y167171D01*
X-474272Y167231D01*
X-474301Y167289D01*
X-474333Y167346D01*
X-474368Y167400D01*
X-474406Y167452D01*
X-474448Y167502D01*
X-474492Y167549D01*
X-474539Y167593D01*
X-474589Y167635D01*
X-474641Y167673D01*
X-474695Y167708D01*
X-474752Y167740D01*
X-474810Y167769D01*
X-474870Y167793D01*
X-474931Y167814D01*
X-474993Y167832D01*
X-475057Y167845D01*
X-475121Y167855D01*
X-475185Y167861D01*
X-475250Y167863D01*
X-475315Y167861D01*
X-475379Y167855D01*
X-475443Y167845D01*
X-475507Y167832D01*
X-475569Y167814D01*
X-475630Y167793D01*
X-475690Y167769D01*
X-475748Y167740D01*
X-475805Y167708D01*
X-475859Y167673D01*
X-475911Y167635D01*
X-475961Y167593D01*
X-476008Y167549D01*
X-476052Y167502D01*
X-476094Y167452D01*
X-476132Y167400D01*
X-476167Y167346D01*
X-476199Y167289D01*
X-476228Y167231D01*
X-476252Y167171D01*
X-476273Y167110D01*
X-476291Y167048D01*
X-476304Y166984D01*
X-476314Y166920D01*
X-476320Y166856D01*
X-476322Y166791D01*
X-477663Y170791D02*
X-474178Y170791D01*
X-477663Y170790D02*
X-477734Y170792D01*
X-477806Y170798D01*
X-477876Y170807D01*
X-477946Y170820D01*
X-478016Y170837D01*
X-478084Y170858D01*
X-478151Y170882D01*
X-478217Y170910D01*
X-478281Y170941D01*
X-478344Y170976D01*
X-478404Y171014D01*
X-478463Y171055D01*
X-478519Y171099D01*
X-478573Y171146D01*
X-478624Y171195D01*
X-478672Y171248D01*
X-478718Y171303D01*
X-478760Y171360D01*
X-478800Y171420D01*
X-478836Y171481D01*
X-478869Y171545D01*
X-478898Y171610D01*
X-478924Y171676D01*
X-478947Y171744D01*
X-478966Y171813D01*
X-478981Y171883D01*
X-478992Y171953D01*
X-479000Y172024D01*
X-479004Y172095D01*
X-479004Y172167D01*
X-479000Y172238D01*
X-478992Y172309D01*
X-478981Y172379D01*
X-478966Y172449D01*
X-478947Y172518D01*
X-478924Y172586D01*
X-478898Y172652D01*
X-478869Y172717D01*
X-478836Y172781D01*
X-478800Y172842D01*
X-478760Y172902D01*
X-478718Y172959D01*
X-478672Y173014D01*
X-478624Y173067D01*
X-478573Y173116D01*
X-478519Y173163D01*
X-478463Y173207D01*
X-478404Y173248D01*
X-478344Y173286D01*
X-478281Y173321D01*
X-478217Y173352D01*
X-478151Y173380D01*
X-478084Y173404D01*
X-478016Y173425D01*
X-477946Y173442D01*
X-477876Y173455D01*
X-477806Y173464D01*
X-477734Y173470D01*
X-477663Y173472D01*
X-474178Y173472D01*
X-474178Y176277D02*
X-474178Y178958D01*
X-479004Y176277D01*
X-479004Y178958D01*
X-474178Y181398D02*
X-474178Y184079D01*
X-479004Y181398D01*
X-479004Y184079D01*
X-479004Y186903D02*
X-479004Y189048D01*
X-479004Y186903D02*
X-474178Y186903D01*
X-474178Y189048D01*
X-476323Y188512D02*
X-476323Y186903D01*
X-474178Y191702D02*
X-479004Y191702D01*
X-474178Y191702D02*
X-474178Y193043D01*
X-474177Y193043D02*
X-474179Y193114D01*
X-474185Y193186D01*
X-474194Y193256D01*
X-474207Y193326D01*
X-474224Y193396D01*
X-474245Y193464D01*
X-474269Y193531D01*
X-474297Y193597D01*
X-474328Y193661D01*
X-474363Y193724D01*
X-474401Y193784D01*
X-474442Y193843D01*
X-474486Y193899D01*
X-474533Y193953D01*
X-474582Y194004D01*
X-474635Y194052D01*
X-474690Y194098D01*
X-474747Y194140D01*
X-474807Y194180D01*
X-474868Y194216D01*
X-474932Y194249D01*
X-474997Y194278D01*
X-475063Y194304D01*
X-475131Y194327D01*
X-475200Y194346D01*
X-475270Y194361D01*
X-475340Y194372D01*
X-475411Y194380D01*
X-475482Y194384D01*
X-475554Y194384D01*
X-475625Y194380D01*
X-475696Y194372D01*
X-475766Y194361D01*
X-475836Y194346D01*
X-475905Y194327D01*
X-475973Y194304D01*
X-476039Y194278D01*
X-476104Y194249D01*
X-476168Y194216D01*
X-476229Y194180D01*
X-476289Y194140D01*
X-476346Y194098D01*
X-476401Y194052D01*
X-476454Y194004D01*
X-476503Y193953D01*
X-476550Y193899D01*
X-476594Y193843D01*
X-476635Y193784D01*
X-476673Y193724D01*
X-476708Y193661D01*
X-476739Y193597D01*
X-476767Y193531D01*
X-476791Y193464D01*
X-476812Y193396D01*
X-476829Y193326D01*
X-476842Y193256D01*
X-476851Y193186D01*
X-476857Y193114D01*
X-476859Y193043D01*
X-476859Y191702D01*
X-476859Y193311D02*
X-479004Y194384D01*
D100*
X-462267Y274361D02*
X-462267Y290361D01*
X-453267Y260361D02*
X-427267Y260361D01*
X-418267Y274361D02*
X-418267Y290361D01*
X-427267Y304361D02*
X-453267Y304361D01*
X-422267Y274361D02*
X-418267Y274361D01*
X-418267Y290361D02*
X-422267Y290361D01*
X-458267Y274361D02*
X-462267Y274361D01*
X-462267Y290361D02*
X-458267Y290361D01*
X-452967Y282361D02*
X-452963Y282673D01*
X-452952Y282984D01*
X-452933Y283295D01*
X-452906Y283606D01*
X-452871Y283916D01*
X-452830Y284224D01*
X-452780Y284532D01*
X-452723Y284839D01*
X-452658Y285144D01*
X-452586Y285447D01*
X-452507Y285748D01*
X-452420Y286048D01*
X-452326Y286345D01*
X-452225Y286640D01*
X-452116Y286932D01*
X-452000Y287221D01*
X-451877Y287508D01*
X-451748Y287791D01*
X-451611Y288071D01*
X-451467Y288348D01*
X-451317Y288621D01*
X-451160Y288890D01*
X-450997Y289155D01*
X-450827Y289417D01*
X-450650Y289674D01*
X-450468Y289926D01*
X-450279Y290174D01*
X-450084Y290418D01*
X-449884Y290656D01*
X-449677Y290890D01*
X-449465Y291118D01*
X-449247Y291341D01*
X-449024Y291559D01*
X-448796Y291771D01*
X-448562Y291978D01*
X-448324Y292178D01*
X-448080Y292373D01*
X-447832Y292562D01*
X-447580Y292744D01*
X-447323Y292921D01*
X-447061Y293091D01*
X-446796Y293254D01*
X-446527Y293411D01*
X-446254Y293561D01*
X-445977Y293705D01*
X-445697Y293842D01*
X-445414Y293971D01*
X-445127Y294094D01*
X-444838Y294210D01*
X-444546Y294319D01*
X-444251Y294420D01*
X-443954Y294514D01*
X-443654Y294601D01*
X-443353Y294680D01*
X-443050Y294752D01*
X-442745Y294817D01*
X-442438Y294874D01*
X-442130Y294924D01*
X-441822Y294965D01*
X-441512Y295000D01*
X-441201Y295027D01*
X-440890Y295046D01*
X-440579Y295057D01*
X-440267Y295061D01*
X-439955Y295057D01*
X-439644Y295046D01*
X-439333Y295027D01*
X-439022Y295000D01*
X-438712Y294965D01*
X-438404Y294924D01*
X-438096Y294874D01*
X-437789Y294817D01*
X-437484Y294752D01*
X-437181Y294680D01*
X-436880Y294601D01*
X-436580Y294514D01*
X-436283Y294420D01*
X-435988Y294319D01*
X-435696Y294210D01*
X-435407Y294094D01*
X-435120Y293971D01*
X-434837Y293842D01*
X-434557Y293705D01*
X-434280Y293561D01*
X-434007Y293411D01*
X-433738Y293254D01*
X-433473Y293091D01*
X-433211Y292921D01*
X-432954Y292744D01*
X-432702Y292562D01*
X-432454Y292373D01*
X-432210Y292178D01*
X-431972Y291978D01*
X-431738Y291771D01*
X-431510Y291559D01*
X-431287Y291341D01*
X-431069Y291118D01*
X-430857Y290890D01*
X-430650Y290656D01*
X-430450Y290418D01*
X-430255Y290174D01*
X-430066Y289926D01*
X-429884Y289674D01*
X-429707Y289417D01*
X-429537Y289155D01*
X-429374Y288890D01*
X-429217Y288621D01*
X-429067Y288348D01*
X-428923Y288071D01*
X-428786Y287791D01*
X-428657Y287508D01*
X-428534Y287221D01*
X-428418Y286932D01*
X-428309Y286640D01*
X-428208Y286345D01*
X-428114Y286048D01*
X-428027Y285748D01*
X-427948Y285447D01*
X-427876Y285144D01*
X-427811Y284839D01*
X-427754Y284532D01*
X-427704Y284224D01*
X-427663Y283916D01*
X-427628Y283606D01*
X-427601Y283295D01*
X-427582Y282984D01*
X-427571Y282673D01*
X-427567Y282361D01*
X-427571Y282049D01*
X-427582Y281738D01*
X-427601Y281427D01*
X-427628Y281116D01*
X-427663Y280806D01*
X-427704Y280498D01*
X-427754Y280190D01*
X-427811Y279883D01*
X-427876Y279578D01*
X-427948Y279275D01*
X-428027Y278974D01*
X-428114Y278674D01*
X-428208Y278377D01*
X-428309Y278082D01*
X-428418Y277790D01*
X-428534Y277501D01*
X-428657Y277214D01*
X-428786Y276931D01*
X-428923Y276651D01*
X-429067Y276374D01*
X-429217Y276101D01*
X-429374Y275832D01*
X-429537Y275567D01*
X-429707Y275305D01*
X-429884Y275048D01*
X-430066Y274796D01*
X-430255Y274548D01*
X-430450Y274304D01*
X-430650Y274066D01*
X-430857Y273832D01*
X-431069Y273604D01*
X-431287Y273381D01*
X-431510Y273163D01*
X-431738Y272951D01*
X-431972Y272744D01*
X-432210Y272544D01*
X-432454Y272349D01*
X-432702Y272160D01*
X-432954Y271978D01*
X-433211Y271801D01*
X-433473Y271631D01*
X-433738Y271468D01*
X-434007Y271311D01*
X-434280Y271161D01*
X-434557Y271017D01*
X-434837Y270880D01*
X-435120Y270751D01*
X-435407Y270628D01*
X-435696Y270512D01*
X-435988Y270403D01*
X-436283Y270302D01*
X-436580Y270208D01*
X-436880Y270121D01*
X-437181Y270042D01*
X-437484Y269970D01*
X-437789Y269905D01*
X-438096Y269848D01*
X-438404Y269798D01*
X-438712Y269757D01*
X-439022Y269722D01*
X-439333Y269695D01*
X-439644Y269676D01*
X-439955Y269665D01*
X-440267Y269661D01*
X-440579Y269665D01*
X-440890Y269676D01*
X-441201Y269695D01*
X-441512Y269722D01*
X-441822Y269757D01*
X-442130Y269798D01*
X-442438Y269848D01*
X-442745Y269905D01*
X-443050Y269970D01*
X-443353Y270042D01*
X-443654Y270121D01*
X-443954Y270208D01*
X-444251Y270302D01*
X-444546Y270403D01*
X-444838Y270512D01*
X-445127Y270628D01*
X-445414Y270751D01*
X-445697Y270880D01*
X-445977Y271017D01*
X-446254Y271161D01*
X-446527Y271311D01*
X-446796Y271468D01*
X-447061Y271631D01*
X-447323Y271801D01*
X-447580Y271978D01*
X-447832Y272160D01*
X-448080Y272349D01*
X-448324Y272544D01*
X-448562Y272744D01*
X-448796Y272951D01*
X-449024Y273163D01*
X-449247Y273381D01*
X-449465Y273604D01*
X-449677Y273832D01*
X-449884Y274066D01*
X-450084Y274304D01*
X-450279Y274548D01*
X-450468Y274796D01*
X-450650Y275048D01*
X-450827Y275305D01*
X-450997Y275567D01*
X-451160Y275832D01*
X-451317Y276101D01*
X-451467Y276374D01*
X-451611Y276651D01*
X-451748Y276931D01*
X-451877Y277214D01*
X-452000Y277501D01*
X-452116Y277790D01*
X-452225Y278082D01*
X-452326Y278377D01*
X-452420Y278674D01*
X-452507Y278974D01*
X-452586Y279275D01*
X-452658Y279578D01*
X-452723Y279883D01*
X-452780Y280190D01*
X-452830Y280498D01*
X-452871Y280806D01*
X-452906Y281116D01*
X-452933Y281427D01*
X-452952Y281738D01*
X-452963Y282049D01*
X-452967Y282361D01*
D97*
X-429079Y253842D02*
X-429077Y253777D01*
X-429071Y253713D01*
X-429061Y253649D01*
X-429048Y253585D01*
X-429030Y253523D01*
X-429009Y253462D01*
X-428985Y253402D01*
X-428956Y253344D01*
X-428924Y253287D01*
X-428889Y253233D01*
X-428851Y253181D01*
X-428809Y253131D01*
X-428765Y253084D01*
X-428718Y253040D01*
X-428668Y252998D01*
X-428616Y252960D01*
X-428562Y252925D01*
X-428505Y252893D01*
X-428447Y252864D01*
X-428387Y252840D01*
X-428326Y252819D01*
X-428264Y252801D01*
X-428200Y252788D01*
X-428136Y252778D01*
X-428072Y252772D01*
X-428007Y252770D01*
X-427913Y252772D01*
X-427819Y252778D01*
X-427725Y252788D01*
X-427632Y252801D01*
X-427540Y252819D01*
X-427448Y252840D01*
X-427357Y252865D01*
X-427267Y252894D01*
X-427179Y252927D01*
X-427092Y252963D01*
X-427007Y253003D01*
X-426923Y253046D01*
X-426842Y253093D01*
X-426762Y253143D01*
X-426684Y253196D01*
X-426609Y253253D01*
X-426536Y253312D01*
X-426466Y253375D01*
X-426398Y253440D01*
X-426533Y256523D02*
X-426535Y256588D01*
X-426541Y256652D01*
X-426551Y256716D01*
X-426564Y256780D01*
X-426582Y256842D01*
X-426603Y256903D01*
X-426627Y256963D01*
X-426656Y257021D01*
X-426688Y257078D01*
X-426723Y257132D01*
X-426761Y257184D01*
X-426803Y257234D01*
X-426847Y257281D01*
X-426894Y257325D01*
X-426944Y257367D01*
X-426996Y257405D01*
X-427050Y257440D01*
X-427107Y257472D01*
X-427165Y257501D01*
X-427225Y257525D01*
X-427286Y257546D01*
X-427348Y257564D01*
X-427412Y257577D01*
X-427476Y257587D01*
X-427540Y257593D01*
X-427605Y257595D01*
X-427605Y257596D02*
X-427691Y257594D01*
X-427777Y257589D01*
X-427863Y257579D01*
X-427948Y257566D01*
X-428033Y257550D01*
X-428117Y257530D01*
X-428200Y257506D01*
X-428282Y257479D01*
X-428362Y257448D01*
X-428442Y257414D01*
X-428519Y257376D01*
X-428595Y257335D01*
X-428669Y257291D01*
X-428741Y257244D01*
X-428812Y257194D01*
X-427069Y255585D02*
X-427016Y255618D01*
X-426965Y255655D01*
X-426916Y255694D01*
X-426869Y255736D01*
X-426825Y255781D01*
X-426784Y255828D01*
X-426745Y255877D01*
X-426709Y255929D01*
X-426676Y255983D01*
X-426647Y256038D01*
X-426621Y256095D01*
X-426598Y256154D01*
X-426578Y256213D01*
X-426562Y256274D01*
X-426549Y256335D01*
X-426540Y256398D01*
X-426535Y256460D01*
X-426533Y256523D01*
X-428544Y254780D02*
X-428597Y254747D01*
X-428648Y254710D01*
X-428697Y254671D01*
X-428744Y254629D01*
X-428788Y254584D01*
X-428829Y254537D01*
X-428868Y254488D01*
X-428904Y254436D01*
X-428937Y254382D01*
X-428966Y254327D01*
X-428992Y254270D01*
X-429015Y254211D01*
X-429035Y254152D01*
X-429051Y254091D01*
X-429064Y254030D01*
X-429073Y253967D01*
X-429078Y253905D01*
X-429080Y253842D01*
X-428544Y254781D02*
X-427069Y255585D01*
X-431630Y257596D02*
X-432702Y252770D01*
X-433774Y255987D01*
X-434847Y252770D01*
X-435919Y257596D01*
X-438895Y257596D02*
X-438895Y252770D01*
X-438359Y252770D02*
X-439431Y252770D01*
X-439431Y257596D02*
X-438359Y257596D01*
X-442918Y257596D02*
X-442918Y252770D01*
X-441578Y257596D02*
X-444259Y257596D01*
X-447742Y252770D02*
X-448815Y252770D01*
X-447742Y252770D02*
X-447677Y252772D01*
X-447613Y252778D01*
X-447549Y252788D01*
X-447485Y252801D01*
X-447423Y252819D01*
X-447362Y252840D01*
X-447302Y252864D01*
X-447244Y252893D01*
X-447187Y252925D01*
X-447133Y252960D01*
X-447081Y252998D01*
X-447031Y253040D01*
X-446984Y253084D01*
X-446940Y253131D01*
X-446898Y253181D01*
X-446860Y253233D01*
X-446825Y253287D01*
X-446793Y253344D01*
X-446764Y253402D01*
X-446740Y253462D01*
X-446719Y253523D01*
X-446701Y253585D01*
X-446688Y253649D01*
X-446678Y253713D01*
X-446672Y253777D01*
X-446670Y253842D01*
X-446670Y256523D01*
X-446672Y256588D01*
X-446678Y256652D01*
X-446688Y256716D01*
X-446701Y256780D01*
X-446719Y256842D01*
X-446740Y256903D01*
X-446764Y256963D01*
X-446793Y257021D01*
X-446825Y257078D01*
X-446860Y257132D01*
X-446898Y257184D01*
X-446940Y257234D01*
X-446984Y257281D01*
X-447031Y257325D01*
X-447081Y257367D01*
X-447133Y257405D01*
X-447187Y257440D01*
X-447244Y257472D01*
X-447302Y257501D01*
X-447362Y257525D01*
X-447423Y257546D01*
X-447485Y257564D01*
X-447549Y257577D01*
X-447613Y257587D01*
X-447677Y257593D01*
X-447742Y257595D01*
X-447742Y257596D02*
X-448815Y257596D01*
X-451453Y257596D02*
X-451453Y252770D01*
X-451453Y255451D02*
X-454134Y255451D01*
X-454134Y257596D02*
X-454134Y252770D01*
X-559602Y323531D02*
X-615602Y323531D01*
X-559602Y323531D02*
X-545602Y323531D01*
X-545602Y253531D01*
X-559602Y253531D01*
X-615602Y253531D01*
X-615602Y323531D01*
X-559602Y323531D02*
X-559602Y253531D01*
D99*
X-619410Y260039D02*
X-631094Y260039D01*
X-619410Y260039D02*
X-619410Y263285D01*
X-619409Y263285D02*
X-619411Y263398D01*
X-619417Y263511D01*
X-619427Y263624D01*
X-619441Y263737D01*
X-619458Y263849D01*
X-619480Y263960D01*
X-619505Y264070D01*
X-619535Y264180D01*
X-619568Y264288D01*
X-619605Y264395D01*
X-619645Y264501D01*
X-619690Y264605D01*
X-619738Y264708D01*
X-619789Y264809D01*
X-619844Y264908D01*
X-619902Y265005D01*
X-619964Y265100D01*
X-620029Y265193D01*
X-620097Y265283D01*
X-620168Y265371D01*
X-620243Y265457D01*
X-620320Y265540D01*
X-620400Y265620D01*
X-620483Y265697D01*
X-620569Y265772D01*
X-620657Y265843D01*
X-620747Y265911D01*
X-620840Y265976D01*
X-620935Y266038D01*
X-621032Y266096D01*
X-621131Y266151D01*
X-621232Y266202D01*
X-621335Y266250D01*
X-621439Y266295D01*
X-621545Y266335D01*
X-621652Y266372D01*
X-621760Y266405D01*
X-621870Y266435D01*
X-621980Y266460D01*
X-622091Y266482D01*
X-622203Y266499D01*
X-622316Y266513D01*
X-622429Y266523D01*
X-622542Y266529D01*
X-622655Y266531D01*
X-622768Y266529D01*
X-622881Y266523D01*
X-622994Y266513D01*
X-623107Y266499D01*
X-623219Y266482D01*
X-623330Y266460D01*
X-623440Y266435D01*
X-623550Y266405D01*
X-623658Y266372D01*
X-623765Y266335D01*
X-623871Y266295D01*
X-623975Y266250D01*
X-624078Y266202D01*
X-624179Y266151D01*
X-624278Y266096D01*
X-624375Y266038D01*
X-624470Y265976D01*
X-624563Y265911D01*
X-624653Y265843D01*
X-624741Y265772D01*
X-624827Y265697D01*
X-624910Y265620D01*
X-624990Y265540D01*
X-625067Y265457D01*
X-625142Y265371D01*
X-625213Y265283D01*
X-625281Y265193D01*
X-625346Y265100D01*
X-625408Y265005D01*
X-625466Y264908D01*
X-625521Y264809D01*
X-625572Y264708D01*
X-625620Y264605D01*
X-625665Y264501D01*
X-625705Y264395D01*
X-625742Y264288D01*
X-625775Y264180D01*
X-625805Y264070D01*
X-625830Y263960D01*
X-625852Y263849D01*
X-625869Y263737D01*
X-625883Y263624D01*
X-625893Y263511D01*
X-625899Y263398D01*
X-625901Y263285D01*
X-625901Y260039D01*
X-619410Y270270D02*
X-624927Y274164D01*
X-619410Y278059D01*
X-624927Y274164D02*
X-631094Y274164D01*
X-622006Y282349D02*
X-619410Y285594D01*
X-631094Y285594D01*
X-631094Y282349D02*
X-631094Y288840D01*
M02*
