G04 EAGLE Gerber RS-274X export*
G75*
%MOMM*%
%FSLAX34Y34*%
%LPD*%
%INSilkscreen Bottom*%
%IPPOS*%
%AMOC8*
5,1,8,0,0,1.08239X$1,22.5*%
G01*
%ADD10C,0.127000*%
%ADD11C,0.203200*%
%ADD12C,0.101600*%


D10*
X412782Y649606D02*
X412782Y648533D01*
X412784Y648468D01*
X412790Y648404D01*
X412800Y648340D01*
X412813Y648276D01*
X412831Y648214D01*
X412852Y648153D01*
X412876Y648093D01*
X412905Y648035D01*
X412937Y647978D01*
X412972Y647924D01*
X413010Y647872D01*
X413052Y647822D01*
X413096Y647775D01*
X413143Y647731D01*
X413193Y647689D01*
X413245Y647651D01*
X413299Y647616D01*
X413356Y647584D01*
X413414Y647555D01*
X413474Y647531D01*
X413535Y647510D01*
X413597Y647492D01*
X413661Y647479D01*
X413725Y647469D01*
X413789Y647463D01*
X413854Y647461D01*
X416535Y647461D01*
X416600Y647463D01*
X416664Y647469D01*
X416728Y647479D01*
X416792Y647492D01*
X416854Y647510D01*
X416915Y647531D01*
X416975Y647555D01*
X417033Y647584D01*
X417090Y647616D01*
X417144Y647651D01*
X417196Y647689D01*
X417246Y647731D01*
X417293Y647775D01*
X417337Y647822D01*
X417379Y647872D01*
X417417Y647924D01*
X417452Y647978D01*
X417484Y648035D01*
X417513Y648093D01*
X417537Y648153D01*
X417558Y648214D01*
X417576Y648276D01*
X417589Y648340D01*
X417599Y648404D01*
X417605Y648468D01*
X417607Y648533D01*
X417608Y648533D02*
X417608Y649606D01*
X416535Y652061D02*
X417608Y653402D01*
X412782Y653402D01*
X412782Y654742D02*
X412782Y652061D01*
X266319Y376761D02*
X266319Y375688D01*
X266321Y375623D01*
X266327Y375559D01*
X266337Y375495D01*
X266350Y375431D01*
X266368Y375369D01*
X266389Y375308D01*
X266413Y375248D01*
X266442Y375190D01*
X266474Y375133D01*
X266509Y375079D01*
X266547Y375027D01*
X266589Y374977D01*
X266633Y374930D01*
X266680Y374886D01*
X266730Y374844D01*
X266782Y374806D01*
X266836Y374771D01*
X266893Y374739D01*
X266951Y374710D01*
X267011Y374686D01*
X267072Y374665D01*
X267134Y374647D01*
X267198Y374634D01*
X267262Y374624D01*
X267326Y374618D01*
X267391Y374616D01*
X270073Y374616D01*
X270138Y374618D01*
X270202Y374624D01*
X270266Y374634D01*
X270330Y374647D01*
X270392Y374665D01*
X270453Y374686D01*
X270513Y374710D01*
X270571Y374739D01*
X270628Y374771D01*
X270682Y374806D01*
X270734Y374844D01*
X270784Y374886D01*
X270831Y374930D01*
X270875Y374977D01*
X270917Y375027D01*
X270955Y375079D01*
X270990Y375133D01*
X271022Y375190D01*
X271051Y375248D01*
X271075Y375308D01*
X271096Y375369D01*
X271114Y375431D01*
X271127Y375495D01*
X271137Y375559D01*
X271143Y375623D01*
X271145Y375688D01*
X271145Y376761D01*
X270073Y379217D02*
X271145Y380557D01*
X266319Y380557D01*
X266319Y379217D02*
X266319Y381898D01*
X268732Y384703D02*
X268852Y384705D01*
X268972Y384710D01*
X269092Y384719D01*
X269212Y384732D01*
X269331Y384748D01*
X269450Y384768D01*
X269568Y384792D01*
X269685Y384819D01*
X269801Y384849D01*
X269916Y384883D01*
X270031Y384921D01*
X270144Y384962D01*
X270255Y385006D01*
X270366Y385054D01*
X270475Y385105D01*
X270475Y385106D02*
X270532Y385127D01*
X270588Y385153D01*
X270643Y385181D01*
X270695Y385213D01*
X270746Y385249D01*
X270794Y385287D01*
X270840Y385328D01*
X270883Y385372D01*
X270923Y385418D01*
X270960Y385467D01*
X270994Y385519D01*
X271025Y385572D01*
X271053Y385627D01*
X271077Y385683D01*
X271098Y385741D01*
X271115Y385800D01*
X271128Y385860D01*
X271137Y385921D01*
X271143Y385983D01*
X271145Y386044D01*
X271143Y386105D01*
X271137Y386167D01*
X271128Y386228D01*
X271115Y386288D01*
X271098Y386347D01*
X271077Y386405D01*
X271053Y386461D01*
X271025Y386516D01*
X270994Y386569D01*
X270960Y386621D01*
X270923Y386670D01*
X270883Y386716D01*
X270840Y386760D01*
X270794Y386801D01*
X270746Y386839D01*
X270695Y386875D01*
X270643Y386907D01*
X270588Y386935D01*
X270532Y386961D01*
X270475Y386982D01*
X270366Y387033D01*
X270255Y387081D01*
X270144Y387125D01*
X270031Y387166D01*
X269916Y387204D01*
X269801Y387238D01*
X269685Y387268D01*
X269568Y387295D01*
X269450Y387319D01*
X269331Y387339D01*
X269212Y387355D01*
X269092Y387368D01*
X268972Y387377D01*
X268852Y387382D01*
X268732Y387384D01*
X268732Y384703D02*
X268612Y384705D01*
X268492Y384710D01*
X268372Y384719D01*
X268252Y384732D01*
X268133Y384748D01*
X268014Y384768D01*
X267896Y384792D01*
X267779Y384819D01*
X267663Y384849D01*
X267548Y384883D01*
X267433Y384921D01*
X267320Y384962D01*
X267209Y385006D01*
X267098Y385054D01*
X266989Y385105D01*
X266989Y385106D02*
X266932Y385127D01*
X266876Y385153D01*
X266821Y385181D01*
X266769Y385213D01*
X266718Y385249D01*
X266670Y385287D01*
X266624Y385328D01*
X266581Y385372D01*
X266541Y385418D01*
X266504Y385467D01*
X266470Y385519D01*
X266439Y385572D01*
X266411Y385627D01*
X266387Y385683D01*
X266366Y385741D01*
X266349Y385800D01*
X266336Y385860D01*
X266327Y385921D01*
X266321Y385983D01*
X266319Y386044D01*
X266989Y386982D02*
X267098Y387033D01*
X267209Y387081D01*
X267320Y387125D01*
X267433Y387166D01*
X267548Y387204D01*
X267663Y387238D01*
X267779Y387268D01*
X267896Y387295D01*
X268014Y387319D01*
X268133Y387339D01*
X268252Y387355D01*
X268372Y387368D01*
X268492Y387377D01*
X268612Y387382D01*
X268732Y387384D01*
X266989Y386982D02*
X266932Y386961D01*
X266876Y386935D01*
X266821Y386907D01*
X266769Y386875D01*
X266718Y386839D01*
X266670Y386801D01*
X266624Y386760D01*
X266581Y386716D01*
X266541Y386669D01*
X266504Y386621D01*
X266470Y386569D01*
X266439Y386516D01*
X266411Y386461D01*
X266387Y386405D01*
X266366Y386347D01*
X266349Y386288D01*
X266336Y386228D01*
X266327Y386167D01*
X266321Y386105D01*
X266319Y386044D01*
X267391Y384971D02*
X270073Y387116D01*
X395179Y297169D02*
X395179Y296097D01*
X395181Y296032D01*
X395187Y295968D01*
X395197Y295904D01*
X395210Y295840D01*
X395228Y295778D01*
X395249Y295717D01*
X395273Y295657D01*
X395302Y295599D01*
X395334Y295542D01*
X395369Y295488D01*
X395407Y295436D01*
X395449Y295386D01*
X395493Y295339D01*
X395540Y295295D01*
X395590Y295253D01*
X395642Y295215D01*
X395696Y295180D01*
X395753Y295148D01*
X395811Y295119D01*
X395871Y295095D01*
X395932Y295074D01*
X395994Y295056D01*
X396058Y295043D01*
X396122Y295033D01*
X396186Y295027D01*
X396251Y295025D01*
X398932Y295025D01*
X398997Y295027D01*
X399061Y295033D01*
X399125Y295043D01*
X399189Y295056D01*
X399251Y295074D01*
X399312Y295095D01*
X399372Y295119D01*
X399430Y295148D01*
X399487Y295180D01*
X399541Y295215D01*
X399593Y295253D01*
X399643Y295295D01*
X399690Y295339D01*
X399734Y295386D01*
X399776Y295436D01*
X399814Y295488D01*
X399849Y295542D01*
X399881Y295599D01*
X399910Y295657D01*
X399934Y295717D01*
X399955Y295778D01*
X399973Y295840D01*
X399986Y295904D01*
X399996Y295968D01*
X400002Y296032D01*
X400004Y296097D01*
X400005Y296097D02*
X400005Y297169D01*
X398932Y299625D02*
X400005Y300966D01*
X395179Y300966D01*
X395179Y302306D02*
X395179Y299625D01*
X400005Y306586D02*
X400003Y306654D01*
X399997Y306721D01*
X399988Y306788D01*
X399975Y306855D01*
X399958Y306920D01*
X399937Y306985D01*
X399913Y307048D01*
X399885Y307110D01*
X399854Y307170D01*
X399820Y307228D01*
X399782Y307284D01*
X399742Y307339D01*
X399698Y307390D01*
X399651Y307439D01*
X399602Y307486D01*
X399551Y307530D01*
X399496Y307570D01*
X399440Y307608D01*
X399382Y307642D01*
X399322Y307673D01*
X399260Y307701D01*
X399197Y307725D01*
X399132Y307746D01*
X399067Y307763D01*
X399000Y307776D01*
X398933Y307785D01*
X398866Y307791D01*
X398798Y307793D01*
X400005Y306586D02*
X400003Y306508D01*
X399997Y306430D01*
X399987Y306353D01*
X399974Y306276D01*
X399956Y306200D01*
X399935Y306125D01*
X399910Y306051D01*
X399881Y305979D01*
X399849Y305908D01*
X399813Y305839D01*
X399774Y305771D01*
X399731Y305706D01*
X399685Y305643D01*
X399636Y305582D01*
X399584Y305524D01*
X399529Y305469D01*
X399472Y305416D01*
X399412Y305367D01*
X399349Y305320D01*
X399284Y305277D01*
X399218Y305237D01*
X399149Y305200D01*
X399078Y305167D01*
X399006Y305137D01*
X398933Y305111D01*
X397860Y307391D02*
X397909Y307440D01*
X397961Y307487D01*
X398016Y307530D01*
X398073Y307571D01*
X398132Y307609D01*
X398193Y307643D01*
X398256Y307674D01*
X398320Y307702D01*
X398386Y307726D01*
X398452Y307746D01*
X398520Y307763D01*
X398589Y307776D01*
X398658Y307785D01*
X398728Y307791D01*
X398798Y307793D01*
X397860Y307391D02*
X395179Y305112D01*
X395179Y307793D01*
X287655Y324888D02*
X287655Y325961D01*
X287655Y324888D02*
X287657Y324823D01*
X287663Y324759D01*
X287673Y324695D01*
X287686Y324631D01*
X287704Y324569D01*
X287725Y324508D01*
X287749Y324448D01*
X287778Y324390D01*
X287810Y324333D01*
X287845Y324279D01*
X287883Y324227D01*
X287925Y324177D01*
X287969Y324130D01*
X288016Y324086D01*
X288066Y324044D01*
X288118Y324006D01*
X288172Y323971D01*
X288229Y323939D01*
X288287Y323910D01*
X288347Y323886D01*
X288408Y323865D01*
X288470Y323847D01*
X288534Y323834D01*
X288598Y323824D01*
X288662Y323818D01*
X288727Y323816D01*
X291409Y323816D01*
X291474Y323818D01*
X291538Y323824D01*
X291602Y323834D01*
X291666Y323847D01*
X291728Y323865D01*
X291789Y323886D01*
X291849Y323910D01*
X291907Y323939D01*
X291964Y323971D01*
X292018Y324006D01*
X292070Y324044D01*
X292120Y324086D01*
X292167Y324130D01*
X292211Y324177D01*
X292253Y324227D01*
X292291Y324279D01*
X292326Y324333D01*
X292358Y324390D01*
X292387Y324448D01*
X292411Y324508D01*
X292432Y324569D01*
X292450Y324631D01*
X292463Y324695D01*
X292473Y324759D01*
X292479Y324823D01*
X292481Y324888D01*
X292481Y325961D01*
X291409Y328417D02*
X292481Y329757D01*
X287655Y329757D01*
X287655Y328417D02*
X287655Y331098D01*
X290336Y333903D02*
X290336Y335512D01*
X290334Y335577D01*
X290328Y335641D01*
X290318Y335705D01*
X290305Y335769D01*
X290287Y335831D01*
X290266Y335892D01*
X290242Y335952D01*
X290213Y336010D01*
X290181Y336067D01*
X290146Y336121D01*
X290108Y336173D01*
X290066Y336223D01*
X290022Y336270D01*
X289975Y336314D01*
X289925Y336356D01*
X289873Y336394D01*
X289819Y336429D01*
X289762Y336461D01*
X289704Y336490D01*
X289644Y336514D01*
X289583Y336535D01*
X289521Y336553D01*
X289457Y336566D01*
X289393Y336576D01*
X289329Y336582D01*
X289264Y336584D01*
X288996Y336584D01*
X288996Y336585D02*
X288925Y336583D01*
X288853Y336577D01*
X288783Y336568D01*
X288713Y336555D01*
X288643Y336538D01*
X288575Y336517D01*
X288508Y336493D01*
X288442Y336465D01*
X288378Y336434D01*
X288315Y336399D01*
X288255Y336361D01*
X288196Y336320D01*
X288140Y336276D01*
X288086Y336229D01*
X288035Y336180D01*
X287987Y336127D01*
X287941Y336072D01*
X287899Y336015D01*
X287859Y335955D01*
X287823Y335894D01*
X287790Y335830D01*
X287761Y335765D01*
X287735Y335699D01*
X287712Y335631D01*
X287693Y335562D01*
X287678Y335492D01*
X287667Y335422D01*
X287659Y335351D01*
X287655Y335280D01*
X287655Y335208D01*
X287659Y335137D01*
X287667Y335066D01*
X287678Y334996D01*
X287693Y334926D01*
X287712Y334857D01*
X287735Y334789D01*
X287761Y334723D01*
X287790Y334658D01*
X287823Y334594D01*
X287859Y334533D01*
X287899Y334473D01*
X287941Y334416D01*
X287987Y334361D01*
X288035Y334308D01*
X288086Y334259D01*
X288140Y334212D01*
X288196Y334168D01*
X288255Y334127D01*
X288315Y334089D01*
X288378Y334054D01*
X288442Y334023D01*
X288508Y333995D01*
X288575Y333971D01*
X288643Y333950D01*
X288713Y333933D01*
X288783Y333920D01*
X288853Y333911D01*
X288925Y333905D01*
X288996Y333903D01*
X290336Y333903D01*
X290427Y333905D01*
X290518Y333911D01*
X290608Y333920D01*
X290699Y333934D01*
X290788Y333951D01*
X290876Y333972D01*
X290964Y333997D01*
X291051Y334026D01*
X291136Y334058D01*
X291220Y334093D01*
X291302Y334133D01*
X291382Y334175D01*
X291461Y334221D01*
X291537Y334271D01*
X291611Y334323D01*
X291684Y334379D01*
X291753Y334438D01*
X291820Y334499D01*
X291885Y334564D01*
X291946Y334631D01*
X292005Y334700D01*
X292061Y334772D01*
X292113Y334847D01*
X292163Y334923D01*
X292209Y335002D01*
X292251Y335082D01*
X292291Y335164D01*
X292326Y335248D01*
X292358Y335333D01*
X292387Y335420D01*
X292412Y335507D01*
X292433Y335596D01*
X292450Y335685D01*
X292464Y335776D01*
X292473Y335866D01*
X292479Y335957D01*
X292481Y336048D01*
X556996Y568582D02*
X558069Y568582D01*
X558134Y568584D01*
X558198Y568590D01*
X558262Y568600D01*
X558326Y568613D01*
X558388Y568631D01*
X558449Y568652D01*
X558509Y568676D01*
X558567Y568705D01*
X558624Y568737D01*
X558678Y568772D01*
X558730Y568810D01*
X558780Y568852D01*
X558827Y568896D01*
X558871Y568943D01*
X558913Y568993D01*
X558951Y569045D01*
X558986Y569099D01*
X559018Y569156D01*
X559047Y569214D01*
X559071Y569274D01*
X559092Y569335D01*
X559110Y569397D01*
X559123Y569461D01*
X559133Y569525D01*
X559139Y569589D01*
X559141Y569654D01*
X559141Y572335D01*
X559139Y572400D01*
X559133Y572464D01*
X559123Y572528D01*
X559110Y572592D01*
X559092Y572654D01*
X559071Y572715D01*
X559047Y572775D01*
X559018Y572833D01*
X558986Y572890D01*
X558951Y572944D01*
X558913Y572996D01*
X558871Y573046D01*
X558827Y573093D01*
X558780Y573137D01*
X558730Y573179D01*
X558678Y573217D01*
X558624Y573252D01*
X558567Y573284D01*
X558509Y573313D01*
X558449Y573337D01*
X558388Y573358D01*
X558326Y573376D01*
X558262Y573389D01*
X558198Y573399D01*
X558134Y573405D01*
X558069Y573407D01*
X558069Y573408D02*
X556996Y573408D01*
X554540Y572335D02*
X553200Y573408D01*
X553200Y568582D01*
X554540Y568582D02*
X551859Y568582D01*
X549054Y572872D02*
X549054Y573408D01*
X546373Y573408D01*
X547714Y568582D01*
X349282Y648533D02*
X349282Y649606D01*
X349282Y648533D02*
X349284Y648468D01*
X349290Y648404D01*
X349300Y648340D01*
X349313Y648276D01*
X349331Y648214D01*
X349352Y648153D01*
X349376Y648093D01*
X349405Y648035D01*
X349437Y647978D01*
X349472Y647924D01*
X349510Y647872D01*
X349552Y647822D01*
X349596Y647775D01*
X349643Y647731D01*
X349693Y647689D01*
X349745Y647651D01*
X349799Y647616D01*
X349856Y647584D01*
X349914Y647555D01*
X349974Y647531D01*
X350035Y647510D01*
X350097Y647492D01*
X350161Y647479D01*
X350225Y647469D01*
X350289Y647463D01*
X350354Y647461D01*
X353035Y647461D01*
X353100Y647463D01*
X353164Y647469D01*
X353228Y647479D01*
X353292Y647492D01*
X353354Y647510D01*
X353415Y647531D01*
X353475Y647555D01*
X353533Y647584D01*
X353590Y647616D01*
X353644Y647651D01*
X353696Y647689D01*
X353746Y647731D01*
X353793Y647775D01*
X353837Y647822D01*
X353879Y647872D01*
X353917Y647924D01*
X353952Y647978D01*
X353984Y648035D01*
X354013Y648093D01*
X354037Y648153D01*
X354058Y648214D01*
X354076Y648276D01*
X354089Y648340D01*
X354099Y648404D01*
X354105Y648468D01*
X354107Y648533D01*
X354108Y648533D02*
X354108Y649606D01*
X354108Y653536D02*
X354106Y653604D01*
X354100Y653671D01*
X354091Y653738D01*
X354078Y653805D01*
X354061Y653870D01*
X354040Y653935D01*
X354016Y653998D01*
X353988Y654060D01*
X353957Y654120D01*
X353923Y654178D01*
X353885Y654234D01*
X353845Y654289D01*
X353801Y654340D01*
X353754Y654389D01*
X353705Y654436D01*
X353654Y654480D01*
X353599Y654520D01*
X353543Y654558D01*
X353485Y654592D01*
X353425Y654623D01*
X353363Y654651D01*
X353300Y654675D01*
X353235Y654696D01*
X353170Y654713D01*
X353103Y654726D01*
X353036Y654735D01*
X352969Y654741D01*
X352901Y654743D01*
X354108Y653536D02*
X354106Y653458D01*
X354100Y653380D01*
X354090Y653303D01*
X354077Y653226D01*
X354059Y653150D01*
X354038Y653075D01*
X354013Y653001D01*
X353984Y652929D01*
X353952Y652858D01*
X353916Y652789D01*
X353877Y652721D01*
X353834Y652656D01*
X353788Y652593D01*
X353739Y652532D01*
X353687Y652474D01*
X353632Y652419D01*
X353575Y652366D01*
X353515Y652317D01*
X353452Y652270D01*
X353387Y652227D01*
X353321Y652187D01*
X353252Y652150D01*
X353181Y652117D01*
X353109Y652087D01*
X353036Y652061D01*
X351963Y654341D02*
X352012Y654390D01*
X352064Y654437D01*
X352119Y654480D01*
X352176Y654521D01*
X352235Y654559D01*
X352296Y654593D01*
X352359Y654624D01*
X352423Y654652D01*
X352489Y654676D01*
X352555Y654696D01*
X352623Y654713D01*
X352692Y654726D01*
X352761Y654735D01*
X352831Y654741D01*
X352901Y654743D01*
X351963Y654340D02*
X349282Y652061D01*
X349282Y654742D01*
X499604Y721257D02*
X499604Y722330D01*
X499605Y721257D02*
X499607Y721192D01*
X499613Y721128D01*
X499623Y721064D01*
X499636Y721000D01*
X499654Y720938D01*
X499675Y720877D01*
X499699Y720817D01*
X499728Y720759D01*
X499760Y720702D01*
X499795Y720648D01*
X499833Y720596D01*
X499875Y720546D01*
X499919Y720499D01*
X499966Y720455D01*
X500016Y720413D01*
X500068Y720375D01*
X500122Y720340D01*
X500179Y720308D01*
X500237Y720279D01*
X500297Y720255D01*
X500358Y720234D01*
X500420Y720216D01*
X500484Y720203D01*
X500548Y720193D01*
X500612Y720187D01*
X500677Y720185D01*
X503358Y720185D01*
X503423Y720187D01*
X503487Y720193D01*
X503551Y720203D01*
X503615Y720216D01*
X503677Y720234D01*
X503738Y720255D01*
X503798Y720279D01*
X503856Y720308D01*
X503913Y720340D01*
X503967Y720375D01*
X504019Y720413D01*
X504069Y720455D01*
X504116Y720499D01*
X504160Y720546D01*
X504202Y720596D01*
X504240Y720648D01*
X504275Y720702D01*
X504307Y720759D01*
X504336Y720817D01*
X504360Y720877D01*
X504381Y720938D01*
X504399Y721000D01*
X504412Y721064D01*
X504422Y721128D01*
X504428Y721192D01*
X504430Y721257D01*
X504430Y722330D01*
X499604Y724786D02*
X499604Y726126D01*
X499606Y726197D01*
X499612Y726269D01*
X499621Y726339D01*
X499634Y726409D01*
X499651Y726479D01*
X499672Y726547D01*
X499696Y726614D01*
X499724Y726680D01*
X499755Y726744D01*
X499790Y726807D01*
X499828Y726867D01*
X499869Y726926D01*
X499913Y726982D01*
X499960Y727036D01*
X500009Y727087D01*
X500062Y727135D01*
X500117Y727181D01*
X500174Y727223D01*
X500234Y727263D01*
X500295Y727299D01*
X500359Y727332D01*
X500424Y727361D01*
X500490Y727387D01*
X500558Y727410D01*
X500627Y727429D01*
X500697Y727444D01*
X500767Y727455D01*
X500838Y727463D01*
X500909Y727467D01*
X500981Y727467D01*
X501052Y727463D01*
X501123Y727455D01*
X501193Y727444D01*
X501263Y727429D01*
X501332Y727410D01*
X501400Y727387D01*
X501466Y727361D01*
X501531Y727332D01*
X501595Y727299D01*
X501656Y727263D01*
X501716Y727223D01*
X501773Y727181D01*
X501828Y727135D01*
X501881Y727087D01*
X501930Y727036D01*
X501977Y726982D01*
X502021Y726926D01*
X502062Y726867D01*
X502100Y726807D01*
X502135Y726744D01*
X502166Y726680D01*
X502194Y726614D01*
X502218Y726547D01*
X502239Y726479D01*
X502256Y726409D01*
X502269Y726339D01*
X502278Y726269D01*
X502284Y726197D01*
X502286Y726126D01*
X504430Y726394D02*
X504430Y724786D01*
X504430Y726394D02*
X504428Y726459D01*
X504422Y726523D01*
X504412Y726587D01*
X504399Y726651D01*
X504381Y726713D01*
X504360Y726774D01*
X504336Y726834D01*
X504307Y726892D01*
X504275Y726949D01*
X504240Y727003D01*
X504202Y727055D01*
X504160Y727105D01*
X504116Y727152D01*
X504069Y727196D01*
X504019Y727238D01*
X503967Y727276D01*
X503913Y727311D01*
X503856Y727343D01*
X503798Y727372D01*
X503738Y727396D01*
X503677Y727417D01*
X503615Y727435D01*
X503551Y727448D01*
X503487Y727458D01*
X503423Y727464D01*
X503358Y727466D01*
X503293Y727464D01*
X503229Y727458D01*
X503165Y727448D01*
X503101Y727435D01*
X503039Y727417D01*
X502978Y727396D01*
X502918Y727372D01*
X502860Y727343D01*
X502803Y727311D01*
X502749Y727276D01*
X502697Y727238D01*
X502647Y727196D01*
X502600Y727152D01*
X502556Y727105D01*
X502514Y727055D01*
X502476Y727003D01*
X502441Y726949D01*
X502409Y726892D01*
X502380Y726834D01*
X502356Y726774D01*
X502335Y726713D01*
X502317Y726651D01*
X502304Y726587D01*
X502294Y726523D01*
X502288Y726459D01*
X502286Y726394D01*
X502285Y726394D02*
X502285Y725322D01*
X408968Y338455D02*
X407896Y338455D01*
X408968Y338455D02*
X409033Y338457D01*
X409097Y338463D01*
X409161Y338473D01*
X409225Y338486D01*
X409287Y338504D01*
X409348Y338525D01*
X409408Y338549D01*
X409466Y338578D01*
X409523Y338610D01*
X409577Y338645D01*
X409629Y338683D01*
X409679Y338725D01*
X409726Y338769D01*
X409770Y338816D01*
X409812Y338866D01*
X409850Y338918D01*
X409885Y338972D01*
X409917Y339029D01*
X409946Y339087D01*
X409970Y339147D01*
X409991Y339208D01*
X410009Y339270D01*
X410022Y339334D01*
X410032Y339398D01*
X410038Y339462D01*
X410040Y339527D01*
X410041Y339527D02*
X410041Y342209D01*
X410040Y342209D02*
X410038Y342274D01*
X410032Y342338D01*
X410022Y342402D01*
X410009Y342466D01*
X409991Y342528D01*
X409970Y342589D01*
X409946Y342649D01*
X409917Y342707D01*
X409885Y342764D01*
X409850Y342818D01*
X409812Y342870D01*
X409770Y342920D01*
X409726Y342967D01*
X409679Y343011D01*
X409629Y343053D01*
X409577Y343091D01*
X409523Y343126D01*
X409466Y343158D01*
X409408Y343187D01*
X409348Y343211D01*
X409287Y343232D01*
X409225Y343250D01*
X409161Y343263D01*
X409097Y343273D01*
X409033Y343279D01*
X408968Y343281D01*
X407896Y343281D01*
X404368Y343281D02*
X405440Y339527D01*
X402759Y339527D01*
X403563Y340600D02*
X403563Y338455D01*
X458696Y317119D02*
X459768Y317119D01*
X459833Y317121D01*
X459897Y317127D01*
X459961Y317137D01*
X460025Y317150D01*
X460087Y317168D01*
X460148Y317189D01*
X460208Y317213D01*
X460266Y317242D01*
X460323Y317274D01*
X460377Y317309D01*
X460429Y317347D01*
X460479Y317389D01*
X460526Y317433D01*
X460570Y317480D01*
X460612Y317530D01*
X460650Y317582D01*
X460685Y317636D01*
X460717Y317693D01*
X460746Y317751D01*
X460770Y317811D01*
X460791Y317872D01*
X460809Y317934D01*
X460822Y317998D01*
X460832Y318062D01*
X460838Y318126D01*
X460840Y318191D01*
X460841Y318191D02*
X460841Y320873D01*
X460840Y320873D02*
X460838Y320938D01*
X460832Y321002D01*
X460822Y321066D01*
X460809Y321130D01*
X460791Y321192D01*
X460770Y321253D01*
X460746Y321313D01*
X460717Y321371D01*
X460685Y321428D01*
X460650Y321482D01*
X460612Y321534D01*
X460570Y321584D01*
X460526Y321631D01*
X460479Y321675D01*
X460429Y321717D01*
X460377Y321755D01*
X460323Y321790D01*
X460266Y321822D01*
X460208Y321851D01*
X460148Y321875D01*
X460087Y321896D01*
X460025Y321914D01*
X459961Y321927D01*
X459897Y321937D01*
X459833Y321943D01*
X459768Y321945D01*
X458696Y321945D01*
X456241Y318460D02*
X456239Y318531D01*
X456233Y318603D01*
X456224Y318673D01*
X456211Y318743D01*
X456194Y318813D01*
X456173Y318881D01*
X456149Y318948D01*
X456121Y319014D01*
X456090Y319078D01*
X456055Y319141D01*
X456017Y319201D01*
X455976Y319260D01*
X455932Y319316D01*
X455885Y319370D01*
X455836Y319421D01*
X455783Y319469D01*
X455728Y319515D01*
X455671Y319557D01*
X455611Y319597D01*
X455550Y319633D01*
X455486Y319666D01*
X455421Y319695D01*
X455355Y319721D01*
X455287Y319744D01*
X455218Y319763D01*
X455148Y319778D01*
X455078Y319789D01*
X455007Y319797D01*
X454936Y319801D01*
X454864Y319801D01*
X454793Y319797D01*
X454722Y319789D01*
X454652Y319778D01*
X454582Y319763D01*
X454513Y319744D01*
X454445Y319721D01*
X454379Y319695D01*
X454314Y319666D01*
X454250Y319633D01*
X454189Y319597D01*
X454129Y319557D01*
X454072Y319515D01*
X454017Y319469D01*
X453964Y319421D01*
X453915Y319370D01*
X453868Y319316D01*
X453824Y319260D01*
X453783Y319201D01*
X453745Y319141D01*
X453710Y319078D01*
X453679Y319014D01*
X453651Y318948D01*
X453627Y318881D01*
X453606Y318813D01*
X453589Y318743D01*
X453576Y318673D01*
X453567Y318603D01*
X453561Y318531D01*
X453559Y318460D01*
X453561Y318389D01*
X453567Y318317D01*
X453576Y318247D01*
X453589Y318177D01*
X453606Y318107D01*
X453627Y318039D01*
X453651Y317972D01*
X453679Y317906D01*
X453710Y317842D01*
X453745Y317779D01*
X453783Y317719D01*
X453824Y317660D01*
X453868Y317604D01*
X453915Y317550D01*
X453964Y317499D01*
X454017Y317451D01*
X454072Y317405D01*
X454129Y317363D01*
X454189Y317323D01*
X454250Y317287D01*
X454314Y317254D01*
X454379Y317225D01*
X454445Y317199D01*
X454513Y317176D01*
X454582Y317157D01*
X454652Y317142D01*
X454722Y317131D01*
X454793Y317123D01*
X454864Y317119D01*
X454936Y317119D01*
X455007Y317123D01*
X455078Y317131D01*
X455148Y317142D01*
X455218Y317157D01*
X455287Y317176D01*
X455355Y317199D01*
X455421Y317225D01*
X455486Y317254D01*
X455550Y317287D01*
X455611Y317323D01*
X455671Y317363D01*
X455728Y317405D01*
X455783Y317451D01*
X455836Y317499D01*
X455885Y317550D01*
X455932Y317604D01*
X455976Y317660D01*
X456017Y317719D01*
X456055Y317779D01*
X456090Y317842D01*
X456121Y317906D01*
X456149Y317972D01*
X456173Y318039D01*
X456194Y318107D01*
X456211Y318177D01*
X456224Y318247D01*
X456233Y318317D01*
X456239Y318389D01*
X456241Y318460D01*
X455972Y320873D02*
X455970Y320938D01*
X455964Y321002D01*
X455954Y321066D01*
X455941Y321130D01*
X455923Y321192D01*
X455902Y321253D01*
X455878Y321313D01*
X455849Y321371D01*
X455817Y321428D01*
X455782Y321482D01*
X455744Y321534D01*
X455702Y321584D01*
X455658Y321631D01*
X455611Y321675D01*
X455561Y321717D01*
X455509Y321755D01*
X455455Y321790D01*
X455398Y321822D01*
X455340Y321851D01*
X455280Y321875D01*
X455219Y321896D01*
X455157Y321914D01*
X455093Y321927D01*
X455029Y321937D01*
X454965Y321943D01*
X454900Y321945D01*
X454835Y321943D01*
X454771Y321937D01*
X454707Y321927D01*
X454643Y321914D01*
X454581Y321896D01*
X454520Y321875D01*
X454460Y321851D01*
X454402Y321822D01*
X454345Y321790D01*
X454291Y321755D01*
X454239Y321717D01*
X454189Y321675D01*
X454142Y321631D01*
X454098Y321584D01*
X454056Y321534D01*
X454018Y321482D01*
X453983Y321428D01*
X453951Y321371D01*
X453922Y321313D01*
X453898Y321253D01*
X453877Y321192D01*
X453859Y321130D01*
X453846Y321066D01*
X453836Y321002D01*
X453830Y320938D01*
X453828Y320873D01*
X453830Y320808D01*
X453836Y320744D01*
X453846Y320680D01*
X453859Y320616D01*
X453877Y320554D01*
X453898Y320493D01*
X453922Y320433D01*
X453951Y320375D01*
X453983Y320318D01*
X454018Y320264D01*
X454056Y320212D01*
X454098Y320162D01*
X454142Y320115D01*
X454189Y320071D01*
X454239Y320029D01*
X454291Y319991D01*
X454345Y319956D01*
X454402Y319924D01*
X454460Y319895D01*
X454520Y319871D01*
X454581Y319850D01*
X454643Y319832D01*
X454707Y319819D01*
X454771Y319809D01*
X454835Y319803D01*
X454900Y319801D01*
X454965Y319803D01*
X455029Y319809D01*
X455093Y319819D01*
X455157Y319832D01*
X455219Y319850D01*
X455280Y319871D01*
X455340Y319895D01*
X455398Y319924D01*
X455455Y319956D01*
X455509Y319991D01*
X455561Y320029D01*
X455611Y320071D01*
X455658Y320115D01*
X455702Y320162D01*
X455744Y320212D01*
X455782Y320264D01*
X455817Y320318D01*
X455849Y320375D01*
X455878Y320433D01*
X455902Y320493D01*
X455923Y320554D01*
X455941Y320616D01*
X455954Y320680D01*
X455964Y320744D01*
X455970Y320808D01*
X455972Y320873D01*
X563239Y721225D02*
X563239Y722297D01*
X563240Y721225D02*
X563242Y721160D01*
X563248Y721096D01*
X563258Y721032D01*
X563271Y720968D01*
X563289Y720906D01*
X563310Y720845D01*
X563334Y720785D01*
X563363Y720727D01*
X563395Y720670D01*
X563430Y720616D01*
X563468Y720564D01*
X563510Y720514D01*
X563554Y720467D01*
X563601Y720423D01*
X563651Y720381D01*
X563703Y720343D01*
X563757Y720308D01*
X563814Y720276D01*
X563872Y720247D01*
X563932Y720223D01*
X563993Y720202D01*
X564055Y720184D01*
X564119Y720171D01*
X564183Y720161D01*
X564247Y720155D01*
X564312Y720153D01*
X564312Y720152D02*
X566993Y720152D01*
X566993Y720153D02*
X567058Y720155D01*
X567122Y720161D01*
X567186Y720171D01*
X567250Y720184D01*
X567312Y720202D01*
X567373Y720223D01*
X567433Y720247D01*
X567491Y720276D01*
X567548Y720308D01*
X567602Y720343D01*
X567654Y720381D01*
X567704Y720423D01*
X567751Y720467D01*
X567795Y720514D01*
X567837Y720564D01*
X567875Y720616D01*
X567910Y720670D01*
X567942Y720727D01*
X567971Y720785D01*
X567995Y720845D01*
X568016Y720906D01*
X568034Y720968D01*
X568047Y721032D01*
X568057Y721096D01*
X568063Y721160D01*
X568065Y721225D01*
X568065Y722297D01*
X565384Y725826D02*
X565384Y727434D01*
X565385Y725826D02*
X565387Y725761D01*
X565393Y725697D01*
X565403Y725633D01*
X565416Y725569D01*
X565434Y725507D01*
X565455Y725446D01*
X565479Y725386D01*
X565508Y725328D01*
X565540Y725271D01*
X565575Y725217D01*
X565613Y725165D01*
X565655Y725115D01*
X565699Y725068D01*
X565746Y725024D01*
X565796Y724982D01*
X565848Y724944D01*
X565902Y724909D01*
X565959Y724877D01*
X566017Y724848D01*
X566077Y724824D01*
X566138Y724803D01*
X566200Y724785D01*
X566264Y724772D01*
X566328Y724762D01*
X566392Y724756D01*
X566457Y724754D01*
X566457Y724753D02*
X566725Y724753D01*
X566796Y724755D01*
X566868Y724761D01*
X566938Y724770D01*
X567008Y724783D01*
X567078Y724800D01*
X567146Y724821D01*
X567213Y724845D01*
X567279Y724873D01*
X567343Y724904D01*
X567406Y724939D01*
X567466Y724977D01*
X567525Y725018D01*
X567581Y725062D01*
X567635Y725109D01*
X567686Y725158D01*
X567734Y725211D01*
X567780Y725266D01*
X567822Y725323D01*
X567862Y725383D01*
X567898Y725444D01*
X567931Y725508D01*
X567960Y725573D01*
X567986Y725639D01*
X568009Y725707D01*
X568028Y725776D01*
X568043Y725846D01*
X568054Y725916D01*
X568062Y725987D01*
X568066Y726058D01*
X568066Y726130D01*
X568062Y726201D01*
X568054Y726272D01*
X568043Y726342D01*
X568028Y726412D01*
X568009Y726481D01*
X567986Y726549D01*
X567960Y726615D01*
X567931Y726680D01*
X567898Y726744D01*
X567862Y726805D01*
X567822Y726865D01*
X567780Y726922D01*
X567734Y726977D01*
X567686Y727030D01*
X567635Y727079D01*
X567581Y727126D01*
X567525Y727170D01*
X567466Y727211D01*
X567406Y727249D01*
X567343Y727284D01*
X567279Y727315D01*
X567213Y727343D01*
X567146Y727367D01*
X567078Y727388D01*
X567008Y727405D01*
X566938Y727418D01*
X566868Y727427D01*
X566796Y727433D01*
X566725Y727435D01*
X566725Y727434D02*
X565384Y727434D01*
X565293Y727432D01*
X565202Y727426D01*
X565112Y727417D01*
X565021Y727403D01*
X564932Y727386D01*
X564844Y727365D01*
X564756Y727340D01*
X564669Y727311D01*
X564584Y727279D01*
X564500Y727244D01*
X564418Y727204D01*
X564338Y727162D01*
X564259Y727116D01*
X564183Y727066D01*
X564109Y727014D01*
X564036Y726958D01*
X563967Y726899D01*
X563900Y726838D01*
X563835Y726773D01*
X563774Y726706D01*
X563715Y726637D01*
X563659Y726564D01*
X563607Y726490D01*
X563557Y726414D01*
X563511Y726335D01*
X563469Y726255D01*
X563429Y726173D01*
X563394Y726089D01*
X563362Y726004D01*
X563333Y725917D01*
X563308Y725829D01*
X563287Y725741D01*
X563270Y725652D01*
X563256Y725561D01*
X563247Y725471D01*
X563241Y725380D01*
X563239Y725289D01*
D11*
X446194Y748491D02*
X410634Y748491D01*
X410634Y682951D01*
X446194Y682951D01*
X446194Y748491D01*
D12*
X441114Y692128D02*
X429430Y692128D01*
X429430Y693426D02*
X429430Y690829D01*
X441114Y690829D02*
X441114Y693426D01*
X429430Y700589D02*
X429430Y703186D01*
X429430Y700589D02*
X429432Y700490D01*
X429438Y700390D01*
X429447Y700291D01*
X429460Y700193D01*
X429477Y700095D01*
X429498Y699997D01*
X429523Y699901D01*
X429551Y699806D01*
X429583Y699712D01*
X429618Y699619D01*
X429657Y699527D01*
X429700Y699437D01*
X429745Y699349D01*
X429795Y699262D01*
X429847Y699178D01*
X429903Y699095D01*
X429961Y699015D01*
X430023Y698937D01*
X430088Y698862D01*
X430156Y698789D01*
X430226Y698719D01*
X430299Y698651D01*
X430374Y698586D01*
X430452Y698524D01*
X430532Y698466D01*
X430615Y698410D01*
X430699Y698358D01*
X430786Y698308D01*
X430874Y698263D01*
X430964Y698220D01*
X431056Y698181D01*
X431149Y698146D01*
X431243Y698114D01*
X431338Y698086D01*
X431434Y698061D01*
X431532Y698040D01*
X431630Y698023D01*
X431728Y698010D01*
X431827Y698001D01*
X431927Y697995D01*
X432026Y697993D01*
X438517Y697993D01*
X438616Y697995D01*
X438716Y698001D01*
X438815Y698010D01*
X438913Y698023D01*
X439011Y698040D01*
X439109Y698061D01*
X439205Y698086D01*
X439300Y698114D01*
X439394Y698146D01*
X439487Y698181D01*
X439579Y698220D01*
X439669Y698263D01*
X439757Y698308D01*
X439844Y698358D01*
X439928Y698410D01*
X440011Y698466D01*
X440091Y698524D01*
X440169Y698586D01*
X440244Y698651D01*
X440317Y698719D01*
X440387Y698789D01*
X440455Y698862D01*
X440520Y698937D01*
X440582Y699015D01*
X440640Y699095D01*
X440696Y699178D01*
X440748Y699262D01*
X440798Y699349D01*
X440843Y699437D01*
X440886Y699527D01*
X440925Y699619D01*
X440960Y699711D01*
X440992Y699806D01*
X441020Y699901D01*
X441045Y699997D01*
X441066Y700095D01*
X441083Y700193D01*
X441096Y700291D01*
X441105Y700390D01*
X441111Y700490D01*
X441113Y700589D01*
X441114Y700589D02*
X441114Y703186D01*
X441114Y711121D02*
X441112Y711228D01*
X441106Y711334D01*
X441096Y711440D01*
X441083Y711546D01*
X441065Y711652D01*
X441044Y711756D01*
X441019Y711860D01*
X440990Y711963D01*
X440958Y712064D01*
X440921Y712164D01*
X440881Y712263D01*
X440838Y712361D01*
X440791Y712457D01*
X440740Y712551D01*
X440686Y712643D01*
X440629Y712733D01*
X440569Y712821D01*
X440505Y712906D01*
X440438Y712989D01*
X440368Y713070D01*
X440296Y713148D01*
X440220Y713224D01*
X440142Y713296D01*
X440061Y713366D01*
X439978Y713433D01*
X439893Y713497D01*
X439805Y713557D01*
X439715Y713614D01*
X439623Y713668D01*
X439529Y713719D01*
X439433Y713766D01*
X439335Y713809D01*
X439236Y713849D01*
X439136Y713886D01*
X439035Y713918D01*
X438932Y713947D01*
X438828Y713972D01*
X438724Y713993D01*
X438618Y714011D01*
X438512Y714024D01*
X438406Y714034D01*
X438300Y714040D01*
X438193Y714042D01*
X441114Y711121D02*
X441112Y711000D01*
X441106Y710879D01*
X441096Y710759D01*
X441083Y710638D01*
X441065Y710519D01*
X441044Y710399D01*
X441019Y710281D01*
X440990Y710164D01*
X440957Y710047D01*
X440921Y709932D01*
X440880Y709818D01*
X440837Y709705D01*
X440789Y709593D01*
X440738Y709484D01*
X440683Y709376D01*
X440625Y709269D01*
X440564Y709165D01*
X440499Y709063D01*
X440431Y708963D01*
X440360Y708865D01*
X440286Y708769D01*
X440209Y708676D01*
X440128Y708586D01*
X440045Y708498D01*
X439959Y708413D01*
X439870Y708330D01*
X439779Y708251D01*
X439685Y708174D01*
X439589Y708101D01*
X439491Y708031D01*
X439390Y707964D01*
X439287Y707900D01*
X439182Y707840D01*
X439075Y707783D01*
X438967Y707729D01*
X438857Y707679D01*
X438745Y707633D01*
X438632Y707590D01*
X438517Y707551D01*
X435921Y713069D02*
X435998Y713148D01*
X436079Y713224D01*
X436162Y713297D01*
X436247Y713367D01*
X436335Y713434D01*
X436425Y713498D01*
X436517Y713558D01*
X436612Y713615D01*
X436708Y713669D01*
X436806Y713720D01*
X436906Y713767D01*
X437008Y713811D01*
X437111Y713851D01*
X437215Y713887D01*
X437321Y713919D01*
X437427Y713948D01*
X437535Y713973D01*
X437643Y713995D01*
X437753Y714012D01*
X437862Y714026D01*
X437972Y714035D01*
X438083Y714041D01*
X438193Y714043D01*
X435921Y713069D02*
X429430Y707551D01*
X429430Y714042D01*
X532637Y414977D02*
X544321Y414977D01*
X537830Y418871D01*
X544321Y422766D01*
X532637Y422766D01*
X535883Y428199D02*
X541076Y428199D01*
X541076Y428198D02*
X541189Y428200D01*
X541302Y428206D01*
X541415Y428216D01*
X541528Y428230D01*
X541640Y428247D01*
X541751Y428269D01*
X541861Y428294D01*
X541971Y428324D01*
X542079Y428357D01*
X542186Y428394D01*
X542292Y428434D01*
X542396Y428479D01*
X542499Y428527D01*
X542600Y428578D01*
X542699Y428633D01*
X542796Y428691D01*
X542891Y428753D01*
X542984Y428818D01*
X543074Y428886D01*
X543162Y428957D01*
X543248Y429032D01*
X543331Y429109D01*
X543411Y429189D01*
X543488Y429272D01*
X543563Y429358D01*
X543634Y429446D01*
X543702Y429536D01*
X543767Y429629D01*
X543829Y429724D01*
X543887Y429821D01*
X543942Y429920D01*
X543993Y430021D01*
X544041Y430124D01*
X544086Y430228D01*
X544126Y430334D01*
X544163Y430441D01*
X544196Y430549D01*
X544226Y430659D01*
X544251Y430769D01*
X544273Y430880D01*
X544290Y430992D01*
X544304Y431105D01*
X544314Y431218D01*
X544320Y431331D01*
X544322Y431444D01*
X544320Y431557D01*
X544314Y431670D01*
X544304Y431783D01*
X544290Y431896D01*
X544273Y432008D01*
X544251Y432119D01*
X544226Y432229D01*
X544196Y432339D01*
X544163Y432447D01*
X544126Y432554D01*
X544086Y432660D01*
X544041Y432764D01*
X543993Y432867D01*
X543942Y432968D01*
X543887Y433067D01*
X543829Y433164D01*
X543767Y433259D01*
X543702Y433352D01*
X543634Y433442D01*
X543563Y433530D01*
X543488Y433616D01*
X543411Y433699D01*
X543331Y433779D01*
X543248Y433856D01*
X543162Y433931D01*
X543074Y434002D01*
X542984Y434070D01*
X542891Y434135D01*
X542796Y434197D01*
X542699Y434255D01*
X542600Y434310D01*
X542499Y434361D01*
X542396Y434409D01*
X542292Y434454D01*
X542186Y434494D01*
X542079Y434531D01*
X541971Y434564D01*
X541861Y434594D01*
X541751Y434619D01*
X541640Y434641D01*
X541528Y434658D01*
X541415Y434672D01*
X541302Y434682D01*
X541189Y434688D01*
X541076Y434690D01*
X535883Y434690D01*
X535770Y434688D01*
X535657Y434682D01*
X535544Y434672D01*
X535431Y434658D01*
X535319Y434641D01*
X535208Y434619D01*
X535098Y434594D01*
X534988Y434564D01*
X534880Y434531D01*
X534773Y434494D01*
X534667Y434454D01*
X534563Y434409D01*
X534460Y434361D01*
X534359Y434310D01*
X534260Y434255D01*
X534163Y434197D01*
X534068Y434135D01*
X533975Y434070D01*
X533885Y434002D01*
X533797Y433931D01*
X533711Y433856D01*
X533628Y433779D01*
X533548Y433699D01*
X533471Y433616D01*
X533396Y433530D01*
X533325Y433442D01*
X533257Y433352D01*
X533192Y433259D01*
X533130Y433164D01*
X533072Y433067D01*
X533017Y432968D01*
X532966Y432867D01*
X532918Y432764D01*
X532873Y432660D01*
X532833Y432554D01*
X532796Y432447D01*
X532763Y432339D01*
X532733Y432229D01*
X532708Y432119D01*
X532686Y432008D01*
X532669Y431896D01*
X532655Y431783D01*
X532645Y431670D01*
X532639Y431557D01*
X532637Y431444D01*
X532639Y431331D01*
X532645Y431218D01*
X532655Y431105D01*
X532669Y430992D01*
X532686Y430880D01*
X532708Y430769D01*
X532733Y430659D01*
X532763Y430549D01*
X532796Y430441D01*
X532833Y430334D01*
X532873Y430228D01*
X532918Y430124D01*
X532966Y430021D01*
X533017Y429920D01*
X533072Y429821D01*
X533130Y429724D01*
X533192Y429629D01*
X533257Y429536D01*
X533325Y429446D01*
X533396Y429358D01*
X533471Y429272D01*
X533548Y429189D01*
X533628Y429109D01*
X533711Y429032D01*
X533797Y428957D01*
X533885Y428886D01*
X533975Y428818D01*
X534068Y428753D01*
X534163Y428691D01*
X534260Y428633D01*
X534359Y428578D01*
X534460Y428527D01*
X534563Y428479D01*
X534667Y428434D01*
X534773Y428394D01*
X534880Y428357D01*
X534988Y428324D01*
X535098Y428294D01*
X535208Y428269D01*
X535319Y428247D01*
X535431Y428230D01*
X535544Y428216D01*
X535657Y428206D01*
X535770Y428200D01*
X535883Y428198D01*
X532638Y443142D02*
X532640Y443241D01*
X532646Y443341D01*
X532655Y443440D01*
X532668Y443538D01*
X532685Y443636D01*
X532706Y443734D01*
X532731Y443830D01*
X532759Y443925D01*
X532791Y444019D01*
X532826Y444112D01*
X532865Y444204D01*
X532908Y444294D01*
X532953Y444382D01*
X533003Y444469D01*
X533055Y444553D01*
X533111Y444636D01*
X533169Y444716D01*
X533231Y444794D01*
X533296Y444869D01*
X533364Y444942D01*
X533434Y445012D01*
X533507Y445080D01*
X533582Y445145D01*
X533660Y445207D01*
X533740Y445265D01*
X533823Y445321D01*
X533907Y445373D01*
X533994Y445423D01*
X534082Y445468D01*
X534172Y445511D01*
X534264Y445550D01*
X534357Y445585D01*
X534451Y445617D01*
X534546Y445645D01*
X534642Y445670D01*
X534740Y445691D01*
X534838Y445708D01*
X534936Y445721D01*
X535035Y445730D01*
X535135Y445736D01*
X535234Y445738D01*
X532638Y443142D02*
X532640Y442998D01*
X532646Y442853D01*
X532655Y442709D01*
X532668Y442566D01*
X532685Y442422D01*
X532706Y442279D01*
X532731Y442137D01*
X532759Y441996D01*
X532791Y441855D01*
X532827Y441715D01*
X532866Y441576D01*
X532909Y441438D01*
X532956Y441302D01*
X533006Y441166D01*
X533060Y441032D01*
X533117Y440900D01*
X533178Y440769D01*
X533242Y440640D01*
X533310Y440512D01*
X533380Y440386D01*
X533455Y440262D01*
X533532Y440141D01*
X533613Y440021D01*
X533696Y439903D01*
X533783Y439788D01*
X533873Y439675D01*
X533966Y439564D01*
X534061Y439456D01*
X534160Y439350D01*
X534261Y439247D01*
X541725Y439573D02*
X541824Y439575D01*
X541924Y439581D01*
X542023Y439590D01*
X542121Y439603D01*
X542219Y439620D01*
X542317Y439641D01*
X542413Y439666D01*
X542508Y439694D01*
X542602Y439726D01*
X542695Y439761D01*
X542787Y439800D01*
X542877Y439843D01*
X542965Y439888D01*
X543052Y439938D01*
X543136Y439990D01*
X543219Y440046D01*
X543299Y440104D01*
X543377Y440166D01*
X543452Y440231D01*
X543525Y440299D01*
X543595Y440369D01*
X543663Y440442D01*
X543728Y440517D01*
X543790Y440595D01*
X543848Y440675D01*
X543904Y440758D01*
X543956Y440842D01*
X544006Y440929D01*
X544051Y441017D01*
X544094Y441107D01*
X544133Y441199D01*
X544168Y441292D01*
X544200Y441386D01*
X544228Y441481D01*
X544253Y441578D01*
X544274Y441675D01*
X544291Y441773D01*
X544304Y441871D01*
X544313Y441970D01*
X544319Y442070D01*
X544321Y442169D01*
X544319Y442305D01*
X544313Y442441D01*
X544304Y442577D01*
X544291Y442713D01*
X544273Y442848D01*
X544253Y442982D01*
X544228Y443116D01*
X544200Y443250D01*
X544167Y443382D01*
X544132Y443513D01*
X544092Y443644D01*
X544049Y443773D01*
X544003Y443901D01*
X543952Y444027D01*
X543899Y444153D01*
X543841Y444276D01*
X543781Y444398D01*
X543717Y444518D01*
X543649Y444637D01*
X543579Y444753D01*
X543505Y444867D01*
X543428Y444980D01*
X543347Y445090D01*
X539453Y440870D02*
X539506Y440784D01*
X539563Y440700D01*
X539622Y440618D01*
X539685Y440538D01*
X539751Y440461D01*
X539819Y440386D01*
X539891Y440314D01*
X539965Y440245D01*
X540042Y440179D01*
X540121Y440116D01*
X540203Y440056D01*
X540287Y439999D01*
X540373Y439945D01*
X540461Y439895D01*
X540551Y439848D01*
X540642Y439804D01*
X540736Y439765D01*
X540830Y439728D01*
X540926Y439696D01*
X541024Y439667D01*
X541122Y439642D01*
X541221Y439621D01*
X541321Y439603D01*
X541421Y439590D01*
X541522Y439580D01*
X541624Y439574D01*
X541725Y439572D01*
X537506Y444441D02*
X537453Y444527D01*
X537396Y444611D01*
X537337Y444693D01*
X537274Y444773D01*
X537208Y444850D01*
X537140Y444925D01*
X537068Y444997D01*
X536994Y445066D01*
X536917Y445132D01*
X536838Y445195D01*
X536756Y445255D01*
X536672Y445312D01*
X536586Y445366D01*
X536498Y445416D01*
X536408Y445463D01*
X536317Y445507D01*
X536223Y445546D01*
X536129Y445583D01*
X536033Y445615D01*
X535935Y445644D01*
X535837Y445669D01*
X535738Y445690D01*
X535638Y445708D01*
X535538Y445721D01*
X535437Y445731D01*
X535335Y445737D01*
X535234Y445739D01*
X537506Y444440D02*
X539453Y440870D01*
X544321Y450700D02*
X532637Y450700D01*
X544321Y450700D02*
X544321Y455893D01*
X539129Y455893D02*
X539129Y450700D01*
X532637Y460606D02*
X532637Y465799D01*
X532637Y460606D02*
X544321Y460606D01*
X544321Y465799D01*
X539129Y464501D02*
X539129Y460606D01*
X544321Y472592D02*
X532637Y472592D01*
X544321Y469347D02*
X544321Y475838D01*
X537181Y480127D02*
X537181Y487917D01*
X544321Y496539D02*
X544319Y496646D01*
X544313Y496752D01*
X544303Y496858D01*
X544290Y496964D01*
X544272Y497070D01*
X544251Y497174D01*
X544226Y497278D01*
X544197Y497381D01*
X544165Y497482D01*
X544128Y497582D01*
X544088Y497681D01*
X544045Y497779D01*
X543998Y497875D01*
X543947Y497969D01*
X543893Y498061D01*
X543836Y498151D01*
X543776Y498239D01*
X543712Y498324D01*
X543645Y498407D01*
X543575Y498488D01*
X543503Y498566D01*
X543427Y498642D01*
X543349Y498714D01*
X543268Y498784D01*
X543185Y498851D01*
X543100Y498915D01*
X543012Y498975D01*
X542922Y499032D01*
X542830Y499086D01*
X542736Y499137D01*
X542640Y499184D01*
X542542Y499227D01*
X542443Y499267D01*
X542343Y499304D01*
X542242Y499336D01*
X542139Y499365D01*
X542035Y499390D01*
X541931Y499411D01*
X541825Y499429D01*
X541719Y499442D01*
X541613Y499452D01*
X541507Y499458D01*
X541400Y499460D01*
X544322Y496539D02*
X544320Y496418D01*
X544314Y496297D01*
X544304Y496177D01*
X544291Y496056D01*
X544273Y495937D01*
X544252Y495817D01*
X544227Y495699D01*
X544198Y495582D01*
X544165Y495465D01*
X544129Y495350D01*
X544088Y495236D01*
X544045Y495123D01*
X543997Y495011D01*
X543946Y494902D01*
X543891Y494794D01*
X543833Y494687D01*
X543772Y494583D01*
X543707Y494481D01*
X543639Y494381D01*
X543568Y494283D01*
X543494Y494187D01*
X543417Y494094D01*
X543336Y494004D01*
X543253Y493916D01*
X543167Y493831D01*
X543078Y493748D01*
X542987Y493669D01*
X542893Y493592D01*
X542797Y493519D01*
X542699Y493449D01*
X542598Y493382D01*
X542495Y493318D01*
X542390Y493258D01*
X542283Y493201D01*
X542175Y493147D01*
X542065Y493097D01*
X541953Y493051D01*
X541840Y493008D01*
X541725Y492969D01*
X539128Y498486D02*
X539205Y498565D01*
X539286Y498641D01*
X539369Y498714D01*
X539454Y498784D01*
X539542Y498851D01*
X539632Y498915D01*
X539724Y498975D01*
X539819Y499032D01*
X539915Y499086D01*
X540013Y499137D01*
X540113Y499184D01*
X540215Y499228D01*
X540318Y499268D01*
X540422Y499304D01*
X540528Y499336D01*
X540634Y499365D01*
X540742Y499390D01*
X540850Y499412D01*
X540960Y499429D01*
X541069Y499443D01*
X541179Y499452D01*
X541290Y499458D01*
X541400Y499460D01*
X539129Y498486D02*
X532637Y492969D01*
X532637Y499460D01*
D10*
X505676Y384565D02*
X500850Y384565D01*
X505676Y384565D02*
X505676Y385905D01*
X505677Y385905D02*
X505675Y385976D01*
X505669Y386048D01*
X505660Y386118D01*
X505647Y386188D01*
X505630Y386258D01*
X505609Y386326D01*
X505585Y386393D01*
X505557Y386459D01*
X505526Y386523D01*
X505491Y386586D01*
X505453Y386646D01*
X505412Y386705D01*
X505368Y386761D01*
X505321Y386815D01*
X505272Y386866D01*
X505219Y386914D01*
X505164Y386960D01*
X505107Y387002D01*
X505047Y387042D01*
X504986Y387078D01*
X504922Y387111D01*
X504857Y387140D01*
X504791Y387166D01*
X504723Y387189D01*
X504654Y387208D01*
X504584Y387223D01*
X504514Y387234D01*
X504443Y387242D01*
X504372Y387246D01*
X504300Y387246D01*
X504229Y387242D01*
X504158Y387234D01*
X504088Y387223D01*
X504018Y387208D01*
X503949Y387189D01*
X503881Y387166D01*
X503815Y387140D01*
X503750Y387111D01*
X503686Y387078D01*
X503625Y387042D01*
X503565Y387002D01*
X503508Y386960D01*
X503453Y386914D01*
X503400Y386866D01*
X503351Y386815D01*
X503304Y386761D01*
X503260Y386705D01*
X503219Y386646D01*
X503181Y386586D01*
X503146Y386523D01*
X503115Y386459D01*
X503087Y386393D01*
X503063Y386326D01*
X503042Y386258D01*
X503025Y386188D01*
X503012Y386118D01*
X503003Y386048D01*
X502997Y385976D01*
X502995Y385905D01*
X502995Y384565D01*
X502995Y386174D02*
X500850Y387246D01*
X504604Y389988D02*
X505676Y391328D01*
X500850Y391328D01*
X500850Y389988D02*
X500850Y392669D01*
X460185Y568579D02*
X460185Y573405D01*
X458845Y573405D01*
X458774Y573403D01*
X458702Y573397D01*
X458632Y573388D01*
X458562Y573375D01*
X458492Y573358D01*
X458424Y573337D01*
X458357Y573313D01*
X458291Y573285D01*
X458227Y573254D01*
X458164Y573219D01*
X458104Y573181D01*
X458045Y573140D01*
X457989Y573096D01*
X457935Y573049D01*
X457884Y573000D01*
X457836Y572947D01*
X457790Y572892D01*
X457748Y572835D01*
X457708Y572775D01*
X457672Y572714D01*
X457639Y572650D01*
X457610Y572585D01*
X457584Y572519D01*
X457561Y572451D01*
X457542Y572382D01*
X457527Y572312D01*
X457516Y572242D01*
X457508Y572171D01*
X457504Y572100D01*
X457504Y572028D01*
X457508Y571957D01*
X457516Y571886D01*
X457527Y571816D01*
X457542Y571746D01*
X457561Y571677D01*
X457584Y571609D01*
X457610Y571543D01*
X457639Y571478D01*
X457672Y571414D01*
X457708Y571353D01*
X457748Y571293D01*
X457790Y571236D01*
X457836Y571181D01*
X457884Y571128D01*
X457935Y571079D01*
X457989Y571032D01*
X458045Y570988D01*
X458104Y570947D01*
X458164Y570909D01*
X458227Y570874D01*
X458291Y570843D01*
X458357Y570815D01*
X458424Y570791D01*
X458492Y570770D01*
X458562Y570753D01*
X458632Y570740D01*
X458702Y570731D01*
X458774Y570725D01*
X458845Y570723D01*
X458845Y570724D02*
X460185Y570724D01*
X458576Y570724D02*
X457504Y568579D01*
X454762Y572333D02*
X453422Y573405D01*
X453422Y568579D01*
X454762Y568579D02*
X452081Y568579D01*
X449276Y570992D02*
X449274Y571112D01*
X449269Y571232D01*
X449260Y571352D01*
X449247Y571472D01*
X449231Y571591D01*
X449211Y571710D01*
X449187Y571828D01*
X449160Y571945D01*
X449130Y572061D01*
X449096Y572176D01*
X449058Y572291D01*
X449017Y572404D01*
X448973Y572515D01*
X448925Y572626D01*
X448874Y572735D01*
X448853Y572792D01*
X448827Y572848D01*
X448799Y572903D01*
X448767Y572955D01*
X448731Y573006D01*
X448693Y573054D01*
X448652Y573100D01*
X448608Y573143D01*
X448562Y573183D01*
X448513Y573220D01*
X448461Y573254D01*
X448408Y573285D01*
X448353Y573313D01*
X448297Y573337D01*
X448239Y573358D01*
X448180Y573375D01*
X448120Y573388D01*
X448059Y573397D01*
X447997Y573403D01*
X447936Y573405D01*
X447875Y573403D01*
X447813Y573397D01*
X447752Y573388D01*
X447692Y573375D01*
X447633Y573358D01*
X447575Y573337D01*
X447519Y573313D01*
X447464Y573285D01*
X447411Y573254D01*
X447359Y573220D01*
X447311Y573183D01*
X447264Y573143D01*
X447220Y573100D01*
X447179Y573054D01*
X447141Y573006D01*
X447105Y572955D01*
X447073Y572903D01*
X447045Y572848D01*
X447019Y572792D01*
X446998Y572735D01*
X446997Y572735D02*
X446946Y572626D01*
X446898Y572515D01*
X446854Y572404D01*
X446813Y572291D01*
X446775Y572176D01*
X446741Y572061D01*
X446711Y571945D01*
X446684Y571828D01*
X446660Y571710D01*
X446640Y571591D01*
X446624Y571472D01*
X446611Y571352D01*
X446602Y571232D01*
X446597Y571112D01*
X446595Y570992D01*
X449276Y570992D02*
X449274Y570872D01*
X449269Y570752D01*
X449260Y570632D01*
X449247Y570512D01*
X449231Y570393D01*
X449211Y570274D01*
X449187Y570156D01*
X449160Y570039D01*
X449130Y569923D01*
X449096Y569808D01*
X449058Y569693D01*
X449017Y569580D01*
X448973Y569469D01*
X448925Y569358D01*
X448874Y569249D01*
X448853Y569192D01*
X448827Y569136D01*
X448799Y569081D01*
X448767Y569029D01*
X448731Y568978D01*
X448693Y568930D01*
X448652Y568884D01*
X448608Y568841D01*
X448562Y568801D01*
X448513Y568764D01*
X448461Y568730D01*
X448408Y568699D01*
X448353Y568671D01*
X448297Y568647D01*
X448239Y568626D01*
X448180Y568609D01*
X448120Y568596D01*
X448059Y568587D01*
X447997Y568581D01*
X447936Y568579D01*
X446997Y569249D02*
X446946Y569358D01*
X446898Y569469D01*
X446854Y569580D01*
X446813Y569693D01*
X446775Y569808D01*
X446741Y569923D01*
X446711Y570039D01*
X446684Y570156D01*
X446660Y570274D01*
X446640Y570393D01*
X446624Y570512D01*
X446611Y570632D01*
X446602Y570752D01*
X446597Y570872D01*
X446595Y570992D01*
X446998Y569249D02*
X447019Y569192D01*
X447045Y569136D01*
X447073Y569081D01*
X447105Y569029D01*
X447141Y568978D01*
X447179Y568930D01*
X447220Y568884D01*
X447264Y568841D01*
X447311Y568801D01*
X447359Y568764D01*
X447411Y568730D01*
X447464Y568699D01*
X447519Y568671D01*
X447575Y568647D01*
X447633Y568626D01*
X447692Y568609D01*
X447752Y568596D01*
X447813Y568587D01*
X447875Y568581D01*
X447936Y568579D01*
X449008Y569651D02*
X446863Y572333D01*
X298895Y444881D02*
X298895Y440055D01*
X298895Y444881D02*
X297555Y444881D01*
X297484Y444879D01*
X297412Y444873D01*
X297342Y444864D01*
X297272Y444851D01*
X297202Y444834D01*
X297134Y444813D01*
X297067Y444789D01*
X297001Y444761D01*
X296937Y444730D01*
X296874Y444695D01*
X296814Y444657D01*
X296755Y444616D01*
X296699Y444572D01*
X296645Y444525D01*
X296594Y444476D01*
X296546Y444423D01*
X296500Y444368D01*
X296458Y444311D01*
X296418Y444251D01*
X296382Y444190D01*
X296349Y444126D01*
X296320Y444061D01*
X296294Y443995D01*
X296271Y443927D01*
X296252Y443858D01*
X296237Y443788D01*
X296226Y443718D01*
X296218Y443647D01*
X296214Y443576D01*
X296214Y443504D01*
X296218Y443433D01*
X296226Y443362D01*
X296237Y443292D01*
X296252Y443222D01*
X296271Y443153D01*
X296294Y443085D01*
X296320Y443019D01*
X296349Y442954D01*
X296382Y442890D01*
X296418Y442829D01*
X296458Y442769D01*
X296500Y442712D01*
X296546Y442657D01*
X296594Y442604D01*
X296645Y442555D01*
X296699Y442508D01*
X296755Y442464D01*
X296814Y442423D01*
X296874Y442385D01*
X296937Y442350D01*
X297001Y442319D01*
X297067Y442291D01*
X297134Y442267D01*
X297202Y442246D01*
X297272Y442229D01*
X297342Y442216D01*
X297412Y442207D01*
X297484Y442201D01*
X297555Y442199D01*
X297555Y442200D02*
X298895Y442200D01*
X297286Y442200D02*
X296214Y440055D01*
X293472Y443809D02*
X292132Y444881D01*
X292132Y440055D01*
X293472Y440055D02*
X290791Y440055D01*
X287986Y443809D02*
X286646Y444881D01*
X286646Y440055D01*
X287986Y440055D02*
X285305Y440055D01*
X325749Y295459D02*
X330575Y295459D01*
X330575Y296799D01*
X330573Y296870D01*
X330567Y296942D01*
X330558Y297012D01*
X330545Y297082D01*
X330528Y297152D01*
X330507Y297220D01*
X330483Y297287D01*
X330455Y297353D01*
X330424Y297417D01*
X330389Y297480D01*
X330351Y297540D01*
X330310Y297599D01*
X330266Y297655D01*
X330219Y297709D01*
X330170Y297760D01*
X330117Y297808D01*
X330062Y297854D01*
X330005Y297896D01*
X329945Y297936D01*
X329884Y297972D01*
X329820Y298005D01*
X329755Y298034D01*
X329689Y298060D01*
X329621Y298083D01*
X329552Y298102D01*
X329482Y298117D01*
X329412Y298128D01*
X329341Y298136D01*
X329270Y298140D01*
X329198Y298140D01*
X329127Y298136D01*
X329056Y298128D01*
X328986Y298117D01*
X328916Y298102D01*
X328847Y298083D01*
X328779Y298060D01*
X328713Y298034D01*
X328648Y298005D01*
X328584Y297972D01*
X328523Y297936D01*
X328463Y297896D01*
X328406Y297854D01*
X328351Y297808D01*
X328298Y297760D01*
X328249Y297709D01*
X328202Y297655D01*
X328158Y297599D01*
X328117Y297540D01*
X328079Y297480D01*
X328044Y297417D01*
X328013Y297353D01*
X327985Y297287D01*
X327961Y297220D01*
X327940Y297152D01*
X327923Y297082D01*
X327910Y297012D01*
X327901Y296942D01*
X327895Y296870D01*
X327893Y296799D01*
X327894Y296799D02*
X327894Y295459D01*
X327894Y297068D02*
X325749Y298140D01*
X329502Y300882D02*
X330575Y302222D01*
X325749Y302222D01*
X325749Y300882D02*
X325749Y303563D01*
X325749Y306368D02*
X325749Y307708D01*
X325748Y307708D02*
X325750Y307779D01*
X325756Y307851D01*
X325765Y307921D01*
X325778Y307991D01*
X325795Y308061D01*
X325816Y308129D01*
X325840Y308196D01*
X325868Y308262D01*
X325899Y308326D01*
X325934Y308389D01*
X325972Y308449D01*
X326013Y308508D01*
X326057Y308564D01*
X326104Y308618D01*
X326153Y308669D01*
X326206Y308717D01*
X326261Y308763D01*
X326318Y308805D01*
X326378Y308845D01*
X326439Y308881D01*
X326503Y308914D01*
X326568Y308943D01*
X326634Y308969D01*
X326702Y308992D01*
X326771Y309011D01*
X326841Y309026D01*
X326911Y309037D01*
X326982Y309045D01*
X327053Y309049D01*
X327125Y309049D01*
X327196Y309045D01*
X327267Y309037D01*
X327337Y309026D01*
X327407Y309011D01*
X327476Y308992D01*
X327544Y308969D01*
X327610Y308943D01*
X327675Y308914D01*
X327739Y308881D01*
X327800Y308845D01*
X327860Y308805D01*
X327917Y308763D01*
X327972Y308717D01*
X328025Y308669D01*
X328074Y308618D01*
X328121Y308564D01*
X328165Y308508D01*
X328206Y308449D01*
X328244Y308389D01*
X328279Y308326D01*
X328310Y308262D01*
X328338Y308196D01*
X328362Y308129D01*
X328383Y308061D01*
X328400Y307991D01*
X328413Y307921D01*
X328422Y307851D01*
X328428Y307779D01*
X328430Y307708D01*
X330575Y307977D02*
X330575Y306368D01*
X330574Y307977D02*
X330572Y308042D01*
X330566Y308106D01*
X330556Y308170D01*
X330543Y308234D01*
X330525Y308296D01*
X330504Y308357D01*
X330480Y308417D01*
X330451Y308475D01*
X330419Y308532D01*
X330384Y308586D01*
X330346Y308638D01*
X330304Y308688D01*
X330260Y308735D01*
X330213Y308779D01*
X330163Y308821D01*
X330111Y308859D01*
X330057Y308894D01*
X330000Y308926D01*
X329942Y308955D01*
X329882Y308979D01*
X329821Y309000D01*
X329759Y309018D01*
X329695Y309031D01*
X329631Y309041D01*
X329567Y309047D01*
X329502Y309049D01*
X329437Y309047D01*
X329373Y309041D01*
X329309Y309031D01*
X329245Y309018D01*
X329183Y309000D01*
X329122Y308979D01*
X329062Y308955D01*
X329004Y308926D01*
X328947Y308894D01*
X328893Y308859D01*
X328841Y308821D01*
X328791Y308779D01*
X328744Y308735D01*
X328700Y308688D01*
X328658Y308638D01*
X328620Y308586D01*
X328585Y308532D01*
X328553Y308475D01*
X328524Y308417D01*
X328500Y308357D01*
X328479Y308296D01*
X328461Y308234D01*
X328448Y308170D01*
X328438Y308106D01*
X328432Y308042D01*
X328430Y307977D01*
X328430Y306904D01*
X574063Y421284D02*
X574063Y426110D01*
X572723Y426110D01*
X572723Y426111D02*
X572652Y426109D01*
X572580Y426103D01*
X572510Y426094D01*
X572440Y426081D01*
X572370Y426064D01*
X572302Y426043D01*
X572235Y426019D01*
X572169Y425991D01*
X572105Y425960D01*
X572042Y425925D01*
X571982Y425887D01*
X571923Y425846D01*
X571867Y425802D01*
X571813Y425755D01*
X571762Y425706D01*
X571714Y425653D01*
X571668Y425598D01*
X571626Y425541D01*
X571586Y425481D01*
X571550Y425420D01*
X571517Y425356D01*
X571488Y425291D01*
X571462Y425225D01*
X571439Y425157D01*
X571420Y425088D01*
X571405Y425018D01*
X571394Y424948D01*
X571386Y424877D01*
X571382Y424806D01*
X571382Y424734D01*
X571386Y424663D01*
X571394Y424592D01*
X571405Y424522D01*
X571420Y424452D01*
X571439Y424383D01*
X571462Y424315D01*
X571488Y424249D01*
X571517Y424184D01*
X571550Y424120D01*
X571586Y424059D01*
X571626Y423999D01*
X571668Y423942D01*
X571714Y423887D01*
X571762Y423834D01*
X571813Y423785D01*
X571867Y423738D01*
X571923Y423694D01*
X571982Y423653D01*
X572042Y423615D01*
X572105Y423580D01*
X572169Y423549D01*
X572235Y423521D01*
X572302Y423497D01*
X572370Y423476D01*
X572440Y423459D01*
X572510Y423446D01*
X572580Y423437D01*
X572652Y423431D01*
X572723Y423429D01*
X574063Y423429D01*
X572455Y423429D02*
X571382Y421284D01*
X568641Y425038D02*
X567300Y426110D01*
X567300Y421284D01*
X565960Y421284D02*
X568641Y421284D01*
X563154Y421284D02*
X561546Y421284D01*
X561546Y421285D02*
X561481Y421287D01*
X561417Y421293D01*
X561353Y421303D01*
X561289Y421316D01*
X561227Y421334D01*
X561166Y421355D01*
X561106Y421379D01*
X561048Y421408D01*
X560991Y421440D01*
X560937Y421475D01*
X560885Y421513D01*
X560835Y421555D01*
X560788Y421599D01*
X560744Y421646D01*
X560702Y421696D01*
X560664Y421748D01*
X560629Y421802D01*
X560597Y421859D01*
X560568Y421917D01*
X560544Y421977D01*
X560523Y422038D01*
X560505Y422100D01*
X560492Y422164D01*
X560482Y422228D01*
X560476Y422292D01*
X560474Y422357D01*
X560473Y422357D02*
X560473Y422893D01*
X560474Y422893D02*
X560476Y422958D01*
X560482Y423022D01*
X560492Y423086D01*
X560505Y423150D01*
X560523Y423212D01*
X560544Y423273D01*
X560568Y423333D01*
X560597Y423391D01*
X560629Y423448D01*
X560664Y423502D01*
X560702Y423554D01*
X560744Y423604D01*
X560788Y423651D01*
X560835Y423695D01*
X560885Y423737D01*
X560937Y423775D01*
X560991Y423810D01*
X561048Y423842D01*
X561106Y423871D01*
X561166Y423895D01*
X561227Y423916D01*
X561289Y423934D01*
X561353Y423947D01*
X561417Y423957D01*
X561481Y423963D01*
X561546Y423965D01*
X563154Y423965D01*
X563154Y426110D01*
X560473Y426110D01*
X512618Y335463D02*
X507792Y335463D01*
X512618Y335463D02*
X512618Y336804D01*
X512616Y336875D01*
X512610Y336947D01*
X512601Y337017D01*
X512588Y337087D01*
X512571Y337157D01*
X512550Y337225D01*
X512526Y337292D01*
X512498Y337358D01*
X512467Y337422D01*
X512432Y337485D01*
X512394Y337545D01*
X512353Y337604D01*
X512309Y337660D01*
X512262Y337714D01*
X512213Y337765D01*
X512160Y337813D01*
X512105Y337859D01*
X512048Y337901D01*
X511988Y337941D01*
X511927Y337977D01*
X511863Y338010D01*
X511798Y338039D01*
X511732Y338065D01*
X511664Y338088D01*
X511595Y338107D01*
X511525Y338122D01*
X511455Y338133D01*
X511384Y338141D01*
X511313Y338145D01*
X511241Y338145D01*
X511170Y338141D01*
X511099Y338133D01*
X511029Y338122D01*
X510959Y338107D01*
X510890Y338088D01*
X510822Y338065D01*
X510756Y338039D01*
X510691Y338010D01*
X510627Y337977D01*
X510566Y337941D01*
X510506Y337901D01*
X510449Y337859D01*
X510394Y337813D01*
X510341Y337765D01*
X510292Y337714D01*
X510245Y337660D01*
X510201Y337604D01*
X510160Y337545D01*
X510122Y337485D01*
X510087Y337422D01*
X510056Y337358D01*
X510028Y337292D01*
X510004Y337225D01*
X509983Y337157D01*
X509966Y337087D01*
X509953Y337017D01*
X509944Y336947D01*
X509938Y336875D01*
X509936Y336804D01*
X509937Y336804D02*
X509937Y335463D01*
X509937Y337072D02*
X507792Y338144D01*
X512618Y342360D02*
X512616Y342428D01*
X512610Y342495D01*
X512601Y342562D01*
X512588Y342629D01*
X512571Y342694D01*
X512550Y342759D01*
X512526Y342822D01*
X512498Y342884D01*
X512467Y342944D01*
X512433Y343002D01*
X512395Y343058D01*
X512355Y343113D01*
X512311Y343164D01*
X512264Y343213D01*
X512215Y343260D01*
X512164Y343304D01*
X512109Y343344D01*
X512053Y343382D01*
X511995Y343416D01*
X511935Y343447D01*
X511873Y343475D01*
X511810Y343499D01*
X511745Y343520D01*
X511680Y343537D01*
X511613Y343550D01*
X511546Y343559D01*
X511479Y343565D01*
X511411Y343567D01*
X512618Y342360D02*
X512616Y342282D01*
X512610Y342204D01*
X512600Y342127D01*
X512587Y342050D01*
X512569Y341974D01*
X512548Y341899D01*
X512523Y341825D01*
X512494Y341753D01*
X512462Y341682D01*
X512426Y341613D01*
X512387Y341545D01*
X512344Y341480D01*
X512298Y341417D01*
X512249Y341356D01*
X512197Y341298D01*
X512142Y341243D01*
X512085Y341190D01*
X512025Y341141D01*
X511962Y341094D01*
X511897Y341051D01*
X511831Y341011D01*
X511762Y340974D01*
X511691Y340941D01*
X511619Y340911D01*
X511546Y340885D01*
X510473Y343165D02*
X510522Y343214D01*
X510574Y343261D01*
X510629Y343304D01*
X510686Y343345D01*
X510745Y343383D01*
X510806Y343417D01*
X510869Y343448D01*
X510933Y343476D01*
X510999Y343500D01*
X511065Y343520D01*
X511133Y343537D01*
X511202Y343550D01*
X511271Y343559D01*
X511341Y343565D01*
X511411Y343567D01*
X510473Y343165D02*
X507792Y340886D01*
X507792Y343567D01*
X362751Y304129D02*
X357925Y304129D01*
X362751Y304129D02*
X362751Y305470D01*
X362749Y305541D01*
X362743Y305613D01*
X362734Y305683D01*
X362721Y305753D01*
X362704Y305823D01*
X362683Y305891D01*
X362659Y305958D01*
X362631Y306024D01*
X362600Y306088D01*
X362565Y306151D01*
X362527Y306211D01*
X362486Y306270D01*
X362442Y306326D01*
X362395Y306380D01*
X362346Y306431D01*
X362293Y306479D01*
X362238Y306525D01*
X362181Y306567D01*
X362121Y306607D01*
X362060Y306643D01*
X361996Y306676D01*
X361931Y306705D01*
X361865Y306731D01*
X361797Y306754D01*
X361728Y306773D01*
X361658Y306788D01*
X361588Y306799D01*
X361517Y306807D01*
X361446Y306811D01*
X361374Y306811D01*
X361303Y306807D01*
X361232Y306799D01*
X361162Y306788D01*
X361092Y306773D01*
X361023Y306754D01*
X360955Y306731D01*
X360889Y306705D01*
X360824Y306676D01*
X360760Y306643D01*
X360699Y306607D01*
X360639Y306567D01*
X360582Y306525D01*
X360527Y306479D01*
X360474Y306431D01*
X360425Y306380D01*
X360378Y306326D01*
X360334Y306270D01*
X360293Y306211D01*
X360255Y306151D01*
X360220Y306088D01*
X360189Y306024D01*
X360161Y305958D01*
X360137Y305891D01*
X360116Y305823D01*
X360099Y305753D01*
X360086Y305683D01*
X360077Y305613D01*
X360071Y305541D01*
X360069Y305470D01*
X360069Y304129D01*
X360069Y305738D02*
X357925Y306810D01*
X357925Y309552D02*
X357925Y310893D01*
X357924Y310893D02*
X357926Y310964D01*
X357932Y311036D01*
X357941Y311106D01*
X357954Y311176D01*
X357971Y311246D01*
X357992Y311314D01*
X358016Y311381D01*
X358044Y311447D01*
X358075Y311511D01*
X358110Y311574D01*
X358148Y311634D01*
X358189Y311693D01*
X358233Y311749D01*
X358280Y311803D01*
X358329Y311854D01*
X358382Y311902D01*
X358437Y311948D01*
X358494Y311990D01*
X358554Y312030D01*
X358615Y312066D01*
X358679Y312099D01*
X358744Y312128D01*
X358810Y312154D01*
X358878Y312177D01*
X358947Y312196D01*
X359017Y312211D01*
X359087Y312222D01*
X359158Y312230D01*
X359229Y312234D01*
X359301Y312234D01*
X359372Y312230D01*
X359443Y312222D01*
X359513Y312211D01*
X359583Y312196D01*
X359652Y312177D01*
X359720Y312154D01*
X359786Y312128D01*
X359851Y312099D01*
X359915Y312066D01*
X359976Y312030D01*
X360036Y311990D01*
X360093Y311948D01*
X360148Y311902D01*
X360201Y311854D01*
X360250Y311803D01*
X360297Y311749D01*
X360341Y311693D01*
X360382Y311634D01*
X360420Y311574D01*
X360455Y311511D01*
X360486Y311447D01*
X360514Y311381D01*
X360538Y311314D01*
X360559Y311246D01*
X360576Y311176D01*
X360589Y311106D01*
X360598Y311036D01*
X360604Y310964D01*
X360606Y310893D01*
X362751Y311161D02*
X362751Y309552D01*
X362750Y311161D02*
X362748Y311226D01*
X362742Y311290D01*
X362732Y311354D01*
X362719Y311418D01*
X362701Y311480D01*
X362680Y311541D01*
X362656Y311601D01*
X362627Y311659D01*
X362595Y311716D01*
X362560Y311770D01*
X362522Y311822D01*
X362480Y311872D01*
X362436Y311919D01*
X362389Y311963D01*
X362339Y312005D01*
X362287Y312043D01*
X362233Y312078D01*
X362176Y312110D01*
X362118Y312139D01*
X362058Y312163D01*
X361997Y312184D01*
X361935Y312202D01*
X361871Y312215D01*
X361807Y312225D01*
X361743Y312231D01*
X361678Y312233D01*
X361613Y312231D01*
X361549Y312225D01*
X361485Y312215D01*
X361421Y312202D01*
X361359Y312184D01*
X361298Y312163D01*
X361238Y312139D01*
X361180Y312110D01*
X361123Y312078D01*
X361069Y312043D01*
X361017Y312005D01*
X360967Y311963D01*
X360920Y311919D01*
X360876Y311872D01*
X360834Y311822D01*
X360796Y311770D01*
X360761Y311716D01*
X360729Y311659D01*
X360700Y311601D01*
X360676Y311541D01*
X360655Y311480D01*
X360637Y311418D01*
X360624Y311354D01*
X360614Y311290D01*
X360608Y311226D01*
X360606Y311161D01*
X360606Y310088D01*
X362977Y264488D02*
X362977Y259662D01*
X362977Y264488D02*
X361637Y264488D01*
X361566Y264486D01*
X361494Y264480D01*
X361424Y264471D01*
X361354Y264458D01*
X361284Y264441D01*
X361216Y264420D01*
X361149Y264396D01*
X361083Y264368D01*
X361019Y264337D01*
X360956Y264302D01*
X360896Y264264D01*
X360837Y264223D01*
X360781Y264179D01*
X360727Y264132D01*
X360676Y264083D01*
X360628Y264030D01*
X360582Y263975D01*
X360540Y263918D01*
X360500Y263858D01*
X360464Y263797D01*
X360431Y263733D01*
X360402Y263668D01*
X360376Y263602D01*
X360353Y263534D01*
X360334Y263465D01*
X360319Y263395D01*
X360308Y263325D01*
X360300Y263254D01*
X360296Y263183D01*
X360296Y263111D01*
X360300Y263040D01*
X360308Y262969D01*
X360319Y262899D01*
X360334Y262829D01*
X360353Y262760D01*
X360376Y262692D01*
X360402Y262626D01*
X360431Y262561D01*
X360464Y262497D01*
X360500Y262436D01*
X360540Y262376D01*
X360582Y262319D01*
X360628Y262264D01*
X360676Y262211D01*
X360727Y262162D01*
X360781Y262115D01*
X360837Y262071D01*
X360896Y262030D01*
X360956Y261992D01*
X361019Y261957D01*
X361083Y261926D01*
X361149Y261898D01*
X361216Y261874D01*
X361284Y261853D01*
X361354Y261836D01*
X361424Y261823D01*
X361494Y261814D01*
X361566Y261808D01*
X361637Y261806D01*
X361637Y261807D02*
X362977Y261807D01*
X361369Y261807D02*
X360296Y259662D01*
X357555Y262343D02*
X355946Y262343D01*
X355881Y262341D01*
X355817Y262335D01*
X355753Y262325D01*
X355689Y262312D01*
X355627Y262294D01*
X355566Y262273D01*
X355506Y262249D01*
X355448Y262220D01*
X355391Y262188D01*
X355337Y262153D01*
X355285Y262115D01*
X355235Y262073D01*
X355188Y262029D01*
X355144Y261982D01*
X355102Y261932D01*
X355064Y261880D01*
X355029Y261826D01*
X354997Y261769D01*
X354968Y261711D01*
X354944Y261651D01*
X354923Y261590D01*
X354905Y261528D01*
X354892Y261464D01*
X354882Y261400D01*
X354876Y261336D01*
X354874Y261271D01*
X354874Y261002D01*
X354873Y261002D02*
X354875Y260931D01*
X354881Y260859D01*
X354890Y260789D01*
X354903Y260719D01*
X354920Y260649D01*
X354941Y260581D01*
X354965Y260514D01*
X354993Y260448D01*
X355024Y260384D01*
X355059Y260321D01*
X355097Y260261D01*
X355138Y260202D01*
X355182Y260146D01*
X355229Y260092D01*
X355278Y260041D01*
X355331Y259993D01*
X355386Y259947D01*
X355443Y259905D01*
X355503Y259865D01*
X355564Y259829D01*
X355628Y259796D01*
X355693Y259767D01*
X355759Y259741D01*
X355827Y259718D01*
X355896Y259699D01*
X355966Y259684D01*
X356036Y259673D01*
X356107Y259665D01*
X356178Y259661D01*
X356250Y259661D01*
X356321Y259665D01*
X356392Y259673D01*
X356462Y259684D01*
X356532Y259699D01*
X356601Y259718D01*
X356669Y259741D01*
X356735Y259767D01*
X356800Y259796D01*
X356864Y259829D01*
X356925Y259865D01*
X356985Y259905D01*
X357042Y259947D01*
X357097Y259993D01*
X357150Y260041D01*
X357199Y260092D01*
X357246Y260146D01*
X357290Y260202D01*
X357331Y260261D01*
X357369Y260321D01*
X357404Y260384D01*
X357435Y260448D01*
X357463Y260514D01*
X357487Y260581D01*
X357508Y260649D01*
X357525Y260719D01*
X357538Y260789D01*
X357547Y260859D01*
X357553Y260931D01*
X357555Y261002D01*
X357555Y262343D01*
X357553Y262434D01*
X357547Y262525D01*
X357538Y262615D01*
X357524Y262706D01*
X357507Y262795D01*
X357486Y262883D01*
X357461Y262971D01*
X357432Y263058D01*
X357400Y263143D01*
X357365Y263227D01*
X357325Y263309D01*
X357283Y263389D01*
X357237Y263468D01*
X357187Y263544D01*
X357135Y263618D01*
X357079Y263691D01*
X357020Y263760D01*
X356959Y263827D01*
X356894Y263892D01*
X356827Y263953D01*
X356758Y264012D01*
X356685Y264068D01*
X356611Y264120D01*
X356535Y264170D01*
X356456Y264216D01*
X356376Y264258D01*
X356294Y264298D01*
X356210Y264333D01*
X356125Y264365D01*
X356038Y264394D01*
X355950Y264419D01*
X355862Y264440D01*
X355773Y264457D01*
X355682Y264471D01*
X355592Y264480D01*
X355501Y264486D01*
X355410Y264488D01*
X329558Y696144D02*
X324732Y696144D01*
X329558Y696144D02*
X329558Y697484D01*
X329556Y697555D01*
X329550Y697627D01*
X329541Y697697D01*
X329528Y697767D01*
X329511Y697837D01*
X329490Y697905D01*
X329466Y697972D01*
X329438Y698038D01*
X329407Y698102D01*
X329372Y698165D01*
X329334Y698225D01*
X329293Y698284D01*
X329249Y698340D01*
X329202Y698394D01*
X329153Y698445D01*
X329100Y698493D01*
X329045Y698539D01*
X328988Y698581D01*
X328928Y698621D01*
X328867Y698657D01*
X328803Y698690D01*
X328738Y698719D01*
X328672Y698745D01*
X328604Y698768D01*
X328535Y698787D01*
X328465Y698802D01*
X328395Y698813D01*
X328324Y698821D01*
X328253Y698825D01*
X328181Y698825D01*
X328110Y698821D01*
X328039Y698813D01*
X327969Y698802D01*
X327899Y698787D01*
X327830Y698768D01*
X327762Y698745D01*
X327696Y698719D01*
X327631Y698690D01*
X327567Y698657D01*
X327506Y698621D01*
X327446Y698581D01*
X327389Y698539D01*
X327334Y698493D01*
X327281Y698445D01*
X327232Y698394D01*
X327185Y698340D01*
X327141Y698284D01*
X327100Y698225D01*
X327062Y698165D01*
X327027Y698102D01*
X326996Y698038D01*
X326968Y697972D01*
X326944Y697905D01*
X326923Y697837D01*
X326906Y697767D01*
X326893Y697697D01*
X326884Y697627D01*
X326878Y697555D01*
X326876Y697484D01*
X326877Y697484D02*
X326877Y696144D01*
X326877Y697752D02*
X324732Y698825D01*
X326877Y702639D02*
X326877Y704248D01*
X326877Y702639D02*
X326879Y702574D01*
X326885Y702510D01*
X326895Y702446D01*
X326908Y702382D01*
X326926Y702320D01*
X326947Y702259D01*
X326971Y702199D01*
X327000Y702141D01*
X327032Y702084D01*
X327067Y702030D01*
X327105Y701978D01*
X327147Y701928D01*
X327191Y701881D01*
X327238Y701837D01*
X327288Y701795D01*
X327340Y701757D01*
X327394Y701722D01*
X327451Y701690D01*
X327509Y701661D01*
X327569Y701637D01*
X327630Y701616D01*
X327692Y701598D01*
X327756Y701585D01*
X327820Y701575D01*
X327884Y701569D01*
X327949Y701567D01*
X327949Y701566D02*
X328217Y701566D01*
X328288Y701568D01*
X328360Y701574D01*
X328430Y701583D01*
X328500Y701596D01*
X328570Y701613D01*
X328638Y701634D01*
X328705Y701658D01*
X328771Y701686D01*
X328835Y701717D01*
X328898Y701752D01*
X328958Y701790D01*
X329017Y701831D01*
X329073Y701875D01*
X329127Y701922D01*
X329178Y701971D01*
X329226Y702024D01*
X329272Y702079D01*
X329314Y702136D01*
X329354Y702196D01*
X329390Y702257D01*
X329423Y702321D01*
X329452Y702386D01*
X329478Y702452D01*
X329501Y702520D01*
X329520Y702589D01*
X329535Y702659D01*
X329546Y702729D01*
X329554Y702800D01*
X329558Y702871D01*
X329558Y702943D01*
X329554Y703014D01*
X329546Y703085D01*
X329535Y703155D01*
X329520Y703225D01*
X329501Y703294D01*
X329478Y703362D01*
X329452Y703428D01*
X329423Y703493D01*
X329390Y703557D01*
X329354Y703618D01*
X329314Y703678D01*
X329272Y703735D01*
X329226Y703790D01*
X329178Y703843D01*
X329127Y703892D01*
X329073Y703939D01*
X329017Y703983D01*
X328958Y704024D01*
X328898Y704062D01*
X328835Y704097D01*
X328771Y704128D01*
X328705Y704156D01*
X328638Y704180D01*
X328570Y704201D01*
X328500Y704218D01*
X328430Y704231D01*
X328360Y704240D01*
X328288Y704246D01*
X328217Y704248D01*
X326877Y704248D01*
X326786Y704246D01*
X326695Y704240D01*
X326605Y704231D01*
X326514Y704217D01*
X326425Y704200D01*
X326337Y704179D01*
X326249Y704154D01*
X326162Y704125D01*
X326077Y704093D01*
X325993Y704058D01*
X325911Y704018D01*
X325831Y703976D01*
X325752Y703930D01*
X325676Y703880D01*
X325602Y703828D01*
X325529Y703772D01*
X325460Y703713D01*
X325393Y703652D01*
X325328Y703587D01*
X325267Y703520D01*
X325208Y703451D01*
X325152Y703378D01*
X325100Y703304D01*
X325050Y703228D01*
X325004Y703149D01*
X324962Y703069D01*
X324922Y702987D01*
X324887Y702903D01*
X324855Y702818D01*
X324826Y702731D01*
X324801Y702643D01*
X324780Y702555D01*
X324763Y702466D01*
X324749Y702375D01*
X324740Y702285D01*
X324734Y702194D01*
X324732Y702103D01*
X556940Y627936D02*
X556940Y623110D01*
X556940Y627936D02*
X555600Y627936D01*
X555600Y627937D02*
X555529Y627935D01*
X555457Y627929D01*
X555387Y627920D01*
X555317Y627907D01*
X555247Y627890D01*
X555179Y627869D01*
X555112Y627845D01*
X555046Y627817D01*
X554982Y627786D01*
X554919Y627751D01*
X554859Y627713D01*
X554800Y627672D01*
X554744Y627628D01*
X554690Y627581D01*
X554639Y627532D01*
X554591Y627479D01*
X554545Y627424D01*
X554503Y627367D01*
X554463Y627307D01*
X554427Y627246D01*
X554394Y627182D01*
X554365Y627117D01*
X554339Y627051D01*
X554316Y626983D01*
X554297Y626914D01*
X554282Y626844D01*
X554271Y626774D01*
X554263Y626703D01*
X554259Y626632D01*
X554259Y626560D01*
X554263Y626489D01*
X554271Y626418D01*
X554282Y626348D01*
X554297Y626278D01*
X554316Y626209D01*
X554339Y626141D01*
X554365Y626075D01*
X554394Y626010D01*
X554427Y625946D01*
X554463Y625885D01*
X554503Y625825D01*
X554545Y625768D01*
X554591Y625713D01*
X554639Y625660D01*
X554690Y625611D01*
X554744Y625564D01*
X554800Y625520D01*
X554859Y625479D01*
X554919Y625441D01*
X554982Y625406D01*
X555046Y625375D01*
X555112Y625347D01*
X555179Y625323D01*
X555247Y625302D01*
X555317Y625285D01*
X555387Y625272D01*
X555457Y625263D01*
X555529Y625257D01*
X555600Y625255D01*
X556940Y625255D01*
X555332Y625255D02*
X554259Y623110D01*
X551518Y627400D02*
X551518Y627936D01*
X548836Y627936D01*
X550177Y623110D01*
X557874Y543688D02*
X557874Y538862D01*
X557874Y543688D02*
X556533Y543688D01*
X556462Y543686D01*
X556390Y543680D01*
X556320Y543671D01*
X556250Y543658D01*
X556180Y543641D01*
X556112Y543620D01*
X556045Y543596D01*
X555979Y543568D01*
X555915Y543537D01*
X555852Y543502D01*
X555792Y543464D01*
X555733Y543423D01*
X555677Y543379D01*
X555623Y543332D01*
X555572Y543283D01*
X555524Y543230D01*
X555478Y543175D01*
X555436Y543118D01*
X555396Y543058D01*
X555360Y542997D01*
X555327Y542933D01*
X555298Y542868D01*
X555272Y542802D01*
X555249Y542734D01*
X555230Y542665D01*
X555215Y542595D01*
X555204Y542525D01*
X555196Y542454D01*
X555192Y542383D01*
X555192Y542311D01*
X555196Y542240D01*
X555204Y542169D01*
X555215Y542099D01*
X555230Y542029D01*
X555249Y541960D01*
X555272Y541892D01*
X555298Y541826D01*
X555327Y541761D01*
X555360Y541697D01*
X555396Y541636D01*
X555436Y541576D01*
X555478Y541519D01*
X555524Y541464D01*
X555572Y541411D01*
X555623Y541362D01*
X555677Y541315D01*
X555733Y541271D01*
X555792Y541230D01*
X555852Y541192D01*
X555915Y541157D01*
X555979Y541126D01*
X556045Y541098D01*
X556112Y541074D01*
X556180Y541053D01*
X556250Y541036D01*
X556320Y541023D01*
X556390Y541014D01*
X556462Y541008D01*
X556533Y541006D01*
X556533Y541007D02*
X557874Y541007D01*
X556265Y541007D02*
X555192Y538862D01*
X552451Y540202D02*
X552449Y540273D01*
X552443Y540345D01*
X552434Y540415D01*
X552421Y540485D01*
X552404Y540555D01*
X552383Y540623D01*
X552359Y540690D01*
X552331Y540756D01*
X552300Y540820D01*
X552265Y540883D01*
X552227Y540943D01*
X552186Y541002D01*
X552142Y541058D01*
X552095Y541112D01*
X552046Y541163D01*
X551993Y541211D01*
X551938Y541257D01*
X551881Y541299D01*
X551821Y541339D01*
X551760Y541375D01*
X551696Y541408D01*
X551631Y541437D01*
X551565Y541463D01*
X551497Y541486D01*
X551428Y541505D01*
X551358Y541520D01*
X551288Y541531D01*
X551217Y541539D01*
X551146Y541543D01*
X551074Y541543D01*
X551003Y541539D01*
X550932Y541531D01*
X550862Y541520D01*
X550792Y541505D01*
X550723Y541486D01*
X550655Y541463D01*
X550589Y541437D01*
X550524Y541408D01*
X550460Y541375D01*
X550399Y541339D01*
X550339Y541299D01*
X550282Y541257D01*
X550227Y541211D01*
X550174Y541163D01*
X550125Y541112D01*
X550078Y541058D01*
X550034Y541002D01*
X549993Y540943D01*
X549955Y540883D01*
X549920Y540820D01*
X549889Y540756D01*
X549861Y540690D01*
X549837Y540623D01*
X549816Y540555D01*
X549799Y540485D01*
X549786Y540415D01*
X549777Y540345D01*
X549771Y540273D01*
X549769Y540202D01*
X549771Y540131D01*
X549777Y540059D01*
X549786Y539989D01*
X549799Y539919D01*
X549816Y539849D01*
X549837Y539781D01*
X549861Y539714D01*
X549889Y539648D01*
X549920Y539584D01*
X549955Y539521D01*
X549993Y539461D01*
X550034Y539402D01*
X550078Y539346D01*
X550125Y539292D01*
X550174Y539241D01*
X550227Y539193D01*
X550282Y539147D01*
X550339Y539105D01*
X550399Y539065D01*
X550460Y539029D01*
X550524Y538996D01*
X550589Y538967D01*
X550655Y538941D01*
X550723Y538918D01*
X550792Y538899D01*
X550862Y538884D01*
X550932Y538873D01*
X551003Y538865D01*
X551074Y538861D01*
X551146Y538861D01*
X551217Y538865D01*
X551288Y538873D01*
X551358Y538884D01*
X551428Y538899D01*
X551497Y538918D01*
X551565Y538941D01*
X551631Y538967D01*
X551696Y538996D01*
X551760Y539029D01*
X551821Y539065D01*
X551881Y539105D01*
X551938Y539147D01*
X551993Y539193D01*
X552046Y539241D01*
X552095Y539292D01*
X552142Y539346D01*
X552186Y539402D01*
X552227Y539461D01*
X552265Y539521D01*
X552300Y539584D01*
X552331Y539648D01*
X552359Y539714D01*
X552383Y539781D01*
X552404Y539849D01*
X552421Y539919D01*
X552434Y539989D01*
X552443Y540059D01*
X552449Y540131D01*
X552451Y540202D01*
X552182Y542615D02*
X552180Y542680D01*
X552174Y542744D01*
X552164Y542808D01*
X552151Y542872D01*
X552133Y542934D01*
X552112Y542995D01*
X552088Y543055D01*
X552059Y543113D01*
X552027Y543170D01*
X551992Y543224D01*
X551954Y543276D01*
X551912Y543326D01*
X551868Y543373D01*
X551821Y543417D01*
X551771Y543459D01*
X551719Y543497D01*
X551665Y543532D01*
X551608Y543564D01*
X551550Y543593D01*
X551490Y543617D01*
X551429Y543638D01*
X551367Y543656D01*
X551303Y543669D01*
X551239Y543679D01*
X551175Y543685D01*
X551110Y543687D01*
X551045Y543685D01*
X550981Y543679D01*
X550917Y543669D01*
X550853Y543656D01*
X550791Y543638D01*
X550730Y543617D01*
X550670Y543593D01*
X550612Y543564D01*
X550555Y543532D01*
X550501Y543497D01*
X550449Y543459D01*
X550399Y543417D01*
X550352Y543373D01*
X550308Y543326D01*
X550266Y543276D01*
X550228Y543224D01*
X550193Y543170D01*
X550161Y543113D01*
X550132Y543055D01*
X550108Y542995D01*
X550087Y542934D01*
X550069Y542872D01*
X550056Y542808D01*
X550046Y542744D01*
X550040Y542680D01*
X550038Y542615D01*
X550040Y542550D01*
X550046Y542486D01*
X550056Y542422D01*
X550069Y542358D01*
X550087Y542296D01*
X550108Y542235D01*
X550132Y542175D01*
X550161Y542117D01*
X550193Y542060D01*
X550228Y542006D01*
X550266Y541954D01*
X550308Y541904D01*
X550352Y541857D01*
X550399Y541813D01*
X550449Y541771D01*
X550501Y541733D01*
X550555Y541698D01*
X550612Y541666D01*
X550670Y541637D01*
X550730Y541613D01*
X550791Y541592D01*
X550853Y541574D01*
X550917Y541561D01*
X550981Y541551D01*
X551045Y541545D01*
X551110Y541543D01*
X551175Y541545D01*
X551239Y541551D01*
X551303Y541561D01*
X551367Y541574D01*
X551429Y541592D01*
X551490Y541613D01*
X551550Y541637D01*
X551608Y541666D01*
X551665Y541698D01*
X551719Y541733D01*
X551771Y541771D01*
X551821Y541813D01*
X551868Y541857D01*
X551912Y541904D01*
X551954Y541954D01*
X551992Y542006D01*
X552027Y542060D01*
X552059Y542117D01*
X552088Y542175D01*
X552112Y542235D01*
X552133Y542296D01*
X552151Y542358D01*
X552164Y542422D01*
X552174Y542486D01*
X552180Y542550D01*
X552182Y542615D01*
X346071Y645778D02*
X346071Y646851D01*
X346072Y645778D02*
X346074Y645713D01*
X346080Y645649D01*
X346090Y645585D01*
X346103Y645521D01*
X346121Y645459D01*
X346142Y645398D01*
X346166Y645338D01*
X346195Y645280D01*
X346227Y645223D01*
X346262Y645169D01*
X346300Y645117D01*
X346342Y645067D01*
X346386Y645020D01*
X346433Y644976D01*
X346483Y644934D01*
X346535Y644896D01*
X346589Y644861D01*
X346646Y644829D01*
X346704Y644800D01*
X346764Y644776D01*
X346825Y644755D01*
X346887Y644737D01*
X346951Y644724D01*
X347015Y644714D01*
X347079Y644708D01*
X347144Y644706D01*
X349825Y644706D01*
X349890Y644708D01*
X349954Y644714D01*
X350018Y644724D01*
X350082Y644737D01*
X350144Y644755D01*
X350205Y644776D01*
X350265Y644800D01*
X350323Y644829D01*
X350380Y644861D01*
X350434Y644896D01*
X350486Y644934D01*
X350536Y644976D01*
X350583Y645020D01*
X350627Y645067D01*
X350669Y645117D01*
X350707Y645169D01*
X350742Y645223D01*
X350774Y645280D01*
X350803Y645338D01*
X350827Y645398D01*
X350848Y645459D01*
X350866Y645521D01*
X350879Y645585D01*
X350889Y645649D01*
X350895Y645713D01*
X350897Y645778D01*
X350897Y646851D01*
X349825Y649307D02*
X350897Y650647D01*
X346071Y650647D01*
X346071Y649307D02*
X346071Y651988D01*
X348216Y655865D02*
X348216Y657474D01*
X348217Y655865D02*
X348219Y655800D01*
X348225Y655736D01*
X348235Y655672D01*
X348248Y655608D01*
X348266Y655546D01*
X348287Y655485D01*
X348311Y655425D01*
X348340Y655367D01*
X348372Y655310D01*
X348407Y655256D01*
X348445Y655204D01*
X348487Y655154D01*
X348531Y655107D01*
X348578Y655063D01*
X348628Y655021D01*
X348680Y654983D01*
X348734Y654948D01*
X348791Y654916D01*
X348849Y654887D01*
X348909Y654863D01*
X348970Y654842D01*
X349032Y654824D01*
X349096Y654811D01*
X349160Y654801D01*
X349224Y654795D01*
X349289Y654793D01*
X349557Y654793D01*
X349557Y654792D02*
X349628Y654794D01*
X349700Y654800D01*
X349770Y654809D01*
X349840Y654822D01*
X349910Y654839D01*
X349978Y654860D01*
X350045Y654884D01*
X350111Y654912D01*
X350175Y654943D01*
X350238Y654978D01*
X350298Y655016D01*
X350357Y655057D01*
X350413Y655101D01*
X350467Y655148D01*
X350518Y655197D01*
X350566Y655250D01*
X350612Y655305D01*
X350654Y655362D01*
X350694Y655422D01*
X350730Y655483D01*
X350763Y655547D01*
X350792Y655612D01*
X350818Y655678D01*
X350841Y655746D01*
X350860Y655815D01*
X350875Y655885D01*
X350886Y655955D01*
X350894Y656026D01*
X350898Y656097D01*
X350898Y656169D01*
X350894Y656240D01*
X350886Y656311D01*
X350875Y656381D01*
X350860Y656451D01*
X350841Y656520D01*
X350818Y656588D01*
X350792Y656654D01*
X350763Y656719D01*
X350730Y656783D01*
X350694Y656844D01*
X350654Y656904D01*
X350612Y656961D01*
X350566Y657016D01*
X350518Y657069D01*
X350467Y657118D01*
X350413Y657165D01*
X350357Y657209D01*
X350298Y657250D01*
X350238Y657288D01*
X350175Y657323D01*
X350111Y657354D01*
X350045Y657382D01*
X349978Y657406D01*
X349910Y657427D01*
X349840Y657444D01*
X349770Y657457D01*
X349700Y657466D01*
X349628Y657472D01*
X349557Y657474D01*
X348216Y657474D01*
X348125Y657472D01*
X348034Y657466D01*
X347944Y657457D01*
X347853Y657443D01*
X347764Y657426D01*
X347676Y657405D01*
X347588Y657380D01*
X347501Y657351D01*
X347416Y657319D01*
X347332Y657284D01*
X347250Y657244D01*
X347170Y657202D01*
X347091Y657156D01*
X347015Y657106D01*
X346941Y657054D01*
X346868Y656998D01*
X346799Y656939D01*
X346732Y656878D01*
X346667Y656813D01*
X346606Y656746D01*
X346547Y656677D01*
X346491Y656604D01*
X346439Y656530D01*
X346389Y656454D01*
X346343Y656375D01*
X346301Y656295D01*
X346261Y656213D01*
X346226Y656129D01*
X346194Y656044D01*
X346165Y655957D01*
X346140Y655869D01*
X346119Y655781D01*
X346102Y655692D01*
X346088Y655601D01*
X346079Y655511D01*
X346073Y655420D01*
X346071Y655329D01*
X323215Y515191D02*
X323215Y514118D01*
X323217Y514053D01*
X323223Y513989D01*
X323233Y513925D01*
X323246Y513861D01*
X323264Y513799D01*
X323285Y513738D01*
X323309Y513678D01*
X323338Y513620D01*
X323370Y513563D01*
X323405Y513509D01*
X323443Y513457D01*
X323485Y513407D01*
X323529Y513360D01*
X323576Y513316D01*
X323626Y513274D01*
X323678Y513236D01*
X323732Y513201D01*
X323789Y513169D01*
X323847Y513140D01*
X323907Y513116D01*
X323968Y513095D01*
X324030Y513077D01*
X324094Y513064D01*
X324158Y513054D01*
X324222Y513048D01*
X324287Y513046D01*
X326969Y513046D01*
X327034Y513048D01*
X327098Y513054D01*
X327162Y513064D01*
X327226Y513077D01*
X327288Y513095D01*
X327349Y513116D01*
X327409Y513140D01*
X327467Y513169D01*
X327524Y513201D01*
X327578Y513236D01*
X327630Y513274D01*
X327680Y513316D01*
X327727Y513360D01*
X327771Y513407D01*
X327813Y513457D01*
X327851Y513509D01*
X327886Y513563D01*
X327918Y513620D01*
X327947Y513678D01*
X327971Y513738D01*
X327992Y513799D01*
X328010Y513861D01*
X328023Y513925D01*
X328033Y513989D01*
X328039Y514053D01*
X328041Y514118D01*
X328041Y515191D01*
X328041Y519121D02*
X328039Y519189D01*
X328033Y519256D01*
X328024Y519323D01*
X328011Y519390D01*
X327994Y519455D01*
X327973Y519520D01*
X327949Y519583D01*
X327921Y519645D01*
X327890Y519705D01*
X327856Y519763D01*
X327818Y519819D01*
X327778Y519874D01*
X327734Y519925D01*
X327687Y519974D01*
X327638Y520021D01*
X327587Y520065D01*
X327532Y520105D01*
X327476Y520143D01*
X327418Y520177D01*
X327358Y520208D01*
X327296Y520236D01*
X327233Y520260D01*
X327168Y520281D01*
X327103Y520298D01*
X327036Y520311D01*
X326969Y520320D01*
X326902Y520326D01*
X326834Y520328D01*
X328041Y519121D02*
X328039Y519043D01*
X328033Y518965D01*
X328023Y518888D01*
X328010Y518811D01*
X327992Y518735D01*
X327971Y518660D01*
X327946Y518586D01*
X327917Y518514D01*
X327885Y518443D01*
X327849Y518374D01*
X327810Y518306D01*
X327767Y518241D01*
X327721Y518178D01*
X327672Y518117D01*
X327620Y518059D01*
X327565Y518004D01*
X327508Y517951D01*
X327448Y517902D01*
X327385Y517855D01*
X327320Y517812D01*
X327254Y517772D01*
X327185Y517735D01*
X327114Y517702D01*
X327042Y517672D01*
X326969Y517646D01*
X325896Y519926D02*
X325945Y519975D01*
X325997Y520022D01*
X326052Y520065D01*
X326109Y520106D01*
X326168Y520144D01*
X326229Y520178D01*
X326292Y520209D01*
X326356Y520237D01*
X326422Y520261D01*
X326488Y520281D01*
X326556Y520298D01*
X326625Y520311D01*
X326694Y520320D01*
X326764Y520326D01*
X326834Y520328D01*
X325896Y519926D02*
X323215Y517647D01*
X323215Y520328D01*
X328041Y524608D02*
X328039Y524676D01*
X328033Y524743D01*
X328024Y524810D01*
X328011Y524877D01*
X327994Y524942D01*
X327973Y525007D01*
X327949Y525070D01*
X327921Y525132D01*
X327890Y525192D01*
X327856Y525250D01*
X327818Y525306D01*
X327778Y525361D01*
X327734Y525412D01*
X327687Y525461D01*
X327638Y525508D01*
X327587Y525552D01*
X327532Y525592D01*
X327476Y525630D01*
X327418Y525664D01*
X327358Y525695D01*
X327296Y525723D01*
X327233Y525747D01*
X327168Y525768D01*
X327103Y525785D01*
X327036Y525798D01*
X326969Y525807D01*
X326902Y525813D01*
X326834Y525815D01*
X328041Y524608D02*
X328039Y524530D01*
X328033Y524452D01*
X328023Y524375D01*
X328010Y524298D01*
X327992Y524222D01*
X327971Y524147D01*
X327946Y524073D01*
X327917Y524001D01*
X327885Y523930D01*
X327849Y523861D01*
X327810Y523793D01*
X327767Y523728D01*
X327721Y523665D01*
X327672Y523604D01*
X327620Y523546D01*
X327565Y523491D01*
X327508Y523438D01*
X327448Y523389D01*
X327385Y523342D01*
X327320Y523299D01*
X327254Y523259D01*
X327185Y523222D01*
X327114Y523189D01*
X327042Y523159D01*
X326969Y523133D01*
X325896Y525412D02*
X325945Y525461D01*
X325997Y525508D01*
X326052Y525551D01*
X326109Y525592D01*
X326168Y525630D01*
X326229Y525664D01*
X326292Y525695D01*
X326356Y525723D01*
X326422Y525747D01*
X326488Y525767D01*
X326556Y525784D01*
X326625Y525797D01*
X326694Y525806D01*
X326764Y525812D01*
X326834Y525814D01*
X325896Y525412D02*
X323215Y523133D01*
X323215Y525814D01*
X293606Y511730D02*
X293606Y510657D01*
X293607Y510657D02*
X293609Y510592D01*
X293615Y510528D01*
X293625Y510464D01*
X293638Y510400D01*
X293656Y510338D01*
X293677Y510277D01*
X293701Y510217D01*
X293730Y510159D01*
X293762Y510102D01*
X293797Y510048D01*
X293835Y509996D01*
X293877Y509946D01*
X293921Y509899D01*
X293968Y509855D01*
X294018Y509813D01*
X294070Y509775D01*
X294124Y509740D01*
X294181Y509708D01*
X294239Y509679D01*
X294299Y509655D01*
X294360Y509634D01*
X294422Y509616D01*
X294486Y509603D01*
X294550Y509593D01*
X294614Y509587D01*
X294679Y509585D01*
X297360Y509585D01*
X297425Y509587D01*
X297489Y509593D01*
X297553Y509603D01*
X297617Y509616D01*
X297679Y509634D01*
X297740Y509655D01*
X297800Y509679D01*
X297858Y509708D01*
X297915Y509740D01*
X297969Y509775D01*
X298021Y509813D01*
X298071Y509855D01*
X298118Y509899D01*
X298162Y509946D01*
X298204Y509996D01*
X298242Y510048D01*
X298277Y510102D01*
X298309Y510159D01*
X298338Y510217D01*
X298362Y510277D01*
X298383Y510338D01*
X298401Y510400D01*
X298414Y510464D01*
X298424Y510528D01*
X298430Y510592D01*
X298432Y510657D01*
X298432Y511730D01*
X298433Y515660D02*
X298431Y515728D01*
X298425Y515795D01*
X298416Y515862D01*
X298403Y515929D01*
X298386Y515994D01*
X298365Y516059D01*
X298341Y516122D01*
X298313Y516184D01*
X298282Y516244D01*
X298248Y516302D01*
X298210Y516358D01*
X298170Y516413D01*
X298126Y516464D01*
X298079Y516513D01*
X298030Y516560D01*
X297979Y516604D01*
X297924Y516644D01*
X297868Y516682D01*
X297810Y516716D01*
X297750Y516747D01*
X297688Y516775D01*
X297625Y516799D01*
X297560Y516820D01*
X297495Y516837D01*
X297428Y516850D01*
X297361Y516859D01*
X297294Y516865D01*
X297226Y516867D01*
X298433Y515660D02*
X298431Y515582D01*
X298425Y515504D01*
X298415Y515427D01*
X298402Y515350D01*
X298384Y515274D01*
X298363Y515199D01*
X298338Y515125D01*
X298309Y515053D01*
X298277Y514982D01*
X298241Y514913D01*
X298202Y514845D01*
X298159Y514780D01*
X298113Y514717D01*
X298064Y514656D01*
X298012Y514598D01*
X297957Y514543D01*
X297900Y514490D01*
X297840Y514441D01*
X297777Y514394D01*
X297712Y514351D01*
X297646Y514311D01*
X297577Y514274D01*
X297506Y514241D01*
X297434Y514211D01*
X297361Y514185D01*
X296288Y516465D02*
X296337Y516514D01*
X296389Y516561D01*
X296444Y516604D01*
X296501Y516645D01*
X296560Y516683D01*
X296621Y516717D01*
X296684Y516748D01*
X296748Y516776D01*
X296814Y516800D01*
X296880Y516820D01*
X296948Y516837D01*
X297017Y516850D01*
X297086Y516859D01*
X297156Y516865D01*
X297226Y516867D01*
X296288Y516465D02*
X293606Y514186D01*
X293606Y516867D01*
X293606Y519672D02*
X293606Y521013D01*
X293608Y521084D01*
X293614Y521156D01*
X293623Y521226D01*
X293636Y521296D01*
X293653Y521366D01*
X293674Y521434D01*
X293698Y521501D01*
X293726Y521567D01*
X293757Y521631D01*
X293792Y521694D01*
X293830Y521754D01*
X293871Y521813D01*
X293915Y521869D01*
X293962Y521923D01*
X294011Y521974D01*
X294064Y522022D01*
X294119Y522068D01*
X294176Y522110D01*
X294236Y522150D01*
X294297Y522186D01*
X294361Y522219D01*
X294426Y522248D01*
X294492Y522274D01*
X294560Y522297D01*
X294629Y522316D01*
X294699Y522331D01*
X294769Y522342D01*
X294840Y522350D01*
X294911Y522354D01*
X294983Y522354D01*
X295054Y522350D01*
X295125Y522342D01*
X295195Y522331D01*
X295265Y522316D01*
X295334Y522297D01*
X295402Y522274D01*
X295468Y522248D01*
X295533Y522219D01*
X295597Y522186D01*
X295658Y522150D01*
X295718Y522110D01*
X295775Y522068D01*
X295830Y522022D01*
X295883Y521974D01*
X295932Y521923D01*
X295979Y521869D01*
X296023Y521813D01*
X296064Y521754D01*
X296102Y521694D01*
X296137Y521631D01*
X296168Y521567D01*
X296196Y521501D01*
X296220Y521434D01*
X296241Y521366D01*
X296258Y521296D01*
X296271Y521226D01*
X296280Y521156D01*
X296286Y521084D01*
X296288Y521013D01*
X298432Y521281D02*
X298432Y519672D01*
X298432Y521281D02*
X298430Y521346D01*
X298424Y521410D01*
X298414Y521474D01*
X298401Y521538D01*
X298383Y521600D01*
X298362Y521661D01*
X298338Y521721D01*
X298309Y521779D01*
X298277Y521836D01*
X298242Y521890D01*
X298204Y521942D01*
X298162Y521992D01*
X298118Y522039D01*
X298071Y522083D01*
X298021Y522125D01*
X297969Y522163D01*
X297915Y522198D01*
X297858Y522230D01*
X297800Y522259D01*
X297740Y522283D01*
X297679Y522304D01*
X297617Y522322D01*
X297553Y522335D01*
X297489Y522345D01*
X297425Y522351D01*
X297360Y522353D01*
X297295Y522351D01*
X297231Y522345D01*
X297167Y522335D01*
X297103Y522322D01*
X297041Y522304D01*
X296980Y522283D01*
X296920Y522259D01*
X296862Y522230D01*
X296805Y522198D01*
X296751Y522163D01*
X296699Y522125D01*
X296649Y522083D01*
X296602Y522039D01*
X296558Y521992D01*
X296516Y521942D01*
X296478Y521890D01*
X296443Y521836D01*
X296411Y521779D01*
X296382Y521721D01*
X296358Y521661D01*
X296337Y521600D01*
X296319Y521538D01*
X296306Y521474D01*
X296296Y521410D01*
X296290Y521346D01*
X296288Y521281D01*
X296288Y520208D01*
X303988Y249958D02*
X303988Y248885D01*
X303990Y248820D01*
X303996Y248756D01*
X304006Y248692D01*
X304019Y248628D01*
X304037Y248566D01*
X304058Y248505D01*
X304082Y248445D01*
X304111Y248387D01*
X304143Y248330D01*
X304178Y248276D01*
X304216Y248224D01*
X304258Y248174D01*
X304302Y248127D01*
X304349Y248083D01*
X304399Y248041D01*
X304451Y248003D01*
X304505Y247968D01*
X304562Y247936D01*
X304620Y247907D01*
X304680Y247883D01*
X304741Y247862D01*
X304803Y247844D01*
X304867Y247831D01*
X304931Y247821D01*
X304995Y247815D01*
X305060Y247813D01*
X307742Y247813D01*
X307807Y247815D01*
X307871Y247821D01*
X307935Y247831D01*
X307999Y247844D01*
X308061Y247862D01*
X308122Y247883D01*
X308182Y247907D01*
X308240Y247936D01*
X308297Y247968D01*
X308351Y248003D01*
X308403Y248041D01*
X308453Y248083D01*
X308500Y248127D01*
X308544Y248174D01*
X308586Y248224D01*
X308624Y248276D01*
X308659Y248330D01*
X308691Y248387D01*
X308720Y248445D01*
X308744Y248505D01*
X308765Y248566D01*
X308783Y248628D01*
X308796Y248692D01*
X308806Y248756D01*
X308812Y248820D01*
X308814Y248885D01*
X308814Y249958D01*
X306669Y252413D02*
X306669Y254022D01*
X306667Y254087D01*
X306661Y254151D01*
X306651Y254215D01*
X306638Y254279D01*
X306620Y254341D01*
X306599Y254402D01*
X306575Y254462D01*
X306546Y254520D01*
X306514Y254577D01*
X306479Y254631D01*
X306441Y254683D01*
X306399Y254733D01*
X306355Y254780D01*
X306308Y254824D01*
X306258Y254866D01*
X306206Y254904D01*
X306152Y254939D01*
X306095Y254971D01*
X306037Y255000D01*
X305977Y255024D01*
X305916Y255045D01*
X305854Y255063D01*
X305790Y255076D01*
X305726Y255086D01*
X305662Y255092D01*
X305597Y255094D01*
X305597Y255095D02*
X305329Y255095D01*
X305258Y255093D01*
X305186Y255087D01*
X305116Y255078D01*
X305046Y255065D01*
X304976Y255048D01*
X304908Y255027D01*
X304841Y255003D01*
X304775Y254975D01*
X304711Y254944D01*
X304648Y254909D01*
X304588Y254871D01*
X304529Y254830D01*
X304473Y254786D01*
X304419Y254739D01*
X304368Y254690D01*
X304320Y254637D01*
X304274Y254582D01*
X304232Y254525D01*
X304192Y254465D01*
X304156Y254404D01*
X304123Y254340D01*
X304094Y254275D01*
X304068Y254209D01*
X304045Y254141D01*
X304026Y254072D01*
X304011Y254002D01*
X304000Y253932D01*
X303992Y253861D01*
X303988Y253790D01*
X303988Y253718D01*
X303992Y253647D01*
X304000Y253576D01*
X304011Y253506D01*
X304026Y253436D01*
X304045Y253367D01*
X304068Y253299D01*
X304094Y253233D01*
X304123Y253168D01*
X304156Y253104D01*
X304192Y253043D01*
X304232Y252983D01*
X304274Y252926D01*
X304320Y252871D01*
X304368Y252818D01*
X304419Y252769D01*
X304473Y252722D01*
X304529Y252678D01*
X304588Y252637D01*
X304648Y252599D01*
X304711Y252564D01*
X304775Y252533D01*
X304841Y252505D01*
X304908Y252481D01*
X304976Y252460D01*
X305046Y252443D01*
X305116Y252430D01*
X305186Y252421D01*
X305258Y252415D01*
X305329Y252413D01*
X306669Y252413D01*
X306760Y252415D01*
X306851Y252421D01*
X306941Y252430D01*
X307032Y252444D01*
X307121Y252461D01*
X307209Y252482D01*
X307297Y252507D01*
X307384Y252536D01*
X307469Y252568D01*
X307553Y252603D01*
X307635Y252643D01*
X307715Y252685D01*
X307794Y252731D01*
X307870Y252781D01*
X307944Y252833D01*
X308017Y252889D01*
X308086Y252948D01*
X308153Y253009D01*
X308218Y253074D01*
X308279Y253141D01*
X308338Y253210D01*
X308394Y253282D01*
X308446Y253357D01*
X308496Y253433D01*
X308542Y253512D01*
X308584Y253592D01*
X308624Y253674D01*
X308659Y253758D01*
X308691Y253843D01*
X308720Y253930D01*
X308745Y254017D01*
X308766Y254106D01*
X308783Y254195D01*
X308797Y254286D01*
X308806Y254376D01*
X308812Y254467D01*
X308814Y254558D01*
X500606Y589915D02*
X501678Y589915D01*
X501743Y589917D01*
X501807Y589923D01*
X501871Y589933D01*
X501935Y589946D01*
X501997Y589964D01*
X502058Y589985D01*
X502118Y590009D01*
X502176Y590038D01*
X502233Y590070D01*
X502287Y590105D01*
X502339Y590143D01*
X502389Y590185D01*
X502436Y590229D01*
X502480Y590276D01*
X502522Y590326D01*
X502560Y590378D01*
X502595Y590432D01*
X502627Y590489D01*
X502656Y590547D01*
X502680Y590607D01*
X502701Y590668D01*
X502719Y590730D01*
X502732Y590794D01*
X502742Y590858D01*
X502748Y590922D01*
X502750Y590987D01*
X502751Y590987D02*
X502751Y593669D01*
X502750Y593669D02*
X502748Y593734D01*
X502742Y593798D01*
X502732Y593862D01*
X502719Y593926D01*
X502701Y593988D01*
X502680Y594049D01*
X502656Y594109D01*
X502627Y594167D01*
X502595Y594224D01*
X502560Y594278D01*
X502522Y594330D01*
X502480Y594380D01*
X502436Y594427D01*
X502389Y594471D01*
X502339Y594513D01*
X502287Y594551D01*
X502233Y594586D01*
X502176Y594618D01*
X502118Y594647D01*
X502058Y594671D01*
X501997Y594692D01*
X501935Y594710D01*
X501871Y594723D01*
X501807Y594733D01*
X501743Y594739D01*
X501678Y594741D01*
X500606Y594741D01*
X498150Y589915D02*
X496542Y589915D01*
X496477Y589917D01*
X496413Y589923D01*
X496349Y589933D01*
X496285Y589946D01*
X496223Y589964D01*
X496162Y589985D01*
X496102Y590009D01*
X496044Y590038D01*
X495987Y590070D01*
X495933Y590105D01*
X495881Y590143D01*
X495831Y590185D01*
X495784Y590229D01*
X495740Y590276D01*
X495698Y590326D01*
X495660Y590378D01*
X495625Y590432D01*
X495593Y590489D01*
X495564Y590547D01*
X495540Y590607D01*
X495519Y590668D01*
X495501Y590730D01*
X495488Y590794D01*
X495478Y590858D01*
X495472Y590922D01*
X495470Y590987D01*
X495469Y590987D02*
X495469Y591524D01*
X495470Y591524D02*
X495472Y591589D01*
X495478Y591653D01*
X495488Y591717D01*
X495501Y591781D01*
X495519Y591843D01*
X495540Y591904D01*
X495564Y591964D01*
X495593Y592022D01*
X495625Y592079D01*
X495660Y592133D01*
X495698Y592185D01*
X495740Y592235D01*
X495784Y592282D01*
X495831Y592326D01*
X495881Y592368D01*
X495933Y592406D01*
X495987Y592441D01*
X496044Y592473D01*
X496102Y592502D01*
X496162Y592526D01*
X496223Y592547D01*
X496285Y592565D01*
X496349Y592578D01*
X496413Y592588D01*
X496477Y592594D01*
X496542Y592596D01*
X498150Y592596D01*
X498150Y594741D01*
X495469Y594741D01*
X503349Y560705D02*
X504422Y560705D01*
X504487Y560707D01*
X504551Y560713D01*
X504615Y560723D01*
X504679Y560736D01*
X504741Y560754D01*
X504802Y560775D01*
X504862Y560799D01*
X504920Y560828D01*
X504977Y560860D01*
X505031Y560895D01*
X505083Y560933D01*
X505133Y560975D01*
X505180Y561019D01*
X505224Y561066D01*
X505266Y561116D01*
X505304Y561168D01*
X505339Y561222D01*
X505371Y561279D01*
X505400Y561337D01*
X505424Y561397D01*
X505445Y561458D01*
X505463Y561520D01*
X505476Y561584D01*
X505486Y561648D01*
X505492Y561712D01*
X505494Y561777D01*
X505494Y564459D01*
X505492Y564524D01*
X505486Y564588D01*
X505476Y564652D01*
X505463Y564716D01*
X505445Y564778D01*
X505424Y564839D01*
X505400Y564899D01*
X505371Y564957D01*
X505339Y565014D01*
X505304Y565068D01*
X505266Y565120D01*
X505224Y565170D01*
X505180Y565217D01*
X505133Y565261D01*
X505083Y565303D01*
X505031Y565341D01*
X504977Y565376D01*
X504920Y565408D01*
X504862Y565437D01*
X504802Y565461D01*
X504741Y565482D01*
X504679Y565500D01*
X504615Y565513D01*
X504551Y565523D01*
X504487Y565529D01*
X504422Y565531D01*
X503349Y565531D01*
X500893Y564459D02*
X499553Y565531D01*
X499553Y560705D01*
X500893Y560705D02*
X498212Y560705D01*
X495407Y562046D02*
X495405Y562117D01*
X495399Y562189D01*
X495390Y562259D01*
X495377Y562329D01*
X495360Y562399D01*
X495339Y562467D01*
X495315Y562534D01*
X495287Y562600D01*
X495256Y562664D01*
X495221Y562727D01*
X495183Y562787D01*
X495142Y562846D01*
X495098Y562902D01*
X495051Y562956D01*
X495002Y563007D01*
X494949Y563055D01*
X494894Y563101D01*
X494837Y563143D01*
X494777Y563183D01*
X494716Y563219D01*
X494652Y563252D01*
X494587Y563281D01*
X494521Y563307D01*
X494453Y563330D01*
X494384Y563349D01*
X494314Y563364D01*
X494244Y563375D01*
X494173Y563383D01*
X494102Y563387D01*
X494030Y563387D01*
X493959Y563383D01*
X493888Y563375D01*
X493818Y563364D01*
X493748Y563349D01*
X493679Y563330D01*
X493611Y563307D01*
X493545Y563281D01*
X493480Y563252D01*
X493416Y563219D01*
X493355Y563183D01*
X493295Y563143D01*
X493238Y563101D01*
X493183Y563055D01*
X493130Y563007D01*
X493081Y562956D01*
X493034Y562902D01*
X492990Y562846D01*
X492949Y562787D01*
X492911Y562727D01*
X492876Y562664D01*
X492845Y562600D01*
X492817Y562534D01*
X492793Y562467D01*
X492772Y562399D01*
X492755Y562329D01*
X492742Y562259D01*
X492733Y562189D01*
X492727Y562117D01*
X492725Y562046D01*
X492727Y561975D01*
X492733Y561903D01*
X492742Y561833D01*
X492755Y561763D01*
X492772Y561693D01*
X492793Y561625D01*
X492817Y561558D01*
X492845Y561492D01*
X492876Y561428D01*
X492911Y561365D01*
X492949Y561305D01*
X492990Y561246D01*
X493034Y561190D01*
X493081Y561136D01*
X493130Y561085D01*
X493183Y561037D01*
X493238Y560991D01*
X493295Y560949D01*
X493355Y560909D01*
X493416Y560873D01*
X493480Y560840D01*
X493545Y560811D01*
X493611Y560785D01*
X493679Y560762D01*
X493748Y560743D01*
X493818Y560728D01*
X493888Y560717D01*
X493959Y560709D01*
X494030Y560705D01*
X494102Y560705D01*
X494173Y560709D01*
X494244Y560717D01*
X494314Y560728D01*
X494384Y560743D01*
X494453Y560762D01*
X494521Y560785D01*
X494587Y560811D01*
X494652Y560840D01*
X494716Y560873D01*
X494777Y560909D01*
X494837Y560949D01*
X494894Y560991D01*
X494949Y561037D01*
X495002Y561085D01*
X495051Y561136D01*
X495098Y561190D01*
X495142Y561246D01*
X495183Y561305D01*
X495221Y561365D01*
X495256Y561428D01*
X495287Y561492D01*
X495315Y561558D01*
X495339Y561625D01*
X495360Y561693D01*
X495377Y561763D01*
X495390Y561833D01*
X495399Y561903D01*
X495405Y561975D01*
X495407Y562046D01*
X495138Y564459D02*
X495136Y564524D01*
X495130Y564588D01*
X495120Y564652D01*
X495107Y564716D01*
X495089Y564778D01*
X495068Y564839D01*
X495044Y564899D01*
X495015Y564957D01*
X494983Y565014D01*
X494948Y565068D01*
X494910Y565120D01*
X494868Y565170D01*
X494824Y565217D01*
X494777Y565261D01*
X494727Y565303D01*
X494675Y565341D01*
X494621Y565376D01*
X494564Y565408D01*
X494506Y565437D01*
X494446Y565461D01*
X494385Y565482D01*
X494323Y565500D01*
X494259Y565513D01*
X494195Y565523D01*
X494131Y565529D01*
X494066Y565531D01*
X494001Y565529D01*
X493937Y565523D01*
X493873Y565513D01*
X493809Y565500D01*
X493747Y565482D01*
X493686Y565461D01*
X493626Y565437D01*
X493568Y565408D01*
X493511Y565376D01*
X493457Y565341D01*
X493405Y565303D01*
X493355Y565261D01*
X493308Y565217D01*
X493264Y565170D01*
X493222Y565120D01*
X493184Y565068D01*
X493149Y565014D01*
X493117Y564957D01*
X493088Y564899D01*
X493064Y564839D01*
X493043Y564778D01*
X493025Y564716D01*
X493012Y564652D01*
X493002Y564588D01*
X492996Y564524D01*
X492994Y564459D01*
X492996Y564394D01*
X493002Y564330D01*
X493012Y564266D01*
X493025Y564202D01*
X493043Y564140D01*
X493064Y564079D01*
X493088Y564019D01*
X493117Y563961D01*
X493149Y563904D01*
X493184Y563850D01*
X493222Y563798D01*
X493264Y563748D01*
X493308Y563701D01*
X493355Y563657D01*
X493405Y563615D01*
X493457Y563577D01*
X493511Y563542D01*
X493568Y563510D01*
X493626Y563481D01*
X493686Y563457D01*
X493747Y563436D01*
X493809Y563418D01*
X493873Y563405D01*
X493937Y563395D01*
X494001Y563389D01*
X494066Y563387D01*
X494131Y563389D01*
X494195Y563395D01*
X494259Y563405D01*
X494323Y563418D01*
X494385Y563436D01*
X494446Y563457D01*
X494506Y563481D01*
X494564Y563510D01*
X494621Y563542D01*
X494675Y563577D01*
X494727Y563615D01*
X494777Y563657D01*
X494824Y563701D01*
X494868Y563748D01*
X494910Y563798D01*
X494948Y563850D01*
X494983Y563904D01*
X495015Y563961D01*
X495044Y564019D01*
X495068Y564079D01*
X495089Y564140D01*
X495107Y564202D01*
X495120Y564266D01*
X495130Y564330D01*
X495136Y564394D01*
X495138Y564459D01*
X506720Y636607D02*
X511546Y636607D01*
X511546Y637948D01*
X511547Y637948D02*
X511545Y638019D01*
X511539Y638091D01*
X511530Y638161D01*
X511517Y638231D01*
X511500Y638301D01*
X511479Y638369D01*
X511455Y638436D01*
X511427Y638502D01*
X511396Y638566D01*
X511361Y638629D01*
X511323Y638689D01*
X511282Y638748D01*
X511238Y638804D01*
X511191Y638858D01*
X511142Y638909D01*
X511089Y638957D01*
X511034Y639003D01*
X510977Y639045D01*
X510917Y639085D01*
X510856Y639121D01*
X510792Y639154D01*
X510727Y639183D01*
X510661Y639209D01*
X510593Y639232D01*
X510524Y639251D01*
X510454Y639266D01*
X510384Y639277D01*
X510313Y639285D01*
X510242Y639289D01*
X510170Y639289D01*
X510099Y639285D01*
X510028Y639277D01*
X509958Y639266D01*
X509888Y639251D01*
X509819Y639232D01*
X509751Y639209D01*
X509685Y639183D01*
X509620Y639154D01*
X509556Y639121D01*
X509495Y639085D01*
X509435Y639045D01*
X509378Y639003D01*
X509323Y638957D01*
X509270Y638909D01*
X509221Y638858D01*
X509174Y638804D01*
X509130Y638748D01*
X509089Y638689D01*
X509051Y638629D01*
X509016Y638566D01*
X508985Y638502D01*
X508957Y638436D01*
X508933Y638369D01*
X508912Y638301D01*
X508895Y638231D01*
X508882Y638161D01*
X508873Y638091D01*
X508867Y638019D01*
X508865Y637948D01*
X508865Y636607D01*
X508865Y638216D02*
X506720Y639288D01*
X510474Y642030D02*
X511546Y643370D01*
X506720Y643370D01*
X506720Y642030D02*
X506720Y644711D01*
X507793Y647516D02*
X511546Y648589D01*
X507793Y647516D02*
X507793Y650197D01*
X508865Y649393D02*
X506720Y649393D01*
D12*
X534280Y226967D02*
X545964Y226967D01*
X539473Y230861D01*
X545964Y234756D01*
X534280Y234756D01*
X537525Y240189D02*
X542718Y240189D01*
X542718Y240188D02*
X542831Y240190D01*
X542944Y240196D01*
X543057Y240206D01*
X543170Y240220D01*
X543282Y240237D01*
X543393Y240259D01*
X543503Y240284D01*
X543613Y240314D01*
X543721Y240347D01*
X543828Y240384D01*
X543934Y240424D01*
X544038Y240469D01*
X544141Y240517D01*
X544242Y240568D01*
X544341Y240623D01*
X544438Y240681D01*
X544533Y240743D01*
X544626Y240808D01*
X544716Y240876D01*
X544804Y240947D01*
X544890Y241022D01*
X544973Y241099D01*
X545053Y241179D01*
X545130Y241262D01*
X545205Y241348D01*
X545276Y241436D01*
X545344Y241526D01*
X545409Y241619D01*
X545471Y241714D01*
X545529Y241811D01*
X545584Y241910D01*
X545635Y242011D01*
X545683Y242114D01*
X545728Y242218D01*
X545768Y242324D01*
X545805Y242431D01*
X545838Y242539D01*
X545868Y242649D01*
X545893Y242759D01*
X545915Y242870D01*
X545932Y242982D01*
X545946Y243095D01*
X545956Y243208D01*
X545962Y243321D01*
X545964Y243434D01*
X545962Y243547D01*
X545956Y243660D01*
X545946Y243773D01*
X545932Y243886D01*
X545915Y243998D01*
X545893Y244109D01*
X545868Y244219D01*
X545838Y244329D01*
X545805Y244437D01*
X545768Y244544D01*
X545728Y244650D01*
X545683Y244754D01*
X545635Y244857D01*
X545584Y244958D01*
X545529Y245057D01*
X545471Y245154D01*
X545409Y245249D01*
X545344Y245342D01*
X545276Y245432D01*
X545205Y245520D01*
X545130Y245606D01*
X545053Y245689D01*
X544973Y245769D01*
X544890Y245846D01*
X544804Y245921D01*
X544716Y245992D01*
X544626Y246060D01*
X544533Y246125D01*
X544438Y246187D01*
X544341Y246245D01*
X544242Y246300D01*
X544141Y246351D01*
X544038Y246399D01*
X543934Y246444D01*
X543828Y246484D01*
X543721Y246521D01*
X543613Y246554D01*
X543503Y246584D01*
X543393Y246609D01*
X543282Y246631D01*
X543170Y246648D01*
X543057Y246662D01*
X542944Y246672D01*
X542831Y246678D01*
X542718Y246680D01*
X537525Y246680D01*
X537412Y246678D01*
X537299Y246672D01*
X537186Y246662D01*
X537073Y246648D01*
X536961Y246631D01*
X536850Y246609D01*
X536740Y246584D01*
X536630Y246554D01*
X536522Y246521D01*
X536415Y246484D01*
X536309Y246444D01*
X536205Y246399D01*
X536102Y246351D01*
X536001Y246300D01*
X535902Y246245D01*
X535805Y246187D01*
X535710Y246125D01*
X535617Y246060D01*
X535527Y245992D01*
X535439Y245921D01*
X535353Y245846D01*
X535270Y245769D01*
X535190Y245689D01*
X535113Y245606D01*
X535038Y245520D01*
X534967Y245432D01*
X534899Y245342D01*
X534834Y245249D01*
X534772Y245154D01*
X534714Y245057D01*
X534659Y244958D01*
X534608Y244857D01*
X534560Y244754D01*
X534515Y244650D01*
X534475Y244544D01*
X534438Y244437D01*
X534405Y244329D01*
X534375Y244219D01*
X534350Y244109D01*
X534328Y243998D01*
X534311Y243886D01*
X534297Y243773D01*
X534287Y243660D01*
X534281Y243547D01*
X534279Y243434D01*
X534281Y243321D01*
X534287Y243208D01*
X534297Y243095D01*
X534311Y242982D01*
X534328Y242870D01*
X534350Y242759D01*
X534375Y242649D01*
X534405Y242539D01*
X534438Y242431D01*
X534475Y242324D01*
X534515Y242218D01*
X534560Y242114D01*
X534608Y242011D01*
X534659Y241910D01*
X534714Y241811D01*
X534772Y241714D01*
X534834Y241619D01*
X534899Y241526D01*
X534967Y241436D01*
X535038Y241348D01*
X535113Y241262D01*
X535190Y241179D01*
X535270Y241099D01*
X535353Y241022D01*
X535439Y240947D01*
X535527Y240876D01*
X535617Y240808D01*
X535710Y240743D01*
X535805Y240681D01*
X535902Y240623D01*
X536001Y240568D01*
X536102Y240517D01*
X536205Y240469D01*
X536309Y240424D01*
X536415Y240384D01*
X536522Y240347D01*
X536630Y240314D01*
X536740Y240284D01*
X536850Y240259D01*
X536961Y240237D01*
X537073Y240220D01*
X537186Y240206D01*
X537299Y240196D01*
X537412Y240190D01*
X537525Y240188D01*
X534280Y255133D02*
X534282Y255232D01*
X534288Y255332D01*
X534297Y255431D01*
X534310Y255529D01*
X534327Y255627D01*
X534348Y255725D01*
X534373Y255821D01*
X534401Y255916D01*
X534433Y256010D01*
X534468Y256103D01*
X534507Y256195D01*
X534550Y256285D01*
X534595Y256373D01*
X534645Y256460D01*
X534697Y256544D01*
X534753Y256627D01*
X534811Y256707D01*
X534873Y256785D01*
X534938Y256860D01*
X535006Y256933D01*
X535076Y257003D01*
X535149Y257071D01*
X535224Y257136D01*
X535302Y257198D01*
X535382Y257256D01*
X535465Y257312D01*
X535549Y257364D01*
X535636Y257414D01*
X535724Y257459D01*
X535814Y257502D01*
X535906Y257541D01*
X535999Y257576D01*
X536093Y257608D01*
X536188Y257636D01*
X536284Y257661D01*
X536382Y257682D01*
X536480Y257699D01*
X536578Y257712D01*
X536677Y257721D01*
X536777Y257727D01*
X536876Y257729D01*
X534280Y255133D02*
X534282Y254989D01*
X534288Y254844D01*
X534297Y254700D01*
X534310Y254557D01*
X534327Y254413D01*
X534348Y254270D01*
X534373Y254128D01*
X534401Y253987D01*
X534433Y253846D01*
X534469Y253706D01*
X534508Y253567D01*
X534551Y253429D01*
X534598Y253293D01*
X534648Y253157D01*
X534702Y253023D01*
X534759Y252891D01*
X534820Y252760D01*
X534884Y252631D01*
X534952Y252503D01*
X535022Y252377D01*
X535097Y252253D01*
X535174Y252132D01*
X535255Y252012D01*
X535338Y251894D01*
X535425Y251779D01*
X535515Y251666D01*
X535608Y251555D01*
X535703Y251447D01*
X535802Y251341D01*
X535903Y251238D01*
X543367Y251563D02*
X543466Y251565D01*
X543566Y251571D01*
X543665Y251580D01*
X543763Y251593D01*
X543861Y251610D01*
X543959Y251631D01*
X544055Y251656D01*
X544150Y251684D01*
X544244Y251716D01*
X544337Y251751D01*
X544429Y251790D01*
X544519Y251833D01*
X544607Y251878D01*
X544694Y251928D01*
X544778Y251980D01*
X544861Y252036D01*
X544941Y252094D01*
X545019Y252156D01*
X545094Y252221D01*
X545167Y252289D01*
X545237Y252359D01*
X545305Y252432D01*
X545370Y252507D01*
X545432Y252585D01*
X545490Y252665D01*
X545546Y252748D01*
X545598Y252832D01*
X545648Y252919D01*
X545693Y253007D01*
X545736Y253097D01*
X545775Y253189D01*
X545810Y253282D01*
X545842Y253376D01*
X545870Y253471D01*
X545895Y253568D01*
X545916Y253665D01*
X545933Y253763D01*
X545946Y253861D01*
X545955Y253960D01*
X545961Y254060D01*
X545963Y254159D01*
X545961Y254295D01*
X545955Y254431D01*
X545946Y254567D01*
X545933Y254703D01*
X545915Y254838D01*
X545895Y254972D01*
X545870Y255106D01*
X545842Y255240D01*
X545809Y255372D01*
X545774Y255503D01*
X545734Y255634D01*
X545691Y255763D01*
X545645Y255891D01*
X545594Y256017D01*
X545541Y256143D01*
X545483Y256266D01*
X545423Y256388D01*
X545359Y256508D01*
X545291Y256627D01*
X545221Y256743D01*
X545147Y256857D01*
X545070Y256970D01*
X544989Y257080D01*
X541095Y252860D02*
X541148Y252774D01*
X541205Y252690D01*
X541264Y252608D01*
X541327Y252528D01*
X541393Y252451D01*
X541461Y252376D01*
X541533Y252304D01*
X541607Y252235D01*
X541684Y252169D01*
X541763Y252106D01*
X541845Y252046D01*
X541929Y251989D01*
X542015Y251935D01*
X542103Y251885D01*
X542193Y251838D01*
X542284Y251794D01*
X542378Y251755D01*
X542472Y251718D01*
X542568Y251686D01*
X542666Y251657D01*
X542764Y251632D01*
X542863Y251611D01*
X542963Y251593D01*
X543063Y251580D01*
X543164Y251570D01*
X543266Y251564D01*
X543367Y251562D01*
X539148Y256431D02*
X539095Y256517D01*
X539038Y256601D01*
X538979Y256683D01*
X538916Y256763D01*
X538850Y256840D01*
X538782Y256915D01*
X538710Y256987D01*
X538636Y257056D01*
X538559Y257122D01*
X538480Y257185D01*
X538398Y257245D01*
X538314Y257302D01*
X538228Y257356D01*
X538140Y257406D01*
X538050Y257453D01*
X537959Y257497D01*
X537865Y257536D01*
X537771Y257573D01*
X537675Y257605D01*
X537577Y257634D01*
X537479Y257659D01*
X537380Y257680D01*
X537280Y257698D01*
X537180Y257711D01*
X537079Y257721D01*
X536977Y257727D01*
X536876Y257729D01*
X539148Y256431D02*
X541096Y252861D01*
X545964Y262690D02*
X534280Y262690D01*
X545964Y262690D02*
X545964Y267883D01*
X540771Y267883D02*
X540771Y262690D01*
X534280Y272596D02*
X534280Y277789D01*
X534280Y272596D02*
X545964Y272596D01*
X545964Y277789D01*
X540771Y276491D02*
X540771Y272596D01*
X545964Y284582D02*
X534280Y284582D01*
X545964Y281337D02*
X545964Y287828D01*
X538824Y292118D02*
X538824Y299907D01*
X543367Y304959D02*
X545964Y308204D01*
X534280Y308204D01*
X534280Y304959D02*
X534280Y311450D01*
D10*
X493768Y293098D02*
X488942Y293098D01*
X493768Y293098D02*
X493768Y294439D01*
X493769Y294439D02*
X493767Y294510D01*
X493761Y294582D01*
X493752Y294652D01*
X493739Y294722D01*
X493722Y294792D01*
X493701Y294860D01*
X493677Y294927D01*
X493649Y294993D01*
X493618Y295057D01*
X493583Y295120D01*
X493545Y295180D01*
X493504Y295239D01*
X493460Y295295D01*
X493413Y295349D01*
X493364Y295400D01*
X493311Y295448D01*
X493256Y295494D01*
X493199Y295536D01*
X493139Y295576D01*
X493078Y295612D01*
X493014Y295645D01*
X492949Y295674D01*
X492883Y295700D01*
X492815Y295723D01*
X492746Y295742D01*
X492676Y295757D01*
X492606Y295768D01*
X492535Y295776D01*
X492464Y295780D01*
X492392Y295780D01*
X492321Y295776D01*
X492250Y295768D01*
X492180Y295757D01*
X492110Y295742D01*
X492041Y295723D01*
X491973Y295700D01*
X491907Y295674D01*
X491842Y295645D01*
X491778Y295612D01*
X491717Y295576D01*
X491657Y295536D01*
X491600Y295494D01*
X491545Y295448D01*
X491492Y295400D01*
X491443Y295349D01*
X491396Y295295D01*
X491352Y295239D01*
X491311Y295180D01*
X491273Y295120D01*
X491238Y295057D01*
X491207Y294993D01*
X491179Y294927D01*
X491155Y294860D01*
X491134Y294792D01*
X491117Y294722D01*
X491104Y294652D01*
X491095Y294582D01*
X491089Y294510D01*
X491087Y294439D01*
X491087Y293098D01*
X491087Y294707D02*
X488942Y295780D01*
X490015Y298521D02*
X493768Y299594D01*
X490015Y298521D02*
X490015Y301202D01*
X491087Y300398D02*
X488942Y300398D01*
X475598Y637941D02*
X475598Y642767D01*
X474258Y642767D01*
X474187Y642765D01*
X474115Y642759D01*
X474045Y642750D01*
X473975Y642737D01*
X473905Y642720D01*
X473837Y642699D01*
X473770Y642675D01*
X473704Y642647D01*
X473640Y642616D01*
X473577Y642581D01*
X473517Y642543D01*
X473458Y642502D01*
X473402Y642458D01*
X473348Y642411D01*
X473297Y642362D01*
X473249Y642309D01*
X473203Y642254D01*
X473161Y642197D01*
X473121Y642137D01*
X473085Y642076D01*
X473052Y642012D01*
X473023Y641947D01*
X472997Y641881D01*
X472974Y641813D01*
X472955Y641744D01*
X472940Y641674D01*
X472929Y641604D01*
X472921Y641533D01*
X472917Y641462D01*
X472917Y641390D01*
X472921Y641319D01*
X472929Y641248D01*
X472940Y641178D01*
X472955Y641108D01*
X472974Y641039D01*
X472997Y640971D01*
X473023Y640905D01*
X473052Y640840D01*
X473085Y640776D01*
X473121Y640715D01*
X473161Y640655D01*
X473203Y640598D01*
X473249Y640543D01*
X473297Y640490D01*
X473348Y640441D01*
X473402Y640394D01*
X473458Y640350D01*
X473517Y640309D01*
X473577Y640271D01*
X473640Y640236D01*
X473704Y640205D01*
X473770Y640177D01*
X473837Y640153D01*
X473905Y640132D01*
X473975Y640115D01*
X474045Y640102D01*
X474115Y640093D01*
X474187Y640087D01*
X474258Y640085D01*
X475598Y640085D01*
X473989Y640085D02*
X472917Y637941D01*
X470175Y637941D02*
X468567Y637941D01*
X468502Y637943D01*
X468438Y637949D01*
X468374Y637959D01*
X468310Y637972D01*
X468248Y637990D01*
X468187Y638011D01*
X468127Y638035D01*
X468069Y638064D01*
X468012Y638096D01*
X467958Y638131D01*
X467906Y638169D01*
X467856Y638211D01*
X467809Y638255D01*
X467765Y638302D01*
X467723Y638352D01*
X467685Y638404D01*
X467650Y638458D01*
X467618Y638515D01*
X467589Y638573D01*
X467565Y638633D01*
X467544Y638694D01*
X467526Y638756D01*
X467513Y638820D01*
X467503Y638884D01*
X467497Y638948D01*
X467495Y639013D01*
X467494Y639013D02*
X467494Y639549D01*
X467495Y639549D02*
X467497Y639614D01*
X467503Y639678D01*
X467513Y639742D01*
X467526Y639806D01*
X467544Y639868D01*
X467565Y639929D01*
X467589Y639989D01*
X467618Y640047D01*
X467650Y640104D01*
X467685Y640158D01*
X467723Y640210D01*
X467765Y640260D01*
X467809Y640307D01*
X467856Y640351D01*
X467906Y640393D01*
X467958Y640431D01*
X468012Y640466D01*
X468069Y640498D01*
X468127Y640527D01*
X468187Y640551D01*
X468248Y640572D01*
X468310Y640590D01*
X468374Y640603D01*
X468438Y640613D01*
X468502Y640619D01*
X468567Y640621D01*
X468567Y640622D02*
X470175Y640622D01*
X470175Y642767D01*
X467494Y642767D01*
M02*
