G04 EAGLE Gerber RS-274X export*
G75*
%MOMM*%
%FSLAX34Y34*%
%LPD*%
%INSolderpaste Top*%
%IPPOS*%
%AMOC8*
5,1,8,0,0,1.08239X$1,22.5*%
G01*
%ADD10C,0.300000*%
%ADD11R,0.200000X1.000000*%
%ADD12R,1.000000X0.200000*%
%ADD13R,0.350000X1.400000*%
%ADD14R,1.800000X1.900000*%
%ADD15R,1.900000X1.900000*%
%ADD16R,0.790000X0.260000*%
%ADD17R,0.260000X0.790000*%
%ADD18R,0.700000X1.100000*%


D10*
X308915Y646667D02*
X315915Y646667D01*
X315915Y639667D01*
X308915Y639667D01*
X308915Y646667D01*
X308915Y642517D02*
X315915Y642517D01*
X315915Y645367D02*
X308915Y645367D01*
X308915Y664207D02*
X315915Y664207D01*
X315915Y657207D01*
X308915Y657207D01*
X308915Y664207D01*
X308915Y660057D02*
X315915Y660057D01*
X315915Y662907D02*
X308915Y662907D01*
X318538Y476783D02*
X318538Y469783D01*
X318538Y476783D02*
X325538Y476783D01*
X325538Y469783D01*
X318538Y469783D01*
X318538Y472633D02*
X325538Y472633D01*
X325538Y475483D02*
X318538Y475483D01*
X300998Y476783D02*
X300998Y469783D01*
X300998Y476783D02*
X307998Y476783D01*
X307998Y469783D01*
X300998Y469783D01*
X300998Y472633D02*
X307998Y472633D01*
X307998Y475483D02*
X300998Y475483D01*
D11*
X404300Y463000D03*
X409300Y463000D03*
X414300Y463000D03*
X419300Y463000D03*
X424300Y463000D03*
X429300Y463000D03*
X434300Y463000D03*
X439300Y463000D03*
X444300Y463000D03*
X449300Y463000D03*
X454300Y463000D03*
X459300Y463000D03*
D12*
X476800Y480500D03*
X476800Y485500D03*
X476800Y490500D03*
X476800Y495500D03*
X476800Y500500D03*
X476800Y505500D03*
X476800Y510500D03*
X476800Y515500D03*
X476800Y520500D03*
X476800Y525500D03*
X476800Y530500D03*
X476800Y535500D03*
D11*
X459300Y553000D03*
X454300Y553000D03*
X449300Y553000D03*
X444300Y553000D03*
X439300Y553000D03*
X434300Y553000D03*
X429300Y553000D03*
X424300Y553000D03*
X419300Y553000D03*
X414300Y553000D03*
X409300Y553000D03*
X404300Y553000D03*
D12*
X386800Y535500D03*
X386800Y530500D03*
X386800Y525500D03*
X386800Y520500D03*
X386800Y515500D03*
X386800Y510500D03*
X386800Y505500D03*
X386800Y500500D03*
X386800Y495500D03*
X386800Y490500D03*
X386800Y485500D03*
X386800Y480500D03*
D13*
X346830Y172974D03*
X372830Y172974D03*
X353330Y172974D03*
X359830Y172974D03*
X366330Y172974D03*
D14*
X319830Y146474D03*
X399830Y146474D03*
D15*
X347130Y146474D03*
X372530Y146474D03*
D16*
X291024Y597123D03*
X291024Y592123D03*
X291024Y587123D03*
X291024Y582123D03*
X291024Y577123D03*
X291024Y572123D03*
D17*
X298224Y564923D03*
X303224Y564923D03*
X308224Y564923D03*
X313224Y564923D03*
X318224Y564923D03*
X323224Y564923D03*
D16*
X330424Y572123D03*
X330424Y577123D03*
X330424Y582123D03*
X330424Y587123D03*
X330424Y592123D03*
X330424Y597123D03*
D17*
X323224Y604323D03*
X318224Y604323D03*
X313224Y604323D03*
X308224Y604323D03*
X303224Y604323D03*
X298224Y604323D03*
D18*
X418017Y264861D03*
X418017Y299861D03*
X462517Y299861D03*
X462517Y264861D03*
M02*
