G04 EAGLE Gerber RS-274X export*
G75*
%MOMM*%
%FSLAX66Y66*%
%LPD*%
%INEAGLE Copper Layer 15*%
%IPPOS*%
%AMOC8*
5,1,8,0,0,1.08239X$1,22.5*%
G01*
%ADD10C,0.152400*%
%ADD11C,1.524000*%
%ADD12C,1.800000*%
%ADD13C,1.508000*%
%ADD14C,1.208000*%
%ADD15C,1.408000*%
%ADD16C,0.858000*%
%ADD17C,0.203200*%

G36*
X63314756Y11733538D02*
X63314756Y11733538D01*
X63316563Y11733841D01*
X63318375Y11733641D01*
X63328647Y11735875D01*
X63339025Y11737622D01*
X63340638Y11738484D01*
X63342422Y11738872D01*
X63351444Y11744263D01*
X63360725Y11749225D01*
X63361978Y11750556D01*
X63363547Y11751494D01*
X63370384Y11759484D01*
X63377594Y11767141D01*
X63378356Y11768800D01*
X63379547Y11770191D01*
X63383484Y11779950D01*
X63387875Y11789500D01*
X63388069Y11791319D01*
X63388753Y11793013D01*
X63390613Y11809813D01*
X63326675Y77665106D01*
X63326156Y77668253D01*
X63326406Y77671438D01*
X63324169Y77680334D01*
X63322678Y77689388D01*
X63321181Y77692213D01*
X63320403Y77695303D01*
X63315450Y77703022D01*
X63311150Y77711128D01*
X63308838Y77713322D01*
X63307109Y77716013D01*
X63299947Y77721753D01*
X63293294Y77728063D01*
X63290397Y77729406D01*
X63287906Y77731403D01*
X63279294Y77734559D01*
X63270972Y77738422D01*
X63267797Y77738772D01*
X63264800Y77739872D01*
X63255638Y77740119D01*
X63246513Y77741128D01*
X63243388Y77740450D01*
X63240200Y77740534D01*
X63231428Y77737847D01*
X63222466Y77735897D01*
X63219728Y77734263D01*
X63216672Y77733325D01*
X63209206Y77727975D01*
X63201341Y77723275D01*
X63199263Y77720847D01*
X63196669Y77718988D01*
X63186100Y77705803D01*
X62460806Y76560606D01*
X62458984Y76556325D01*
X62456338Y76552500D01*
X62452003Y76539925D01*
X62451169Y76537963D01*
X62451122Y76537366D01*
X62450831Y76536522D01*
X62439003Y76483828D01*
X62408675Y76464622D01*
X62402428Y76459072D01*
X62395638Y76454203D01*
X62392378Y76450134D01*
X62390281Y76448272D01*
X62388778Y76445644D01*
X62385069Y76441016D01*
X62365863Y76410688D01*
X62313166Y76398859D01*
X62308853Y76397122D01*
X62304272Y76396288D01*
X62292300Y76390453D01*
X62290338Y76389663D01*
X62289888Y76389278D01*
X62289081Y76388884D01*
X62243459Y76359988D01*
X62208428Y76367853D01*
X62200084Y76368344D01*
X62191844Y76369703D01*
X62186644Y76369131D01*
X62183863Y76369294D01*
X62180963Y76368506D01*
X62175047Y76367853D01*
X62140016Y76359988D01*
X62094394Y76388884D01*
X62090113Y76390706D01*
X62086288Y76393353D01*
X62073713Y76397688D01*
X62071750Y76398522D01*
X62071153Y76398569D01*
X62070309Y76398859D01*
X62017616Y76410688D01*
X61998409Y76441016D01*
X61992859Y76447263D01*
X61987991Y76454053D01*
X61983922Y76457313D01*
X61982059Y76459409D01*
X61979431Y76460913D01*
X61974803Y76464622D01*
X61944475Y76483828D01*
X61932647Y76536522D01*
X61930909Y76540838D01*
X61930075Y76545413D01*
X61924244Y76557381D01*
X61923450Y76559350D01*
X61923063Y76559800D01*
X61922672Y76560606D01*
X61140459Y77795684D01*
X61134903Y77801934D01*
X61130041Y77808719D01*
X61125972Y77811981D01*
X61124109Y77814075D01*
X61121491Y77815572D01*
X61116853Y77819291D01*
X61063506Y77853072D01*
X61061816Y77854681D01*
X61054325Y77858166D01*
X61047266Y77862428D01*
X61043244Y77863322D01*
X61039503Y77865063D01*
X61031303Y77865978D01*
X61023244Y77867769D01*
X61019141Y77867334D01*
X61015044Y77867791D01*
X61006978Y77866044D01*
X60998772Y77865175D01*
X60995028Y77863456D01*
X60990994Y77862584D01*
X60983894Y77858353D01*
X60976403Y77854916D01*
X60973403Y77852094D01*
X60969856Y77849981D01*
X60964481Y77843713D01*
X60958469Y77838063D01*
X60956522Y77834431D01*
X60953838Y77831300D01*
X60950741Y77823647D01*
X60946844Y77816375D01*
X60946156Y77812309D01*
X60944609Y77808488D01*
X60944263Y77805384D01*
X60944244Y77805331D01*
X60944241Y77805175D01*
X60942872Y77792928D01*
X60942734Y77792113D01*
X60942756Y77791897D01*
X60942734Y77791691D01*
X60942734Y77455509D01*
X60746875Y77116278D01*
X60407644Y76920419D01*
X59644497Y76920419D01*
X59480831Y77084084D01*
X59480831Y77315550D01*
X59644497Y77479216D01*
X60211781Y77479216D01*
X60214953Y77479734D01*
X60221725Y77479869D01*
X60246559Y77483138D01*
X60252778Y77485013D01*
X60259238Y77485919D01*
X60266906Y77489275D01*
X60270119Y77490244D01*
X60271722Y77491381D01*
X60274719Y77492694D01*
X60317734Y77517531D01*
X60326519Y77524722D01*
X60335600Y77531809D01*
X60336241Y77532678D01*
X60336778Y77533119D01*
X60338016Y77535091D01*
X60345622Y77545419D01*
X60370459Y77588434D01*
X60374506Y77599141D01*
X60378794Y77609741D01*
X60378913Y77610797D01*
X60379159Y77611453D01*
X60379247Y77613794D01*
X60380669Y77626538D01*
X60380669Y77676203D01*
X60378831Y77687428D01*
X60377234Y77698825D01*
X60376806Y77699803D01*
X60376694Y77700491D01*
X60375603Y77702550D01*
X60370459Y77714306D01*
X60345622Y77757322D01*
X60338419Y77766122D01*
X60331344Y77775188D01*
X60330475Y77775828D01*
X60330034Y77776366D01*
X60328063Y77777603D01*
X60317734Y77785209D01*
X60274719Y77810047D01*
X60268625Y77812350D01*
X60262969Y77815553D01*
X60254847Y77817559D01*
X60251700Y77818747D01*
X60249734Y77818819D01*
X60246559Y77819603D01*
X60221728Y77822872D01*
X60218531Y77822772D01*
X60211784Y77823525D01*
X60064516Y77823525D01*
X60064488Y77823528D01*
X59825119Y77823528D01*
X59661453Y77987194D01*
X59661453Y78218659D01*
X59825119Y78382325D01*
X60302119Y78382325D01*
X60305434Y78382869D01*
X60308284Y78382997D01*
X60310072Y78382853D01*
X60311175Y78383128D01*
X60314003Y78383256D01*
X60315725Y78383528D01*
X60321878Y78385559D01*
X60326406Y78386300D01*
X60328616Y78387469D01*
X60333950Y78388797D01*
X60337072Y78390572D01*
X60339094Y78391241D01*
X60341778Y78393253D01*
X60348638Y78397156D01*
X60351463Y78399209D01*
X60353659Y78401431D01*
X60356341Y78403066D01*
X60362284Y78410147D01*
X60368775Y78416703D01*
X60370153Y78419516D01*
X60372166Y78421913D01*
X60379138Y78437306D01*
X60380216Y78440625D01*
X60380688Y78443716D01*
X60381888Y78446591D01*
X60382541Y78455800D01*
X60383941Y78464950D01*
X60383406Y78468025D01*
X60383625Y78471138D01*
X60380222Y78487691D01*
X60379144Y78491013D01*
X60377706Y78493800D01*
X60376978Y78496863D01*
X60372084Y78504706D01*
X60367866Y78512888D01*
X60365616Y78515072D01*
X60363950Y78517741D01*
X60353272Y78527481D01*
X60353106Y78527675D01*
X60352969Y78527759D01*
X60351463Y78529131D01*
X60348638Y78531184D01*
X60342391Y78534328D01*
X60341706Y78534916D01*
X60339700Y78535728D01*
X60332009Y78540347D01*
X60328547Y78541297D01*
X60326656Y78542247D01*
X60323353Y78542719D01*
X60320450Y78543516D01*
X60318894Y78544144D01*
X60317644Y78544284D01*
X60315713Y78544813D01*
X60313969Y78545088D01*
X60310613Y78545069D01*
X60302097Y78546019D01*
X59644497Y78546019D01*
X59480831Y78709684D01*
X59480831Y78941150D01*
X59644497Y79104816D01*
X60510256Y79104816D01*
X60847059Y78860116D01*
X60975709Y78464169D01*
X60846047Y78065116D01*
X60844369Y78054156D01*
X60842338Y78043322D01*
X60842516Y78042053D01*
X60842322Y78040791D01*
X60844219Y78029897D01*
X60845753Y78018950D01*
X60846372Y78017538D01*
X60846544Y78016547D01*
X60847897Y78014047D01*
X60852528Y78003469D01*
X60893800Y77931984D01*
X60899303Y77925256D01*
X60904156Y77918013D01*
X60907066Y77915772D01*
X60909384Y77912938D01*
X60916750Y77908313D01*
X60923653Y77902997D01*
X60927122Y77901800D01*
X60930225Y77899853D01*
X60938678Y77897819D01*
X60946919Y77894978D01*
X60950591Y77894950D01*
X60954150Y77894094D01*
X60962813Y77894859D01*
X60971528Y77894794D01*
X60975016Y77895938D01*
X60978666Y77896259D01*
X60986625Y77899744D01*
X60994913Y77902459D01*
X60997856Y77904659D01*
X61001209Y77906125D01*
X61007656Y77911972D01*
X61014631Y77917181D01*
X61016716Y77920191D01*
X61019434Y77922659D01*
X61023681Y77930259D01*
X61028634Y77937419D01*
X61030169Y77941875D01*
X61031438Y77944144D01*
X61032016Y77947234D01*
X61034141Y77953397D01*
X61043688Y77995931D01*
X61044175Y78004259D01*
X61045538Y78012513D01*
X61045103Y78016469D01*
X61045216Y78017488D01*
X61045009Y78018447D01*
X61045128Y78020497D01*
X61044338Y78023397D01*
X61043688Y78029309D01*
X61035822Y78064338D01*
X61064716Y78109956D01*
X61066534Y78114228D01*
X61069184Y78118059D01*
X61073525Y78130650D01*
X61074353Y78132600D01*
X61074400Y78133194D01*
X61074691Y78134038D01*
X61086519Y78186734D01*
X61116853Y78205944D01*
X61123100Y78211497D01*
X61129891Y78216366D01*
X61133159Y78220444D01*
X61135244Y78222297D01*
X61136738Y78224906D01*
X61140459Y78229550D01*
X61862419Y79369494D01*
X61862950Y79370741D01*
X61863816Y79371788D01*
X61867763Y79382050D01*
X61872056Y79392138D01*
X61872163Y79393488D01*
X61872650Y79394756D01*
X61873119Y79405713D01*
X61873975Y79416672D01*
X61873644Y79417994D01*
X61873700Y79419344D01*
X61870656Y79429869D01*
X61867972Y79440538D01*
X61867241Y79441678D01*
X61866863Y79442981D01*
X61860619Y79451994D01*
X61854678Y79461247D01*
X61853619Y79462097D01*
X61852847Y79463209D01*
X61844031Y79469778D01*
X61835475Y79476638D01*
X61834206Y79477103D01*
X61833116Y79477916D01*
X61822641Y79481341D01*
X61812369Y79485106D01*
X61811019Y79485144D01*
X61809725Y79485566D01*
X61798694Y79485475D01*
X61787769Y79485769D01*
X61786478Y79485375D01*
X61785116Y79485363D01*
X61768881Y79480666D01*
X61606572Y79413431D01*
X60938941Y79413431D01*
X60322131Y79668922D01*
X59850050Y80141003D01*
X59594559Y80757813D01*
X59594559Y81425447D01*
X59850050Y82042256D01*
X60322131Y82514338D01*
X60938941Y82769828D01*
X61606575Y82769828D01*
X62223384Y82514338D01*
X62695466Y82042256D01*
X62950956Y81425447D01*
X62950956Y80757813D01*
X62695466Y80141003D01*
X62303000Y79748541D01*
X62296528Y79739538D01*
X62289797Y79730797D01*
X62289384Y79729597D01*
X62288638Y79728559D01*
X62285378Y79717978D01*
X62281775Y79707531D01*
X62281766Y79706256D01*
X62281391Y79705041D01*
X62281672Y79693969D01*
X62281591Y79682925D01*
X62281988Y79681719D01*
X62282019Y79680441D01*
X62285813Y79670044D01*
X62289256Y79659541D01*
X62290019Y79658519D01*
X62290456Y79657322D01*
X62297384Y79648650D01*
X62303978Y79639819D01*
X62305019Y79639100D01*
X62305819Y79638097D01*
X62315144Y79632094D01*
X62324216Y79625816D01*
X62325675Y79625313D01*
X62326509Y79624775D01*
X62329238Y79624084D01*
X62340191Y79620309D01*
X62365863Y79614547D01*
X62385069Y79584219D01*
X62390619Y79577972D01*
X62395488Y79571181D01*
X62399556Y79567922D01*
X62401419Y79565825D01*
X62404047Y79564322D01*
X62408675Y79560613D01*
X62439003Y79541406D01*
X62450831Y79488713D01*
X62452569Y79484397D01*
X62453403Y79479822D01*
X62459234Y79467853D01*
X62460028Y79465884D01*
X62460416Y79465434D01*
X62460806Y79464628D01*
X63185422Y78320500D01*
X63187594Y78318056D01*
X63189122Y78315175D01*
X63195716Y78308922D01*
X63201772Y78302109D01*
X63204613Y78300484D01*
X63206978Y78298241D01*
X63215238Y78294409D01*
X63223134Y78289891D01*
X63226334Y78289256D01*
X63229300Y78287881D01*
X63238341Y78286881D01*
X63247275Y78285113D01*
X63250519Y78285534D01*
X63253759Y78285175D01*
X63262647Y78287109D01*
X63271678Y78288281D01*
X63274613Y78289713D01*
X63277806Y78290406D01*
X63285631Y78295081D01*
X63293800Y78299063D01*
X63296122Y78301350D01*
X63298931Y78303028D01*
X63304853Y78309947D01*
X63311334Y78316331D01*
X63312809Y78319247D01*
X63314931Y78321725D01*
X63318334Y78330166D01*
X63322447Y78338288D01*
X63322916Y78341519D01*
X63324138Y78344547D01*
X63325997Y78361347D01*
X63321503Y82992497D01*
X63321163Y82994572D01*
X63321384Y82996653D01*
X63319175Y83006641D01*
X63317506Y83016778D01*
X63316522Y83018634D01*
X63316069Y83020681D01*
X63310781Y83029459D01*
X63305978Y83038519D01*
X63304456Y83039963D01*
X63303372Y83041763D01*
X63295547Y83048409D01*
X63288122Y83055453D01*
X63286222Y83056334D01*
X63284619Y83057697D01*
X63275081Y83061506D01*
X63265800Y83065813D01*
X63263716Y83066044D01*
X63261766Y83066822D01*
X63244959Y83068622D01*
X26303141Y82902278D01*
X26301334Y82901975D01*
X26299522Y82902175D01*
X26289250Y82899941D01*
X26278872Y82898194D01*
X26277259Y82897331D01*
X26275475Y82896944D01*
X26266453Y82891553D01*
X26257172Y82886591D01*
X26255919Y82885259D01*
X26254350Y82884322D01*
X26247513Y82876331D01*
X26240303Y82868675D01*
X26239541Y82867016D01*
X26238350Y82865625D01*
X26234413Y82855866D01*
X26230022Y82846316D01*
X26229828Y82844497D01*
X26229144Y82842803D01*
X26227284Y82826003D01*
X26296397Y11643322D01*
X26296738Y11641247D01*
X26296516Y11639166D01*
X26298725Y11629178D01*
X26300394Y11619041D01*
X26301378Y11617184D01*
X26301831Y11615138D01*
X26307119Y11606359D01*
X26311922Y11597300D01*
X26313444Y11595856D01*
X26314528Y11594056D01*
X26322353Y11587409D01*
X26329778Y11580366D01*
X26331678Y11579484D01*
X26333281Y11578122D01*
X26342819Y11574313D01*
X26352100Y11570006D01*
X26354184Y11569775D01*
X26356134Y11568997D01*
X26372941Y11567197D01*
X63314756Y11733538D01*
G37*
%LPC*%
G36*
X33706016Y35937763D02*
X33706016Y35937763D01*
X33409338Y36060653D01*
X33182272Y36287719D01*
X33059381Y36584397D01*
X33059381Y36905525D01*
X33182272Y37202203D01*
X33409338Y37429269D01*
X33706016Y37552159D01*
X34027141Y37552159D01*
X34132541Y37508500D01*
X34143931Y37505828D01*
X34155191Y37502978D01*
X34155856Y37503028D01*
X34156500Y37502878D01*
X34168075Y37503969D01*
X34179725Y37504863D01*
X34180338Y37505122D01*
X34181000Y37505184D01*
X34191681Y37509931D01*
X34202384Y37514469D01*
X34203003Y37514963D01*
X34203488Y37515178D01*
X34204941Y37516513D01*
X34215584Y37525019D01*
X40421594Y43731028D01*
X40512103Y43821534D01*
X40513250Y43823128D01*
X40514784Y43824356D01*
X40520000Y43832453D01*
X40520628Y43833116D01*
X40520997Y43833906D01*
X40526466Y43841516D01*
X40527044Y43843394D01*
X40528109Y43845047D01*
X40530409Y43854138D01*
X40531009Y43855428D01*
X40531156Y43856734D01*
X40533713Y43865034D01*
X40533663Y43867000D01*
X40534144Y43868903D01*
X40533478Y43877566D01*
X40533738Y43879888D01*
X40533278Y43882003D01*
X40533084Y43889634D01*
X40532409Y43891484D01*
X40532259Y43893441D01*
X40529284Y43900456D01*
X40528531Y43903938D01*
X40526813Y43906822D01*
X40524647Y43912753D01*
X40523419Y43914288D01*
X40522653Y43916097D01*
X40517253Y43922856D01*
X40515928Y43925075D01*
X40514497Y43926303D01*
X40512103Y43929297D01*
X40438616Y44002781D01*
X40338253Y44245084D01*
X40335844Y44248969D01*
X40334278Y44253263D01*
X40329397Y44259372D01*
X40325288Y44266000D01*
X40321775Y44268909D01*
X40318916Y44272488D01*
X40312350Y44276716D01*
X40306334Y44281697D01*
X40302059Y44283341D01*
X40298225Y44285809D01*
X40290659Y44287725D01*
X40283366Y44290528D01*
X40278806Y44290725D01*
X40274366Y44291847D01*
X40266566Y44291247D01*
X40258778Y44291581D01*
X40254394Y44290313D01*
X40249831Y44289963D01*
X40242638Y44286913D01*
X40235138Y44284744D01*
X40231381Y44282141D01*
X40227172Y44280356D01*
X40216531Y44271853D01*
X40214909Y44270728D01*
X40214591Y44270300D01*
X40213972Y44269806D01*
X38319016Y42374850D01*
X38312219Y42365394D01*
X38305244Y42356034D01*
X38305038Y42355403D01*
X38304653Y42354869D01*
X38301216Y42343716D01*
X38297597Y42332644D01*
X38297603Y42331988D01*
X38297406Y42331350D01*
X38297706Y42319603D01*
X38297803Y42308038D01*
X38298022Y42307284D01*
X38298034Y42306750D01*
X38298716Y42304884D01*
X38302500Y42291803D01*
X38305097Y42285534D01*
X38305097Y42034028D01*
X38208850Y41801669D01*
X38031013Y41623831D01*
X37798653Y41527584D01*
X37547144Y41527584D01*
X37314784Y41623831D01*
X37136947Y41801669D01*
X37040700Y42034028D01*
X37040700Y42285538D01*
X37136947Y42517897D01*
X37314784Y42695734D01*
X37547144Y42791981D01*
X37798650Y42791981D01*
X37804919Y42789384D01*
X37816281Y42786716D01*
X37827572Y42783859D01*
X37828234Y42783909D01*
X37828875Y42783759D01*
X37840516Y42784853D01*
X37852106Y42785744D01*
X37852709Y42786000D01*
X37853378Y42786063D01*
X37864147Y42790847D01*
X37874766Y42795350D01*
X37875378Y42795841D01*
X37875866Y42796056D01*
X37877325Y42797394D01*
X37887966Y42805900D01*
X41407881Y46325819D01*
X41413178Y46333191D01*
X41419097Y46340091D01*
X41420328Y46343134D01*
X41422244Y46345800D01*
X41424922Y46354488D01*
X41428325Y46362903D01*
X41428784Y46367031D01*
X41429491Y46369319D01*
X41429406Y46372597D01*
X41430200Y46379700D01*
X41430200Y47057775D01*
X41429047Y47064828D01*
X41428863Y47071997D01*
X41427069Y47076916D01*
X41426225Y47082063D01*
X41422881Y47088381D01*
X41420425Y47095113D01*
X41417159Y47099197D01*
X41414719Y47103813D01*
X41409531Y47108744D01*
X41405059Y47114338D01*
X41400669Y47117166D01*
X41396881Y47120766D01*
X41390391Y47123784D01*
X41384372Y47127663D01*
X41379303Y47128944D01*
X41374569Y47131147D01*
X41367459Y47131941D01*
X41360513Y47133697D01*
X41355297Y47133297D01*
X41350109Y47133875D01*
X41343116Y47132359D01*
X41335975Y47131813D01*
X41331169Y47129775D01*
X41326059Y47128669D01*
X41319903Y47124997D01*
X41313319Y47122206D01*
X41307731Y47117741D01*
X41304922Y47116066D01*
X41303369Y47114253D01*
X41300119Y47111656D01*
X41201313Y47012847D01*
X40968953Y46916600D01*
X40717444Y46916600D01*
X40485084Y47012847D01*
X40307247Y47190684D01*
X40211000Y47423044D01*
X40211000Y47674553D01*
X40307247Y47906913D01*
X40485084Y48084750D01*
X40717444Y48180997D01*
X40968953Y48180997D01*
X41201313Y48084750D01*
X41314750Y47971313D01*
X41316347Y47970166D01*
X41317572Y47968631D01*
X41326313Y47963000D01*
X41334731Y47956950D01*
X41336603Y47956372D01*
X41338259Y47955306D01*
X41348341Y47952756D01*
X41358250Y47949703D01*
X41360216Y47949753D01*
X41362119Y47949272D01*
X41372456Y47950066D01*
X41382850Y47950331D01*
X41384700Y47951006D01*
X41386653Y47951156D01*
X41396200Y47955203D01*
X41405969Y47958769D01*
X41407503Y47959997D01*
X41409313Y47960763D01*
X41422513Y47971313D01*
X41631063Y48179866D01*
X42001981Y48550784D01*
X42006813Y48557506D01*
X42006822Y48557516D01*
X42006825Y48557525D01*
X42007278Y48558156D01*
X42013197Y48565056D01*
X42014428Y48568100D01*
X42016344Y48570766D01*
X42019022Y48579453D01*
X42022425Y48587869D01*
X42022884Y48591997D01*
X42023591Y48594284D01*
X42023506Y48597563D01*
X42024300Y48604666D01*
X42024300Y52048450D01*
X42022413Y52059988D01*
X42020731Y52071494D01*
X42020431Y52072084D01*
X42020325Y52072738D01*
X42014884Y52083025D01*
X42009600Y52093441D01*
X42009125Y52093906D01*
X42008819Y52094488D01*
X42000400Y52102488D01*
X41992053Y52110697D01*
X41991366Y52111075D01*
X41990981Y52111441D01*
X41989197Y52112269D01*
X41977253Y52118853D01*
X41970981Y52121450D01*
X41793147Y52299284D01*
X41696900Y52531644D01*
X41696900Y52783153D01*
X41793147Y53015513D01*
X41970984Y53193350D01*
X42203344Y53289597D01*
X42454853Y53289597D01*
X42687213Y53193350D01*
X42865050Y53015513D01*
X42961297Y52783153D01*
X42961297Y52531644D01*
X42865050Y52299284D01*
X42687216Y52121450D01*
X42680944Y52118853D01*
X42671022Y52112706D01*
X42661019Y52106741D01*
X42660591Y52106241D01*
X42660025Y52105891D01*
X42652575Y52096894D01*
X42645000Y52088059D01*
X42644750Y52087444D01*
X42644331Y52086938D01*
X42640147Y52076059D01*
X42635772Y52065247D01*
X42635684Y52064466D01*
X42635494Y52063969D01*
X42635409Y52061997D01*
X42633897Y52048450D01*
X42633897Y48320597D01*
X42604300Y48291003D01*
X42601631Y48287288D01*
X42598266Y48284200D01*
X42594497Y48277363D01*
X42589938Y48271019D01*
X42588591Y48266650D01*
X42586384Y48262647D01*
X42584994Y48254975D01*
X42582691Y48247503D01*
X42582806Y48242922D01*
X42581994Y48238434D01*
X42583119Y48230722D01*
X42583319Y48222900D01*
X42584888Y48218600D01*
X42585547Y48214084D01*
X42589078Y48207119D01*
X42591756Y48199781D01*
X42594606Y48196216D01*
X42596675Y48192134D01*
X42602247Y48186653D01*
X42607119Y48180559D01*
X42610963Y48178084D01*
X42614222Y48174878D01*
X42626159Y48168297D01*
X42627809Y48167234D01*
X42628322Y48167103D01*
X42629022Y48166719D01*
X42826913Y48084750D01*
X43004750Y47906913D01*
X43100997Y47674553D01*
X43100997Y47423044D01*
X43004750Y47190684D01*
X42826913Y47012847D01*
X42594553Y46916600D01*
X42343044Y46916600D01*
X42145156Y46998569D01*
X42140713Y46999613D01*
X42136566Y47001541D01*
X42128803Y47002406D01*
X42121200Y47004191D01*
X42116647Y47003763D01*
X42112106Y47004269D01*
X42104472Y47002616D01*
X42096700Y47001884D01*
X42092528Y47000031D01*
X42088056Y46999063D01*
X42081341Y46995059D01*
X42074213Y46991891D01*
X42070847Y46988800D01*
X42066919Y46986459D01*
X42061834Y46980531D01*
X42056081Y46975250D01*
X42053875Y46971247D01*
X42050900Y46967778D01*
X42047972Y46960538D01*
X42044200Y46953697D01*
X42043384Y46949200D01*
X42041672Y46944966D01*
X42040159Y46931413D01*
X42039809Y46929484D01*
X42039884Y46928963D01*
X42039797Y46928169D01*
X42039797Y46095628D01*
X41838934Y45894766D01*
X41065656Y45121491D01*
X41062988Y45117778D01*
X41059622Y45114688D01*
X41055853Y45107853D01*
X41051294Y45101509D01*
X41049947Y45097141D01*
X41047741Y45093138D01*
X41046347Y45085459D01*
X41044047Y45077991D01*
X41044163Y45073413D01*
X41043350Y45068925D01*
X41044475Y45061213D01*
X41044675Y45053391D01*
X41046244Y45049094D01*
X41046903Y45044572D01*
X41050434Y45037609D01*
X41053113Y45030272D01*
X41055969Y45026697D01*
X41058034Y45022625D01*
X41063588Y45017163D01*
X41068475Y45011047D01*
X41072328Y45008566D01*
X41075578Y45005369D01*
X41087516Y44998788D01*
X41089166Y44997725D01*
X41089678Y44997594D01*
X41090378Y44997209D01*
X41332681Y44896847D01*
X41510519Y44719009D01*
X41606766Y44486650D01*
X41606766Y44442750D01*
X41607503Y44438238D01*
X41607309Y44433675D01*
X41609478Y44426178D01*
X41610741Y44418463D01*
X41612878Y44414422D01*
X41614147Y44410034D01*
X41618597Y44403613D01*
X41622247Y44396713D01*
X41625556Y44393566D01*
X41628163Y44389806D01*
X41634422Y44385141D01*
X41640084Y44379759D01*
X41644231Y44377831D01*
X41647894Y44375100D01*
X41655316Y44372672D01*
X41662397Y44369378D01*
X41666938Y44368872D01*
X41671284Y44367450D01*
X41679106Y44367516D01*
X41686856Y44366650D01*
X41691316Y44367616D01*
X41695891Y44367653D01*
X41708969Y44371438D01*
X41710906Y44371856D01*
X41711366Y44372131D01*
X41712125Y44372350D01*
X41780053Y44400488D01*
X42031563Y44400488D01*
X42263922Y44304241D01*
X42441759Y44126403D01*
X42538006Y43894044D01*
X42538006Y43642534D01*
X42441759Y43410175D01*
X42263922Y43232338D01*
X42031563Y43136091D01*
X41780053Y43136091D01*
X41547694Y43232338D01*
X41480056Y43299975D01*
X41472684Y43305272D01*
X41465784Y43311191D01*
X41462741Y43312422D01*
X41460075Y43314338D01*
X41451388Y43317016D01*
X41442972Y43320419D01*
X41438844Y43320878D01*
X41436556Y43321584D01*
X41433278Y43321500D01*
X41426175Y43322294D01*
X40906528Y43322294D01*
X40897569Y43320828D01*
X40888506Y43320131D01*
X40885481Y43318850D01*
X40882241Y43318319D01*
X40874213Y43314072D01*
X40865847Y43310525D01*
X40862594Y43307925D01*
X40860491Y43306813D01*
X40858244Y43304447D01*
X40852647Y43299975D01*
X34646638Y37093966D01*
X34639853Y37084528D01*
X34632869Y37075156D01*
X34632663Y37074522D01*
X34632275Y37073984D01*
X34628847Y37062859D01*
X34625219Y37051766D01*
X34625225Y37051103D01*
X34625028Y37050466D01*
X34625325Y37038813D01*
X34625422Y37027159D01*
X34625644Y37026397D01*
X34625656Y37025866D01*
X34626331Y37024019D01*
X34630119Y37010922D01*
X34673778Y36905522D01*
X34673778Y36584397D01*
X34550888Y36287719D01*
X34323822Y36060653D01*
X34027144Y35937763D01*
X33706016Y35937763D01*
G37*
%LPD*%
%LPC*%
G36*
X61108259Y11953166D02*
X61108259Y11953166D01*
X60491450Y12208656D01*
X60019369Y12680738D01*
X59763878Y13297547D01*
X59763878Y13965181D01*
X60019369Y14581991D01*
X60491450Y15054072D01*
X61108259Y15309563D01*
X61775894Y15309563D01*
X62392703Y15054072D01*
X62864784Y14581991D01*
X63120275Y13965181D01*
X63120275Y13297547D01*
X62864784Y12680738D01*
X62392703Y12208656D01*
X61775894Y11953166D01*
X61108259Y11953166D01*
G37*
%LPD*%
%LPC*%
G36*
X28103366Y11953169D02*
X28103366Y11953169D01*
X27486556Y12208659D01*
X27014475Y12680741D01*
X26758984Y13297550D01*
X26758984Y13965184D01*
X27014475Y14581994D01*
X27486556Y15054075D01*
X28103366Y15309566D01*
X28771000Y15309566D01*
X29387809Y15054075D01*
X29859891Y14581994D01*
X30115381Y13965184D01*
X30115381Y13297550D01*
X29859891Y12680741D01*
X29387809Y12208659D01*
X28771000Y11953169D01*
X28103366Y11953169D01*
G37*
%LPD*%
%LPC*%
G36*
X27849391Y79159459D02*
X27849391Y79159459D01*
X27232581Y79414950D01*
X26760500Y79887031D01*
X26505009Y80503841D01*
X26505009Y81171475D01*
X26760500Y81788284D01*
X27232581Y82260366D01*
X27849391Y82515856D01*
X28517025Y82515856D01*
X29133834Y82260366D01*
X29605916Y81788284D01*
X29861406Y81171475D01*
X29861406Y80503841D01*
X29605916Y79887031D01*
X29133834Y79414950D01*
X28517025Y79159459D01*
X27849391Y79159459D01*
G37*
%LPD*%
%LPC*%
G36*
X56931191Y67293281D02*
X56931191Y67293281D01*
X56525719Y67461234D01*
X56215388Y67771566D01*
X56047434Y68177038D01*
X56047434Y68615922D01*
X56215388Y69021394D01*
X56525719Y69331725D01*
X56931191Y69499678D01*
X57370075Y69499678D01*
X57775547Y69331725D01*
X58085878Y69021394D01*
X58253831Y68615922D01*
X58253831Y68177038D01*
X58085878Y67771566D01*
X57775547Y67461234D01*
X57370075Y67293281D01*
X56931191Y67293281D01*
G37*
%LPD*%
%LPC*%
G36*
X30557444Y57076600D02*
X30557444Y57076600D01*
X30325084Y57172847D01*
X30147247Y57350684D01*
X30051000Y57583044D01*
X30051000Y57834553D01*
X30147247Y58066913D01*
X30325084Y58244750D01*
X30557444Y58340997D01*
X30808953Y58340997D01*
X31041313Y58244750D01*
X31219150Y58066913D01*
X31222400Y58059066D01*
X31226172Y58052978D01*
X31229084Y58046431D01*
X31232619Y58042581D01*
X31235366Y58038150D01*
X31240878Y58033584D01*
X31245728Y58028303D01*
X31250300Y58025781D01*
X31254319Y58022456D01*
X31261000Y58019888D01*
X31267281Y58016425D01*
X31272422Y58015494D01*
X31277288Y58013622D01*
X31284444Y58013316D01*
X31291497Y58012038D01*
X31296663Y58012791D01*
X31301875Y58012569D01*
X31308750Y58014556D01*
X31315847Y58015594D01*
X31320509Y58017959D01*
X31325516Y58019406D01*
X31331397Y58023481D01*
X31337794Y58026725D01*
X31341453Y58030447D01*
X31345744Y58033419D01*
X31350025Y58039163D01*
X31355047Y58044272D01*
X31358503Y58050544D01*
X31360447Y58053153D01*
X31361188Y58055419D01*
X31363203Y58059075D01*
X31366450Y58066916D01*
X31544281Y58244747D01*
X31552122Y58247994D01*
X31558213Y58251769D01*
X31564759Y58254678D01*
X31568603Y58258206D01*
X31573041Y58260956D01*
X31577613Y58266478D01*
X31582888Y58271319D01*
X31585406Y58275888D01*
X31588738Y58279909D01*
X31591313Y58286597D01*
X31594769Y58292869D01*
X31595700Y58298000D01*
X31597575Y58302875D01*
X31597884Y58310044D01*
X31599159Y58317084D01*
X31598406Y58322241D01*
X31598631Y58327463D01*
X31596641Y58334350D01*
X31595606Y58341434D01*
X31593247Y58346084D01*
X31591797Y58351103D01*
X31587709Y58357003D01*
X31584475Y58363381D01*
X31580759Y58367034D01*
X31577784Y58371331D01*
X31572034Y58375616D01*
X31566931Y58380638D01*
X31560672Y58384088D01*
X31558053Y58386041D01*
X31555784Y58386784D01*
X31552131Y58388797D01*
X31544284Y58392047D01*
X31366447Y58569884D01*
X31270200Y58802244D01*
X31270200Y59053753D01*
X31366447Y59286113D01*
X31544284Y59463950D01*
X31776644Y59560197D01*
X32028153Y59560197D01*
X32260513Y59463950D01*
X32438350Y59286113D01*
X32534597Y59053753D01*
X32534597Y58802244D01*
X32438350Y58569884D01*
X32260513Y58392047D01*
X32252666Y58388797D01*
X32246578Y58385025D01*
X32240031Y58382113D01*
X32236181Y58378578D01*
X32231750Y58375831D01*
X32227184Y58370319D01*
X32221903Y58365469D01*
X32219381Y58360897D01*
X32216056Y58356878D01*
X32213488Y58350197D01*
X32210025Y58343916D01*
X32209094Y58338775D01*
X32207222Y58333909D01*
X32206916Y58326753D01*
X32205638Y58319700D01*
X32206391Y58314534D01*
X32206169Y58309322D01*
X32208156Y58302447D01*
X32209194Y58295350D01*
X32211559Y58290688D01*
X32213006Y58285681D01*
X32217081Y58279800D01*
X32220325Y58273403D01*
X32224047Y58269744D01*
X32227019Y58265453D01*
X32232763Y58261172D01*
X32237872Y58256150D01*
X32244144Y58252694D01*
X32246753Y58250750D01*
X32249019Y58250009D01*
X32252675Y58247994D01*
X32260516Y58244747D01*
X32438350Y58066913D01*
X32534597Y57834553D01*
X32534597Y57583044D01*
X32438350Y57350684D01*
X32260513Y57172847D01*
X32028153Y57076600D01*
X31776644Y57076600D01*
X31544284Y57172847D01*
X31366450Y57350681D01*
X31363203Y57358522D01*
X31359428Y57364613D01*
X31356519Y57371159D01*
X31352991Y57375003D01*
X31350241Y57379441D01*
X31344719Y57384013D01*
X31339878Y57389288D01*
X31335309Y57391806D01*
X31331288Y57395138D01*
X31324600Y57397713D01*
X31318328Y57401169D01*
X31313197Y57402100D01*
X31308322Y57403975D01*
X31301153Y57404284D01*
X31294113Y57405559D01*
X31288956Y57404806D01*
X31283734Y57405031D01*
X31276847Y57403041D01*
X31269763Y57402006D01*
X31265113Y57399647D01*
X31260094Y57398197D01*
X31254194Y57394109D01*
X31247816Y57390875D01*
X31244163Y57387159D01*
X31239866Y57384184D01*
X31235581Y57378434D01*
X31230559Y57373331D01*
X31227109Y57367072D01*
X31225156Y57364453D01*
X31224413Y57362184D01*
X31222400Y57358531D01*
X31219150Y57350684D01*
X31041313Y57172847D01*
X30808953Y57076600D01*
X30557444Y57076600D01*
G37*
%LPD*%
%LPC*%
G36*
X40109497Y19523481D02*
X40109497Y19523481D01*
X39754747Y19670425D01*
X39483234Y19941938D01*
X39336291Y20296688D01*
X39336291Y20680672D01*
X39483234Y21035422D01*
X39754747Y21306934D01*
X40109497Y21453878D01*
X40493481Y21453878D01*
X40848231Y21306934D01*
X41119744Y21035422D01*
X41266688Y20680672D01*
X41266688Y20296688D01*
X41119744Y19941938D01*
X40848231Y19670425D01*
X40493481Y19523481D01*
X40109497Y19523481D01*
G37*
%LPD*%
%LPC*%
G36*
X42649497Y19523481D02*
X42649497Y19523481D01*
X42294747Y19670425D01*
X42023234Y19941938D01*
X41876291Y20296688D01*
X41876291Y20680672D01*
X42023234Y21035422D01*
X42294747Y21306934D01*
X42649497Y21453878D01*
X43033481Y21453878D01*
X43388231Y21306934D01*
X43659744Y21035422D01*
X43806688Y20680672D01*
X43806688Y20296688D01*
X43659744Y19941938D01*
X43388231Y19670425D01*
X43033481Y19523481D01*
X42649497Y19523481D01*
G37*
%LPD*%
%LPC*%
G36*
X59244794Y50850825D02*
X59244794Y50850825D01*
X58890044Y50997769D01*
X58618531Y51269281D01*
X58471588Y51624031D01*
X58471588Y52008016D01*
X58618531Y52362766D01*
X58890044Y52634278D01*
X59244794Y52781222D01*
X59628778Y52781222D01*
X59983528Y52634278D01*
X60255041Y52362766D01*
X60401984Y52008016D01*
X60401984Y51624031D01*
X60255041Y51269281D01*
X59983528Y50997769D01*
X59628778Y50850825D01*
X59244794Y50850825D01*
G37*
%LPD*%
%LPC*%
G36*
X42215541Y76248794D02*
X42215541Y76248794D01*
X41860791Y76395738D01*
X41589278Y76667250D01*
X41442334Y77022000D01*
X41442334Y77405984D01*
X41589278Y77760734D01*
X41860791Y78032247D01*
X42215541Y78179191D01*
X42599525Y78179191D01*
X42954275Y78032247D01*
X43225788Y77760734D01*
X43372731Y77405984D01*
X43372731Y77022000D01*
X43225788Y76667250D01*
X42954275Y76395738D01*
X42599525Y76248794D01*
X42215541Y76248794D01*
G37*
%LPD*%
%LPC*%
G36*
X40109497Y22063481D02*
X40109497Y22063481D01*
X39754747Y22210425D01*
X39483234Y22481938D01*
X39336291Y22836688D01*
X39336291Y23220672D01*
X39483234Y23575422D01*
X39754747Y23846934D01*
X40109497Y23993878D01*
X40493481Y23993878D01*
X40848231Y23846934D01*
X41119744Y23575422D01*
X41266688Y23220672D01*
X41266688Y22836688D01*
X41119744Y22481938D01*
X40848231Y22210425D01*
X40493481Y22063481D01*
X40109497Y22063481D01*
G37*
%LPD*%
%LPC*%
G36*
X42649497Y22063481D02*
X42649497Y22063481D01*
X42294747Y22210425D01*
X42023234Y22481938D01*
X41876291Y22836688D01*
X41876291Y23220672D01*
X42023234Y23575422D01*
X42294747Y23846934D01*
X42649497Y23993878D01*
X43033481Y23993878D01*
X43388231Y23846934D01*
X43659744Y23575422D01*
X43806688Y23220672D01*
X43806688Y22836688D01*
X43659744Y22481938D01*
X43388231Y22210425D01*
X43033481Y22063481D01*
X42649497Y22063481D01*
G37*
%LPD*%
%LPC*%
G36*
X54418894Y50850825D02*
X54418894Y50850825D01*
X54064144Y50997769D01*
X53792631Y51269281D01*
X53645688Y51624031D01*
X53645688Y52008016D01*
X53792631Y52362766D01*
X54064144Y52634278D01*
X54418894Y52781222D01*
X54802878Y52781222D01*
X55157628Y52634278D01*
X55429141Y52362766D01*
X55576084Y52008016D01*
X55576084Y51624031D01*
X55429141Y51269281D01*
X55157628Y50997769D01*
X54802878Y50850825D01*
X54418894Y50850825D01*
G37*
%LPD*%
%LPC*%
G36*
X44755541Y76248794D02*
X44755541Y76248794D01*
X44400791Y76395738D01*
X44129278Y76667250D01*
X43982334Y77022000D01*
X43982334Y77405984D01*
X44129278Y77760734D01*
X44400791Y78032247D01*
X44755541Y78179191D01*
X45139525Y78179191D01*
X45494275Y78032247D01*
X45765788Y77760734D01*
X45912731Y77405984D01*
X45912731Y77022000D01*
X45765788Y76667250D01*
X45494275Y76395738D01*
X45139525Y76248794D01*
X44755541Y76248794D01*
G37*
%LPD*%
%LPC*%
G36*
X59244794Y48310825D02*
X59244794Y48310825D01*
X58890044Y48457769D01*
X58618531Y48729281D01*
X58471588Y49084031D01*
X58471588Y49468016D01*
X58618531Y49822766D01*
X58890044Y50094278D01*
X59244794Y50241222D01*
X59628778Y50241222D01*
X59983528Y50094278D01*
X60255041Y49822766D01*
X60401984Y49468016D01*
X60401984Y49084031D01*
X60255041Y48729281D01*
X59983528Y48457769D01*
X59628778Y48310825D01*
X59244794Y48310825D01*
G37*
%LPD*%
%LPC*%
G36*
X39675541Y76248794D02*
X39675541Y76248794D01*
X39320791Y76395738D01*
X39049278Y76667250D01*
X38902334Y77022000D01*
X38902334Y77405984D01*
X39049278Y77760734D01*
X39320791Y78032247D01*
X39675541Y78179191D01*
X40059525Y78179191D01*
X40414275Y78032247D01*
X40685788Y77760734D01*
X40832731Y77405984D01*
X40832731Y77022000D01*
X40685788Y76667250D01*
X40414275Y76395738D01*
X40059525Y76248794D01*
X39675541Y76248794D01*
G37*
%LPD*%
%LPC*%
G36*
X54418894Y48310825D02*
X54418894Y48310825D01*
X54064144Y48457769D01*
X53792631Y48729281D01*
X53645688Y49084031D01*
X53645688Y49468016D01*
X53792631Y49822766D01*
X54064144Y50094278D01*
X54418894Y50241222D01*
X54802878Y50241222D01*
X55157628Y50094278D01*
X55429141Y49822766D01*
X55576084Y49468016D01*
X55576084Y49084031D01*
X55429141Y48729281D01*
X55157628Y48457769D01*
X54802878Y48310825D01*
X54418894Y48310825D01*
G37*
%LPD*%
%LPC*%
G36*
X57891472Y34072800D02*
X57891472Y34072800D01*
X57539663Y34218525D01*
X57270400Y34487788D01*
X57124675Y34839597D01*
X57124675Y35220400D01*
X57270400Y35572209D01*
X57539663Y35841472D01*
X57891472Y35987197D01*
X58272275Y35987197D01*
X58624084Y35841472D01*
X58893347Y35572209D01*
X59039072Y35220400D01*
X59039072Y34839597D01*
X58893347Y34487788D01*
X58624084Y34218525D01*
X58272275Y34072800D01*
X57891472Y34072800D01*
G37*
%LPD*%
%LPC*%
G36*
X57969781Y29695903D02*
X57969781Y29695903D01*
X57617972Y29841628D01*
X57348709Y30110891D01*
X57202984Y30462700D01*
X57202984Y30843503D01*
X57348709Y31195313D01*
X57617972Y31464575D01*
X57969781Y31610300D01*
X58350584Y31610300D01*
X58702394Y31464575D01*
X58971656Y31195313D01*
X59117381Y30843503D01*
X59117381Y30462700D01*
X58971656Y30110891D01*
X58702394Y29841628D01*
X58350584Y29695903D01*
X57969781Y29695903D01*
G37*
%LPD*%
%LPC*%
G36*
X57891472Y37572800D02*
X57891472Y37572800D01*
X57539663Y37718525D01*
X57270400Y37987788D01*
X57124675Y38339597D01*
X57124675Y38720400D01*
X57270400Y39072209D01*
X57539663Y39341472D01*
X57891472Y39487197D01*
X58272275Y39487197D01*
X58624084Y39341472D01*
X58893347Y39072209D01*
X59039072Y38720400D01*
X59039072Y38339597D01*
X58893347Y37987788D01*
X58624084Y37718525D01*
X58272275Y37572800D01*
X57891472Y37572800D01*
G37*
%LPD*%
%LPC*%
G36*
X57969781Y26195903D02*
X57969781Y26195903D01*
X57617972Y26341628D01*
X57348709Y26610891D01*
X57202984Y26962700D01*
X57202984Y27343503D01*
X57348709Y27695313D01*
X57617972Y27964575D01*
X57969781Y28110300D01*
X58350584Y28110300D01*
X58702394Y27964575D01*
X58971656Y27695313D01*
X59117381Y27343503D01*
X59117381Y26962700D01*
X58971656Y26610891D01*
X58702394Y26341628D01*
X58350584Y26195903D01*
X57969781Y26195903D01*
G37*
%LPD*%
%LPC*%
G36*
X53879428Y20334506D02*
X53879428Y20334506D01*
X53545994Y20472619D01*
X53290797Y20727816D01*
X53152684Y21061250D01*
X53152684Y21422159D01*
X53290797Y21755594D01*
X53545994Y22010791D01*
X53879428Y22148903D01*
X54240338Y22148903D01*
X54573772Y22010791D01*
X54828969Y21755594D01*
X54967081Y21422159D01*
X54967081Y21061250D01*
X54828969Y20727816D01*
X54573772Y20472619D01*
X54240338Y20334506D01*
X53879428Y20334506D01*
G37*
%LPD*%
%LPC*%
G36*
X35600003Y54903578D02*
X35600003Y54903578D01*
X35367644Y54999825D01*
X35189806Y55177663D01*
X35093559Y55410022D01*
X35093559Y55661528D01*
X35145213Y55786225D01*
X35147438Y55795706D01*
X35150303Y55805006D01*
X35150238Y55807634D01*
X35150834Y55810184D01*
X35149925Y55819856D01*
X35149675Y55829609D01*
X35148772Y55832078D01*
X35148528Y55834684D01*
X35144578Y55843572D01*
X35141238Y55852725D01*
X35139600Y55854775D01*
X35138534Y55857172D01*
X35131944Y55864353D01*
X35125872Y55871950D01*
X35123669Y55873369D01*
X35121894Y55875303D01*
X35113369Y55880003D01*
X35105184Y55885275D01*
X35102641Y55885919D01*
X35100344Y55887184D01*
X35090775Y55888919D01*
X35081325Y55891309D01*
X35078703Y55891109D01*
X35076128Y55891575D01*
X35066513Y55890172D01*
X35056788Y55889425D01*
X35054372Y55888400D01*
X35051778Y55888022D01*
X35043091Y55883619D01*
X35034131Y55879819D01*
X35031588Y55877784D01*
X35029828Y55876894D01*
X35027463Y55874491D01*
X35020931Y55869269D01*
X34902113Y55750447D01*
X34669753Y55654200D01*
X34418244Y55654200D01*
X34185884Y55750447D01*
X34008047Y55928284D01*
X33911800Y56160644D01*
X33911800Y56412153D01*
X34008047Y56644513D01*
X34185884Y56822350D01*
X34418244Y56918597D01*
X34669753Y56918597D01*
X34902113Y56822350D01*
X35079950Y56644513D01*
X35176197Y56412153D01*
X35176197Y56160647D01*
X35124544Y56035950D01*
X35122319Y56026469D01*
X35119453Y56017169D01*
X35119519Y56014541D01*
X35118922Y56011991D01*
X35119831Y56002319D01*
X35120081Y55992566D01*
X35120984Y55990097D01*
X35121228Y55987491D01*
X35125178Y55978603D01*
X35128519Y55969450D01*
X35130156Y55967400D01*
X35131222Y55965003D01*
X35137813Y55957822D01*
X35143884Y55950225D01*
X35146088Y55948806D01*
X35147863Y55946872D01*
X35156388Y55942172D01*
X35164572Y55936900D01*
X35167116Y55936256D01*
X35169413Y55934991D01*
X35178981Y55933256D01*
X35188431Y55930866D01*
X35191053Y55931066D01*
X35193628Y55930600D01*
X35203244Y55932003D01*
X35212969Y55932750D01*
X35215384Y55933775D01*
X35217978Y55934153D01*
X35226666Y55938556D01*
X35235625Y55942356D01*
X35238169Y55944391D01*
X35239928Y55945281D01*
X35242294Y55947684D01*
X35248825Y55952906D01*
X35367644Y56071728D01*
X35600003Y56167975D01*
X35851513Y56167975D01*
X36083872Y56071728D01*
X36261709Y55893891D01*
X36357956Y55661531D01*
X36357956Y55410022D01*
X36261709Y55177663D01*
X36083872Y54999825D01*
X35851513Y54903578D01*
X35600003Y54903578D01*
G37*
%LPD*%
%LPC*%
G36*
X47626244Y46307000D02*
X47626244Y46307000D01*
X47393884Y46403247D01*
X47216047Y46581084D01*
X47119800Y46813444D01*
X47119800Y47064953D01*
X47216044Y47297309D01*
X47393884Y47475150D01*
X47626244Y47571397D01*
X47877750Y47571397D01*
X48030438Y47508150D01*
X48034888Y47507106D01*
X48039031Y47505178D01*
X48046794Y47504313D01*
X48054397Y47502528D01*
X48058950Y47502956D01*
X48063491Y47502450D01*
X48071125Y47504103D01*
X48078897Y47504834D01*
X48083069Y47506688D01*
X48087541Y47507656D01*
X48094256Y47511659D01*
X48101384Y47514828D01*
X48104750Y47517919D01*
X48108678Y47520259D01*
X48113763Y47526188D01*
X48119516Y47531469D01*
X48121722Y47535472D01*
X48124697Y47538941D01*
X48127625Y47546181D01*
X48131397Y47553022D01*
X48132213Y47557519D01*
X48133925Y47561753D01*
X48135438Y47575306D01*
X48135788Y47577234D01*
X48135713Y47577756D01*
X48135800Y47578550D01*
X48135800Y47674553D01*
X48232047Y47906913D01*
X48409884Y48084750D01*
X48642244Y48180997D01*
X48893753Y48180997D01*
X49126113Y48084750D01*
X49303950Y47906913D01*
X49400197Y47674553D01*
X49400197Y47423044D01*
X49303950Y47190684D01*
X49126113Y47012847D01*
X48893753Y46916600D01*
X48642247Y46916600D01*
X48489559Y46979847D01*
X48485109Y46980891D01*
X48480966Y46982819D01*
X48473203Y46983684D01*
X48465600Y46985469D01*
X48461047Y46985041D01*
X48456506Y46985547D01*
X48448872Y46983894D01*
X48441100Y46983163D01*
X48436928Y46981309D01*
X48432456Y46980341D01*
X48425741Y46976338D01*
X48418613Y46973169D01*
X48415247Y46970078D01*
X48411319Y46967738D01*
X48406234Y46961809D01*
X48400481Y46956528D01*
X48398275Y46952525D01*
X48395300Y46949056D01*
X48392372Y46941816D01*
X48388600Y46934975D01*
X48387784Y46930478D01*
X48386072Y46926244D01*
X48384559Y46912691D01*
X48384209Y46910763D01*
X48384284Y46910241D01*
X48384197Y46909447D01*
X48384197Y46813444D01*
X48287950Y46581084D01*
X48110113Y46403247D01*
X47877753Y46307000D01*
X47626244Y46307000D01*
G37*
%LPD*%
%LPC*%
G36*
X39904644Y49355000D02*
X39904644Y49355000D01*
X39672284Y49451247D01*
X39494447Y49629084D01*
X39398200Y49861444D01*
X39398200Y50112953D01*
X39494447Y50345313D01*
X39672284Y50523150D01*
X39904644Y50619397D01*
X40000647Y50619397D01*
X40005159Y50620134D01*
X40009722Y50619941D01*
X40017219Y50622109D01*
X40024934Y50623372D01*
X40028975Y50625509D01*
X40033363Y50626778D01*
X40039784Y50631228D01*
X40046684Y50634878D01*
X40049831Y50638188D01*
X40053591Y50640794D01*
X40058256Y50647053D01*
X40063638Y50652716D01*
X40065566Y50656863D01*
X40068297Y50660525D01*
X40070725Y50667947D01*
X40074019Y50675028D01*
X40074525Y50679569D01*
X40075947Y50683916D01*
X40075881Y50691738D01*
X40076747Y50699488D01*
X40075781Y50703947D01*
X40075744Y50708522D01*
X40071959Y50721609D01*
X40071541Y50723538D01*
X40071269Y50723994D01*
X40071047Y50724759D01*
X40007800Y50877447D01*
X40007800Y51128953D01*
X40104047Y51361313D01*
X40281884Y51539150D01*
X40514244Y51635397D01*
X40765753Y51635397D01*
X40998113Y51539150D01*
X41175950Y51361313D01*
X41272197Y51128953D01*
X41272197Y50877444D01*
X41175950Y50645084D01*
X40998113Y50467247D01*
X40765753Y50371000D01*
X40669750Y50371000D01*
X40665238Y50370263D01*
X40660675Y50370456D01*
X40653178Y50368288D01*
X40645463Y50367025D01*
X40641422Y50364888D01*
X40637034Y50363619D01*
X40630613Y50359169D01*
X40623713Y50355519D01*
X40620566Y50352209D01*
X40616806Y50349603D01*
X40612141Y50343344D01*
X40606759Y50337681D01*
X40604831Y50333534D01*
X40602100Y50329872D01*
X40599672Y50322450D01*
X40596378Y50315369D01*
X40595872Y50310828D01*
X40594450Y50306481D01*
X40594516Y50298659D01*
X40593650Y50290909D01*
X40594616Y50286450D01*
X40594653Y50281875D01*
X40598438Y50268788D01*
X40598856Y50266859D01*
X40599128Y50266403D01*
X40599350Y50265638D01*
X40662597Y50112950D01*
X40662597Y49861444D01*
X40566350Y49629084D01*
X40388513Y49451247D01*
X40156153Y49355000D01*
X39904644Y49355000D01*
G37*
%LPD*%
%LPC*%
G36*
X45559434Y37969941D02*
X45559434Y37969941D01*
X45262756Y38092831D01*
X45035691Y38319897D01*
X44912800Y38616575D01*
X44912800Y38937703D01*
X45035691Y39234381D01*
X45262756Y39461447D01*
X45559434Y39584338D01*
X45880563Y39584338D01*
X46177241Y39461447D01*
X46404306Y39234381D01*
X46527197Y38937703D01*
X46527197Y38616575D01*
X46404306Y38319897D01*
X46177241Y38092831D01*
X45880563Y37969941D01*
X45559434Y37969941D01*
G37*
%LPD*%
%LPC*%
G36*
X40479434Y37969941D02*
X40479434Y37969941D01*
X40182756Y38092831D01*
X39955691Y38319897D01*
X39832800Y38616575D01*
X39832800Y38937703D01*
X39955691Y39234381D01*
X40182756Y39461447D01*
X40479434Y39584338D01*
X40800563Y39584338D01*
X41097241Y39461447D01*
X41324306Y39234381D01*
X41447197Y38937703D01*
X41447197Y38616575D01*
X41324306Y38319897D01*
X41097241Y38092831D01*
X40800563Y37969941D01*
X40479434Y37969941D01*
G37*
%LPD*%
%LPC*%
G36*
X33706016Y41017763D02*
X33706016Y41017763D01*
X33409338Y41140653D01*
X33182272Y41367719D01*
X33059381Y41664397D01*
X33059381Y41985525D01*
X33182272Y42282203D01*
X33409338Y42509269D01*
X33706016Y42632159D01*
X34027144Y42632159D01*
X34323822Y42509269D01*
X34550888Y42282203D01*
X34673778Y41985525D01*
X34673778Y41664397D01*
X34550888Y41367719D01*
X34323822Y41140653D01*
X34027144Y41017763D01*
X33706016Y41017763D01*
G37*
%LPD*%
%LPC*%
G36*
X38685444Y53825400D02*
X38685444Y53825400D01*
X38453084Y53921647D01*
X38275247Y54099484D01*
X38179000Y54331844D01*
X38179000Y54583353D01*
X38275247Y54815713D01*
X38453084Y54993550D01*
X38685444Y55089797D01*
X38936953Y55089797D01*
X39169313Y54993550D01*
X39347150Y54815713D01*
X39443397Y54583353D01*
X39443397Y54331844D01*
X39347150Y54099484D01*
X39169313Y53921647D01*
X38936953Y53825400D01*
X38685444Y53825400D01*
G37*
%LPD*%
%LPC*%
G36*
X28525444Y53825400D02*
X28525444Y53825400D01*
X28293084Y53921647D01*
X28115247Y54099484D01*
X28019000Y54331844D01*
X28019000Y54583353D01*
X28115247Y54815713D01*
X28293084Y54993550D01*
X28525444Y55089797D01*
X28776953Y55089797D01*
X29009313Y54993550D01*
X29187150Y54815713D01*
X29283397Y54583353D01*
X29283397Y54331844D01*
X29187150Y54099484D01*
X29009313Y53921647D01*
X28776953Y53825400D01*
X28525444Y53825400D01*
G37*
%LPD*%
%LPC*%
G36*
X53112644Y53825400D02*
X53112644Y53825400D01*
X52880284Y53921647D01*
X52702447Y54099484D01*
X52606200Y54331844D01*
X52606200Y54583353D01*
X52702447Y54815713D01*
X52880284Y54993550D01*
X53112644Y55089797D01*
X53364153Y55089797D01*
X53596513Y54993550D01*
X53774350Y54815713D01*
X53870597Y54583353D01*
X53870597Y54331844D01*
X53774350Y54099484D01*
X53596513Y53921647D01*
X53364153Y53825400D01*
X53112644Y53825400D01*
G37*
%LPD*%
%LPC*%
G36*
X46610244Y53825400D02*
X46610244Y53825400D01*
X46377884Y53921647D01*
X46200047Y54099484D01*
X46103800Y54331844D01*
X46103800Y54583353D01*
X46200047Y54815713D01*
X46377884Y54993550D01*
X46610244Y55089797D01*
X46861753Y55089797D01*
X47094113Y54993550D01*
X47271950Y54815713D01*
X47368197Y54583353D01*
X47368197Y54331844D01*
X47271950Y54099484D01*
X47094113Y53921647D01*
X46861753Y53825400D01*
X46610244Y53825400D01*
G37*
%LPD*%
%LPC*%
G36*
X33571559Y53859284D02*
X33571559Y53859284D01*
X33339200Y53955531D01*
X33161363Y54133369D01*
X33065116Y54365728D01*
X33065116Y54617238D01*
X33161363Y54849597D01*
X33339200Y55027434D01*
X33571559Y55123681D01*
X33823069Y55123681D01*
X34055428Y55027434D01*
X34233266Y54849597D01*
X34329513Y54617238D01*
X34329513Y54365728D01*
X34233266Y54133369D01*
X34055428Y53955531D01*
X33823069Y53859284D01*
X33571559Y53859284D01*
G37*
%LPD*%
%LPC*%
G36*
X37466244Y55857400D02*
X37466244Y55857400D01*
X37233884Y55953647D01*
X37056047Y56131484D01*
X36959800Y56363844D01*
X36959800Y56615353D01*
X37056047Y56847713D01*
X37233884Y57025550D01*
X37466244Y57121797D01*
X37717753Y57121797D01*
X37950113Y57025550D01*
X38127950Y56847713D01*
X38224197Y56615353D01*
X38224197Y56363844D01*
X38127950Y56131484D01*
X37950113Y55953647D01*
X37717753Y55857400D01*
X37466244Y55857400D01*
G37*
%LPD*%
%LPC*%
G36*
X46000644Y56263800D02*
X46000644Y56263800D01*
X45768284Y56360047D01*
X45590447Y56537884D01*
X45494200Y56770244D01*
X45494200Y57021753D01*
X45590447Y57254113D01*
X45768284Y57431950D01*
X46000644Y57528197D01*
X46252153Y57528197D01*
X46484513Y57431950D01*
X46662350Y57254113D01*
X46758597Y57021753D01*
X46758597Y56770244D01*
X46662350Y56537884D01*
X46484513Y56360047D01*
X46252153Y56263800D01*
X46000644Y56263800D01*
G37*
%LPD*%
%LPC*%
G36*
X51487044Y51387000D02*
X51487044Y51387000D01*
X51254684Y51483247D01*
X51076847Y51661084D01*
X50980600Y51893444D01*
X50980600Y52144953D01*
X51076847Y52377313D01*
X51254684Y52555150D01*
X51487044Y52651397D01*
X51738553Y52651397D01*
X51970913Y52555150D01*
X52148750Y52377313D01*
X52244997Y52144953D01*
X52244997Y51893444D01*
X52148750Y51661084D01*
X51970913Y51483247D01*
X51738553Y51387000D01*
X51487044Y51387000D01*
G37*
%LPD*%
%LPC*%
G36*
X45306488Y50777400D02*
X45306488Y50777400D01*
X45074128Y50873647D01*
X44896291Y51051484D01*
X44800044Y51283844D01*
X44800044Y51535353D01*
X44896291Y51767713D01*
X45074128Y51945550D01*
X45306488Y52041797D01*
X45557997Y52041797D01*
X45790356Y51945550D01*
X45968194Y51767713D01*
X46064441Y51535353D01*
X46064441Y51283844D01*
X45968194Y51051484D01*
X45790356Y50873647D01*
X45557997Y50777400D01*
X45306488Y50777400D01*
G37*
%LPD*%
%LPC*%
G36*
X41804244Y56911184D02*
X41804244Y56911184D01*
X41571884Y57007431D01*
X41394047Y57185269D01*
X41297800Y57417628D01*
X41297800Y57669138D01*
X41394047Y57901497D01*
X41571884Y58079334D01*
X41804244Y58175581D01*
X42055753Y58175581D01*
X42288113Y58079334D01*
X42465950Y57901497D01*
X42562197Y57669138D01*
X42562197Y57417628D01*
X42465950Y57185269D01*
X42288113Y57007431D01*
X42055753Y56911184D01*
X41804244Y56911184D01*
G37*
%LPD*%
%LPC*%
G36*
X35600003Y57274009D02*
X35600003Y57274009D01*
X35367644Y57370256D01*
X35189806Y57548094D01*
X35093559Y57780453D01*
X35093559Y58031963D01*
X35189806Y58264322D01*
X35367644Y58442159D01*
X35600003Y58538406D01*
X35851513Y58538406D01*
X36083872Y58442159D01*
X36261709Y58264322D01*
X36357956Y58031963D01*
X36357956Y57780453D01*
X36261709Y57548094D01*
X36083872Y57370256D01*
X35851513Y57274009D01*
X35600003Y57274009D01*
G37*
%LPD*%
%LPC*%
G36*
X41530244Y58702200D02*
X41530244Y58702200D01*
X41297884Y58798447D01*
X41120047Y58976284D01*
X41023800Y59208644D01*
X41023800Y59460153D01*
X41120047Y59692513D01*
X41297884Y59870350D01*
X41530244Y59966597D01*
X41781753Y59966597D01*
X42014113Y59870350D01*
X42191950Y59692513D01*
X42288197Y59460153D01*
X42288197Y59208644D01*
X42191950Y58976284D01*
X42014113Y58798447D01*
X41781753Y58702200D01*
X41530244Y58702200D01*
G37*
%LPD*%
%LPC*%
G36*
X31573444Y60937400D02*
X31573444Y60937400D01*
X31341084Y61033647D01*
X31163247Y61211484D01*
X31067000Y61443844D01*
X31067000Y61695353D01*
X31163247Y61927713D01*
X31341084Y62105550D01*
X31573444Y62201797D01*
X31824953Y62201797D01*
X32057313Y62105550D01*
X32235150Y61927713D01*
X32331397Y61695353D01*
X32331397Y61443844D01*
X32235150Y61211484D01*
X32057313Y61033647D01*
X31824953Y60937400D01*
X31573444Y60937400D01*
G37*
%LPD*%
%LPC*%
G36*
X33605444Y67236600D02*
X33605444Y67236600D01*
X33373084Y67332847D01*
X33195247Y67510684D01*
X33099000Y67743044D01*
X33099000Y67994553D01*
X33195247Y68226913D01*
X33373084Y68404750D01*
X33605444Y68500997D01*
X33856953Y68500997D01*
X34089313Y68404750D01*
X34267150Y68226913D01*
X34363397Y67994553D01*
X34363397Y67743044D01*
X34267150Y67510684D01*
X34089313Y67332847D01*
X33856953Y67236600D01*
X33605444Y67236600D01*
G37*
%LPD*%
%LPC*%
G36*
X32792644Y23345400D02*
X32792644Y23345400D01*
X32560284Y23441647D01*
X32382447Y23619484D01*
X32286200Y23851844D01*
X32286200Y24103353D01*
X32382447Y24335713D01*
X32560284Y24513550D01*
X32792644Y24609797D01*
X33044153Y24609797D01*
X33276513Y24513550D01*
X33454350Y24335713D01*
X33550597Y24103353D01*
X33550597Y23851844D01*
X33454350Y23619484D01*
X33276513Y23441647D01*
X33044153Y23345400D01*
X32792644Y23345400D01*
G37*
%LPD*%
%LPC*%
G36*
X31776644Y27409400D02*
X31776644Y27409400D01*
X31544284Y27505647D01*
X31366447Y27683484D01*
X31270200Y27915844D01*
X31270200Y28167353D01*
X31366447Y28399713D01*
X31544284Y28577550D01*
X31776644Y28673797D01*
X32028153Y28673797D01*
X32260513Y28577550D01*
X32438350Y28399713D01*
X32534597Y28167353D01*
X32534597Y27915844D01*
X32438350Y27683484D01*
X32260513Y27505647D01*
X32028153Y27409400D01*
X31776644Y27409400D01*
G37*
%LPD*%
%LPC*%
G36*
X36043844Y28222200D02*
X36043844Y28222200D01*
X35811484Y28318447D01*
X35633647Y28496284D01*
X35537400Y28728644D01*
X35537400Y28980153D01*
X35633647Y29212513D01*
X35811484Y29390350D01*
X36043844Y29486597D01*
X36295353Y29486597D01*
X36527713Y29390350D01*
X36705550Y29212513D01*
X36801797Y28980153D01*
X36801797Y28728644D01*
X36705550Y28496284D01*
X36527713Y28318447D01*
X36295353Y28222200D01*
X36043844Y28222200D01*
G37*
%LPD*%
%LPC*%
G36*
X37885775Y45845153D02*
X37885775Y45845153D01*
X37653416Y45941400D01*
X37475578Y46119238D01*
X37379331Y46351597D01*
X37379331Y46603106D01*
X37475578Y46835466D01*
X37653416Y47013303D01*
X37885775Y47109550D01*
X38137284Y47109550D01*
X38369644Y47013303D01*
X38547481Y46835466D01*
X38643728Y46603106D01*
X38643728Y46351597D01*
X38547481Y46119238D01*
X38369644Y45941400D01*
X38137284Y45845153D01*
X37885775Y45845153D01*
G37*
%LPD*%
%LPC*%
G36*
X39701444Y28628600D02*
X39701444Y28628600D01*
X39469084Y28724847D01*
X39291247Y28902684D01*
X39195000Y29135044D01*
X39195000Y29386553D01*
X39291247Y29618913D01*
X39469084Y29796750D01*
X39701444Y29892997D01*
X39952953Y29892997D01*
X40185313Y29796750D01*
X40363150Y29618913D01*
X40459397Y29386553D01*
X40459397Y29135044D01*
X40363150Y28902684D01*
X40185313Y28724847D01*
X39952953Y28628600D01*
X39701444Y28628600D01*
G37*
%LPD*%
%LPC*%
G36*
X44781444Y64188600D02*
X44781444Y64188600D01*
X44549084Y64284847D01*
X44371247Y64462684D01*
X44275000Y64695044D01*
X44275000Y64946553D01*
X44371247Y65178913D01*
X44549084Y65356750D01*
X44781444Y65452997D01*
X45032953Y65452997D01*
X45265313Y65356750D01*
X45443150Y65178913D01*
X45539397Y64946553D01*
X45539397Y64695044D01*
X45443150Y64462684D01*
X45265313Y64284847D01*
X45032953Y64188600D01*
X44781444Y64188600D01*
G37*
%LPD*%
%LPC*%
G36*
X45594244Y31270200D02*
X45594244Y31270200D01*
X45361884Y31366447D01*
X45184047Y31544284D01*
X45087800Y31776644D01*
X45087800Y32028153D01*
X45184047Y32260513D01*
X45361884Y32438350D01*
X45594244Y32534597D01*
X45845753Y32534597D01*
X46078113Y32438350D01*
X46255950Y32260513D01*
X46352197Y32028153D01*
X46352197Y31776644D01*
X46255950Y31544284D01*
X46078113Y31366447D01*
X45845753Y31270200D01*
X45594244Y31270200D01*
G37*
%LPD*%
%LPC*%
G36*
X43811850Y31368600D02*
X43811850Y31368600D01*
X43579491Y31464847D01*
X43401653Y31642684D01*
X43305406Y31875044D01*
X43305406Y32126553D01*
X43401653Y32358913D01*
X43579491Y32536750D01*
X43811850Y32632997D01*
X44063359Y32632997D01*
X44295719Y32536750D01*
X44473556Y32358913D01*
X44569803Y32126553D01*
X44569803Y31875044D01*
X44473556Y31642684D01*
X44295719Y31464847D01*
X44063359Y31368600D01*
X43811850Y31368600D01*
G37*
%LPD*%
%LPC*%
G36*
X42749444Y32489400D02*
X42749444Y32489400D01*
X42517084Y32585647D01*
X42339247Y32763484D01*
X42243000Y32995844D01*
X42243000Y33247353D01*
X42339247Y33479713D01*
X42517084Y33657550D01*
X42749444Y33753797D01*
X43000953Y33753797D01*
X43233313Y33657550D01*
X43411150Y33479713D01*
X43507397Y33247353D01*
X43507397Y32995844D01*
X43411150Y32763484D01*
X43233313Y32585647D01*
X43000953Y32489400D01*
X42749444Y32489400D01*
G37*
%LPD*%
%LPC*%
G36*
X53112644Y63782200D02*
X53112644Y63782200D01*
X52880284Y63878447D01*
X52702447Y64056284D01*
X52606200Y64288644D01*
X52606200Y64540153D01*
X52702447Y64772513D01*
X52880284Y64950350D01*
X53112644Y65046597D01*
X53364153Y65046597D01*
X53596513Y64950350D01*
X53774350Y64772513D01*
X53870597Y64540153D01*
X53870597Y64288644D01*
X53774350Y64056284D01*
X53596513Y63878447D01*
X53364153Y63782200D01*
X53112644Y63782200D01*
G37*
%LPD*%
%LPC*%
G36*
X28931844Y45291000D02*
X28931844Y45291000D01*
X28699484Y45387247D01*
X28521647Y45565084D01*
X28425400Y45797444D01*
X28425400Y46048953D01*
X28521647Y46281313D01*
X28699484Y46459150D01*
X28931844Y46555397D01*
X29183353Y46555397D01*
X29415713Y46459150D01*
X29593550Y46281313D01*
X29689797Y46048953D01*
X29689797Y45797444D01*
X29593550Y45565084D01*
X29415713Y45387247D01*
X29183353Y45291000D01*
X28931844Y45291000D01*
G37*
%LPD*%
%LPC*%
G36*
X42795950Y44321303D02*
X42795950Y44321303D01*
X42563591Y44417550D01*
X42385753Y44595388D01*
X42289506Y44827747D01*
X42289506Y45079256D01*
X42385753Y45311616D01*
X42563591Y45489453D01*
X42795950Y45585700D01*
X43047459Y45585700D01*
X43279819Y45489453D01*
X43457656Y45311616D01*
X43553903Y45079256D01*
X43553903Y44827747D01*
X43457656Y44595388D01*
X43279819Y44417550D01*
X43047459Y44321303D01*
X42795950Y44321303D01*
G37*
%LPD*%
%LPC*%
G36*
X37872644Y44071800D02*
X37872644Y44071800D01*
X37640284Y44168047D01*
X37462447Y44345884D01*
X37366200Y44578244D01*
X37366200Y44829753D01*
X37462447Y45062113D01*
X37640284Y45239950D01*
X37872644Y45336197D01*
X38124153Y45336197D01*
X38356513Y45239950D01*
X38534350Y45062113D01*
X38630597Y44829753D01*
X38630597Y44578244D01*
X38534350Y44345884D01*
X38356513Y44168047D01*
X38124153Y44071800D01*
X37872644Y44071800D01*
G37*
%LPD*%
%LPC*%
G36*
X43303900Y41950875D02*
X43303900Y41950875D01*
X43071541Y42047122D01*
X42893703Y42224959D01*
X42797456Y42457319D01*
X42797456Y42708828D01*
X42893703Y42941188D01*
X43071541Y43119025D01*
X43303900Y43215272D01*
X43555409Y43215272D01*
X43787769Y43119025D01*
X43965606Y42941188D01*
X44061853Y42708828D01*
X44061853Y42457319D01*
X43965606Y42224959D01*
X43787769Y42047122D01*
X43555409Y41950875D01*
X43303900Y41950875D01*
G37*
%LPD*%
%LPC*%
G36*
X41936644Y61750200D02*
X41936644Y61750200D01*
X41704284Y61846447D01*
X41526447Y62024284D01*
X41430200Y62256644D01*
X41430200Y62508153D01*
X41526447Y62740513D01*
X41704284Y62918350D01*
X41936644Y63014597D01*
X42188153Y63014597D01*
X42420513Y62918350D01*
X42598350Y62740513D01*
X42694597Y62508153D01*
X42694597Y62256644D01*
X42598350Y62024284D01*
X42420513Y61846447D01*
X42188153Y61750200D01*
X41936644Y61750200D01*
G37*
%LPD*%
%LPC*%
G36*
X57303028Y65048875D02*
X57303028Y65048875D01*
X57303028Y66040725D01*
X57420856Y66022066D01*
X57593628Y65965928D01*
X57755450Y65883475D01*
X57902416Y65776697D01*
X58030850Y65648263D01*
X58137628Y65501297D01*
X58220081Y65339475D01*
X58276219Y65166703D01*
X58294878Y65048875D01*
X57303028Y65048875D01*
G37*
%LPD*%
%LPC*%
G36*
X57303028Y64744081D02*
X57303028Y64744081D01*
X58294878Y64744081D01*
X58276219Y64626256D01*
X58220081Y64453484D01*
X58137628Y64291663D01*
X58030850Y64144697D01*
X57902416Y64016263D01*
X57755450Y63909484D01*
X57593628Y63827031D01*
X57420856Y63770894D01*
X57303028Y63752234D01*
X57303028Y64744081D01*
G37*
%LPD*%
%LPC*%
G36*
X56006388Y65048875D02*
X56006388Y65048875D01*
X56025047Y65166703D01*
X56081184Y65339475D01*
X56163638Y65501297D01*
X56270416Y65648263D01*
X56398850Y65776697D01*
X56545816Y65883475D01*
X56707638Y65965928D01*
X56880409Y66022066D01*
X56998234Y66040725D01*
X56998234Y65048875D01*
X56006388Y65048875D01*
G37*
%LPD*%
%LPC*%
G36*
X56880409Y63770894D02*
X56880409Y63770894D01*
X56707638Y63827031D01*
X56545816Y63909484D01*
X56398850Y64016263D01*
X56270416Y64144697D01*
X56163638Y64291663D01*
X56081184Y64453484D01*
X56025047Y64626256D01*
X56006388Y64744081D01*
X56998234Y64744081D01*
X56998234Y63752234D01*
X56880409Y63770894D01*
G37*
%LPD*%
%LPC*%
G36*
X45533884Y23181075D02*
X45533884Y23181075D01*
X45533884Y24033203D01*
X45619400Y24019659D01*
X45771513Y23970238D01*
X45913991Y23897641D01*
X46043366Y23803644D01*
X46156453Y23690556D01*
X46250450Y23561181D01*
X46323047Y23418703D01*
X46372469Y23266591D01*
X46386013Y23181075D01*
X45533884Y23181075D01*
G37*
%LPD*%
%LPC*%
G36*
X54763281Y46888419D02*
X54763281Y46888419D01*
X54763281Y47740547D01*
X54848797Y47727003D01*
X55000909Y47677581D01*
X55143388Y47604984D01*
X55272763Y47510988D01*
X55385850Y47397900D01*
X55479847Y47268525D01*
X55552444Y47126047D01*
X55601866Y46973934D01*
X55615409Y46888419D01*
X54763281Y46888419D01*
G37*
%LPD*%
%LPC*%
G36*
X45533884Y20641075D02*
X45533884Y20641075D01*
X45533884Y21493203D01*
X45619400Y21479659D01*
X45771513Y21430238D01*
X45913991Y21357641D01*
X46043366Y21263644D01*
X46156453Y21150556D01*
X46250450Y21021181D01*
X46323047Y20878703D01*
X46372469Y20726591D01*
X46386013Y20641075D01*
X45533884Y20641075D01*
G37*
%LPD*%
%LPC*%
G36*
X59589181Y46888419D02*
X59589181Y46888419D01*
X59589181Y47740547D01*
X59674697Y47727003D01*
X59826809Y47677581D01*
X59969288Y47604984D01*
X60098663Y47510988D01*
X60211750Y47397900D01*
X60305747Y47268525D01*
X60378344Y47126047D01*
X60427766Y46973934D01*
X60441309Y46888419D01*
X59589181Y46888419D01*
G37*
%LPD*%
%LPC*%
G36*
X47639928Y77366388D02*
X47639928Y77366388D01*
X47639928Y78218516D01*
X47725444Y78204972D01*
X47877556Y78155550D01*
X48020034Y78082953D01*
X48149409Y77988956D01*
X48262497Y77875869D01*
X48356494Y77746494D01*
X48429091Y77604016D01*
X48478513Y77451903D01*
X48492056Y77366388D01*
X47639928Y77366388D01*
G37*
%LPD*%
%LPC*%
G36*
X58432263Y46888419D02*
X58432263Y46888419D01*
X58445806Y46973934D01*
X58495228Y47126047D01*
X58567825Y47268525D01*
X58661822Y47397900D01*
X58774909Y47510988D01*
X58904284Y47604984D01*
X59046763Y47677581D01*
X59198875Y47727003D01*
X59284388Y47740547D01*
X59284388Y46888419D01*
X58432263Y46888419D01*
G37*
%LPD*%
%LPC*%
G36*
X53606363Y46888419D02*
X53606363Y46888419D01*
X53619906Y46973934D01*
X53669328Y47126047D01*
X53741925Y47268525D01*
X53835922Y47397900D01*
X53949009Y47510988D01*
X54078384Y47604984D01*
X54220863Y47677581D01*
X54372975Y47727003D01*
X54458488Y47740547D01*
X54458488Y46888419D01*
X53606363Y46888419D01*
G37*
%LPD*%
%LPC*%
G36*
X47639928Y77061594D02*
X47639928Y77061594D01*
X48492056Y77061594D01*
X48478513Y76976081D01*
X48429091Y76823969D01*
X48356494Y76681491D01*
X48262497Y76552116D01*
X48149409Y76439028D01*
X48020034Y76345031D01*
X47877556Y76272434D01*
X47725444Y76223013D01*
X47639928Y76209469D01*
X47639928Y77061594D01*
G37*
%LPD*%
%LPC*%
G36*
X46483009Y77366388D02*
X46483009Y77366388D01*
X46496553Y77451903D01*
X46545975Y77604016D01*
X46618572Y77746494D01*
X46712569Y77875869D01*
X46825656Y77988956D01*
X46955031Y78082953D01*
X47097509Y78155550D01*
X47249622Y78204972D01*
X47335134Y78218516D01*
X47335134Y77366388D01*
X46483009Y77366388D01*
G37*
%LPD*%
%LPC*%
G36*
X54763281Y46583625D02*
X54763281Y46583625D01*
X55615409Y46583625D01*
X55601866Y46498113D01*
X55552444Y46346000D01*
X55479847Y46203522D01*
X55385850Y46074147D01*
X55272763Y45961059D01*
X55143388Y45867063D01*
X55000909Y45794466D01*
X54848797Y45745044D01*
X54763281Y45731500D01*
X54763281Y46583625D01*
G37*
%LPD*%
%LPC*%
G36*
X44376966Y23181075D02*
X44376966Y23181075D01*
X44390509Y23266591D01*
X44439931Y23418703D01*
X44512528Y23561181D01*
X44606525Y23690556D01*
X44719613Y23803644D01*
X44848988Y23897641D01*
X44991466Y23970238D01*
X45143578Y24019659D01*
X45229091Y24033203D01*
X45229091Y23181075D01*
X44376966Y23181075D01*
G37*
%LPD*%
%LPC*%
G36*
X44376966Y20641075D02*
X44376966Y20641075D01*
X44390509Y20726591D01*
X44439931Y20878703D01*
X44512528Y21021181D01*
X44606525Y21150556D01*
X44719613Y21263644D01*
X44848988Y21357641D01*
X44991466Y21430238D01*
X45143578Y21479659D01*
X45229091Y21493203D01*
X45229091Y20641075D01*
X44376966Y20641075D01*
G37*
%LPD*%
%LPC*%
G36*
X45533884Y20336281D02*
X45533884Y20336281D01*
X46386013Y20336281D01*
X46372469Y20250769D01*
X46323047Y20098656D01*
X46250450Y19956178D01*
X46156453Y19826803D01*
X46043366Y19713716D01*
X45913991Y19619719D01*
X45771513Y19547122D01*
X45619400Y19497700D01*
X45533884Y19484156D01*
X45533884Y20336281D01*
G37*
%LPD*%
%LPC*%
G36*
X59589181Y46583625D02*
X59589181Y46583625D01*
X60441309Y46583625D01*
X60427766Y46498113D01*
X60378344Y46346000D01*
X60305747Y46203522D01*
X60211750Y46074147D01*
X60098663Y45961059D01*
X59969288Y45867063D01*
X59826809Y45794466D01*
X59674697Y45745044D01*
X59589181Y45731500D01*
X59589181Y46583625D01*
G37*
%LPD*%
%LPC*%
G36*
X45533884Y22876281D02*
X45533884Y22876281D01*
X46386013Y22876281D01*
X46372469Y22790769D01*
X46323047Y22638656D01*
X46250450Y22496178D01*
X46156453Y22366803D01*
X46043366Y22253716D01*
X45913991Y22159719D01*
X45771513Y22087122D01*
X45619400Y22037700D01*
X45533884Y22024156D01*
X45533884Y22876281D01*
G37*
%LPD*%
%LPC*%
G36*
X45143578Y22037700D02*
X45143578Y22037700D01*
X44991466Y22087122D01*
X44848988Y22159719D01*
X44719613Y22253716D01*
X44606525Y22366803D01*
X44512528Y22496178D01*
X44439931Y22638656D01*
X44390509Y22790769D01*
X44376966Y22876281D01*
X45229091Y22876281D01*
X45229091Y22024156D01*
X45143578Y22037700D01*
G37*
%LPD*%
%LPC*%
G36*
X47249622Y76223013D02*
X47249622Y76223013D01*
X47097509Y76272434D01*
X46955031Y76345031D01*
X46825656Y76439028D01*
X46712569Y76552116D01*
X46618572Y76681491D01*
X46545975Y76823969D01*
X46496553Y76976081D01*
X46483009Y77061594D01*
X47335134Y77061594D01*
X47335134Y76209469D01*
X47249622Y76223013D01*
G37*
%LPD*%
%LPC*%
G36*
X59198875Y45745044D02*
X59198875Y45745044D01*
X59046763Y45794466D01*
X58904284Y45867063D01*
X58774909Y45961059D01*
X58661822Y46074147D01*
X58567825Y46203522D01*
X58495228Y46346000D01*
X58445806Y46498113D01*
X58432263Y46583625D01*
X59284388Y46583625D01*
X59284388Y45731500D01*
X59198875Y45745044D01*
G37*
%LPD*%
%LPC*%
G36*
X45143578Y19497700D02*
X45143578Y19497700D01*
X44991466Y19547122D01*
X44848988Y19619719D01*
X44719613Y19713716D01*
X44606525Y19826803D01*
X44512528Y19956178D01*
X44439931Y20098656D01*
X44390509Y20250769D01*
X44376966Y20336281D01*
X45229091Y20336281D01*
X45229091Y19484156D01*
X45143578Y19497700D01*
G37*
%LPD*%
%LPC*%
G36*
X54372975Y45745044D02*
X54372975Y45745044D01*
X54220863Y45794466D01*
X54078384Y45867063D01*
X53949009Y45961059D01*
X53835922Y46074147D01*
X53741925Y46203522D01*
X53669328Y46346000D01*
X53619906Y46498113D01*
X53606363Y46583625D01*
X54458488Y46583625D01*
X54458488Y45731500D01*
X54372975Y45745044D01*
G37*
%LPD*%
%LPC*%
G36*
X54212278Y14894100D02*
X54212278Y14894100D01*
X54212278Y15687506D01*
X54284213Y15676113D01*
X54427641Y15629513D01*
X54561975Y15561066D01*
X54683981Y15472422D01*
X54790600Y15365803D01*
X54879244Y15243797D01*
X54947691Y15109463D01*
X54994291Y14966034D01*
X55005684Y14894100D01*
X54212278Y14894100D01*
G37*
%LPD*%
%LPC*%
G36*
X54212278Y14589306D02*
X54212278Y14589306D01*
X55005684Y14589306D01*
X54994291Y14517375D01*
X54947691Y14373947D01*
X54879244Y14239613D01*
X54790600Y14117606D01*
X54683981Y14010988D01*
X54561975Y13922344D01*
X54427641Y13853897D01*
X54284213Y13807297D01*
X54212278Y13795903D01*
X54212278Y14589306D01*
G37*
%LPD*%
%LPC*%
G36*
X53114081Y14894100D02*
X53114081Y14894100D01*
X53125475Y14966034D01*
X53172075Y15109463D01*
X53240522Y15243797D01*
X53329166Y15365803D01*
X53435784Y15472422D01*
X53557791Y15561066D01*
X53692125Y15629513D01*
X53835553Y15676113D01*
X53907484Y15687506D01*
X53907484Y14894100D01*
X53114081Y14894100D01*
G37*
%LPD*%
%LPC*%
G36*
X53835553Y13807297D02*
X53835553Y13807297D01*
X53692125Y13853897D01*
X53557791Y13922344D01*
X53435784Y14010988D01*
X53329166Y14117606D01*
X53240522Y14239613D01*
X53172075Y14373947D01*
X53125475Y14517375D01*
X53114081Y14589306D01*
X53907484Y14589306D01*
X53907484Y13795903D01*
X53835553Y13807297D01*
G37*
%LPD*%
%LPC*%
G36*
X47487519Y77213978D02*
X47487519Y77213978D01*
X47487519Y77214006D01*
X47487547Y77214006D01*
X47487547Y77213978D01*
X47487519Y77213978D01*
G37*
%LPD*%
%LPC*%
G36*
X45381475Y20488666D02*
X45381475Y20488666D01*
X45381475Y20488694D01*
X45381503Y20488694D01*
X45381503Y20488666D01*
X45381475Y20488666D01*
G37*
%LPD*%
%LPC*%
G36*
X59436772Y46736009D02*
X59436772Y46736009D01*
X59436772Y46736038D01*
X59436800Y46736038D01*
X59436800Y46736009D01*
X59436772Y46736009D01*
G37*
%LPD*%
%LPC*%
G36*
X54610872Y46736009D02*
X54610872Y46736009D01*
X54610872Y46736038D01*
X54610900Y46736038D01*
X54610900Y46736009D01*
X54610872Y46736009D01*
G37*
%LPD*%
%LPC*%
G36*
X54059869Y14741691D02*
X54059869Y14741691D01*
X54059869Y14741719D01*
X54059897Y14741719D01*
X54059897Y14741691D01*
X54059869Y14741691D01*
G37*
%LPD*%
%LPC*%
G36*
X57150619Y64896466D02*
X57150619Y64896466D01*
X57150619Y64896494D01*
X57150647Y64896494D01*
X57150647Y64896466D01*
X57150619Y64896466D01*
G37*
%LPD*%
%LPC*%
G36*
X45381475Y23028666D02*
X45381475Y23028666D01*
X45381475Y23028694D01*
X45381503Y23028694D01*
X45381503Y23028666D01*
X45381475Y23028666D01*
G37*
%LPD*%
D10*
X59760231Y77199819D02*
X60211784Y77199819D01*
X60222780Y77199953D01*
X60233769Y77200355D01*
X60244745Y77201024D01*
X60255702Y77201960D01*
X60266633Y77203163D01*
X60277531Y77204631D01*
X60288390Y77206365D01*
X60299203Y77208362D01*
X60309965Y77210622D01*
X60320669Y77213144D01*
X60331308Y77215925D01*
X60341876Y77218965D01*
X60352367Y77222261D01*
X60362775Y77225811D01*
X60373093Y77229614D01*
X60383315Y77233667D01*
X60393436Y77237968D01*
X60403449Y77242514D01*
X60413348Y77247303D01*
X60423128Y77252331D01*
X60432782Y77257595D01*
X60442305Y77263094D01*
X60451692Y77268822D01*
X60460936Y77274778D01*
X60470033Y77280957D01*
X60478976Y77287355D01*
X60487761Y77293969D01*
X60496383Y77300796D01*
X60504835Y77307830D01*
X60513114Y77315068D01*
X60521214Y77322505D01*
X60529130Y77330138D01*
X60536859Y77337961D01*
X60544394Y77345970D01*
X60551732Y77354160D01*
X60558869Y77362526D01*
X60565800Y77371063D01*
X60572521Y77379767D01*
X60579027Y77388632D01*
X60585317Y77397653D01*
X60591384Y77406824D01*
X60597227Y77416140D01*
X60602840Y77425596D01*
X60608222Y77435185D01*
X60613369Y77444903D01*
X60618278Y77454743D01*
X60622945Y77464700D01*
X60627369Y77474767D01*
X60631546Y77484940D01*
X60635475Y77495211D01*
X60639152Y77505574D01*
X60642575Y77516024D01*
X60645743Y77526555D01*
X60648654Y77537159D01*
X60651306Y77547831D01*
X60653697Y77558565D01*
X60655826Y77569353D01*
X60657691Y77580191D01*
X60659292Y77591070D01*
X60660628Y77601985D01*
X60661698Y77612930D01*
X60662500Y77623897D01*
X60663036Y77634880D01*
X60663304Y77645874D01*
X60663304Y77656870D01*
X60663036Y77667864D01*
X60662500Y77678847D01*
X60661698Y77689814D01*
X60660628Y77700759D01*
X60659292Y77711674D01*
X60657691Y77722553D01*
X60655826Y77733391D01*
X60653697Y77744179D01*
X60651306Y77754913D01*
X60648654Y77765585D01*
X60645743Y77776189D01*
X60642575Y77786720D01*
X60639152Y77797170D01*
X60635475Y77807533D01*
X60631546Y77817804D01*
X60627369Y77827977D01*
X60622945Y77838044D01*
X60618278Y77848001D01*
X60613369Y77857841D01*
X60608222Y77867559D01*
X60602840Y77877149D01*
X60597227Y77886604D01*
X60591384Y77895920D01*
X60585317Y77905091D01*
X60579027Y77914112D01*
X60572521Y77922977D01*
X60565800Y77931681D01*
X60558869Y77940218D01*
X60551732Y77948584D01*
X60544394Y77956774D01*
X60536859Y77964783D01*
X60529130Y77972606D01*
X60521214Y77980239D01*
X60513114Y77987676D01*
X60504835Y77994914D01*
X60496383Y78001948D01*
X60487761Y78008775D01*
X60478976Y78015389D01*
X60470033Y78021787D01*
X60460936Y78027966D01*
X60451692Y78033922D01*
X60442305Y78039650D01*
X60432782Y78045149D01*
X60423128Y78050413D01*
X60413348Y78055441D01*
X60403449Y78060230D01*
X60393436Y78064776D01*
X60383315Y78069077D01*
X60373093Y78073130D01*
X60362775Y78076933D01*
X60352367Y78080483D01*
X60341876Y78083779D01*
X60331308Y78086819D01*
X60320669Y78089600D01*
X60309965Y78092122D01*
X60299203Y78094382D01*
X60288390Y78096379D01*
X60277531Y78098113D01*
X60266633Y78099581D01*
X60255702Y78100784D01*
X60244745Y78101720D01*
X60233769Y78102389D01*
X60222780Y78102791D01*
X60211784Y78102925D01*
X60302097Y78825419D02*
X59760231Y78825419D01*
X60302097Y78825419D02*
X60310894Y78825312D01*
X60319685Y78824991D01*
X60328466Y78824455D01*
X60337232Y78823706D01*
X60345976Y78822744D01*
X60354695Y78821569D01*
X60363382Y78820183D01*
X60372033Y78818585D01*
X60380643Y78816776D01*
X60389206Y78814759D01*
X60397717Y78812534D01*
X60406172Y78810102D01*
X60414565Y78807465D01*
X60422891Y78804625D01*
X60431146Y78801583D01*
X60439324Y78798340D01*
X60447420Y78794899D01*
X60455431Y78791262D01*
X60463350Y78787432D01*
X60471174Y78783409D01*
X60478898Y78779197D01*
X60486516Y78774799D01*
X60494026Y78770216D01*
X60501421Y78765451D01*
X60508699Y78760508D01*
X60515854Y78755389D01*
X60522882Y78750098D01*
X60529779Y78744637D01*
X60536541Y78739009D01*
X60543164Y78733219D01*
X60549644Y78727269D01*
X60555977Y78721163D01*
X60562160Y78714904D01*
X60568188Y78708497D01*
X60574059Y78701945D01*
X60579768Y78695252D01*
X60585313Y78688422D01*
X60590690Y78681459D01*
X60595895Y78674367D01*
X60600927Y78667150D01*
X60605781Y78659813D01*
X60610455Y78652360D01*
X60614946Y78644796D01*
X60619252Y78637124D01*
X60623369Y78629349D01*
X60627296Y78621477D01*
X60631030Y78613512D01*
X60634569Y78605457D01*
X60637911Y78597319D01*
X60641054Y78589103D01*
X60643996Y78580812D01*
X60646734Y78572451D01*
X60649269Y78564027D01*
X60651598Y78555543D01*
X60653719Y78547006D01*
X60655632Y78538419D01*
X60657335Y78529788D01*
X60658827Y78521118D01*
X60660108Y78512414D01*
X60661177Y78503682D01*
X60662033Y78494926D01*
X60662675Y78486152D01*
X60663103Y78477365D01*
X60663317Y78468571D01*
X60663317Y78459773D01*
X60663103Y78450979D01*
X60662675Y78442192D01*
X60662033Y78433418D01*
X60661177Y78424662D01*
X60660108Y78415930D01*
X60658827Y78407226D01*
X60657335Y78398556D01*
X60655632Y78389925D01*
X60653719Y78381338D01*
X60651598Y78372801D01*
X60649269Y78364317D01*
X60646734Y78355893D01*
X60643996Y78347532D01*
X60641054Y78339241D01*
X60637911Y78331025D01*
X60634569Y78322887D01*
X60631030Y78314832D01*
X60627296Y78306867D01*
X60623369Y78298995D01*
X60619252Y78291220D01*
X60614946Y78283549D01*
X60610455Y78275984D01*
X60605781Y78268531D01*
X60600927Y78261194D01*
X60595895Y78253977D01*
X60590690Y78246885D01*
X60585313Y78239922D01*
X60579768Y78233092D01*
X60574059Y78226399D01*
X60568188Y78219847D01*
X60562160Y78213440D01*
X60555977Y78207181D01*
X60549644Y78201075D01*
X60543164Y78195125D01*
X60536541Y78189335D01*
X60529779Y78183707D01*
X60522882Y78178246D01*
X60515854Y78172955D01*
X60508699Y78167836D01*
X60501421Y78162893D01*
X60494026Y78158128D01*
X60486516Y78153545D01*
X60478898Y78149147D01*
X60471174Y78144935D01*
X60463350Y78140912D01*
X60455431Y78137082D01*
X60447420Y78133445D01*
X60439324Y78130004D01*
X60431146Y78126761D01*
X60422891Y78123719D01*
X60414565Y78120879D01*
X60406172Y78118242D01*
X60397717Y78115810D01*
X60389206Y78113585D01*
X60380643Y78111568D01*
X60372033Y78109759D01*
X60363382Y78108161D01*
X60354695Y78106775D01*
X60345976Y78105600D01*
X60337232Y78104638D01*
X60328466Y78103889D01*
X60319685Y78103353D01*
X60310894Y78103032D01*
X60302097Y78102925D01*
X60302097Y78102928D02*
X59940853Y78102928D01*
X62191741Y77515906D02*
X62191741Y77470750D01*
X62417519Y78283550D02*
X62417466Y78287915D01*
X62417308Y78292276D01*
X62417045Y78296633D01*
X62416676Y78300983D01*
X62416202Y78305322D01*
X62415624Y78309648D01*
X62414941Y78313959D01*
X62414154Y78318252D01*
X62413264Y78322525D01*
X62412270Y78326776D01*
X62411175Y78331001D01*
X62409977Y78335198D01*
X62408679Y78339365D01*
X62407280Y78343500D01*
X62405782Y78347599D01*
X62404185Y78351662D01*
X62402490Y78355684D01*
X62400698Y78359664D01*
X62398811Y78363600D01*
X62396830Y78367489D01*
X62394755Y78371329D01*
X62392588Y78375118D01*
X62390330Y78378853D01*
X62387982Y78382533D01*
X62385546Y78386155D01*
X62383023Y78389717D01*
X62380415Y78393217D01*
X62377723Y78396653D01*
X62374949Y78400023D01*
X62372095Y78403325D01*
X62369161Y78406556D01*
X62366150Y78409717D01*
X62363064Y78412803D01*
X62359903Y78415814D01*
X62356672Y78418748D01*
X62353370Y78421602D01*
X62350000Y78424376D01*
X62346564Y78427068D01*
X62343064Y78429676D01*
X62339502Y78432199D01*
X62335880Y78434635D01*
X62332200Y78436983D01*
X62328465Y78439241D01*
X62324676Y78441408D01*
X62320836Y78443483D01*
X62316947Y78445464D01*
X62313011Y78447351D01*
X62309031Y78449143D01*
X62305009Y78450838D01*
X62300946Y78452435D01*
X62296847Y78453933D01*
X62292712Y78455332D01*
X62288545Y78456630D01*
X62284348Y78457828D01*
X62280123Y78458923D01*
X62275872Y78459917D01*
X62271599Y78460807D01*
X62267306Y78461594D01*
X62262995Y78462277D01*
X62258669Y78462855D01*
X62254330Y78463329D01*
X62249980Y78463698D01*
X62245623Y78463961D01*
X62241262Y78464119D01*
X62236897Y78464172D01*
X62223266Y78464014D01*
X62209642Y78463539D01*
X62196033Y78462748D01*
X62182446Y78461641D01*
X62168888Y78460219D01*
X62155367Y78458483D01*
X62141890Y78456433D01*
X62128464Y78454071D01*
X62115096Y78451398D01*
X62101795Y78448415D01*
X62088566Y78445124D01*
X62075417Y78441527D01*
X62062355Y78437625D01*
X62049387Y78433421D01*
X62036521Y78428917D01*
X62023762Y78424116D01*
X62011118Y78419020D01*
X62417519Y78283550D02*
X62417455Y78278169D01*
X62417263Y78272792D01*
X62416942Y78267421D01*
X62416494Y78262058D01*
X62415918Y78256709D01*
X62415214Y78251374D01*
X62414384Y78246057D01*
X62413427Y78240762D01*
X62412345Y78235491D01*
X62411137Y78230248D01*
X62409804Y78225034D01*
X62408348Y78219854D01*
X62406768Y78214711D01*
X62405067Y78209606D01*
X62403244Y78204543D01*
X62401301Y78199525D01*
X62399239Y78194555D01*
X62397059Y78189635D01*
X62394763Y78184769D01*
X62392351Y78179959D01*
X62389825Y78175208D01*
X62387187Y78170518D01*
X62384438Y78165892D01*
X62381579Y78161334D01*
X62378613Y78156844D01*
X62375540Y78152427D01*
X62372363Y78148084D01*
X62372361Y78148086D02*
X62365853Y78139619D01*
X62359147Y78131309D01*
X62352246Y78123159D01*
X62345154Y78115175D01*
X62337876Y78107361D01*
X62330415Y78099721D01*
X62322775Y78092260D01*
X62314961Y78084981D01*
X62306978Y78077889D01*
X62298828Y78070988D01*
X62290518Y78064282D01*
X62282052Y78057773D01*
X62282054Y78057771D02*
X62277356Y78054157D01*
X62272746Y78050430D01*
X62268229Y78046593D01*
X62263805Y78042647D01*
X62259478Y78038596D01*
X62255251Y78034440D01*
X62251126Y78030184D01*
X62247105Y78025829D01*
X62243191Y78021378D01*
X62239385Y78016833D01*
X62235691Y78012197D01*
X62232111Y78007473D01*
X62228646Y78002664D01*
X62225298Y77997772D01*
X62222070Y77992801D01*
X62218963Y77987753D01*
X62215980Y77982631D01*
X62213121Y77977438D01*
X62210389Y77972177D01*
X62207786Y77966852D01*
X62205312Y77961466D01*
X62202969Y77956021D01*
X62200759Y77950520D01*
X62198683Y77944968D01*
X62196742Y77939368D01*
X62194938Y77933721D01*
X62193271Y77928033D01*
X62191742Y77922306D01*
X62191741Y77922306D02*
X62191741Y77831994D01*
X63049697Y78012619D02*
X62191741Y76657953D01*
X63049697Y78012619D02*
X62191741Y79367284D01*
X61333788Y78012619D01*
X62191741Y76657953D01*
D11*
X40301491Y20488681D03*
X40301491Y23028681D03*
X42841491Y20488681D03*
X42841491Y23028681D03*
X45381491Y20488681D03*
X45381491Y23028681D03*
D12*
X57150634Y64896481D03*
X57150634Y68396481D03*
D13*
X58081875Y35030000D03*
X58081875Y38530000D03*
D11*
X59436788Y46736025D03*
X59436788Y49276025D03*
X59436788Y51816025D03*
X54610888Y46736025D03*
X54610888Y49276025D03*
X54610888Y51816025D03*
X47487534Y77213994D03*
X44947534Y77213994D03*
X42407534Y77213994D03*
X39867534Y77213994D03*
D14*
X45720000Y38777141D03*
X40640000Y38777141D03*
X33866581Y36744963D03*
X33866581Y41824963D03*
D15*
X54059884Y14741706D03*
X54059884Y21241706D03*
D13*
X58160184Y27153103D03*
X58160184Y30653103D03*
D16*
X45432244Y51409600D03*
X40030400Y49987200D03*
X31822428Y54952228D03*
X33078269Y61569600D03*
X33731200Y67868800D03*
X29057600Y45923200D03*
X38011531Y46477353D03*
X40974569Y44360897D03*
X36169600Y28854400D03*
X39827200Y29260800D03*
X43429656Y42583075D03*
X43937606Y32000800D03*
X48768000Y47548800D03*
X46126400Y56896000D03*
X31902400Y28041600D03*
X37672900Y42159784D03*
X42329100Y52657400D03*
D17*
X42329100Y48446850D01*
X41735000Y47852750D01*
X41735000Y46221884D02*
X37672900Y42159784D01*
X41735000Y46221884D02*
X41735000Y47852750D01*
D16*
X41930000Y57543384D03*
X42875200Y33121600D03*
X42468800Y47548800D03*
X45720000Y31902400D03*
X42921706Y44953503D03*
X40843200Y47548800D03*
X37998400Y44704000D03*
X41905809Y43768291D03*
D17*
X40748713Y43627094D02*
X33866581Y36744963D01*
X40748713Y43627094D02*
X41278519Y43627094D01*
X41419716Y43768291D01*
X41905809Y43768291D01*
D16*
X46736000Y54457600D03*
X41656000Y59334400D03*
X38811200Y54457600D03*
X42062400Y62382400D03*
X47752000Y46939200D03*
X51612800Y52019200D03*
X31902400Y57708800D03*
X28651200Y54457600D03*
X44907200Y64820800D03*
X37592000Y56489600D03*
X53238400Y64414400D03*
X53238400Y54457600D03*
X40640000Y51003200D03*
X35725759Y55535778D03*
X35725759Y57906209D03*
X31902400Y58928000D03*
X34544000Y56286400D03*
X31699200Y61569600D03*
X33697316Y54491484D03*
X30683200Y57708800D03*
X32918400Y23977600D03*
M02*
