G04 EAGLE Gerber RS-274X export*
G75*
%MOMM*%
%FSLAX66Y66*%
%LPD*%
%IN*%
%IPPOS*%
%AMOC8*
5,1,8,0,0,1.08239X$1,22.5*%
G01*
%ADD10C,0.254000*%


D10*
X25922219Y83103763D02*
X25991972Y11260684D01*
X63594181Y11430000D01*
X63524428Y83273078D01*
X25922219Y83103763D01*
X29658209Y80784978D02*
X29650694Y80679888D01*
X29635700Y80575600D01*
X29613303Y80472650D01*
X29583619Y80371559D01*
X29546800Y80272841D01*
X29503031Y80177003D01*
X29452541Y80084531D01*
X29395578Y79995897D01*
X29332438Y79911553D01*
X29263441Y79831928D01*
X29188941Y79757428D01*
X29109316Y79688431D01*
X29024972Y79625291D01*
X28936338Y79568328D01*
X28843866Y79517838D01*
X28748028Y79474069D01*
X28649309Y79437250D01*
X28548219Y79407566D01*
X28445269Y79385169D01*
X28340981Y79370175D01*
X28235891Y79362659D01*
X28130528Y79362659D01*
X28025438Y79370175D01*
X27921150Y79385169D01*
X27818200Y79407566D01*
X27717109Y79437250D01*
X27618391Y79474069D01*
X27522553Y79517838D01*
X27430081Y79568328D01*
X27341447Y79625291D01*
X27257103Y79688431D01*
X27177478Y79757428D01*
X27102978Y79831928D01*
X27033981Y79911553D01*
X26970841Y79995897D01*
X26913878Y80084531D01*
X26863388Y80177003D01*
X26819619Y80272841D01*
X26782800Y80371559D01*
X26753116Y80472650D01*
X26730719Y80575600D01*
X26715725Y80679888D01*
X26708209Y80784978D01*
X26708209Y80890341D01*
X26715725Y80995431D01*
X26730719Y81099719D01*
X26753116Y81202669D01*
X26782800Y81303759D01*
X26819619Y81402478D01*
X26863388Y81498316D01*
X26913878Y81590788D01*
X26970841Y81679422D01*
X27033981Y81763766D01*
X27102978Y81843391D01*
X27177478Y81917891D01*
X27257103Y81986888D01*
X27341447Y82050028D01*
X27430081Y82106991D01*
X27522553Y82157481D01*
X27618391Y82201250D01*
X27717109Y82238069D01*
X27818200Y82267753D01*
X27921150Y82290150D01*
X28025438Y82305144D01*
X28130528Y82312659D01*
X28235891Y82312659D01*
X28340981Y82305144D01*
X28445269Y82290150D01*
X28548219Y82267753D01*
X28649309Y82238069D01*
X28748028Y82201250D01*
X28843866Y82157481D01*
X28936338Y82106991D01*
X29024972Y82050028D01*
X29109316Y81986888D01*
X29188941Y81917891D01*
X29263441Y81843391D01*
X29332438Y81763766D01*
X29395578Y81679422D01*
X29452541Y81590788D01*
X29503031Y81498316D01*
X29546800Y81402478D01*
X29583619Y81303759D01*
X29613303Y81202669D01*
X29635700Y81099719D01*
X29650694Y80995431D01*
X29658209Y80890341D01*
X29658209Y80784978D01*
X62747759Y81038950D02*
X62740244Y80933859D01*
X62725250Y80829572D01*
X62702853Y80726622D01*
X62673169Y80625531D01*
X62636350Y80526813D01*
X62592581Y80430975D01*
X62542091Y80338503D01*
X62485128Y80249869D01*
X62421988Y80165525D01*
X62352991Y80085900D01*
X62278491Y80011400D01*
X62198866Y79942403D01*
X62114522Y79879263D01*
X62025888Y79822300D01*
X61933416Y79771809D01*
X61837578Y79728041D01*
X61738859Y79691222D01*
X61637769Y79661538D01*
X61534819Y79639141D01*
X61430531Y79624147D01*
X61325441Y79616631D01*
X61220078Y79616631D01*
X61114988Y79624147D01*
X61010700Y79639141D01*
X60907750Y79661538D01*
X60806659Y79691222D01*
X60707941Y79728041D01*
X60612103Y79771809D01*
X60519631Y79822300D01*
X60430997Y79879263D01*
X60346653Y79942403D01*
X60267028Y80011400D01*
X60192528Y80085900D01*
X60123531Y80165525D01*
X60060391Y80249869D01*
X60003428Y80338503D01*
X59952938Y80430975D01*
X59909169Y80526813D01*
X59872350Y80625531D01*
X59842666Y80726622D01*
X59820269Y80829572D01*
X59805275Y80933859D01*
X59797759Y81038950D01*
X59797759Y81144313D01*
X59805275Y81249403D01*
X59820269Y81353691D01*
X59842666Y81456641D01*
X59872350Y81557731D01*
X59909169Y81656450D01*
X59952938Y81752288D01*
X60003428Y81844759D01*
X60060391Y81933394D01*
X60123531Y82017738D01*
X60192528Y82097363D01*
X60267028Y82171863D01*
X60346653Y82240859D01*
X60430997Y82304000D01*
X60519631Y82360963D01*
X60612103Y82411453D01*
X60707941Y82455222D01*
X60806659Y82492041D01*
X60907750Y82521725D01*
X61010700Y82544122D01*
X61114988Y82559116D01*
X61220078Y82566631D01*
X61325441Y82566631D01*
X61430531Y82559116D01*
X61534819Y82544122D01*
X61637769Y82521725D01*
X61738859Y82492041D01*
X61837578Y82455222D01*
X61933416Y82411453D01*
X62025888Y82360963D01*
X62114522Y82304000D01*
X62198866Y82240859D01*
X62278491Y82171863D01*
X62352991Y82097363D01*
X62421988Y82017738D01*
X62485128Y81933394D01*
X62542091Y81844759D01*
X62592581Y81752288D01*
X62636350Y81656450D01*
X62673169Y81557731D01*
X62702853Y81456641D01*
X62725250Y81353691D01*
X62740244Y81249403D01*
X62747759Y81144313D01*
X62747759Y81038950D01*
X29912184Y13578688D02*
X29904669Y13473597D01*
X29889675Y13369309D01*
X29867278Y13266359D01*
X29837594Y13165269D01*
X29800775Y13066550D01*
X29757006Y12970713D01*
X29706516Y12878241D01*
X29649553Y12789606D01*
X29586413Y12705263D01*
X29517416Y12625638D01*
X29442916Y12551138D01*
X29363291Y12482141D01*
X29278947Y12419000D01*
X29190313Y12362038D01*
X29097841Y12311547D01*
X29002003Y12267778D01*
X28903284Y12230959D01*
X28802194Y12201275D01*
X28699244Y12178878D01*
X28594956Y12163884D01*
X28489866Y12156369D01*
X28384503Y12156369D01*
X28279413Y12163884D01*
X28175125Y12178878D01*
X28072175Y12201275D01*
X27971084Y12230959D01*
X27872366Y12267778D01*
X27776528Y12311547D01*
X27684056Y12362038D01*
X27595422Y12419000D01*
X27511078Y12482141D01*
X27431453Y12551138D01*
X27356953Y12625638D01*
X27287956Y12705263D01*
X27224816Y12789606D01*
X27167853Y12878241D01*
X27117363Y12970713D01*
X27073594Y13066550D01*
X27036775Y13165269D01*
X27007091Y13266359D01*
X26984694Y13369309D01*
X26969700Y13473597D01*
X26962184Y13578688D01*
X26962184Y13684050D01*
X26969700Y13789141D01*
X26984694Y13893428D01*
X27007091Y13996378D01*
X27036775Y14097469D01*
X27073594Y14196188D01*
X27117363Y14292025D01*
X27167853Y14384497D01*
X27224816Y14473131D01*
X27287956Y14557475D01*
X27356953Y14637100D01*
X27431453Y14711600D01*
X27511078Y14780597D01*
X27595422Y14843738D01*
X27684056Y14900700D01*
X27776528Y14951191D01*
X27872366Y14994959D01*
X27971084Y15031778D01*
X28072175Y15061463D01*
X28175125Y15083859D01*
X28279413Y15098853D01*
X28384503Y15106369D01*
X28489866Y15106369D01*
X28594956Y15098853D01*
X28699244Y15083859D01*
X28802194Y15061463D01*
X28903284Y15031778D01*
X29002003Y14994959D01*
X29097841Y14951191D01*
X29190313Y14900700D01*
X29278947Y14843738D01*
X29363291Y14780597D01*
X29442916Y14711600D01*
X29517416Y14637100D01*
X29586413Y14557475D01*
X29649553Y14473131D01*
X29706516Y14384497D01*
X29757006Y14292025D01*
X29800775Y14196188D01*
X29837594Y14097469D01*
X29867278Y13996378D01*
X29889675Y13893428D01*
X29904669Y13789141D01*
X29912184Y13684050D01*
X29912184Y13578688D01*
X62917078Y13578684D02*
X62909563Y13473594D01*
X62894569Y13369306D01*
X62872172Y13266356D01*
X62842488Y13165266D01*
X62805669Y13066547D01*
X62761900Y12970709D01*
X62711409Y12878238D01*
X62654447Y12789603D01*
X62591306Y12705259D01*
X62522309Y12625634D01*
X62447809Y12551134D01*
X62368184Y12482138D01*
X62283841Y12418997D01*
X62195206Y12362034D01*
X62102734Y12311544D01*
X62006897Y12267775D01*
X61908178Y12230956D01*
X61807088Y12201272D01*
X61704138Y12178875D01*
X61599850Y12163881D01*
X61494759Y12156366D01*
X61389397Y12156366D01*
X61284306Y12163881D01*
X61180019Y12178875D01*
X61077069Y12201272D01*
X60975978Y12230956D01*
X60877259Y12267775D01*
X60781422Y12311544D01*
X60688950Y12362034D01*
X60600316Y12418997D01*
X60515972Y12482138D01*
X60436347Y12551134D01*
X60361847Y12625634D01*
X60292850Y12705259D01*
X60229709Y12789603D01*
X60172747Y12878238D01*
X60122256Y12970709D01*
X60078488Y13066547D01*
X60041669Y13165266D01*
X60011984Y13266356D01*
X59989588Y13369306D01*
X59974594Y13473594D01*
X59967078Y13578684D01*
X59967078Y13684047D01*
X59974594Y13789138D01*
X59989588Y13893425D01*
X60011984Y13996375D01*
X60041669Y14097466D01*
X60078488Y14196184D01*
X60122256Y14292022D01*
X60172747Y14384494D01*
X60229709Y14473128D01*
X60292850Y14557472D01*
X60361847Y14637097D01*
X60436347Y14711597D01*
X60515972Y14780594D01*
X60600316Y14843734D01*
X60688950Y14900697D01*
X60781422Y14951188D01*
X60877259Y14994956D01*
X60975978Y15031775D01*
X61077069Y15061459D01*
X61180019Y15083856D01*
X61284306Y15098850D01*
X61389397Y15106366D01*
X61494759Y15106366D01*
X61599850Y15098850D01*
X61704138Y15083856D01*
X61807088Y15061459D01*
X61908178Y15031775D01*
X62006897Y14994956D01*
X62102734Y14951188D01*
X62195206Y14900697D01*
X62283841Y14843734D01*
X62368184Y14780594D01*
X62447809Y14711597D01*
X62522309Y14637097D01*
X62591306Y14557472D01*
X62654447Y14473128D01*
X62711409Y14384494D01*
X62761900Y14292022D01*
X62805669Y14196184D01*
X62842488Y14097466D01*
X62872172Y13996375D01*
X62894569Y13893425D01*
X62909563Y13789138D01*
X62917078Y13684047D01*
X62917078Y13578684D01*
M02*
