G04 EAGLE Gerber RS-274X export*
G75*
%MOMM*%
%FSLAX66Y66*%
%LPD*%
%INSoldermask Bottom*%
%IPPOS*%
%AMOC8*
5,1,8,0,0,1.08239X$1,22.5*%
G01*
%ADD10C,3.153200*%
%ADD11R,1.203200X1.303200*%
%ADD12R,1.303200X1.203200*%
%ADD13C,2.082800*%
%ADD14R,2.203200X1.703200*%
%ADD15R,2.203200X4.003200*%
%ADD16R,2.235200X2.235200*%
%ADD17C,2.235200*%
%ADD18C,2.387600*%
%ADD19R,1.603200X1.203200*%
%ADD20C,1.854200*%
%ADD21R,1.053200X1.103200*%
%ADD22R,1.103200X1.053200*%
%ADD23C,1.981200*%


D10*
X28183209Y80837659D03*
X61272759Y81091631D03*
X28437184Y13631369D03*
X61442078Y13631366D03*
D11*
X42586250Y65960156D03*
X42586250Y64260156D03*
X27940000Y38950000D03*
X27940000Y37250000D03*
X38692353Y29290859D03*
X38692353Y30990859D03*
X27940000Y32170000D03*
X27940000Y33870000D03*
D12*
X54425709Y58166278D03*
X56125709Y58166278D03*
D11*
X36236250Y65960156D03*
X36236250Y64260156D03*
X51268534Y73232581D03*
X51268534Y71532581D03*
D12*
X41490000Y33020000D03*
X39790000Y33020000D03*
X44870000Y33020000D03*
X46570000Y33020000D03*
D11*
X57632025Y73229334D03*
X57632025Y71529334D03*
D13*
X40301491Y20488681D03*
X40301491Y23028681D03*
X42841491Y20488681D03*
X42841491Y23028681D03*
X45381491Y20488681D03*
X45381491Y23028681D03*
D14*
X39691366Y69272144D03*
X39691366Y71572144D03*
X39691366Y73872144D03*
D15*
X45991366Y71572144D03*
D16*
X57150634Y64896481D03*
D17*
X57150634Y68396481D03*
D18*
X58081875Y35030000D03*
X58081875Y38530000D03*
D19*
X52069313Y42843906D03*
X49869313Y43793906D03*
X49869313Y41893906D03*
D11*
X51393116Y39711672D03*
X51393116Y38011672D03*
D12*
X44489000Y58166000D03*
X46189000Y58166000D03*
X30060000Y43180000D03*
X28360000Y43180000D03*
D11*
X31749366Y29375391D03*
X31749366Y31075391D03*
D12*
X55876834Y43436516D03*
X57576834Y43436516D03*
D11*
X49953672Y33101494D03*
X49953672Y34801494D03*
X34966959Y29968125D03*
X34966959Y31668125D03*
D12*
X36742538Y25140691D03*
X35042538Y25140691D03*
D11*
X33781288Y70869569D03*
X33781288Y69169569D03*
D13*
X59436788Y46736025D03*
X59436788Y49276025D03*
X59436788Y51816025D03*
X54610888Y46736025D03*
X54610888Y49276025D03*
X54610888Y51816025D03*
X47487534Y77213994D03*
X44947534Y77213994D03*
X42407534Y77213994D03*
X39867534Y77213994D03*
D20*
X45720000Y38777141D03*
X40640000Y38777141D03*
X33866581Y36744963D03*
X33866581Y41824963D03*
D12*
X56138831Y61485513D03*
X54438831Y61485513D03*
X54532163Y55194263D03*
X56232163Y55194263D03*
D21*
X35742000Y46355000D03*
X36902000Y46355000D03*
D11*
X33781619Y64258988D03*
X33781619Y65958988D03*
D22*
X31496000Y51363000D03*
X31496000Y52523000D03*
D11*
X28535147Y50746900D03*
X28535147Y52446900D03*
D23*
X54059884Y14741706D03*
X54059884Y21241706D03*
D11*
X31706897Y25995363D03*
X31706897Y24295363D03*
D21*
X50491000Y58166000D03*
X49331000Y58166000D03*
X50491000Y55245000D03*
X49331000Y55245000D03*
D11*
X51980141Y65190234D03*
X51980141Y63490234D03*
D18*
X58160184Y27153103D03*
X58160184Y30653103D03*
D19*
X52572184Y24550881D03*
X50372184Y25500881D03*
X50372184Y23600881D03*
D11*
X50202309Y30565028D03*
X50202309Y28865028D03*
D12*
X46304616Y65102156D03*
X48004616Y65102156D03*
M02*
