G04 EAGLE Gerber RS-274X export*
G75*
%MOMM*%
%FSLAX66Y66*%
%LPD*%
%INSolderpaste Top*%
%IPPOS*%
%AMOC8*
5,1,8,0,0,1.08239X$1,22.5*%
G01*
%ADD10C,0.300000*%
%ADD11R,0.200000X1.000000*%
%ADD12R,1.000000X0.200000*%
%ADD13R,0.350000X1.400000*%
%ADD14R,1.800000X1.900000*%
%ADD15R,1.900000X1.900000*%
%ADD16R,0.790000X0.260000*%
%ADD17R,0.260000X0.790000*%
%ADD18R,0.700000X1.100000*%


D10*
X30891541Y64666672D02*
X31591541Y64666672D01*
X31591541Y63966672D01*
X30891541Y63966672D01*
X30891541Y64666672D01*
X30891541Y64251672D02*
X31591541Y64251672D01*
X31591541Y64536672D02*
X30891541Y64536672D01*
X30891541Y66420672D02*
X31591541Y66420672D01*
X31591541Y65720672D01*
X30891541Y65720672D01*
X30891541Y66420672D01*
X30891541Y66005672D02*
X31591541Y66005672D01*
X31591541Y66290672D02*
X30891541Y66290672D01*
X31853838Y47678250D02*
X31853838Y46978250D01*
X31853838Y47678250D02*
X32553838Y47678250D01*
X32553838Y46978250D01*
X31853838Y46978250D01*
X31853838Y47263250D02*
X32553838Y47263250D01*
X32553838Y47548250D02*
X31853838Y47548250D01*
X30099838Y47678250D02*
X30099838Y46978250D01*
X30099838Y47678250D02*
X30799838Y47678250D01*
X30799838Y46978250D01*
X30099838Y46978250D01*
X30099838Y47263250D02*
X30799838Y47263250D01*
X30799838Y47548250D02*
X30099838Y47548250D01*
D11*
X40430000Y46300000D03*
X40930000Y46300000D03*
X41430000Y46300000D03*
X41930000Y46300000D03*
X42430000Y46300000D03*
X42930000Y46300000D03*
X43430000Y46300000D03*
X43930000Y46300000D03*
X44430000Y46300000D03*
X44930000Y46300000D03*
X45430000Y46300000D03*
X45930000Y46300000D03*
D12*
X47680000Y48050000D03*
X47680000Y48550000D03*
X47680000Y49050000D03*
X47680000Y49550000D03*
X47680000Y50050000D03*
X47680000Y50550000D03*
X47680000Y51050000D03*
X47680000Y51550000D03*
X47680000Y52050000D03*
X47680000Y52550000D03*
X47680000Y53050000D03*
X47680000Y53550000D03*
D11*
X45930000Y55300000D03*
X45430000Y55300000D03*
X44930000Y55300000D03*
X44430000Y55300000D03*
X43930000Y55300000D03*
X43430000Y55300000D03*
X42930000Y55300000D03*
X42430000Y55300000D03*
X41930000Y55300000D03*
X41430000Y55300000D03*
X40930000Y55300000D03*
X40430000Y55300000D03*
D12*
X38680000Y53550000D03*
X38680000Y53050000D03*
X38680000Y52550000D03*
X38680000Y52050000D03*
X38680000Y51550000D03*
X38680000Y51050000D03*
X38680000Y50550000D03*
X38680000Y50050000D03*
X38680000Y49550000D03*
X38680000Y49050000D03*
X38680000Y48550000D03*
X38680000Y48050000D03*
D13*
X34683038Y17297391D03*
X37283038Y17297391D03*
X35333038Y17297391D03*
X35983038Y17297391D03*
X36633038Y17297391D03*
D14*
X31983038Y14647391D03*
X39983038Y14647391D03*
D15*
X34713038Y14647391D03*
X37253038Y14647391D03*
D16*
X29102428Y59712316D03*
X29102428Y59212316D03*
X29102428Y58712316D03*
X29102428Y58212316D03*
X29102428Y57712316D03*
X29102428Y57212316D03*
D17*
X29822428Y56492316D03*
X30322428Y56492316D03*
X30822428Y56492316D03*
X31322428Y56492316D03*
X31822428Y56492316D03*
X32322428Y56492316D03*
D16*
X33042428Y57212316D03*
X33042428Y57712316D03*
X33042428Y58212316D03*
X33042428Y58712316D03*
X33042428Y59212316D03*
X33042428Y59712316D03*
D17*
X32322428Y60432316D03*
X31822428Y60432316D03*
X31322428Y60432316D03*
X30822428Y60432316D03*
X30322428Y60432316D03*
X29822428Y60432316D03*
D18*
X41801659Y26486088D03*
X41801659Y29986088D03*
X46251659Y29986088D03*
X46251659Y26486088D03*
M02*
