M48
;GenerationSoftware,Autodesk,EAGLE,9.2.2*%
;CreationDate,2019-02-19T06:01:45Z*%
FMAT,2
ICI,OFF
METRIC,TZ,000.000
T6C0.350
T5C0.700
T4C1.000
T3C1.016
T2C1.200
T1C2.950
%
G90
M71
T1
X25400Y77470
X76200Y77470
X76200Y7620
X25400Y7620
T2
X73350Y52070
X69850Y52070
T3
X73660Y45720
X73660Y43180
X73660Y40640
X73660Y71120
X73660Y68580
X73660Y66040
X52070Y72390
X49530Y72390
X46990Y72390
X44450Y72390
X50800Y16510
X50800Y13970
X48260Y16510
X48260Y13970
X45720Y16510
X45720Y13970
T4
X29640Y24130
X26140Y24130
X26240Y13970
X29740Y13970
T5
X45720Y25400
X50800Y25400
X27940Y40640
X27940Y35560
T6
X54927Y55880
X35878Y52864
X48895Y40958
X58420Y42386
X59690Y12771
X56861Y12700
X49847Y40958
X57626Y37148
X40640Y19050
X63500Y20320
X33020Y42069
X46672Y37783
X47942Y33814
X32385Y60960
X50800Y53975
X62230Y26987
X52546Y58579
X54610Y39370
X54610Y41779
X54610Y50800
X73660Y73660
X54610Y38100
X41434Y33814
X58102Y25241
X44767Y33814
X63976Y28892
X71120Y20320
X38100Y19209
X56674Y17780
X36671Y52229
X67310Y7620
X33179Y53499
X67310Y25400
X62230Y12700
X67310Y60960
X69850Y57150
X72390Y63500
X48736Y52229
X57785Y13970
X56356Y53499
X63182Y52070
X61595Y52705
X36830Y62230
X60325Y27146
X42069Y34608
X58420Y40323
X55404Y40164
X51117Y28416
X56356Y33496
X58420Y16510
X58896Y21114
X63024Y25241
X40640Y16510
X59055Y57309
X60801Y33179
X37465Y18415
X45085Y40640
X57467Y29051
X44132Y35878
X49689Y36036
X36195Y60960
X42228Y58579
X26511Y35401
M30