M48
;GenerationSoftware,Autodesk,EAGLE,9.3.1*%
;CreationDate,2019-03-07T09:35:06Z*%
FMAT,2
ICI,OFF
METRIC,TZ,000.000
T7C0.350
T6C0.700
T5C0.900
T4C1.000
T3C1.016
T2C1.200
T1C2.950
%
G90
M71
T1
X28183Y80838
X61273Y81092
X28437Y13631
X61442Y13631
T2
X57151Y64896
X57151Y68396
T3
X59437Y49276
X39868Y77214
X42408Y77214
X44948Y77214
X47488Y77214
X54611Y51816
X54611Y49276
X54611Y46736
X59437Y51816
X59437Y46736
X45381Y23029
X45381Y20489
X42841Y23029
X42841Y20489
X40301Y23029
X40301Y20489
T4
X58082Y38530
X58082Y35030
X58160Y27153
X58160Y30653
T5
X54060Y14742
X54060Y21242
T6
X45720Y38777
X40640Y38777
X33867Y36745
X33867Y41825
T7
X28651Y54458
X44907Y64821
X37592Y56490
X53238Y64414
X53238Y54458
X40640Y51003
X35726Y55536
X45432Y51410
X31902Y58928
X34544Y56286
X31699Y61570
X33697Y54491
X30683Y57709
X32918Y23978
X31902Y57709
X51613Y52019
X47752Y46939
X42062Y62382
X38811Y54458
X41656Y59334
X46736Y54458
X41906Y43768
X37998Y44704
X40843Y47549
X42922Y44954
X45720Y31902
X42469Y47549
X42875Y33122
X41930Y57543
X42329Y52657
X37673Y42160
X31902Y28042
X46126Y56896
X48768Y47549
X43938Y32001
X43430Y42583
X39827Y29261
X36170Y28854
X40975Y44361
X38012Y46477
X29058Y45923
X33731Y67869
X33078Y61570
X31822Y54952
X40030Y49987
X35726Y57906
M30